%FSDAX23Y23*%
%MOIN*%
%SFA1B1*%

%IPPOS*%
%ADD65C,0.002000*%
%LNde-020717-1*%
%LPD*%
G54D65*
X02578Y03496D02*
X02614D01*
X02596Y03478D02*
Y03514D01*
X02508Y03567D02*
X02543D01*
X02525Y03549D02*
Y03584D01*
X02508Y03425D02*
X02543D01*
X02525Y03408D02*
Y03443D01*
X02437Y03496D02*
X02472D01*
X02455Y03478D02*
Y03514D01*
X02437Y03355D02*
X02472D01*
X02455Y03337D02*
Y03372D01*
X02366Y03425D02*
X02402D01*
X02384Y03408D02*
Y03443D01*
X02366Y03284D02*
X02402D01*
X02384Y03266D02*
Y03302D01*
X02295Y03355D02*
X02331D01*
X02313Y03337D02*
Y03372D01*
X02295Y03213D02*
X02331D01*
X02313Y03195D02*
Y03231D01*
X02225Y03284D02*
X02260D01*
X02242Y03266D02*
Y03302D01*
X03415Y03730D02*
X03442D01*
X03429Y03716D02*
Y03743D01*
X03537Y03730D02*
X03564D01*
X03551Y03716D02*
Y03743D01*
X03257Y03830D02*
X03292D01*
X03275Y03812D02*
Y03847D01*
X03157Y03830D02*
X03192D01*
X03175Y03812D02*
Y03847D01*
X03742Y02325D02*
X03777D01*
X03760Y02307D02*
Y02342D01*
X03742Y02225D02*
X03777D01*
X03760Y02207D02*
Y02242D01*
X03742Y02125D02*
X03777D01*
X03760Y02107D02*
Y02142D01*
X03742Y02025D02*
X03777D01*
X03760Y02007D02*
Y02042D01*
X03742Y01925D02*
X03777D01*
X03760Y01907D02*
Y01942D01*
X03742Y01825D02*
X03777D01*
X03760Y01807D02*
Y01842D01*
X03742Y01725D02*
X03777D01*
X03760Y01707D02*
Y01742D01*
X03742Y01625D02*
X03777D01*
X03760Y01607D02*
Y01642D01*
X02739Y02321D02*
X02774D01*
X02757Y02303D02*
Y02338D01*
X02739Y02221D02*
X02774D01*
X02757Y02203D02*
Y02238D01*
X02739Y02121D02*
X02774D01*
X02757Y02103D02*
Y02138D01*
X02739Y02021D02*
X02774D01*
X02757Y02003D02*
Y02038D01*
X02739Y01921D02*
X02774D01*
X02757Y01903D02*
Y01938D01*
X02739Y01821D02*
X02774D01*
X02757Y01803D02*
Y01838D01*
X02739Y01721D02*
X02774D01*
X02757Y01703D02*
Y01738D01*
X02739Y01621D02*
X02774D01*
X02757Y01603D02*
Y01638D01*
X04288Y02855D02*
X04331D01*
X04310Y02833D02*
Y02876D01*
X04288Y02755D02*
X04331D01*
X04310Y02733D02*
Y02776D01*
X04288Y02655D02*
X04331D01*
X04310Y02633D02*
Y02676D01*
X03961Y03595D02*
X03997D01*
X03979Y03578D02*
Y03613D01*
X04032Y03525D02*
X04067D01*
X04050Y03507D02*
Y03542D01*
X04193Y03364D02*
X04228D01*
X04210Y03346D02*
Y03382D01*
X04122Y03435D02*
X04157D01*
X04140Y03417D02*
Y03452D01*
X03975Y02911D02*
X04010D01*
X03993Y02893D02*
Y02928D01*
X04075Y02911D02*
X04110D01*
X04093Y02893D02*
Y02928D01*
X03975Y02811D02*
X04010D01*
X03993Y02793D02*
Y02828D01*
X04075Y02811D02*
X04110D01*
X04093Y02793D02*
Y02828D01*
X03975Y02711D02*
X04010D01*
X03993Y02693D02*
Y02728D01*
X04075Y02711D02*
X04110D01*
X04093Y02693D02*
Y02728D01*
X03975Y02611D02*
X04010D01*
X03993Y02593D02*
Y02628D01*
X04075Y02611D02*
X04110D01*
X04093Y02593D02*
Y02628D01*
X02225Y02795D02*
X02235D01*
X02230Y02790D02*
Y02800D01*
X02225Y02850D02*
X02235D01*
X02230Y02845D02*
Y02855D01*
X02385Y02735D02*
X02395D01*
X02390Y02730D02*
Y02740D01*
X02490Y02840D02*
X02500D01*
X02495Y02835D02*
Y02845D01*
X02525Y02860D02*
X02535D01*
X02530Y02855D02*
Y02865D01*
X02543Y02788D02*
X02553D01*
X02548Y02783D02*
Y02793D01*
X02260Y03026D02*
X02270D01*
X02265Y03021D02*
Y03031D01*
X02263Y02989D02*
X02273D01*
X02268Y02984D02*
Y02994D01*
X02306Y03032D02*
X02316D01*
X02311Y03027D02*
Y03037D01*
X02510Y02740D02*
X02520D01*
X02515Y02735D02*
Y02745D01*
X02246Y02213D02*
X02256D01*
X02251Y02208D02*
Y02218D01*
X02289Y02213D02*
X02299D01*
X02294Y02208D02*
Y02218D01*
X02246Y02256D02*
X02256D01*
X02251Y02251D02*
Y02261D01*
X02289Y02256D02*
X02299D01*
X02294Y02251D02*
Y02261D01*
X04078Y03030D02*
X04088D01*
X04083Y03025D02*
Y03035D01*
X03800Y03145D02*
X03810D01*
X03805Y03140D02*
Y03150D01*
X03812Y02378D02*
X03822D01*
X03817Y02373D02*
Y02383D01*
X03812Y02266D02*
X03822D01*
X03817Y02261D02*
Y02271D01*
X02701Y02272D02*
X02711D01*
X02706Y02267D02*
Y02277D01*
X03706Y03720D02*
X03716D01*
X03711Y03715D02*
Y03725D01*
X03921Y03492D02*
X03931D01*
X03926Y03487D02*
Y03497D01*
X03865Y03537D02*
X03875D01*
X03870Y03532D02*
Y03542D01*
X03539Y03245D02*
X03549D01*
X03544Y03240D02*
Y03250D01*
X03566Y03219D02*
X03576D01*
X03571Y03214D02*
Y03224D01*
X03460Y03258D02*
X03470D01*
X03465Y03253D02*
Y03263D01*
X03419Y03288D02*
X03429D01*
X03424Y03283D02*
Y03293D01*
X03569Y02287D02*
X03579D01*
X03574Y02282D02*
Y02292D01*
X03406Y03095D02*
X03416D01*
X03411Y03090D02*
Y03100D01*
X02845Y03510D02*
X02855D01*
X02850Y03505D02*
Y03515D01*
X03520Y03185D02*
X03530D01*
X03525Y03180D02*
Y03190D01*
X03215Y02865D02*
X03225D01*
X03220Y02860D02*
Y02870D01*
X03563Y03417D02*
X03573D01*
X03568Y03412D02*
Y03422D01*
X03325Y02865D02*
X03335D01*
X03330Y02860D02*
Y02870D01*
X02967Y01569D02*
X02977D01*
X02972Y01564D02*
Y01574D01*
X02967Y01963D02*
X02977D01*
X02972Y01958D02*
Y01968D01*
X02920Y02275D02*
X02930D01*
X02925Y02270D02*
Y02280D01*
X02965Y02080D02*
X02975D01*
X02970Y02075D02*
Y02085D01*
X02918Y01980D02*
X02928D01*
X02923Y01975D02*
Y01985D01*
X02918Y02125D02*
X02928D01*
X02923Y02120D02*
Y02130D01*
X03558Y02609D02*
X03568D01*
X03563Y02604D02*
Y02614D01*
X03390Y01915D02*
X03400D01*
X03395Y01910D02*
Y01920D01*
X03705Y02795D02*
X03715D01*
X03710Y02790D02*
Y02800D01*
X03510Y02270D02*
X03520D01*
X03515Y02265D02*
Y02275D01*
X03775Y02865D02*
X03785D01*
X03780Y02860D02*
Y02870D01*
X03521Y02021D02*
X03531D01*
X03526Y02016D02*
Y02026D01*
X03484Y02607D02*
X03494D01*
X03489Y02602D02*
Y02612D01*
X03566Y02655D02*
X03576D01*
X03571Y02650D02*
Y02660D01*
X03619Y01469D02*
X03629D01*
X03624Y01464D02*
Y01474D01*
X03551Y01470D02*
X03561D01*
X03556Y01465D02*
Y01475D01*
X03022Y02423D02*
X03032D01*
X03027Y02418D02*
Y02428D01*
X03299Y01806D02*
X03309D01*
X03304Y01801D02*
Y01811D01*
X03346Y01825D02*
X03356D01*
X03351Y01820D02*
Y01830D01*
X03390Y01844D02*
X03400D01*
X03395Y01839D02*
Y01849D01*
X03381Y02003D02*
X03391D01*
X03386Y01998D02*
Y02008D01*
X03473Y02526D02*
X03483D01*
X03478Y02521D02*
Y02531D01*
X03410Y02779D02*
X03420D01*
X03415Y02774D02*
Y02784D01*
X03442Y02744D02*
X03452D01*
X03447Y02739D02*
Y02749D01*
X03122Y01701D02*
X03132D01*
X03127Y01696D02*
Y01706D01*
X03360Y01752D02*
X03370D01*
X03365Y01747D02*
Y01757D01*
X03360Y01700D02*
X03370D01*
X03365Y01695D02*
Y01705D01*
X03360Y01651D02*
X03370D01*
X03365Y01646D02*
Y01656D01*
X03360Y01599D02*
X03370D01*
X03365Y01594D02*
Y01604D01*
X03360Y01550D02*
X03370D01*
X03365Y01545D02*
Y01555D01*
X03360Y01501D02*
X03370D01*
X03365Y01496D02*
Y01506D01*
X03360Y01450D02*
X03370D01*
X03365Y01445D02*
Y01455D01*
X03360Y01400D02*
X03370D01*
X03365Y01395D02*
Y01405D01*
X03122Y01401D02*
X03132D01*
X03127Y01396D02*
Y01406D01*
X03122Y01451D02*
X03132D01*
X03127Y01446D02*
Y01456D01*
X03122Y01501D02*
X03132D01*
X03127Y01496D02*
Y01506D01*
X03122Y01551D02*
X03132D01*
X03127Y01546D02*
Y01556D01*
X03122Y01601D02*
X03132D01*
X03127Y01596D02*
Y01606D01*
X03122Y01651D02*
X03132D01*
X03127Y01646D02*
Y01656D01*
X03190Y02354D02*
X03200D01*
X03195Y02349D02*
Y02359D01*
X03105Y02972D02*
X03115D01*
X03110Y02967D02*
Y02977D01*
X03405Y01400D02*
X03415D01*
X03410Y01395D02*
Y01405D01*
X03551Y01584D02*
X03561D01*
X03556Y01579D02*
Y01589D01*
X03551Y01687D02*
X03561D01*
X03556Y01682D02*
Y01692D01*
X03550Y01950D02*
X03560D01*
X03555Y01945D02*
Y01955D01*
X03550Y02067D02*
X03560D01*
X03555Y02062D02*
Y02072D01*
X03619Y01582D02*
X03629D01*
X03624Y01577D02*
Y01587D01*
X03265Y02865D02*
X03275D01*
X03270Y02860D02*
Y02870D01*
X02686Y03196D02*
X02696D01*
X02691Y03191D02*
Y03201D01*
X03645Y03145D02*
X03655D01*
X03650Y03140D02*
Y03150D01*
X03710Y03010D02*
X03720D01*
X03715Y03005D02*
Y03015D01*
X03255Y02475D02*
X03265D01*
X03260Y02470D02*
Y02480D01*
Y02555D02*
X03270D01*
X03265Y02550D02*
Y02560D01*
X03070Y02695D02*
X03080D01*
X03075Y02690D02*
Y02700D01*
X03010Y02605D02*
X03020D01*
X03015Y02600D02*
Y02610D01*
X03230Y02580D02*
X03240D01*
X03235Y02575D02*
Y02585D01*
X02870Y03185D02*
X02880D01*
X02875Y03180D02*
Y03190D01*
X03015Y03330D02*
X03025D01*
X03020Y03325D02*
Y03335D01*
X03065Y03375D02*
X03075D01*
X03070Y03370D02*
Y03380D01*
X03145Y03455D02*
X03155D01*
X03150Y03450D02*
Y03460D01*
X03225Y03545D02*
X03235D01*
X03230Y03540D02*
Y03550D01*
X03225Y03500D02*
X03235D01*
X03230Y03495D02*
Y03505D01*
X03025Y03545D02*
X03035D01*
X03030Y03540D02*
Y03550D01*
X03515Y02808D02*
X03525D01*
X03520Y02803D02*
Y02813D01*
X03555Y02845D02*
X03565D01*
X03560Y02840D02*
Y02850D01*
X03375Y03330D02*
X03385D01*
X03380Y03325D02*
Y03335D01*
X03050Y02780D02*
X03060D01*
X03055Y02775D02*
Y02785D01*
X03230Y01975D02*
X03240D01*
X03235Y01970D02*
Y01980D01*
X03230Y01930D02*
X03240D01*
X03235Y01925D02*
Y01935D01*
X03345Y01985D02*
X03355D01*
X03350Y01980D02*
Y01990D01*
X03380Y02060D02*
X03390D01*
X03385Y02055D02*
Y02065D01*
X03520Y02155D02*
X03530D01*
X03525Y02150D02*
Y02160D01*
X03195Y01800D02*
X03205D01*
X03200Y01795D02*
Y01805D01*
X02725Y02455D02*
X02735D01*
X02730Y02450D02*
Y02460D01*
X02830Y02583D02*
X02840D01*
X02835Y02578D02*
Y02588D01*
X03015Y02460D02*
X03025D01*
X03020Y02455D02*
Y02465D01*
X02989Y02500D02*
X02999D01*
X02994Y02495D02*
Y02505D01*
X02956Y02474D02*
X02966D01*
X02961Y02469D02*
Y02479D01*
X02927Y02533D02*
X02937D01*
X02932Y02528D02*
Y02538D01*
X02930Y02600D02*
X02940D01*
X02935Y02595D02*
Y02605D01*
X03230Y01885D02*
X03240D01*
X03235Y01880D02*
Y01890D01*
X02883Y02524D02*
X02893D01*
X02888Y02519D02*
Y02529D01*
X02930Y02645D02*
X02940D01*
X02935Y02640D02*
Y02650D01*
X03230Y01845D02*
X03240D01*
X03235Y01840D02*
Y01850D01*
X03374Y02726D02*
X03384D01*
X03379Y02721D02*
Y02731D01*
X03380Y02681D02*
X03390D01*
X03385Y02676D02*
Y02686D01*
X03641Y03306D02*
X03651D01*
X03646Y03301D02*
Y03311D01*
X03651Y02739D02*
X03661D01*
X03656Y02734D02*
Y02744D01*
X03655Y01715D02*
X03665D01*
X03660Y01710D02*
Y01720D01*
X03655Y01810D02*
X03665D01*
X03660Y01805D02*
Y01815D01*
X03655Y01850D02*
X03665D01*
X03660Y01845D02*
Y01855D01*
X03720Y01875D02*
X03730D01*
X03725Y01870D02*
Y01880D01*
X03595Y03380D02*
X03605D01*
X03600Y03375D02*
Y03385D01*
X03605Y03420D02*
X03615D01*
X03610Y03415D02*
Y03425D01*
X03225Y03455D02*
X03235D01*
X03230Y03450D02*
Y03460D01*
X03510Y01825D02*
X03520D01*
X03515Y01820D02*
Y01830D01*
X02965Y01920D02*
X02975D01*
X02970Y01915D02*
Y01925D01*
X03555Y03605D02*
X03565D01*
X03560Y03600D02*
Y03610D01*
X03520Y03625D02*
X03530D01*
X03525Y03620D02*
Y03630D01*
X02516Y03197D02*
X02526D01*
X02521Y03192D02*
Y03202D01*
X02455Y03135D02*
X02465D01*
X02460Y03130D02*
Y03140D01*
X02620Y03130D02*
X02630D01*
X02625Y03125D02*
Y03135D01*
X02653Y03163D02*
X02663D01*
X02658Y03158D02*
Y03168D01*
X02486Y03166D02*
X02496D01*
X02491Y03161D02*
Y03171D01*
X02551Y03229D02*
X02561D01*
X02556Y03224D02*
Y03234D01*
X02719Y03229D02*
X02729D01*
X02724Y03224D02*
Y03234D01*
X02610Y03285D02*
X02620D01*
X02615Y03280D02*
Y03290D01*
X02770Y03285D02*
X02780D01*
X02775Y03280D02*
Y03290D01*
X02165Y02620D02*
X02175D01*
X02170Y02615D02*
Y02625D01*
X02135Y02650D02*
X02145D01*
X02140Y02645D02*
Y02655D01*
X02095Y02695D02*
X02105D01*
X02100Y02690D02*
Y02700D01*
X02060Y02665D02*
X02070D01*
X02065Y02660D02*
Y02670D01*
X02420Y03095D02*
X02430D01*
X02425Y03090D02*
Y03100D01*
X02625Y03080D02*
X02635D01*
X02630Y03075D02*
Y03085D01*
X02195Y02590D02*
X02205D01*
X02200Y02585D02*
Y02595D01*
X02060Y02620D02*
X02070D01*
X02065Y02615D02*
Y02625D01*
X02055Y02445D02*
X02065D01*
X02060Y02440D02*
Y02450D01*
X02225Y02560D02*
X02235D01*
X02230Y02555D02*
Y02565D01*
X02225Y02520D02*
X02235D01*
X02230Y02515D02*
Y02525D01*
X02225Y02480D02*
X02235D01*
X02230Y02475D02*
Y02485D01*
X02918Y01587D02*
X02928D01*
X02923Y01582D02*
Y01592D01*
X02918Y01480D02*
X02928D01*
X02923Y01475D02*
Y01485D01*
X02967Y01686D02*
X02977D01*
X02972Y01681D02*
Y01691D01*
X02850Y01480D02*
X02860D01*
X02855Y01475D02*
Y01485D01*
X02850Y01705D02*
X02860D01*
X02855Y01700D02*
Y01710D01*
X02850Y01835D02*
X02860D01*
X02855Y01830D02*
Y01840D01*
X02850Y01965D02*
X02860D01*
X02855Y01960D02*
Y01970D01*
X03735Y03245D02*
X03745D01*
X03740Y03240D02*
Y03250D01*
X03775Y03245D02*
X03785D01*
X03780Y03240D02*
Y03250D01*
X03665Y03365D02*
X03675D01*
X03670Y03360D02*
Y03370D01*
X03800Y03215D02*
X03810D01*
X03805Y03210D02*
Y03220D01*
X03775Y03180D02*
X03785D01*
X03780Y03175D02*
Y03185D01*
X03635Y03390D02*
X03645D01*
X03640Y03385D02*
Y03395D01*
X04375Y03065D02*
X04385D01*
X04380Y03060D02*
Y03070D01*
X04230Y03230D02*
X04240D01*
X04235Y03225D02*
Y03235D01*
X02800Y03440D02*
X02810D01*
X02805Y03435D02*
Y03445D01*
X03525Y03080D02*
X03535D01*
X03530Y03075D02*
Y03085D01*
X03060Y03325D02*
X03070D01*
X03065Y03320D02*
Y03330D01*
X02890Y03445D02*
X02900D01*
X02895Y03440D02*
Y03450D01*
X03746Y02837D02*
X03756D01*
X03751Y02832D02*
Y02842D01*
X03516Y02933D02*
X03526D01*
X03521Y02928D02*
Y02938D01*
X03790Y02925D02*
X03800D01*
X03795Y02920D02*
Y02930D01*
X03374Y02097D02*
X03384D01*
X03379Y02092D02*
Y02102D01*
X03022Y02276D02*
X03032D01*
X03027Y02271D02*
Y02281D01*
X04089Y02476D02*
X04099D01*
X04094Y02471D02*
Y02481D01*
X04424Y02498D02*
X04434D01*
X04429Y02493D02*
Y02503D01*
X04321Y02078D02*
X04331D01*
X04326Y02073D02*
Y02083D01*
X04196Y02107D02*
X04206D01*
X04201Y02102D02*
Y02112D01*
X04388Y02210D02*
X04398D01*
X04393Y02205D02*
Y02215D01*
X03815Y01777D02*
X03825D01*
X03820Y01772D02*
Y01782D01*
X03927Y02304D02*
X03937D01*
X03932Y02299D02*
Y02309D01*
X03121Y03058D02*
X03131D01*
X03126Y03053D02*
Y03063D01*
X03009Y03125D02*
X03019D01*
X03014Y03120D02*
Y03130D01*
X02975Y03092D02*
X02985D01*
X02980Y03087D02*
Y03097D01*
X02942Y03060D02*
X02952D01*
X02947Y03055D02*
Y03065D01*
X02425Y02140D02*
X02435D01*
X02430Y02135D02*
Y02145D01*
X02425Y02025D02*
X02435D01*
X02430Y02020D02*
Y02030D01*
X03115Y03380D02*
X03125D01*
X03120Y03375D02*
Y03385D01*
X02940Y03220D02*
X02950D01*
X02945Y03215D02*
Y03225D01*
X03575Y03165D02*
X03585D01*
X03580Y03160D02*
Y03170D01*
X03865Y02660D02*
X03875D01*
X03870Y02655D02*
Y02665D01*
X02800Y03315D02*
X02810D01*
X02805Y03310D02*
Y03320D01*
X02790Y03510D02*
X02800D01*
X02795Y03505D02*
Y03515D01*
X02863Y03584D02*
X02873D01*
X02868Y03579D02*
Y03589D01*
X02790Y03595D02*
X02800D01*
X02795Y03590D02*
Y03600D01*
X02650Y03650D02*
X02660D01*
X02655Y03645D02*
Y03655D01*
X02790Y03650D02*
X02800D01*
X02795Y03645D02*
Y03655D01*
X02720Y03650D02*
X02730D01*
X02725Y03645D02*
Y03655D01*
X03490Y02565D02*
X03500D01*
X03495Y02560D02*
Y02570D01*
X03082Y03034D02*
X03092D01*
X03087Y03029D02*
Y03039D01*
X03105Y03115D02*
X03115D01*
X03110Y03110D02*
Y03120D01*
X03100Y03210D02*
X03110D01*
X03105Y03205D02*
Y03215D01*
X03155Y03210D02*
X03165D01*
X03160Y03205D02*
Y03215D01*
X03150Y03355D02*
X03160D01*
X03155Y03350D02*
Y03360D01*
X03200Y03355D02*
X03210D01*
X03205Y03350D02*
Y03360D01*
X03045Y03640D02*
X03055D01*
X03050Y03635D02*
Y03645D01*
X02925Y03510D02*
X02935D01*
X02930Y03505D02*
Y03515D01*
X02985Y03545D02*
X02995D01*
X02990Y03540D02*
Y03550D01*
X03170Y03765D02*
X03180D01*
X03175Y03760D02*
Y03770D01*
X03125Y03640D02*
X03135D01*
X03130Y03635D02*
Y03645D01*
X03265D02*
X03275D01*
X03270Y03640D02*
Y03650D01*
X02618Y02751D02*
X02628D01*
X02623Y02746D02*
Y02756D01*
X02528Y02660D02*
X02538D01*
X02533Y02655D02*
Y02665D01*
X02565Y02660D02*
X02575D01*
X02570Y02655D02*
Y02665D01*
X02800Y01680D02*
X02810D01*
X02805Y01675D02*
Y01685D01*
X02780Y01770D02*
X02790D01*
X02785Y01765D02*
Y01775D01*
X03515Y01480D02*
X03525D01*
X03520Y01475D02*
Y01485D01*
X02970Y01480D02*
X02980D01*
X02975Y01475D02*
Y01485D01*
X03080Y01400D02*
X03090D01*
X03085Y01395D02*
Y01405D01*
X04160Y01905D02*
X04170D01*
X04165Y01900D02*
Y01910D01*
X03850Y01615D02*
X03860D01*
X03855Y01610D02*
Y01620D01*
X03890Y01615D02*
X03900D01*
X03895Y01610D02*
Y01620D01*
X02735Y02811D02*
X02745D01*
X02740Y02806D02*
Y02816D01*
X02420Y01955D02*
X02430D01*
X02425Y01950D02*
Y01960D01*
X03620Y03115D02*
X03630D01*
X03625Y03110D02*
Y03120D01*
X03555Y03110D02*
X03565D01*
X03560Y03105D02*
Y03115D01*
X03957Y02657D02*
X03967D01*
X03962Y02652D02*
Y02662D01*
X03877Y02782D02*
X03887D01*
X03882Y02777D02*
Y02787D01*
X03792Y02691D02*
X03802D01*
X03797Y02686D02*
Y02696D01*
X03818Y02719D02*
X03828D01*
X03823Y02714D02*
Y02724D01*
X03358Y03436D02*
X03368D01*
X03363Y03431D02*
Y03441D01*
X04020Y02760D02*
X04030D01*
X04025Y02755D02*
Y02765D01*
X04124Y02761D02*
X04134D01*
X04129Y02756D02*
Y02766D01*
X03239Y01428D02*
X03249D01*
X03244Y01423D02*
Y01433D01*
X03241Y01576D02*
X03251D01*
X03246Y01571D02*
Y01581D01*
X03240Y01728D02*
X03250D01*
X03245Y01723D02*
Y01733D01*
X02368Y01816D02*
X02378D01*
X02373Y01811D02*
Y01821D01*
X02534Y01768D02*
X02544D01*
X02539Y01763D02*
Y01773D01*
X02533Y02319D02*
X02543D01*
X02538Y02314D02*
Y02324D01*
X02533Y02466D02*
X02543D01*
X02538Y02461D02*
Y02471D01*
X02857Y02276D02*
X02867D01*
X02862Y02271D02*
Y02281D01*
X04001Y02120D02*
X04011D01*
X04006Y02115D02*
Y02125D01*
X04099Y01903D02*
X04109D01*
X04104Y01898D02*
Y01908D01*
X04017Y02046D02*
X04027D01*
X04022Y02041D02*
Y02051D01*
X03913Y02357D02*
X03923D01*
X03918Y02352D02*
Y02362D01*
X03152Y02380D02*
X03162D01*
X03157Y02375D02*
Y02385D01*
X03130Y02417D02*
X03140D01*
X03135Y02412D02*
Y02422D01*
X03169Y02416D02*
X03179D01*
X03174Y02411D02*
Y02421D01*
X03209Y02415D02*
X03219D01*
X03214Y02410D02*
Y02420D01*
X03241Y02439D02*
X03251D01*
X03246Y02434D02*
Y02444D01*
X03235Y02741D02*
X03245D01*
X03240Y02736D02*
Y02746D01*
X04092Y03132D02*
X04102D01*
X04097Y03127D02*
Y03137D01*
X04007Y03246D02*
X04017D01*
X04012Y03241D02*
Y03251D01*
X03800Y03708D02*
X03810D01*
X03805Y03703D02*
Y03713D01*
X03981Y01834D02*
X03991D01*
X03986Y01829D02*
Y01839D01*
X03157Y02816D02*
X03167D01*
X03162Y02811D02*
Y02821D01*
X03428Y02850D02*
X03438D01*
X03433Y02845D02*
Y02855D01*
X04079Y03184D02*
X04089D01*
X04084Y03179D02*
Y03189D01*
X03561Y02345D02*
X03571D01*
X03566Y02340D02*
Y02350D01*
X03865Y02379D02*
X03875D01*
X03870Y02374D02*
Y02384D01*
X03326Y03401D02*
X03336D01*
X03331Y03396D02*
Y03406D01*
X04015Y02401D02*
X04025D01*
X04020Y02396D02*
Y02406D01*
X04228Y02530D02*
X04238D01*
X04233Y02525D02*
Y02535D01*
X03324Y03194D02*
X03334D01*
X03329Y03189D02*
Y03199D01*
X03283Y03349D02*
X03293D01*
X03288Y03344D02*
Y03354D01*
X02226Y02631D02*
X02236D01*
X02231Y02626D02*
Y02636D01*
X02228Y02683D02*
X02238D01*
X02233Y02678D02*
Y02688D01*
X02486Y02659D02*
X02496D01*
X02491Y02654D02*
Y02664D01*
X02397Y02852D02*
X02407D01*
X02402Y02847D02*
Y02857D01*
X03037Y02846D02*
X03047D01*
X03042Y02841D02*
Y02851D01*
X02821Y02765D02*
X02831D01*
X02826Y02760D02*
Y02770D01*
X03177Y02929D02*
X03187D01*
X03182Y02924D02*
Y02934D01*
X03001Y02984D02*
X03011D01*
X03006Y02979D02*
Y02989D01*
X03043Y02983D02*
X03053D01*
X03048Y02978D02*
Y02988D01*
X03067Y02932D02*
X03077D01*
X03072Y02927D02*
Y02937D01*
X02554Y02738D02*
X02564D01*
X02559Y02733D02*
Y02743D01*
X02225Y02990D02*
X02235D01*
X02230Y02985D02*
Y02995D01*
X02804Y03061D02*
X02814D01*
X02809Y03056D02*
Y03066D01*
X02765Y03061D02*
X02775D01*
X02770Y03056D02*
Y03066D01*
X02666Y03080D02*
X02676D01*
X02671Y03075D02*
Y03085D01*
X02403Y02969D02*
X02413D01*
X02408Y02964D02*
Y02974D01*
X02443Y02951D02*
X02453D01*
X02448Y02946D02*
Y02956D01*
X02825Y02664D02*
X02835D01*
X02830Y02659D02*
Y02669D01*
X02777Y02726D02*
X02787D01*
X02782Y02721D02*
Y02731D01*
X02640Y02660D02*
X02650D01*
X02645Y02655D02*
Y02665D01*
X02524Y02820D02*
X02534D01*
X02529Y02815D02*
Y02825D01*
M02*