%FSDAX24Y24*%
%MOIN*%
%SFA1B1*%

%IPPOS*%
%ADD27C,0.010000*%
%ADD60C,0.006000*%
%ADD61C,0.023600*%
%ADD62C,0.009800*%
%ADD63C,0.003900*%
%ADD64C,0.007900*%
%ADD65C,0.010000*%
%ADD66C,0.003000*%
%ADD70C,0.005000*%
%LNde-020717_legend_bot-1*%
%LPD*%
G54D60*
X013898Y023095D02*
D01*
X013897Y023097*
X013897Y023099*
X013897Y023101*
X013896Y023103*
X013896Y023105*
X013895Y023107*
X013894Y023109*
X013893Y023110*
X013892Y023112*
X013890Y023114*
X013889Y023115*
X013888Y023117*
X013886Y023118*
X013884Y023119*
X013883Y023120*
X013881Y023121*
X013879Y023122*
X013877Y023123*
X013875Y023124*
X013873Y023124*
X013871Y023124*
X013869Y023124*
X013866*
X013864Y023124*
X013862Y023124*
X013860Y023124*
X013858Y023123*
X013856Y023122*
X013854Y023121*
X013853Y023120*
X013851Y023119*
X013849Y023118*
X013847Y023117*
X013846Y023115*
X013845Y023114*
X013843Y023112*
X013842Y023110*
X013841Y023109*
X013840Y023107*
X013839Y023105*
X013839Y023103*
X013838Y023101*
X013838Y023099*
X013838Y023097*
X013838Y023095*
X013838Y023092*
X013838Y023090*
X013838Y023088*
X013839Y023086*
X013839Y023084*
X013840Y023082*
X013841Y023080*
X013842Y023079*
X013843Y023077*
X013845Y023075*
X013846Y023074*
X013847Y023072*
X013849Y023071*
X013851Y023070*
X013853Y023069*
X013854Y023068*
X013856Y023067*
X013858Y023066*
X013860Y023065*
X013862Y023065*
X013864Y023065*
X013866Y023065*
X013869*
X013871Y023065*
X013873Y023065*
X013875Y023065*
X013877Y023066*
X013879Y023067*
X013881Y023068*
X013883Y023069*
X013884Y023070*
X013886Y023071*
X013888Y023072*
X013889Y023074*
X013890Y023075*
X013892Y023077*
X013893Y023079*
X013894Y023080*
X013895Y023082*
X013896Y023084*
X013896Y023086*
X013897Y023088*
X013897Y023090*
X013897Y023092*
X013898Y023095*
X007323Y017373D02*
X007593Y017103D01*
X013017Y011679D02*
X013287Y011949D01*
X018442Y017643D02*
X018712Y017373D01*
X013017Y023067D02*
X013287Y022797D01*
X007323Y017373D02*
X007593Y017643D01*
X012748Y011949D02*
X013017Y011679D01*
X018442Y017103D02*
X018712Y017373D01*
X012748Y022797D02*
X013017Y023067D01*
G54D61*
X014477Y009196D02*
D01*
X014476Y009204*
X014475Y009212*
X014474Y009220*
X014472Y009228*
X014469Y009236*
X014466Y009243*
X014463Y009251*
X014459Y009258*
X014454Y009265*
X014449Y009271*
X014443Y009277*
X014437Y009283*
X014431Y009288*
X014424Y009293*
X014418Y009298*
X014410Y009302*
X014403Y009305*
X014395Y009308*
X014387Y009310*
X014379Y009312*
X014371Y009313*
X014363Y009313*
X014354*
X014346Y009313*
X014338Y009312*
X014330Y009310*
X014322Y009308*
X014314Y009305*
X014307Y009302*
X014300Y009298*
X014293Y009293*
X014286Y009288*
X014280Y009283*
X014274Y009277*
X014268Y009271*
X014263Y009265*
X014258Y009258*
X014254Y009251*
X014251Y009243*
X014248Y009236*
X014245Y009228*
X014243Y009220*
X014242Y009212*
X014241Y009204*
X014241Y009196*
X014241Y009187*
X014242Y009179*
X014243Y009171*
X014245Y009163*
X014248Y009155*
X014251Y009148*
X014254Y009140*
X014258Y009133*
X014263Y009126*
X014268Y009120*
X014274Y009114*
X014280Y009108*
X014286Y009103*
X014293Y009098*
X014300Y009093*
X014307Y009089*
X014314Y009086*
X014322Y009083*
X014330Y009081*
X014338Y009079*
X014346Y009078*
X014354Y009078*
X014363*
X014371Y009078*
X014379Y009079*
X014387Y009081*
X014395Y009083*
X014403Y009086*
X014410Y009089*
X014418Y009093*
X014424Y009098*
X014431Y009103*
X014437Y009108*
X014443Y009114*
X014449Y009120*
X014454Y009126*
X014459Y009133*
X014463Y009140*
X014466Y009148*
X014469Y009155*
X014472Y009163*
X014474Y009171*
X014475Y009179*
X014476Y009187*
X014477Y009196*
G54D62*
X015275Y009609D02*
D01*
X015274Y009612*
X015274Y009615*
X015273Y009619*
X015273Y009622*
X015272Y009625*
X015270Y009628*
X015269Y009632*
X015267Y009634*
X015265Y009637*
X015263Y009640*
X015261Y009643*
X015258Y009645*
X015256Y009647*
X015253Y009649*
X015250Y009651*
X015247Y009653*
X015244Y009654*
X015241Y009655*
X015237Y009656*
X015234Y009657*
X015231Y009657*
X015227Y009657*
X015224*
X015220Y009657*
X015217Y009657*
X015214Y009656*
X015210Y009655*
X015207Y009654*
X015204Y009653*
X015201Y009651*
X015198Y009649*
X015195Y009647*
X015193Y009645*
X015190Y009643*
X015188Y009640*
X015186Y009637*
X015184Y009634*
X015182Y009632*
X015181Y009628*
X015179Y009625*
X015178Y009622*
X015178Y009619*
X015177Y009615*
X015177Y009612*
X015177Y009609*
X015177Y009605*
X015177Y009602*
X015178Y009598*
X015178Y009595*
X015179Y009592*
X015181Y009589*
X015182Y009585*
X015184Y009583*
X015186Y009580*
X015188Y009577*
X015190Y009574*
X015193Y009572*
X015195Y009570*
X015198Y009568*
X015201Y009566*
X015204Y009564*
X015207Y009563*
X015210Y009562*
X015214Y009561*
X015217Y009560*
X015220Y009560*
X015224Y009560*
X015227*
X015231Y009560*
X015234Y009560*
X015237Y009561*
X015241Y009562*
X015244Y009563*
X015247Y009564*
X015250Y009566*
X015253Y009568*
X015256Y009570*
X015258Y009572*
X015261Y009574*
X015263Y009577*
X015265Y009580*
X015267Y009583*
X015269Y009585*
X015270Y009589*
X015272Y009592*
X015273Y009595*
X015273Y009598*
X015274Y009602*
X015274Y009605*
X015275Y009609*
X022004Y012060D02*
D01*
X022003Y012063*
X022003Y012066*
X022002Y012070*
X022002Y012073*
X022001Y012076*
X021999Y012079*
X021998Y012083*
X021996Y012085*
X021994Y012088*
X021992Y012091*
X021990Y012094*
X021987Y012096*
X021985Y012098*
X021982Y012100*
X021979Y012102*
X021976Y012104*
X021973Y012105*
X021970Y012106*
X021966Y012107*
X021963Y012108*
X021960Y012108*
X021956Y012108*
X021953*
X021949Y012108*
X021946Y012108*
X021943Y012107*
X021939Y012106*
X021936Y012105*
X021933Y012104*
X021930Y012102*
X021927Y012100*
X021924Y012098*
X021922Y012096*
X021919Y012094*
X021917Y012091*
X021915Y012088*
X021913Y012085*
X021911Y012083*
X021910Y012079*
X021908Y012076*
X021907Y012073*
X021907Y012070*
X021906Y012066*
X021906Y012063*
X021906Y012060*
X021906Y012056*
X021906Y012053*
X021907Y012049*
X021907Y012046*
X021908Y012043*
X021910Y012040*
X021911Y012036*
X021913Y012034*
X021915Y012031*
X021917Y012028*
X021919Y012025*
X021922Y012023*
X021924Y012021*
X021927Y012019*
X021930Y012017*
X021933Y012015*
X021936Y012014*
X021939Y012013*
X021943Y012012*
X021946Y012011*
X021949Y012011*
X021953Y012011*
X021956*
X021960Y012011*
X021963Y012011*
X021966Y012012*
X021970Y012013*
X021973Y012014*
X021976Y012015*
X021979Y012017*
X021982Y012019*
X021985Y012021*
X021987Y012023*
X021990Y012025*
X021992Y012028*
X021994Y012031*
X021996Y012034*
X021998Y012036*
X021999Y012040*
X022001Y012043*
X022002Y012046*
X022002Y012049*
X022003Y012053*
X022003Y012056*
X022004Y012060*
X024182Y016291D02*
D01*
X024181Y016294*
X024181Y016297*
X024180Y016301*
X024180Y016304*
X024179Y016307*
X024177Y016310*
X024176Y016314*
X024174Y016316*
X024172Y016319*
X024170Y016322*
X024168Y016325*
X024165Y016327*
X024163Y016329*
X024160Y016331*
X024157Y016333*
X024154Y016335*
X024151Y016336*
X024148Y016337*
X024144Y016338*
X024141Y016339*
X024138Y016339*
X024134Y016339*
X024131*
X024127Y016339*
X024124Y016339*
X024121Y016338*
X024117Y016337*
X024114Y016336*
X024111Y016335*
X024108Y016333*
X024105Y016331*
X024102Y016329*
X024100Y016327*
X024097Y016325*
X024095Y016322*
X024093Y016319*
X024091Y016316*
X024089Y016314*
X024088Y016310*
X024086Y016307*
X024085Y016304*
X024085Y016301*
X024084Y016297*
X024084Y016294*
X024084Y016291*
X024084Y016287*
X024084Y016284*
X024085Y016280*
X024085Y016277*
X024086Y016274*
X024088Y016271*
X024089Y016267*
X024091Y016265*
X024093Y016262*
X024095Y016259*
X024097Y016256*
X024100Y016254*
X024102Y016252*
X024105Y016250*
X024108Y016248*
X024111Y016246*
X024114Y016245*
X024117Y016244*
X024121Y016243*
X024124Y016242*
X024127Y016242*
X024131Y016242*
X024134*
X024138Y016242*
X024141Y016242*
X024144Y016243*
X024148Y016244*
X024151Y016245*
X024154Y016246*
X024157Y016248*
X024160Y016250*
X024163Y016252*
X024165Y016254*
X024168Y016256*
X024170Y016259*
X024172Y016262*
X024174Y016265*
X024176Y016267*
X024177Y016271*
X024179Y016274*
X024180Y016277*
X024180Y016280*
X024181Y016284*
X024181Y016287*
X024182Y016291*
X021976Y007409D02*
D01*
X021975Y007412*
X021975Y007415*
X021974Y007419*
X021974Y007422*
X021973Y007425*
X021971Y007428*
X021970Y007432*
X021968Y007434*
X021966Y007437*
X021964Y007440*
X021962Y007443*
X021959Y007445*
X021957Y007447*
X021954Y007449*
X021951Y007451*
X021948Y007453*
X021945Y007454*
X021942Y007455*
X021938Y007456*
X021935Y007457*
X021932Y007457*
X021928Y007457*
X021925*
X021921Y007457*
X021918Y007457*
X021915Y007456*
X021911Y007455*
X021908Y007454*
X021905Y007453*
X021902Y007451*
X021899Y007449*
X021896Y007447*
X021894Y007445*
X021891Y007443*
X021889Y007440*
X021887Y007437*
X021885Y007434*
X021883Y007432*
X021882Y007428*
X021880Y007425*
X021879Y007422*
X021879Y007419*
X021878Y007415*
X021878Y007412*
X021878Y007409*
X021878Y007405*
X021878Y007402*
X021879Y007398*
X021879Y007395*
X021880Y007392*
X021882Y007389*
X021883Y007385*
X021885Y007383*
X021887Y007380*
X021889Y007377*
X021891Y007374*
X021894Y007372*
X021896Y007370*
X021899Y007368*
X021902Y007366*
X021905Y007364*
X021908Y007363*
X021911Y007362*
X021915Y007361*
X021918Y007360*
X021921Y007360*
X021925Y007360*
X021928*
X021932Y007360*
X021935Y007360*
X021938Y007361*
X021942Y007362*
X021945Y007363*
X021948Y007364*
X021951Y007366*
X021954Y007368*
X021957Y007370*
X021959Y007372*
X021962Y007374*
X021964Y007377*
X021966Y007380*
X021968Y007383*
X021970Y007385*
X021971Y007389*
X021973Y007392*
X021974Y007395*
X021974Y007398*
X021975Y007402*
X021975Y007405*
X021976Y007409*
Y005983D02*
D01*
X021975Y005986*
X021975Y005989*
X021974Y005993*
X021974Y005996*
X021973Y005999*
X021971Y006002*
X021970Y006006*
X021968Y006008*
X021966Y006011*
X021964Y006014*
X021962Y006017*
X021959Y006019*
X021957Y006021*
X021954Y006023*
X021951Y006025*
X021948Y006027*
X021945Y006028*
X021942Y006029*
X021938Y006030*
X021935Y006031*
X021932Y006031*
X021928Y006031*
X021925*
X021921Y006031*
X021918Y006031*
X021915Y006030*
X021911Y006029*
X021908Y006028*
X021905Y006027*
X021902Y006025*
X021899Y006023*
X021896Y006021*
X021894Y006019*
X021891Y006017*
X021889Y006014*
X021887Y006011*
X021885Y006008*
X021883Y006006*
X021882Y006002*
X021880Y005999*
X021879Y005996*
X021879Y005993*
X021878Y005989*
X021878Y005986*
X021878Y005983*
X021878Y005979*
X021878Y005976*
X021879Y005972*
X021879Y005969*
X021880Y005966*
X021882Y005963*
X021883Y005959*
X021885Y005957*
X021887Y005954*
X021889Y005951*
X021891Y005948*
X021894Y005946*
X021896Y005944*
X021899Y005942*
X021902Y005940*
X021905Y005938*
X021908Y005937*
X021911Y005936*
X021915Y005935*
X021918Y005934*
X021921Y005934*
X021925Y005934*
X021928*
X021932Y005934*
X021935Y005934*
X021938Y005935*
X021942Y005936*
X021945Y005937*
X021948Y005938*
X021951Y005940*
X021954Y005942*
X021957Y005944*
X021959Y005946*
X021962Y005948*
X021964Y005951*
X021966Y005954*
X021968Y005957*
X021970Y005959*
X021971Y005963*
X021973Y005966*
X021974Y005969*
X021974Y005972*
X021975Y005976*
X021975Y005979*
X021976Y005983*
X020349D02*
D01*
X020348Y005986*
X020348Y005989*
X020347Y005993*
X020347Y005996*
X020346Y005999*
X020344Y006002*
X020343Y006006*
X020341Y006008*
X020339Y006011*
X020337Y006014*
X020335Y006017*
X020332Y006019*
X020330Y006021*
X020327Y006023*
X020324Y006025*
X020321Y006027*
X020318Y006028*
X020315Y006029*
X020311Y006030*
X020308Y006031*
X020305Y006031*
X020301Y006031*
X020298*
X020294Y006031*
X020291Y006031*
X020288Y006030*
X020284Y006029*
X020281Y006028*
X020278Y006027*
X020275Y006025*
X020272Y006023*
X020269Y006021*
X020267Y006019*
X020264Y006017*
X020262Y006014*
X020260Y006011*
X020258Y006008*
X020256Y006006*
X020255Y006002*
X020253Y005999*
X020252Y005996*
X020252Y005993*
X020251Y005989*
X020251Y005986*
X020251Y005983*
X020251Y005979*
X020251Y005976*
X020252Y005972*
X020252Y005969*
X020253Y005966*
X020255Y005963*
X020256Y005959*
X020258Y005957*
X020260Y005954*
X020262Y005951*
X020264Y005948*
X020267Y005946*
X020269Y005944*
X020272Y005942*
X020275Y005940*
X020278Y005938*
X020281Y005937*
X020284Y005936*
X020288Y005935*
X020291Y005934*
X020294Y005934*
X020298Y005934*
X020301*
X020305Y005934*
X020308Y005934*
X020311Y005935*
X020315Y005936*
X020318Y005937*
X020321Y005938*
X020324Y005940*
X020327Y005942*
X020330Y005944*
X020332Y005946*
X020335Y005948*
X020337Y005951*
X020339Y005954*
X020341Y005957*
X020343Y005959*
X020344Y005963*
X020346Y005966*
X020347Y005969*
X020347Y005972*
X020348Y005976*
X020348Y005979*
X020349Y005983*
X020363Y007409D02*
D01*
X020362Y007412*
X020362Y007415*
X020361Y007419*
X020361Y007422*
X020360Y007425*
X020358Y007428*
X020357Y007432*
X020355Y007434*
X020353Y007437*
X020351Y007440*
X020349Y007443*
X020346Y007445*
X020344Y007447*
X020341Y007449*
X020338Y007451*
X020335Y007453*
X020332Y007454*
X020329Y007455*
X020325Y007456*
X020322Y007457*
X020319Y007457*
X020315Y007457*
X020312*
X020308Y007457*
X020305Y007457*
X020302Y007456*
X020298Y007455*
X020295Y007454*
X020292Y007453*
X020289Y007451*
X020286Y007449*
X020283Y007447*
X020281Y007445*
X020278Y007443*
X020276Y007440*
X020274Y007437*
X020272Y007434*
X020270Y007432*
X020269Y007428*
X020267Y007425*
X020266Y007422*
X020266Y007419*
X020265Y007415*
X020265Y007412*
X020265Y007409*
X020265Y007405*
X020265Y007402*
X020266Y007398*
X020266Y007395*
X020267Y007392*
X020269Y007389*
X020270Y007385*
X020272Y007383*
X020274Y007380*
X020276Y007377*
X020278Y007374*
X020281Y007372*
X020283Y007370*
X020286Y007368*
X020289Y007366*
X020292Y007364*
X020295Y007363*
X020298Y007362*
X020302Y007361*
X020305Y007360*
X020308Y007360*
X020312Y007360*
X020315*
X020319Y007360*
X020322Y007360*
X020325Y007361*
X020329Y007362*
X020332Y007363*
X020335Y007364*
X020338Y007366*
X020341Y007368*
X020344Y007370*
X020346Y007372*
X020349Y007374*
X020351Y007377*
X020353Y007380*
X020355Y007383*
X020357Y007385*
X020358Y007389*
X020360Y007392*
X020361Y007395*
X020361Y007398*
X020362Y007402*
X020362Y007405*
X020363Y007409*
X002606Y008556D02*
D01*
X002605Y008559*
X002605Y008562*
X002604Y008566*
X002604Y008569*
X002603Y008572*
X002601Y008575*
X002600Y008579*
X002598Y008581*
X002596Y008584*
X002594Y008587*
X002592Y008590*
X002589Y008592*
X002587Y008594*
X002584Y008596*
X002581Y008598*
X002578Y008600*
X002575Y008601*
X002572Y008602*
X002568Y008603*
X002565Y008604*
X002562Y008604*
X002558Y008604*
X002555*
X002551Y008604*
X002548Y008604*
X002545Y008603*
X002541Y008602*
X002538Y008601*
X002535Y008600*
X002532Y008598*
X002529Y008596*
X002526Y008594*
X002524Y008592*
X002521Y008590*
X002519Y008587*
X002517Y008584*
X002515Y008581*
X002513Y008579*
X002512Y008575*
X002510Y008572*
X002509Y008569*
X002509Y008566*
X002508Y008562*
X002508Y008559*
X002508Y008556*
X002508Y008552*
X002508Y008549*
X002509Y008545*
X002509Y008542*
X002510Y008539*
X002512Y008536*
X002513Y008532*
X002515Y008530*
X002517Y008527*
X002519Y008524*
X002521Y008521*
X002524Y008519*
X002526Y008517*
X002529Y008515*
X002532Y008513*
X002535Y008511*
X002538Y008510*
X002541Y008509*
X002545Y008508*
X002548Y008507*
X002551Y008507*
X002555Y008507*
X002558*
X002562Y008507*
X002565Y008507*
X002568Y008508*
X002572Y008509*
X002575Y008510*
X002578Y008511*
X002581Y008513*
X002584Y008515*
X002587Y008517*
X002589Y008519*
X002592Y008521*
X002594Y008524*
X002596Y008527*
X002598Y008530*
X002600Y008532*
X002601Y008536*
X002603Y008539*
X002604Y008542*
X002604Y008545*
X002605Y008549*
X002605Y008552*
X002606Y008556*
X021240Y008337D02*
D01*
X021239Y008340*
X021239Y008343*
X021238Y008347*
X021238Y008350*
X021237Y008353*
X021235Y008356*
X021234Y008360*
X021232Y008362*
X021230Y008365*
X021228Y008368*
X021226Y008371*
X021223Y008373*
X021221Y008375*
X021218Y008377*
X021215Y008379*
X021212Y008381*
X021209Y008382*
X021206Y008383*
X021202Y008384*
X021199Y008385*
X021196Y008385*
X021192Y008385*
X021189*
X021185Y008385*
X021182Y008385*
X021179Y008384*
X021175Y008383*
X021172Y008382*
X021169Y008381*
X021166Y008379*
X021163Y008377*
X021160Y008375*
X021158Y008373*
X021155Y008371*
X021153Y008368*
X021151Y008365*
X021149Y008362*
X021147Y008360*
X021146Y008356*
X021144Y008353*
X021143Y008350*
X021143Y008347*
X021142Y008343*
X021142Y008340*
X021142Y008337*
X021142Y008333*
X021142Y008330*
X021143Y008326*
X021143Y008323*
X021144Y008320*
X021146Y008317*
X021147Y008313*
X021149Y008311*
X021151Y008308*
X021153Y008305*
X021155Y008302*
X021158Y008300*
X021160Y008298*
X021163Y008296*
X021166Y008294*
X021169Y008292*
X021172Y008291*
X021175Y008290*
X021179Y008289*
X021182Y008288*
X021185Y008288*
X021189Y008288*
X021192*
X021196Y008288*
X021199Y008288*
X021202Y008289*
X021206Y008290*
X021209Y008291*
X021212Y008292*
X021215Y008294*
X021218Y008296*
X021221Y008298*
X021223Y008300*
X021226Y008302*
X021228Y008305*
X021230Y008308*
X021232Y008311*
X021234Y008313*
X021235Y008317*
X021237Y008320*
X021238Y008323*
X021238Y008326*
X021239Y008330*
X021239Y008333*
X021240Y008337*
X025640Y012737D02*
D01*
X025639Y012740*
X025639Y012743*
X025638Y012747*
X025638Y012750*
X025637Y012753*
X025635Y012756*
X025634Y012760*
X025632Y012762*
X025630Y012765*
X025628Y012768*
X025626Y012771*
X025623Y012773*
X025621Y012775*
X025618Y012777*
X025615Y012779*
X025612Y012781*
X025609Y012782*
X025606Y012783*
X025602Y012784*
X025599Y012785*
X025596Y012785*
X025592Y012785*
X025589*
X025585Y012785*
X025582Y012785*
X025579Y012784*
X025575Y012783*
X025572Y012782*
X025569Y012781*
X025566Y012779*
X025563Y012777*
X025560Y012775*
X025558Y012773*
X025555Y012771*
X025553Y012768*
X025551Y012765*
X025549Y012762*
X025547Y012760*
X025546Y012756*
X025544Y012753*
X025543Y012750*
X025543Y012747*
X025542Y012743*
X025542Y012740*
X025542Y012737*
X025542Y012733*
X025542Y012730*
X025543Y012726*
X025543Y012723*
X025544Y012720*
X025546Y012717*
X025547Y012713*
X025549Y012711*
X025551Y012708*
X025553Y012705*
X025555Y012702*
X025558Y012700*
X025560Y012698*
X025563Y012696*
X025566Y012694*
X025569Y012692*
X025572Y012691*
X025575Y012690*
X025579Y012689*
X025582Y012688*
X025585Y012688*
X025589Y012688*
X025592*
X025596Y012688*
X025599Y012688*
X025602Y012689*
X025606Y012690*
X025609Y012691*
X025612Y012692*
X025615Y012694*
X025618Y012696*
X025621Y012698*
X025623Y012700*
X025626Y012702*
X025628Y012705*
X025630Y012708*
X025632Y012711*
X025634Y012713*
X025635Y012717*
X025637Y012720*
X025638Y012723*
X025638Y012726*
X025639Y012730*
X025639Y012733*
X025640Y012737*
G54D63*
X004226Y009979D02*
D01*
X004225Y009980*
X004225Y009981*
X004225Y009983*
X004225Y009984*
X004224Y009985*
X004224Y009987*
X004223Y009988*
X004222Y009989*
X004222Y009990*
X004221Y009991*
X004220Y009992*
X004219Y009993*
X004218Y009994*
X004217Y009995*
X004216Y009996*
X004214Y009996*
X004213Y009997*
X004212Y009998*
X004210Y009998*
X004209Y009998*
X004208Y009998*
X004206Y009998*
X004205*
X004203Y009998*
X004202Y009998*
X004201Y009998*
X004199Y009998*
X004198Y009997*
X004197Y009996*
X004196Y009996*
X004194Y009995*
X004193Y009994*
X004192Y009993*
X004191Y009992*
X004190Y009991*
X004189Y009990*
X004189Y009989*
X004188Y009988*
X004187Y009987*
X004187Y009985*
X004186Y009984*
X004186Y009983*
X004186Y009981*
X004186Y009980*
X004186Y009979*
X004186Y009977*
X004186Y009976*
X004186Y009974*
X004186Y009973*
X004187Y009972*
X004187Y009970*
X004188Y009969*
X004189Y009968*
X004189Y009967*
X004190Y009966*
X004191Y009965*
X004192Y009964*
X004193Y009963*
X004194Y009962*
X004196Y009961*
X004197Y009961*
X004198Y009960*
X004199Y009959*
X004201Y009959*
X004202Y009959*
X004203Y009959*
X004205Y009959*
X004206*
X004208Y009959*
X004209Y009959*
X004210Y009959*
X004212Y009959*
X004213Y009960*
X004214Y009961*
X004216Y009961*
X004217Y009962*
X004218Y009963*
X004219Y009964*
X004220Y009965*
X004221Y009966*
X004222Y009967*
X004222Y009968*
X004223Y009969*
X004224Y009970*
X004224Y009972*
X004225Y009973*
X004225Y009974*
X004225Y009976*
X004225Y009977*
X004226Y009979*
G54D64*
X002322Y019793D02*
X005857Y023328D01*
X003736Y018379D02*
X007271Y021914D01*
X002322Y019793D02*
X003736Y018379D01*
X005857Y023328D02*
X007271Y021914D01*
X018700Y002700D02*
Y010700D01*
X017700Y002700D02*
X018700D01*
X017700D02*
Y010700D01*
X018700*
X011367Y000810D02*
X014753D01*
X011367Y009590D02*
X014753D01*
X011367Y000810D02*
Y009590D01*
X014753Y000810D02*
Y009590D01*
X008670Y002660D02*
Y010660D01*
X007670Y002660D02*
X008670D01*
X007670Y010660D02*
Y002660D01*
Y010660D02*
X008670D01*
X021081Y016793D02*
Y017107D01*
X005543Y007231D02*
X005857D01*
X002631Y011293D02*
Y011607D01*
X019896Y019612D02*
X020174Y019890D01*
X021010Y020726D02*
X021288Y021004D01*
X016903Y022605D02*
X017182Y022883D01*
X020105Y019403D02*
X020383Y019682D01*
X021218Y020517D02*
X021497Y020795D01*
X016903Y022605D02*
X020105Y019403D01*
X018017Y023718D02*
X018295Y023997D01*
X021497Y020795*
X021541Y009482D02*
Y010938D01*
X024179*
Y009482*
X021541D02*
X024179D01*
X022578Y012453D02*
Y016547D01*
Y012453D02*
X024389D01*
Y016547*
X022578D02*
X024389D01*
X022775Y012453D02*
Y016547D01*
X004009Y009910D02*
Y009979D01*
X003802D02*
X004009D01*
Y008621D02*
Y008690D01*
X003802Y008621D02*
X004009D01*
X002651Y008690D02*
Y008621D01*
X002858*
X002651Y009910D02*
Y009979D01*
X002858*
X021238Y006424D02*
Y006109D01*
X021513*
X021238Y006976D02*
Y007291D01*
X021513*
X021238Y004683D02*
Y004998D01*
Y004683D02*
X021513D01*
X021238Y005550D02*
Y005865D01*
X021513*
X019611Y004683D02*
Y004998D01*
Y004683D02*
X019887D01*
X019611Y005550D02*
Y005865D01*
X019887*
X019624Y006109D02*
Y006424D01*
Y006109D02*
X019900D01*
X019624Y006976D02*
Y007291D01*
X019900*
X020393Y023614D02*
X021807Y022200D01*
X021100Y021493D02*
X021807Y022200D01*
X019686Y022907D02*
X021100Y021493D01*
X019686Y022907D02*
X020393Y023614D01*
X021293Y021300D02*
X022707Y019886D01*
X021293Y021300D02*
X022000Y022007D01*
X023414Y020593*
X022707Y019886D02*
X023414Y020593D01*
X001785Y008893D02*
X002415D01*
Y009507*
X001785Y008893D02*
Y009507D01*
X002415*
X019244Y010148D02*
X019756D01*
X024444Y011048D02*
X024956D01*
X025243Y012269D02*
X025557D01*
X020993Y012049D02*
X021307D01*
X020174Y012088D02*
X020686D01*
X021171Y009203D02*
Y008672D01*
Y010128D02*
X021191D01*
X020029Y008672D02*
Y009203D01*
X020009Y010128D02*
X020029D01*
X021191Y008672D02*
Y010128D01*
X020009Y008672D02*
Y010128D01*
X025571Y013603D02*
Y013072D01*
Y014528D02*
X025591D01*
X024429Y013072D02*
Y013603D01*
X024409Y014528D02*
X024429D01*
X025591D02*
Y013072D01*
X024409Y014528D02*
Y013072D01*
X006281Y014693D02*
Y015007D01*
X006032Y015284D02*
Y015796D01*
X006244Y009948D02*
X006756D01*
X005543Y009969D02*
X005857D01*
X004963D02*
X005277D01*
X002644Y007052D02*
X003156D01*
X003423Y008419D02*
X003737D01*
X005515Y017238D02*
X005738Y017015D01*
X006041Y016073D02*
Y016387D01*
X020294Y018648D02*
X020806D01*
X023093Y018595D02*
X023407D01*
X023743D02*
X024057D01*
X022393D02*
X022707D01*
X021743D02*
X022057D01*
X021093D02*
X021407D01*
X021862Y020335D02*
X022085Y020112D01*
X017562Y024785D02*
X017785Y024562D01*
X020030Y012560D02*
X022030D01*
X020030Y016560D02*
X022030D01*
Y012560D02*
Y016560D01*
X020030Y012560D02*
Y016560D01*
G54D65*
X013498Y023968D02*
X013675Y024145D01*
X013745*
X013816Y024074*
Y024003*
X013639Y023827*
X013922Y023968D02*
X013993Y023897D01*
X013957Y023933*
X013745Y023721*
Y023791*
G54D66*
X019810Y014400D02*
X019660D01*
Y014325*
X019685Y014300*
X019735*
X019760Y014325*
Y014400*
X019660Y014250D02*
Y014150D01*
X019685*
X019785Y014250*
X019810*
X003970Y010990D02*
X004120D01*
Y010890*
Y010765D02*
X003970D01*
X004045Y010840*
Y010740*
X004050Y021700D02*
X003944Y021806D01*
X003891Y021753*
Y021718*
X003926Y021682*
X003962*
X004015Y021735*
X003944Y021594D02*
X003909Y021559D01*
X003926Y021576*
X003820Y021682*
X003856*
X003767Y021594D02*
X003732D01*
X003697Y021559*
Y021523*
X003767Y021453*
X003803*
X003838Y021488*
Y021523*
X003767Y021594*
X016562Y023661D02*
X016527D01*
X016492Y023696*
Y023732*
X016562Y023802*
X016598*
X016633Y023767*
Y023732*
X016686Y023714D02*
X016721Y023679D01*
X016704Y023696*
X016598Y023590*
Y023626*
X016774D02*
X016810Y023590D01*
X016792Y023608*
X016686Y023502*
Y023537*
X021521Y020428D02*
Y020463D01*
X021556Y020498*
X021592*
X021662Y020428*
Y020392*
X021627Y020357*
X021592*
X021574Y020304D02*
X021539Y020269D01*
X021556Y020286*
X021450Y020392*
X021486*
X021397Y020304D02*
X021362D01*
X021327Y020269*
Y020233*
X021344Y020216*
X021380*
Y020180*
X021397Y020163*
X021433*
X021468Y020198*
Y020233*
X021450Y020251*
X021415*
Y020286*
X021397Y020304*
X021415Y020251D02*
X021380Y020216D01*
X021075Y019000D02*
X021050Y019025D01*
Y019075*
X021075Y019100*
X021175*
X021200Y019075*
Y019025*
X021175Y019000*
X021075Y018950D02*
X021050Y018925D01*
Y018875*
X021075Y018850*
X021100*
X021125Y018875*
Y018900*
Y018875*
X021150Y018850*
X021175*
X021200Y018875*
Y018925*
X021175Y018950*
X021075Y018800D02*
X021050Y018775D01*
Y018725*
X021075Y018700*
X021175*
X021200Y018725*
Y018775*
X021175Y018800*
X021075*
X021865Y018940D02*
X021840Y018965D01*
Y019015*
X021865Y019040*
X021965*
X021990Y019015*
Y018965*
X021965Y018940*
X021865Y018890D02*
X021840Y018865D01*
Y018815*
X021865Y018790*
X021890*
X021915Y018815*
Y018840*
Y018815*
X021940Y018790*
X021965*
X021990Y018815*
Y018865*
X021965Y018890*
X021990Y018740D02*
Y018690D01*
Y018715*
X021840*
X021865Y018740*
X022475Y018990D02*
X022450Y019015D01*
Y019065*
X022475Y019090*
X022575*
X022600Y019065*
Y019015*
X022575Y018990*
X022475Y018940D02*
X022450Y018915D01*
Y018865*
X022475Y018840*
X022500*
X022525Y018865*
Y018890*
Y018865*
X022550Y018840*
X022575*
X022600Y018865*
Y018915*
X022575Y018940*
X022600Y018690D02*
Y018790D01*
X022500Y018690*
X022475*
X022450Y018715*
Y018765*
X022475Y018790*
X023865Y019010D02*
X023840Y019035D01*
Y019085*
X023865Y019110*
X023965*
X023990Y019085*
Y019035*
X023965Y019010*
X023865Y018960D02*
X023840Y018935D01*
Y018885*
X023865Y018860*
X023890*
X023915Y018885*
Y018910*
Y018885*
X023940Y018860*
X023965*
X023990Y018885*
Y018935*
X023965Y018960*
X023865Y018810D02*
X023840Y018785D01*
Y018735*
X023865Y018710*
X023890*
X023915Y018735*
Y018760*
Y018735*
X023940Y018710*
X023965*
X023990Y018735*
Y018785*
X023965Y018810*
X023245Y019030D02*
X023220Y019055D01*
Y019105*
X023245Y019130*
X023345*
X023370Y019105*
Y019055*
X023345Y019030*
X023245Y018980D02*
X023220Y018955D01*
Y018905*
X023245Y018880*
X023270*
X023295Y018905*
Y018930*
Y018905*
X023320Y018880*
X023345*
X023370Y018905*
Y018955*
X023345Y018980*
X023370Y018755D02*
X023220D01*
X023295Y018830*
Y018730*
X020335Y019060D02*
X020310Y019085D01*
Y019135*
X020335Y019160*
X020435*
X020460Y019135*
Y019085*
X020435Y019060*
X020335Y019010D02*
X020310Y018985D01*
Y018935*
X020335Y018910*
X020360*
X020385Y018935*
Y018960*
Y018935*
X020410Y018910*
X020435*
X020460Y018935*
Y018985*
X020435Y019010*
X020310Y018760D02*
Y018860D01*
X020385*
X020360Y018810*
Y018785*
X020385Y018760*
X020435*
X020460Y018785*
Y018835*
X020435Y018860*
X005765Y016220D02*
X005740Y016245D01*
Y016295*
X005765Y016320*
X005865*
X005890Y016295*
Y016245*
X005865Y016220*
X005765Y016170D02*
X005740Y016145D01*
Y016095*
X005765Y016070*
X005790*
X005815Y016095*
Y016120*
Y016095*
X005840Y016070*
X005865*
X005890Y016095*
Y016145*
X005865Y016170*
X005740Y015920D02*
X005765Y015970D01*
X005815Y016020*
X005865*
X005890Y015995*
Y015945*
X005865Y015920*
X005840*
X005815Y015945*
Y016020*
X005541Y017708D02*
Y017743D01*
X005576Y017778*
X005612*
X005682Y017708*
Y017672*
X005647Y017637*
X005612*
X005506Y017672D02*
X005470D01*
X005435Y017637*
Y017602*
X005453Y017584*
X005488*
X005506Y017602*
X005488Y017584*
Y017549*
X005506Y017531*
X005541*
X005576Y017566*
Y017602*
X005400Y017566D02*
X005364D01*
X005329Y017531*
Y017496*
X005347Y017478*
X005382*
Y017443*
X005400Y017425*
X005435*
X005470Y017460*
Y017496*
X005453Y017513*
X005417*
Y017549*
X005400Y017566*
X005417Y017513D02*
X005382Y017478D01*
X003545Y006930D02*
X003520Y006955D01*
Y007005*
X003545Y007030*
X003645*
X003670Y007005*
Y006955*
X003645Y006930*
X003520Y006780D02*
Y006880D01*
X003595*
X003570Y006830*
Y006805*
X003595Y006780*
X003645*
X003670Y006805*
Y006855*
X003645Y006880*
X003545Y006730D02*
X003520Y006705D01*
Y006655*
X003545Y006630*
X003570*
X003595Y006655*
Y006680*
Y006655*
X003620Y006630*
X003645*
X003670Y006655*
Y006705*
X003645Y006730*
X002345Y007310D02*
X002320Y007335D01*
Y007385*
X002345Y007410*
X002445*
X002470Y007385*
Y007335*
X002445Y007310*
X002320Y007160D02*
Y007260D01*
X002395*
X002370Y007210*
Y007185*
X002395Y007160*
X002445*
X002470Y007185*
Y007235*
X002445Y007260*
X002470Y007035D02*
X002320D01*
X002395Y007110*
Y007010*
X005075Y010410D02*
X005050Y010435D01*
Y010485*
X005075Y010510*
X005175*
X005200Y010485*
Y010435*
X005175Y010410*
X005050Y010260D02*
Y010360D01*
X005125*
X005100Y010310*
Y010285*
X005125Y010260*
X005175*
X005200Y010285*
Y010335*
X005175Y010360*
X005050Y010110D02*
Y010210D01*
X005125*
X005100Y010160*
Y010135*
X005125Y010110*
X005175*
X005200Y010135*
Y010185*
X005175Y010210*
X005605Y010410D02*
X005580Y010435D01*
Y010485*
X005605Y010510*
X005705*
X005730Y010485*
Y010435*
X005705Y010410*
X005580Y010260D02*
Y010360D01*
X005655*
X005630Y010310*
Y010285*
X005655Y010260*
X005705*
X005730Y010285*
Y010335*
X005705Y010360*
X005580Y010110D02*
X005605Y010160D01*
X005655Y010210*
X005705*
X005730Y010185*
Y010135*
X005705Y010110*
X005680*
X005655Y010135*
Y010210*
X006485Y010390D02*
X006460Y010415D01*
Y010465*
X006485Y010490*
X006585*
X006610Y010465*
Y010415*
X006585Y010390*
X006460Y010240D02*
Y010340D01*
X006535*
X006510Y010290*
Y010265*
X006535Y010240*
X006585*
X006610Y010265*
Y010315*
X006585Y010340*
X006460Y010190D02*
Y010090D01*
X006485*
X006585Y010190*
X006610*
X005765Y015550D02*
X005740Y015575D01*
Y015625*
X005765Y015650*
X005865*
X005890Y015625*
Y015575*
X005865Y015550*
X005765Y015500D02*
X005740Y015475D01*
Y015425*
X005765Y015400*
X005790*
X005815Y015425*
X005840Y015400*
X005865*
X005890Y015425*
Y015475*
X005865Y015500*
X005840*
X005815Y015475*
X005790Y015500*
X005765*
X005815Y015475D02*
Y015425D01*
X005890Y015350D02*
Y015300D01*
Y015325*
X005740*
X005765Y015350*
X006035Y014899D02*
X006010Y014924D01*
Y014974*
X006035Y014999*
X006135*
X006160Y014974*
Y014924*
X006135Y014899*
X006035Y014849D02*
X006010Y014824D01*
Y014774*
X006035Y014749*
X006060*
X006085Y014774*
X006110Y014749*
X006135*
X006160Y014774*
Y014824*
X006135Y014849*
X006110*
X006085Y014824*
X006060Y014849*
X006035*
X006085Y014824D02*
Y014774D01*
X006160Y014599D02*
Y014699D01*
X006060Y014599*
X006035*
X006010Y014624*
Y014674*
X006035Y014699*
X025055Y015220D02*
X025030Y015245D01*
Y015295*
X025055Y015320*
X025155*
X025180Y015295*
Y015245*
X025155Y015220*
X025055Y015170D02*
X025030Y015145D01*
Y015095*
X025055Y015070*
X025080*
X025105Y015095*
X025130Y015070*
X025155*
X025180Y015095*
Y015145*
X025155Y015170*
X025130*
X025105Y015145*
X025080Y015170*
X025055*
X025105Y015145D02*
Y015095D01*
X025030Y014920D02*
Y015020D01*
X025105*
X025080Y014970*
Y014945*
X025105Y014920*
X025155*
X025180Y014945*
Y014995*
X025155Y015020*
X019735Y008430D02*
X019710Y008455D01*
Y008505*
X019735Y008530*
X019835*
X019860Y008505*
Y008455*
X019835Y008430*
X019735Y008380D02*
X019710Y008355D01*
Y008305*
X019735Y008280*
X019760*
X019785Y008305*
X019810Y008280*
X019835*
X019860Y008305*
Y008355*
X019835Y008380*
X019810*
X019785Y008355*
X019760Y008380*
X019735*
X019785Y008355D02*
Y008305D01*
X019710Y008230D02*
Y008130D01*
X019735*
X019835Y008230*
X019860*
X019910Y011950D02*
X019885Y011975D01*
Y012025*
X019910Y012050*
X020010*
X020035Y012025*
Y011975*
X020010Y011950*
Y011900D02*
X020035Y011875D01*
Y011825*
X020010Y011800*
X019910*
X019885Y011825*
Y011875*
X019910Y011900*
X019935*
X019960Y011875*
Y011800*
X019910Y011750D02*
X019885Y011725D01*
Y011675*
X019910Y011650*
X020010*
X020035Y011675*
Y011725*
X020010Y011750*
X019910*
X021280Y012305D02*
X021305Y012330D01*
X021355*
X021380Y012305*
Y012205*
X021355Y012180*
X021305*
X021280Y012205*
X021230D02*
X021205Y012180D01*
X021155*
X021130Y012205*
Y012305*
X021155Y012330*
X021205*
X021230Y012305*
Y012280*
X021205Y012255*
X021130*
X021080Y012180D02*
X021030D01*
X021055*
Y012330*
X021080Y012305*
X025315Y010810D02*
X025290Y010835D01*
Y010885*
X025315Y010910*
X025415*
X025440Y010885*
Y010835*
X025415Y010810*
Y010760D02*
X025440Y010735D01*
Y010685*
X025415Y010660*
X025315*
X025290Y010685*
Y010735*
X025315Y010760*
X025340*
X025365Y010735*
Y010660*
X025440Y010510D02*
Y010610D01*
X025340Y010510*
X025315*
X025290Y010535*
Y010585*
X025315Y010610*
X024875Y009430D02*
X024850Y009455D01*
Y009505*
X024875Y009530*
X024975*
X025000Y009505*
Y009455*
X024975Y009430*
Y009380D02*
X025000Y009355D01*
Y009305*
X024975Y009280*
X024875*
X024850Y009305*
Y009355*
X024875Y009380*
X024900*
X024925Y009355*
Y009280*
X024875Y009230D02*
X024850Y009205D01*
Y009155*
X024875Y009130*
X024900*
X024925Y009155*
Y009180*
Y009155*
X024950Y009130*
X024975*
X025000Y009155*
Y009205*
X024975Y009230*
X019225Y008530D02*
X019200Y008555D01*
Y008605*
X019225Y008630*
X019325*
X019350Y008605*
Y008555*
X019325Y008530*
Y008480D02*
X019350Y008455D01*
Y008405*
X019325Y008380*
X019225*
X019200Y008405*
Y008455*
X019225Y008480*
X019250*
X019275Y008455*
Y008380*
X019350Y008255D02*
X019200D01*
X019275Y008330*
Y008230*
X001510Y009310D02*
X001660D01*
Y009235*
X001635Y009210*
X001535*
X001510Y009235*
Y009310*
X001660Y009060D02*
Y009160D01*
X001560Y009060*
X001535*
X001510Y009085*
Y009135*
X001535Y009160*
X023450Y020340D02*
X023344Y020234D01*
X023397Y020181*
X023432*
X023468Y020216*
Y020252*
X023415Y020305*
X023627Y020163D02*
X023556Y020234D01*
Y020093*
X023538Y020075*
X023503*
X023468Y020110*
Y020146*
X019900Y023860D02*
X019794Y023754D01*
X019847Y023701*
X019882*
X019918Y023736*
Y023772*
X019865Y023825*
X019918Y023666D02*
Y023630D01*
X019953Y023595*
X019988*
X020006Y023613*
Y023648*
X019988Y023666*
X020006Y023648*
X020041*
X020059Y023666*
Y023701*
X020024Y023736*
X019988*
X019365Y006230D02*
X019265D01*
X019240Y006255*
Y006305*
X019265Y006330*
X019365*
X019390Y006305*
Y006255*
X019340Y006280D02*
X019390Y006230D01*
Y006255D02*
X019365Y006230D01*
X019390Y006180D02*
Y006130D01*
Y006155*
X019240*
X019265Y006180*
X019355Y004830D02*
X019255D01*
X019230Y004855*
Y004905*
X019255Y004930*
X019355*
X019380Y004905*
Y004855*
X019330Y004880D02*
X019380Y004830D01*
Y004855D02*
X019355Y004830D01*
X019380Y004680D02*
Y004780D01*
X019280Y004680*
X019255*
X019230Y004705*
Y004755*
X019255Y004780*
X020945Y004790D02*
X020845D01*
X020820Y004815*
Y004865*
X020845Y004890*
X020945*
X020970Y004865*
Y004815*
X020920Y004840D02*
X020970Y004790D01*
Y004815D02*
X020945Y004790D01*
X020845Y004740D02*
X020820Y004715D01*
Y004665*
X020845Y004640*
X020870*
X020895Y004665*
Y004690*
Y004665*
X020920Y004640*
X020945*
X020970Y004665*
Y004715*
X020945Y004740*
Y006230D02*
X020845D01*
X020820Y006255*
Y006305*
X020845Y006330*
X020945*
X020970Y006305*
Y006255*
X020920Y006280D02*
X020970Y006230D01*
Y006255D02*
X020945Y006230D01*
X020970Y006105D02*
X020820D01*
X020895Y006180*
Y006080*
X023930Y017050D02*
X023780D01*
Y016975*
X023805Y016950*
X023855*
X023880Y016975*
Y017050*
Y017000D02*
X023930Y016950D01*
Y016800D02*
Y016900D01*
X023830Y016800*
X023805*
X023780Y016825*
Y016875*
X023805Y016900*
X023780Y016750D02*
Y016650D01*
X023805*
X023905Y016750*
X023930*
X004630Y010490D02*
X004480D01*
Y010415*
X004505Y010390*
X004555*
X004580Y010415*
Y010490*
Y010440D02*
X004630Y010390D01*
Y010265D02*
X004480D01*
X004555Y010340*
Y010240*
X004480Y010090D02*
Y010190D01*
X004555*
X004530Y010140*
Y010115*
X004555Y010090*
X004605*
X004630Y010115*
Y010165*
X004605Y010190*
X002350Y012130D02*
X002200D01*
Y012055*
X002225Y012030*
X002275*
X002300Y012055*
Y012130*
Y012080D02*
X002350Y012030D01*
Y011905D02*
X002200D01*
X002275Y011980*
Y011880*
X002200Y011730D02*
X002225Y011780D01*
X002275Y011830*
X002325*
X002350Y011805*
Y011755*
X002325Y011730*
X002300*
X002275Y011755*
Y011830*
X004380Y007050D02*
X004230D01*
Y006975*
X004255Y006950*
X004305*
X004330Y006975*
Y007050*
Y007000D02*
X004380Y006950D01*
Y006825D02*
X004230D01*
X004305Y006900*
Y006800*
X004230Y006750D02*
Y006650D01*
X004255*
X004355Y006750*
X004380*
X001730Y012120D02*
X001580D01*
Y012045*
X001605Y012020*
X001655*
X001680Y012045*
Y012120*
Y012070D02*
X001730Y012020D01*
Y011895D02*
X001580D01*
X001655Y011970*
Y011870*
X001605Y011820D02*
X001580Y011795D01*
Y011745*
X001605Y011720*
X001630*
X001655Y011745*
X001680Y011720*
X001705*
X001730Y011745*
Y011795*
X001705Y011820*
X001680*
X001655Y011795*
X001630Y011820*
X001605*
X001655Y011795D02*
Y011745D01*
X019300Y003860D02*
X019150D01*
Y003785*
X019175Y003760*
X019225*
X019250Y003785*
Y003860*
Y003810D02*
X019300Y003760D01*
X019150Y003610D02*
Y003710D01*
X019225*
X019200Y003660*
Y003635*
X019225Y003610*
X019275*
X019300Y003635*
Y003685*
X019275Y003710*
X019300Y003560D02*
Y003510D01*
Y003535*
X019150*
X019175Y003560*
X020700Y003880D02*
X020550D01*
Y003805*
X020575Y003780*
X020625*
X020650Y003805*
Y003880*
Y003830D02*
X020700Y003780D01*
X020550Y003630D02*
Y003730D01*
X020625*
X020600Y003680*
Y003655*
X020625Y003630*
X020675*
X020700Y003655*
Y003705*
X020675Y003730*
X020700Y003480D02*
Y003580D01*
X020600Y003480*
X020575*
X020550Y003505*
Y003555*
X020575Y003580*
X019000Y007950D02*
X018850D01*
Y007875*
X018875Y007850*
X018925*
X018950Y007875*
Y007950*
Y007900D02*
X019000Y007850D01*
X018850Y007700D02*
Y007800D01*
X018925*
X018900Y007750*
Y007725*
X018925Y007700*
X018975*
X019000Y007725*
Y007775*
X018975Y007800*
X018875Y007650D02*
X018850Y007625D01*
Y007575*
X018875Y007550*
X018900*
X018925Y007575*
Y007600*
Y007575*
X018950Y007550*
X018975*
X019000Y007575*
Y007625*
X018975Y007650*
X022840Y006700D02*
X022690D01*
Y006625*
X022715Y006600*
X022765*
X022790Y006625*
Y006700*
Y006650D02*
X022840Y006600D01*
X022690Y006450D02*
Y006550D01*
X022765*
X022740Y006500*
Y006475*
X022765Y006450*
X022815*
X022840Y006475*
Y006525*
X022815Y006550*
X022840Y006325D02*
X022690D01*
X022765Y006400*
Y006300*
X022140Y008440D02*
X021990D01*
Y008365*
X022015Y008340*
X022065*
X022090Y008365*
Y008440*
Y008390D02*
X022140Y008340D01*
X021990Y008190D02*
Y008290D01*
X022065*
X022040Y008240*
Y008215*
X022065Y008190*
X022115*
X022140Y008215*
Y008265*
X022115Y008290*
X021990Y008040D02*
Y008140D01*
X022065*
X022040Y008090*
Y008065*
X022065Y008040*
X022115*
X022140Y008065*
Y008115*
X022115Y008140*
X004140Y016240D02*
X003990D01*
Y016165*
X004015Y016140*
X004065*
X004090Y016165*
Y016240*
Y016190D02*
X004140Y016140D01*
X003990Y015990D02*
Y016090D01*
X004065*
X004040Y016040*
Y016015*
X004065Y015990*
X004115*
X004140Y016015*
Y016065*
X004115Y016090*
X004015Y015940D02*
X003990Y015915D01*
Y015865*
X004015Y015840*
X004040*
X004065Y015865*
X004090Y015840*
X004115*
X004140Y015865*
Y015915*
X004115Y015940*
X004090*
X004065Y015915*
X004040Y015940*
X004015*
X004065Y015915D02*
Y015865D01*
X004070Y010360D02*
X004195D01*
X004220Y010335*
Y010285*
X004195Y010260*
X004070*
Y010110D02*
X004095Y010160D01*
X004145Y010210*
X004195*
X004220Y010185*
Y010135*
X004195Y010110*
X004170*
X004145Y010135*
Y010210*
X024570Y016460D02*
X024695D01*
X024720Y016435*
Y016385*
X024695Y016360*
X024570*
X024720Y016310D02*
Y016260D01*
Y016285*
X024570*
X024595Y016310*
X024720Y016185D02*
Y016135D01*
Y016160*
X024570*
X024595Y016185*
X024540Y011010D02*
X024665D01*
X024690Y010985*
Y010935*
X024665Y010910*
X024540*
X024690Y010860D02*
Y010810D01*
Y010835*
X024540*
X024565Y010860*
X024690Y010635D02*
Y010735D01*
X024590Y010635*
X024565*
X024540Y010660*
Y010710*
X024565Y010735*
X018174Y020784D02*
X018192Y020802D01*
X018262*
Y020731*
X018245Y020713*
X018262Y020802D02*
X018315Y020855D01*
X018386Y020784D02*
X018421Y020749D01*
X018404Y020766*
X018298Y020660*
Y020696*
X003960Y011650D02*
X004110D01*
Y011550*
X003960Y011400D02*
Y011500D01*
X004035*
X004010Y011450*
Y011425*
X004035Y011400*
X004085*
X004110Y011425*
Y011475*
X004085Y011500*
X006000Y007460D02*
X006150D01*
Y007360*
X006000Y007310D02*
Y007210D01*
X006025*
X006125Y007310*
X006150*
X020813Y017060D02*
X020963D01*
Y016960*
X020838Y016910D02*
X020813Y016885D01*
Y016835*
X020838Y016810*
X020863*
X020888Y016835*
Y016860*
Y016835*
X020913Y016810*
X020938*
X020963Y016835*
Y016885*
X020938Y016910*
X007410Y006330D02*
X007260D01*
Y006255*
X007285Y006230*
X007335*
X007360Y006255*
Y006330*
X007410Y006180D02*
Y006130D01*
Y006155*
X007260*
X007285Y006180*
X007410Y006055D02*
Y006005D01*
Y006030*
X007260*
X007285Y006055*
X010240Y005030D02*
X010365D01*
X010390Y005005*
Y004955*
X010365Y004930*
X010240*
X010390Y004780D02*
Y004880D01*
X010290Y004780*
X010265*
X010240Y004805*
Y004855*
X010265Y004880*
X017440Y006780D02*
X017290D01*
Y006705*
X017315Y006680*
X017365*
X017390Y006705*
Y006780*
X017440Y006630D02*
Y006580D01*
Y006605*
X017290*
X017315Y006630*
X017440Y006405D02*
Y006505D01*
X017340Y006405*
X017315*
X017290Y006430*
Y006480*
X017315Y006505*
X007561Y022187D02*
X007526Y022152D01*
X007544Y022169*
X007438Y022275*
X007473*
X007385Y022187D02*
X007349D01*
X007314Y022152*
Y022116*
X007385Y022046*
X007420*
X007455Y022081*
Y022116*
X007385Y022187*
X006162Y023408D02*
Y023372D01*
X006127Y023337*
X006092*
X006021Y023408*
Y023443*
X006056Y023478*
X006092*
X006109Y023461*
Y023425*
X006056Y023372*
X002380Y019510D02*
X002345Y019475D01*
X002362Y019492*
X002256Y019598*
X002292*
X003499Y018299D02*
X003570Y018370D01*
X003429*
X003411Y018388*
Y018423*
X003446Y018458*
X003482*
X022205Y012700D02*
X022180Y012675D01*
Y012625*
X022205Y012600*
X022230*
X022255Y012625*
X022280Y012600*
X022305*
X022330Y012625*
Y012675*
X022305Y012700*
X022280*
X022255Y012675*
X022230Y012700*
X022205*
X022255Y012675D02*
Y012625D01*
X019740Y012630D02*
Y012530D01*
X019765*
X019865Y012630*
X019890*
X019850Y016440D02*
Y016390D01*
Y016415*
X019700*
X019725Y016440*
X022370Y016350D02*
Y016450D01*
X022270Y016350*
X022245*
X022220Y016375*
Y016425*
X022245Y016450*
G54D70*
X016948Y014765D02*
X016878Y014694D01*
X016842Y014730*
X016913Y014800*
X016948Y014765*
G54D27*
X016877Y014765D02*
X016877D01*
X016913Y014765*
X016877Y014765*
G54D70*
X008496Y015425D02*
X008461Y015390D01*
X008390Y015461*
X008425Y015496*
X008496Y015425*
G54D27*
X008461Y015443D02*
X008461Y015461D01*
X008461Y015425*
X008461Y015443*
G54D70*
X018340Y016157D02*
X018270Y016086D01*
X018234Y016122*
X018305Y016192*
X018340Y016157*
G54D27*
X018269Y016157D02*
X018269D01*
X018305Y016157*
X018269Y016157*
G54D70*
X009887Y014033D02*
X009852Y013998D01*
X009782Y014069*
X009817Y014104*
X009887Y014033*
G54D27*
X009834Y014069D02*
X009852Y014069D01*
X009817Y014069*
X009834Y014069*
G54D70*
X014164Y011981D02*
X014094Y011910D01*
X014058Y011946*
X014129Y012016*
X014164Y011981*
G54D27*
X014093Y011981D02*
X014093D01*
X014129Y011981*
X014093Y011981*
G54D70*
X011279Y012641D02*
X011244Y012606D01*
X011174Y012677*
X011209Y012712*
X011279Y012641*
G54D27*
X011226Y012677D02*
X011244Y012677D01*
X011209Y012677*
X011226Y012677*
G54D70*
X015556Y013373D02*
X015486Y013302D01*
X015450Y013338*
X015521Y013408*
X015556Y013373*
G54D27*
X015485Y013373D02*
X015485D01*
X015521Y013373*
X015485Y013373*
G54D70*
X010305Y021130D02*
X010234Y021059D01*
X010199Y021094*
X010270Y021165*
X010305Y021130*
G54D27*
X010234Y021130D02*
X010234Y021129D01*
X010234Y021094*
X010258Y021106*
X010234Y021130*
G54D70*
X015138Y021790D02*
X015104Y021755D01*
X015033Y021826*
X015068Y021861*
X015138Y021790*
G54D27*
X015103Y021807D02*
X015103Y021826D01*
X015103Y021790*
X015103Y021807*
G54D70*
X011697Y022521D02*
X011626Y022451D01*
X011591Y022486*
X011662Y022556*
X011697Y022521*
G54D27*
X011626Y022521D02*
X011626D01*
X011662Y022521*
X011626Y022521*
G54D70*
X016530Y020398D02*
X016496Y020363D01*
X016425Y020434*
X016460Y020469*
X016530Y020398*
G54D27*
X016495Y020415D02*
X016495Y020434D01*
X016495Y020398*
X016495Y020415*
G54D70*
X007521Y018346D02*
X007451Y018275D01*
X007415Y018311*
X007486Y018381*
X007521Y018346*
G54D27*
X007450Y018346D02*
X007450D01*
X007486Y018346*
X007450Y018346*
G54D70*
X017922Y019006D02*
X017887Y018971D01*
X017817Y019042*
X017852Y019077*
X017922Y019006*
G54D27*
X017869Y019042D02*
X017887Y019042D01*
X017852Y019042*
X017869Y019042*
G54D70*
X008913Y019738D02*
X008843Y019667D01*
X008807Y019703*
X008878Y019773*
X008913Y019738*
G54D27*
X008842Y019738D02*
X008842D01*
X008878Y019738*
X008842Y019738*
M02*