%FSDAX24Y24*%
%MOIN*%
%SFA1B1*%

%IPPOS*%
%AMD18*
4,1,4,0.029200,0.001300,0.001300,0.029200,-0.029200,-0.001300,-0.001300,-0.029200,0.029200,0.001300,0.0*
%
%AMD36*
4,1,4,-0.041700,0.000000,0.000000,-0.041700,0.041700,0.000000,0.000000,0.041700,-0.041700,0.000000,0.0*
%
%AMD42*
4,1,4,0.000000,-0.041700,0.041700,0.000000,0.000000,0.041700,-0.041700,0.000000,0.000000,-0.041700,0.0*
%
%AMD46*
4,1,4,0.023700,-0.013900,-0.013900,0.023700,-0.023700,0.013900,0.013900,-0.023700,0.023700,-0.013900,0.0*
%
%AMD47*
4,1,4,0.013900,0.023700,-0.023700,-0.013900,-0.013900,-0.023700,0.023700,0.013900,0.013900,0.023700,0.0*
%
%AMD49*
4,1,4,-0.083500,0.041800,0.041800,-0.083500,0.083500,-0.041800,-0.041800,0.083500,-0.083500,0.041800,0.0*
%
%ADD10R,0.039400X0.043300*%
%ADD11R,0.043300X0.039400*%
G04~CAMADD=18~9~0.0~0.0~394.0~433.0~0.0~0.0~0~0.0~0.0~0.0~0.0~0~0.0~0.0~0.0~0.0~0~0.0~0.0~0.0~315.0~584.0~583.0*
%ADD18D18*%
%ADD24R,0.086600X0.078700*%
%ADD25R,0.051200X0.059100*%
%ADD26R,0.059100X0.051200*%
%ADD27C,0.010000*%
%ADD28C,0.030000*%
%ADD29C,0.020000*%
%ADD35C,0.059100*%
G04~CAMADD=36~10~0.0~590.4~0.0~0.0~0.0~0.0~0~0.0~0.0~0.0~0.0~0~0.0~0.0~0.0~0.0~0~0.0~0.0~0.0~135.0~590.4~0.0*
%ADD36D36*%
%ADD37C,0.051200*%
%ADD38R,0.059100X0.059100*%
%ADD39R,0.059100X0.059100*%
%ADD40R,0.066900X0.066900*%
%ADD41C,0.066900*%
G04~CAMADD=42~10~0.0~590.4~0.0~0.0~0.0~0.0~0~0.0~0.0~0.0~0.0~0~0.0~0.0~0.0~0.0~0~0.0~0.0~0.0~225.0~590.4~0.0*
%ADD42D42*%
%ADD43C,0.030000*%
G04~CAMADD=46~9~0.0~0.0~532.0~138.0~0.0~0.0~0~0.0~0.0~0.0~0.0~0~0.0~0.0~0.0~0.0~0~0.0~0.0~0.0~315.0~474.0~473.0*
%ADD46D46*%
G04~CAMADD=47~9~0.0~0.0~532.0~138.0~0.0~0.0~0~0.0~0.0~0.0~0.0~0~0.0~0.0~0.0~0.0~0~0.0~0.0~0.0~45.0~474.0~473.0*
%ADD47D47*%
%ADD48O,0.063000X0.011800*%
G04~CAMADD=49~9~0.0~0.0~1772.0~591.0~0.0~0.0~0~0.0~0.0~0.0~0.0~0~0.0~0.0~0.0~0.0~0~0.0~0.0~0.0~135.0~1670.0~1669.0*
%ADD49D49*%
%ADD50R,0.135800X0.061000*%
%ADD51R,0.043300X0.061000*%
%ADD52R,0.043300X0.061000*%
%ADD53R,0.016500X0.107900*%
%ADD54R,0.019700X0.013800*%
%ADD55R,0.051200X0.023600*%
%ADD56R,0.048000X0.035800*%
%ADD57R,0.033500X0.078700*%
%ADD58R,0.288000X0.233000*%
%ADD59R,0.251000X0.075000*%
%ADD70C,0.005000*%
%LNde-020717_copper_signal_bot-1*%
%LPD*%
G54D10*
X005700Y008235D03*
Y007565D03*
X022650Y007065D03*
Y007735D03*
X001650Y010715D03*
Y011385D03*
X002250Y010715D03*
Y011385D03*
X004550Y009639D03*
Y008970D03*
X025400Y011935D03*
Y011265D03*
X021150Y011715D03*
Y011045D03*
X005700Y009635D03*
Y008965D03*
X005120Y009635D03*
Y008965D03*
X003580Y008085D03*
Y007415D03*
X023250Y018261D03*
Y017591D03*
X023900Y018261D03*
Y017591D03*
X022550Y018261D03*
Y017591D03*
X021900Y018261D03*
Y017591D03*
X021250Y018261D03*
Y017591D03*
G54D11*
X022085Y016950D03*
X021415D03*
X003635Y011450D03*
X002965D03*
X003669Y016050D03*
X003000D03*
X021265Y007750D03*
X021935D03*
X020035D03*
X019365D03*
X021435Y004200D03*
X020765D03*
X020035D03*
X019365D03*
X023435Y016950D03*
X022765D03*
X006615Y014850D03*
X007285D03*
X006375Y016230D03*
X007045D03*
G54D18*
X005863Y017363D03*
X006337Y017837D03*
X021737Y019987D03*
X021263Y019513D03*
X017437Y024437D03*
X016963Y023963D03*
G54D24*
X020600Y008809D03*
Y009991D03*
X025000Y013209D03*
Y014391D03*
G54D25*
X007154Y015540D03*
X006406D03*
G54D26*
X004300Y007426D03*
Y008174D03*
X019500Y009026D03*
Y009774D03*
X024700Y009926D03*
Y010674D03*
X020430Y010966D03*
Y011714D03*
X006500Y008826D03*
Y009574D03*
X002900Y008174D03*
Y007426D03*
X020550Y018274D03*
Y017526D03*
G54D27*
X009610Y023010D02*
X011128D01*
X009470Y023150D02*
X009610Y023010D01*
X009100Y023150D02*
X009470D01*
X011030Y018870D02*
X011380Y018520D01*
X010080Y018870D02*
X011030D01*
X009360Y018150D02*
X010080Y018870D01*
X010740Y019410D02*
X011460Y018690D01*
X009728Y019410D02*
X010740D01*
X010968Y018720D02*
X011230Y018458D01*
X009410Y017970D02*
X010160Y018720D01*
X010968*
X010906Y018570D02*
X011080Y018396D01*
X010222Y018570D02*
X010906D01*
X009402Y017750D02*
X010222Y018570D01*
X009039Y018150D02*
X009360D01*
X008459Y018730D02*
X009039Y018150D01*
X008941Y017970D02*
X009410D01*
X008150Y017750D02*
X009402D01*
X008320Y018591D02*
X008941Y017970D01*
X007750Y017350D02*
X008150Y017750D01*
X014650Y022486D02*
Y023560D01*
X013350Y024860D02*
X014650Y023560D01*
X013350Y024860D02*
Y025250D01*
X016550Y022814D02*
Y023100D01*
X016350Y023300D02*
X016550Y023100D01*
X015935Y023300D02*
X016350D01*
X006070Y023550D02*
X006550D01*
X005150Y022630D02*
X006070Y023550D01*
X005150Y021914D02*
Y022630D01*
X011128Y023010D02*
X011931Y022207D01*
X008980Y023350D02*
X011100D01*
X008800Y023170D02*
X008980Y023350D01*
X006406Y023170D02*
X008800D01*
X005857Y022621D02*
X006406Y023170D01*
X001550Y017100D02*
X002660Y018210D01*
X001700Y017038D02*
X002722Y018060D01*
X001850Y016976D02*
X002784Y017910D01*
X002000Y016914D02*
X002846Y017760D01*
X002150Y016851D02*
X002909Y017610D01*
X002300Y016789D02*
X002971Y017460D01*
X002450Y016727D02*
X003033Y017310D01*
X002600Y016665D02*
X003095Y017160D01*
X004110*
X003033Y017310D02*
X003893D01*
X002971Y017460D02*
X003831D01*
X002909Y017610D02*
X003769D01*
X002846Y017760D02*
X003706D01*
X002784Y017910D02*
X003644D01*
X002722Y018060D02*
X003582D01*
X002660Y018210D02*
X003500D01*
X003644Y017910D02*
X005134Y019400D01*
X003706Y017760D02*
X005186Y019240D01*
X003769Y017610D02*
X005085Y018927D01*
X003831Y017460D02*
X004984Y018613D01*
X003500Y018210D02*
X004990Y019700D01*
X003582Y018060D02*
X005072Y019550D01*
X003893Y017310D02*
X004883Y018300D01*
X004110Y017160D02*
X004850Y017900D01*
X004470Y017010D02*
X004630Y017170D01*
X003380Y017010D02*
X004470D01*
X003250Y016880D02*
X003380Y017010D01*
X018090Y012753D02*
Y013891D01*
X017940Y012816D02*
Y013954D01*
X017790Y012879D02*
Y014016D01*
X017640Y012941D02*
Y014078D01*
X019527Y015329D02*
Y019624D01*
X019377Y015391D02*
Y019562D01*
X019227Y015453D02*
Y019500D01*
X019077Y015515D02*
Y019438D01*
X018090Y013891D02*
X019527Y015329D01*
X017940Y013954D02*
X019377Y015391D01*
X017790Y014016D02*
X019227Y015453D01*
X017640Y014078D02*
X019077Y015515D01*
X018927Y015577D02*
Y019375D01*
X017950Y014600D02*
X018927Y015577D01*
X017600Y014600D02*
X017950D01*
X013120Y008421D02*
X017640Y012941D01*
X013270Y008359D02*
X017790Y012879D01*
X013420Y008296D02*
X017940Y012816D01*
X016630Y011293D02*
X018090Y012753D01*
X018650Y018384D02*
Y018400D01*
X007660Y008340D02*
X007840Y008160D01*
X007660Y008340D02*
Y009670D01*
X007840Y008160D02*
X008170D01*
X016310Y019140D02*
X016735Y019565D01*
X016741*
X016040Y019400D02*
X016100Y019460D01*
X016357*
X016602Y019705*
X014370Y019490D02*
X015060Y018800D01*
X014300Y019340D02*
X015140Y018500D01*
X014240Y019180D02*
X015100Y018320D01*
X015250Y020023D02*
X015766Y020540D01*
X015250Y019530D02*
Y020023D01*
X014400Y020250D02*
X015198D01*
X015627Y020679*
X014109Y012543D02*
X014396Y012256D01*
X013960Y012394D02*
X014246Y012107D01*
X013820Y012255D02*
X014070Y012005D01*
X016270Y021120D02*
X016280D01*
X016248Y021098D02*
X016270Y021120D01*
X014932Y013368D02*
X014934D01*
X011690Y017380D02*
Y017740D01*
X014387Y012822D02*
X014696Y012513D01*
X015908Y014353D02*
X015913Y014348D01*
X014248Y012682D02*
X014546Y012384D01*
X016604Y015049D02*
X016890Y014763D01*
X014666Y013100D02*
X015030Y012736D01*
X010885Y005003D02*
X011370D01*
X010885Y005200D02*
X011354D01*
X010320Y006580D02*
X010322Y006578D01*
X010885*
X010300Y007750D02*
X010309Y007759D01*
X010885*
X010434Y001066D02*
X010885D01*
X010350Y001150D02*
X010434Y001066D01*
X010350Y001400D02*
X010410Y001460D01*
X010885*
X015215Y004806D02*
X015656D01*
X014468Y006972D02*
X015215D01*
X014865Y005003D02*
X015215D01*
X014256Y002444D02*
X015215D01*
X014701Y004019D02*
X015215D01*
X014652Y002838D02*
X015215D01*
X014709Y005791D02*
X015215D01*
X014825Y003035D02*
X015215D01*
X014772Y003428D02*
X015215D01*
X014833Y001263D02*
X015215D01*
X010715Y002838D02*
X010885D01*
X014857Y001657D02*
X015215D01*
X014557Y005397D02*
X015215D01*
X014754Y001854D02*
X015215D01*
X014850Y005200D02*
X015215D01*
X014737Y002247D02*
X015215D01*
X014550Y005950D02*
X014709Y005791D01*
X014550Y005950D02*
Y006100D01*
X017300Y015734D02*
X017550Y015485D01*
Y015050D02*
Y015485D01*
Y015050D02*
X017700Y014900D01*
X015750Y009050D02*
Y009315D01*
X015640Y008940D02*
X015750Y009050D01*
X015215Y008940D02*
X015640D01*
X015750Y009315D02*
Y009650D01*
X015731Y009334D02*
X015750Y009315D01*
X015215Y009334D02*
X015731D01*
X003894Y008916D02*
X004034D01*
X004100Y008850*
Y008500D02*
Y008850D01*
Y008500D02*
X004300Y008300D01*
X003567Y009083D02*
X003655Y009172D01*
X003862*
X002100Y009744D02*
X002556D01*
X003894Y009684D02*
Y010056D01*
X004300Y008174D02*
Y008300D01*
X003862Y009172D02*
X004178D01*
X004385Y008965*
X004500*
X003894Y009428D02*
X004128D01*
X004335Y009635*
X004500*
X003850Y010100D02*
X003894Y010056D01*
X002300Y009050D02*
X002422Y009172D01*
X001650Y009500D02*
X001722Y009428D01*
X001650Y009500D02*
Y009550D01*
X001722Y009428D02*
X002806D01*
X002422Y009172D02*
X002806D01*
X002616Y009684D02*
X002806D01*
X002556Y009744D02*
X002616Y009684D01*
X016248Y020737D02*
Y021098D01*
X015908Y020397D02*
X016248Y020737D01*
X016187Y020119D02*
X016518Y020450D01*
X016326Y019980D02*
X016596Y020250D01*
X016047Y020258D02*
X016058D01*
X008550Y023490D02*
Y023510D01*
X016770Y014325D02*
Y014470D01*
X014527Y012961D02*
X014846Y012641D01*
X015215Y007168D02*
X015869D01*
X007565Y016230D02*
X007905Y016570D01*
X015800Y001200D02*
Y001460D01*
X015666Y001066D02*
X015800Y001200D01*
Y001460D02*
X015975D01*
X015215D02*
X015800D01*
X016310Y013480D02*
Y013500D01*
X016384Y002050D02*
X016795Y001640D01*
X016840*
X015975Y001460D02*
X016165Y001650D01*
X014755Y004893D02*
X014865Y005003D01*
X013757Y004893D02*
X014755D01*
X013640Y005010D02*
X013757Y004893D01*
X014733Y005083D02*
X014850Y005200D01*
X014227Y005083D02*
X014733D01*
X014110Y005200D02*
X014227Y005083D01*
X014460Y006980D02*
X014468Y006972D01*
X015070Y014356D02*
X015491Y013935D01*
X015070Y014356D02*
Y014390D01*
X014527Y012961D02*
D01*
X010885Y004806D02*
X011385D01*
X010885Y007365D02*
X011262D01*
X011826Y003960D02*
X011870D01*
X014250Y003950D02*
X014772Y003428D01*
X014400Y003460D02*
X014825Y003035D01*
X014250Y003460D02*
X014400D01*
X014650Y001450D02*
X014857Y001657D01*
X014650Y001350D02*
Y001450D01*
X014250Y000950D02*
X014650Y001350D01*
X014350Y001450D02*
X014754Y001854D01*
X014250Y001450D02*
X014350D01*
X014450Y001960D02*
X014737Y002247D01*
X014250Y001960D02*
X014450D01*
X014250Y004470D02*
X014701Y004019D01*
X014250Y002450D02*
X014256Y002444D01*
X014720Y001150D02*
X014833Y001263D01*
X011680Y001960D02*
X011870D01*
X011393Y002247D02*
X011680Y001960D01*
X010885Y002247D02*
X011393D01*
X011740Y003460D02*
X011870D01*
X011315Y003035D02*
X011740Y003460D01*
X010885Y003035D02*
X011315D01*
X011323Y001657D02*
X011510Y001470D01*
Y001330D02*
Y001470D01*
Y001330D02*
X011870Y000970D01*
X010885Y001657D02*
X011323D01*
X011870Y000960D02*
Y000970D01*
X011476Y001854D02*
X011870Y001460D01*
X010885Y001854D02*
X011476D01*
X010885Y002444D02*
X011854D01*
X011295Y003428D02*
X011826Y003960D01*
X010885Y003428D02*
X011295D01*
X010885Y006972D02*
X011322D01*
X015381Y020984D02*
X015384D01*
X016890Y014590D02*
Y014763D01*
X014750Y014119D02*
X015212Y013657D01*
X014750Y014119D02*
Y014740D01*
X016770Y014470D02*
X016890Y014590D01*
X010810Y016290D02*
Y016670D01*
X011173Y016163D02*
Y016417D01*
X011123Y016467D02*
X011173Y016417D01*
X004990Y012760D02*
X005025D01*
X005574Y012836D02*
X005674D01*
X007155Y016230D02*
X007565D01*
X003335Y013227D02*
Y015090D01*
Y013227D02*
X004302Y012260D01*
X005330Y012680D02*
X005558Y012453D01*
X014550Y002940D02*
X014652Y002838D01*
X014250Y002940D02*
X014550D01*
X015215Y003822D02*
X016158D01*
X016160Y003820*
X015215Y002641D02*
X015711D01*
X015860Y002790*
X016160*
X016130Y007600D02*
X016150Y007620D01*
X015215Y003232D02*
X016383D01*
X016845Y002770*
X010885Y002838D02*
X011558D01*
X011680Y002960*
X011870*
X014506Y021789D02*
X014890Y022173D01*
Y024250*
X007510Y018917D02*
Y018950D01*
X013542Y022774D02*
X013930Y023162D01*
X007735Y018887D02*
X008173Y018449D01*
X008215Y019520D02*
X008730Y019006D01*
X016047Y020258D02*
X016600Y020811D01*
X017750Y016955D02*
X018133Y016573D01*
X017750Y016955D02*
Y017050D01*
X017246Y018400D02*
X017576Y018730D01*
X017100Y018400D02*
X017246D01*
X013297Y012500D02*
X013679Y012119D01*
X013250Y012500D02*
X013297D01*
X013200Y011700D02*
X013479Y011979D01*
X013539*
X010964Y013510D02*
X011350Y013896D01*
Y013900*
X010750Y013018D02*
X011103Y013371D01*
X010750Y013000D02*
Y013018D01*
X009155Y019426D02*
X009450Y019131D01*
Y018900D02*
Y019131D01*
X009350Y018800D02*
X009450Y018900D01*
X010686Y020957D02*
X010993Y020650D01*
X011250*
X011300Y020700*
X010547Y020818D02*
X010850Y020515D01*
Y020300D02*
Y020515D01*
X010800Y020250D02*
X010850Y020300D01*
X011660Y021932D02*
X012092Y021500D01*
X012100*
X012495Y022767D02*
X012862Y022400D01*
X012900*
X012356Y022628D02*
X012600Y022384D01*
Y022250D02*
Y022384D01*
Y022250D02*
X012900Y021950D01*
X007595Y017895D02*
X007624D01*
X007400Y017700D02*
X007595Y017895D01*
X016200Y015165D02*
X016462Y014902D01*
X016056Y015030D02*
X016323Y014763D01*
X015800Y015030D02*
X016056D01*
X016200Y015165D02*
Y015400D01*
X018272Y016712D02*
X018600Y016384D01*
Y016200D02*
Y016384D01*
X009433Y015042D02*
X009841Y015450D01*
X011150*
X009572Y014902D02*
X009870Y015200D01*
X010700*
X011150Y014750*
X010000Y005800D02*
X010885D01*
X010895Y005791*
X014810Y007360D02*
X015210D01*
X014450Y007550D02*
Y007634D01*
X014522Y007562*
X015215*
Y007759D02*
X015591D01*
X015750Y007600*
X016130*
X015215Y008350D02*
X015700D01*
X015850Y008500*
X010885Y004019D02*
X010895D01*
X010811Y011243D02*
X010870Y011183D01*
X009588Y011150D02*
X010718D01*
X010811Y011243*
X009650Y011300D02*
X010550D01*
X009207Y013697D02*
X009993Y014482D01*
X009010Y012780D02*
X009207Y012977D01*
X009370Y013591D02*
X010132Y014353D01*
X010550Y011300D02*
X010800Y011550D01*
X010543Y011950D02*
X010550Y011957D01*
X011173Y016163D02*
X011303Y016033D01*
X009929Y012929D02*
X009950Y012950D01*
X009929Y012285D02*
Y012929D01*
X010210Y011690D02*
Y013313D01*
X010686Y013789*
X010380Y013205D02*
X010825Y013650D01*
X010380Y012127D02*
Y013205D01*
Y012127D02*
X010550Y011957D01*
X009480Y012190D02*
X009670Y012380D01*
X009200Y012360D02*
X009520Y012680D01*
X009200Y011750D02*
Y012360D01*
Y011750D02*
X009650Y011300D01*
X009050Y011688D02*
X009588Y011150D01*
X009050Y011688D02*
Y012440D01*
X009370Y012760*
X008670Y012570D02*
Y012920D01*
Y012570D02*
X008890Y012350D01*
Y011610D02*
Y012350D01*
X014270Y007270D02*
X014720D01*
X014810Y007360*
X014450Y013760D02*
X014540D01*
X014380Y014200D02*
X015070Y013510D01*
X016596Y020250D02*
X016820D01*
X017060Y020010*
X016743Y015178D02*
X017161Y014761D01*
X017160Y014340D02*
X017161Y014341D01*
Y014761*
X016880Y015320D02*
X017600Y014600D01*
X016310Y013480D02*
X016600Y013190D01*
X015908Y014343D02*
X016750Y013501D01*
X016047Y014492D02*
X016900Y013639D01*
X016187Y014631D02*
X017050Y013768D01*
X015215Y004216D02*
X015225D01*
X015215Y004413D02*
X015225D01*
X015215Y004610D02*
X016810D01*
X017250Y005050*
X015225Y004216D02*
X017084D01*
X017200Y004100*
X015225Y004413D02*
X017063D01*
X016600Y020750D02*
Y020811D01*
X015242Y021123D02*
X016219Y022100D01*
X015384Y020984D02*
X016300Y021900D01*
X015521Y020845D02*
X016376Y021700D01*
X015215Y006578D02*
X015872D01*
X016000Y006450*
X016150*
X015215Y006184D02*
X015766D01*
X015957Y005993*
X015225Y005594D02*
X016594D01*
X015957Y005993D02*
X016493D01*
X017063Y004413D02*
X017500Y004850D01*
X015819Y006381D02*
X016057Y006143D01*
X015215Y006381D02*
X015819D01*
X016057Y006143D02*
X016393D01*
X011850Y022567D02*
X012070Y022346D01*
X015841Y005843D02*
X016593D01*
X015215Y005987D02*
X015696D01*
X015841Y005843*
X015064Y021214D02*
X015500Y021650D01*
X014954Y021392D02*
X015350Y021788D01*
X014803Y021523D02*
X015200Y021920D01*
X014646Y021650D02*
X015050Y022055D01*
X015764Y024250D02*
X016110D01*
X015050Y023536D02*
X015764Y024250D01*
X015050Y022055D02*
Y023536D01*
X015656Y004806D02*
X015750Y004900D01*
Y005200*
X010531Y006381D02*
X010895D01*
X010300Y006150D02*
X010531Y006381D01*
X016200Y023000D02*
X016250D01*
X015850Y023200D02*
Y023215D01*
X015935Y023300*
X008041Y016434D02*
X008300Y016692D01*
X008200Y017450D02*
X008300Y017350D01*
Y016692D02*
Y017350D01*
X005471Y012939D02*
Y017471D01*
X007520Y019520*
X008215*
X005021Y013351D02*
Y017657D01*
X005321Y012877D02*
Y017533D01*
X005471Y012939D02*
X005574Y012836D01*
X005330Y012680D02*
Y012868D01*
X005321Y012877D02*
X005330Y012868D01*
X005025Y012760D02*
X005171Y012906D01*
Y017595*
X004430Y012760D02*
X005021Y013351D01*
X006850Y018240D02*
X006870Y018220D01*
X007655Y018410D02*
X007895Y018170D01*
X006850Y018240D02*
Y018250D01*
X007310*
X007470Y018410*
X007655*
X007723Y018620D02*
X008034Y018310D01*
X007330Y018620D02*
X007723D01*
X008207Y019250D02*
X008591Y018866D01*
X007840Y019170D02*
Y019240D01*
X007920Y019250D02*
X008207D01*
X008460Y019554D02*
Y019670D01*
Y019554D02*
X008869Y019145D01*
X007840Y019170D02*
X007920Y019250D01*
X007480Y018887D02*
X007735D01*
X007480D02*
X007510Y018917D01*
X008200Y017450D02*
X008300D01*
X006900Y017650D02*
X007200Y017350D01*
X006900Y017650D02*
Y017750D01*
X002000Y013450D02*
X002300Y013750D01*
Y013200D02*
X002450Y013350D01*
X001600Y013850D02*
Y013950D01*
X002000Y014350*
X001635Y011400D02*
X001650Y011385D01*
X001250Y013150D02*
X002150Y014050D01*
X001215Y011385D02*
X001650D01*
X001200Y011400D02*
X001215Y011385D01*
X002600Y012850D02*
Y016665D01*
X002450Y013350D02*
Y016727D01*
X002300Y013750D02*
Y016789D01*
X002150Y014050D02*
Y016851D01*
X002000Y014350D02*
Y016914D01*
X001850Y014576D02*
Y016976D01*
X001700Y014638D02*
Y017038D01*
X001550Y014700D02*
Y017100D01*
X000800Y013950D02*
X001550Y014700D01*
X000800Y012888D02*
Y013950D01*
X000950Y012950D02*
Y013888D01*
X001700Y014638*
X001250Y013600D02*
Y013976D01*
X001850Y014576*
X000950Y012950D02*
X001350Y012550D01*
X002900*
X000800Y012888D02*
X001288Y012400D01*
X002400*
X002650Y012150*
X002900*
X007551Y016500D02*
X007763Y016712D01*
X007350Y016500D02*
X007551D01*
X007152Y016698D02*
X007350Y016500D01*
X006422Y016698D02*
X007152D01*
X006410Y016710D02*
X006422Y016698D01*
X009500Y006300D02*
X010000Y005800D01*
X009500Y006300D02*
Y011000D01*
X008890Y011610D02*
X009500Y011000D01*
X009835Y008200D02*
X009984Y008350D01*
X010895*
X009835Y006750D02*
Y007035D01*
X009969Y007168*
X010895*
X009835Y002825D02*
Y003085D01*
X009981Y003232*
X010895*
X009835Y001750D02*
Y001885D01*
X010000Y002050*
X010895*
X010320Y002640D02*
X010321Y002641D01*
X010320Y003810D02*
X010332Y003822D01*
X010885*
X010321Y002641D02*
X010885D01*
X017158Y019148D02*
X017461Y019450D01*
X016518Y020450D02*
X016700D01*
X017000Y020750*
Y020850*
X017461Y019450D02*
Y020439D01*
X017300Y020600D02*
X017461Y020439D01*
X016219Y022100D02*
X016839D01*
X016300Y021900D02*
X016827D01*
X016376Y021700D02*
X016815D01*
X016700Y021150D02*
X017153D01*
X016250Y022901D02*
Y023000D01*
X017298Y019009D02*
X017689Y019400D01*
X018000*
X017854Y018452D02*
X018100Y018698D01*
X017437Y018869D02*
X017667Y019100D01*
X018100Y018698D02*
Y018900D01*
X018300Y019100*
X018650*
X017667D02*
X018088D01*
X018388Y019400D02*
X018400D01*
X018088Y019100D02*
X018388Y019400D01*
X017994Y018313D02*
X018400Y018719D01*
Y018750*
X017212Y018088D02*
X017715Y018591D01*
X016938Y018100D02*
X016950Y018088D01*
X017212*
X017802Y017843D02*
X018133Y018173D01*
X003736Y020500D02*
Y021236D01*
X004200Y021700*
X004650*
X004900Y021450*
X005912Y019400D02*
X006312Y019800D01*
X006750*
X005850Y019550D02*
X006400Y020100D01*
X007250*
X004443Y020507D02*
Y021207D01*
X005762Y019700D02*
X006312Y020250D01*
X004443Y020507D02*
X005100Y019850D01*
X005700*
X006300Y020450*
X005150Y020500D02*
Y020600D01*
X006312Y020250D02*
X007162D01*
X006300Y020450D02*
X007150D01*
X005150Y020600D02*
X007088D01*
X007150Y020450D02*
X008050Y021350D01*
X008650*
X004900Y021450D02*
X005400D01*
X005650Y021700*
X006100*
X013900Y015600D02*
Y015690D01*
X010547Y013928D02*
X010889Y014270D01*
X010727Y015883D02*
X011953D01*
X012360Y016290*
X011303Y016033D02*
X011733D01*
X010407Y014067D02*
X010770Y014430D01*
X012370Y015410D02*
Y015910D01*
X012520Y015472D02*
Y015790D01*
X012370Y015410D02*
X012500Y015280D01*
X012520Y015472D02*
X012650Y015342D01*
X011243Y013232D02*
X011244D01*
X010889Y014270D02*
X012070D01*
X010770Y014430D02*
X011980D01*
X018107Y015320D02*
X018110D01*
X017579Y016013D02*
X017831Y015760D01*
X018240*
X018400Y015600*
X018050Y015263D02*
X018107Y015320D01*
X017437Y015877D02*
X017744Y015570D01*
X017860*
X018110Y015320*
X016800Y018100D02*
X016938D01*
X012520Y015790D02*
X012660Y015930D01*
X013660*
X013900Y015690*
X012370Y015910D02*
X012730Y016270D01*
X018550Y016200D02*
X018600D01*
X012730Y016270D02*
X015810D01*
X009850Y009120D02*
Y009700D01*
Y009120D02*
X010030Y008940D01*
X010885*
X010390Y009210D02*
X010463Y009137D01*
X010895*
X010390Y009210D02*
Y009790D01*
X011170Y010570*
X010885Y008546D02*
X011236D01*
X010885Y008743D02*
X011221D01*
X012950Y006700D02*
X012960Y006710D01*
X011221Y008743D02*
X011320Y008842D01*
X011236Y008546D02*
X011470Y008780D01*
X015030Y011603D02*
Y012736D01*
X014846Y011632D02*
Y012641D01*
X014696Y011694D02*
Y012513D01*
X014546Y011756D02*
Y012384D01*
X014396Y011818D02*
Y012256D01*
X014246Y011880D02*
Y012107D01*
X014070Y011916D02*
Y012005D01*
X014473Y009137D02*
X015225D01*
X014291Y008743D02*
X015225D01*
X012550Y010490D02*
X012856D01*
X014246Y011880*
X011620Y009042D02*
X014396Y011818D01*
X011770Y008980D02*
X014546Y011756D01*
X011920Y008918D02*
X014696Y011694D01*
X012070Y008856D02*
X014846Y011632D01*
X012220Y008793D02*
X015030Y011603D01*
X013570Y008234D02*
X014473Y009137D01*
X013742Y008194D02*
X014291Y008743D01*
X013900Y008140D02*
X014306Y008546D01*
X015225*
X014390Y007920D02*
X014426Y007956D01*
X015225*
X012950Y005400D02*
X013150D01*
X012950Y005800D02*
X013140D01*
X012950Y006250D02*
X013090D01*
X011322Y006972D02*
X011430Y007080D01*
X011470Y008780D02*
Y012062D01*
X011320Y008842D02*
Y012190D01*
X010870Y009710D02*
X010895Y009685D01*
Y009334D02*
Y009685D01*
X010885Y004609D02*
X011419D01*
X010885Y004415D02*
X011437D01*
X010885Y004216D02*
X011450D01*
X010895Y004019D02*
X011519D01*
X012450Y004950*
X012600*
X021927Y007074D02*
X022641D01*
X019365Y007125D02*
Y007750D01*
Y007125D02*
X019510Y006980D01*
Y006723D02*
Y006980D01*
X019487Y006700D02*
X019510Y006723D01*
X019473Y005274D02*
Y006073D01*
X020313Y006913*
Y007074*
X020300Y005648D02*
X020962D01*
X021100Y005510*
Y005274D02*
Y005510D01*
X021070Y006730D02*
X021100Y006700D01*
X019473Y004753D02*
Y005274D01*
X019365Y004645D02*
X019473Y004753D01*
X019365Y004200D02*
Y004645D01*
X021990Y004200D02*
X022390Y004600D01*
X021435Y004200D02*
X021990D01*
X021490Y003870D02*
Y004145D01*
X021435Y004200D02*
X021490Y004145D01*
X016393Y006143D02*
X016630Y006380D01*
Y011293*
X016493Y005993D02*
X016780Y006280D01*
Y011231*
X016593Y005843D02*
X016930Y006180D01*
Y011169*
X016594Y005594D02*
X017080Y006080D01*
Y011106*
X017530Y006020D02*
Y010920D01*
Y006020D02*
X017850Y005700D01*
X017380Y005920D02*
Y010982D01*
Y005920D02*
X017500Y005800D01*
Y004850D02*
Y005800D01*
X017200Y005450D02*
X017230Y005480D01*
Y011044*
X010630Y015730D02*
X012220D01*
X010370Y015990D02*
X010630Y015730D01*
X010520Y016090D02*
X010727Y015883D01*
X009016Y015459D02*
X010220Y016664D01*
X007200Y017350D02*
X007750D01*
X008180Y016294D02*
X008556Y016670D01*
X008560*
X010220Y016664D02*
Y017100D01*
X010520Y016090D02*
Y016976D01*
X010370Y015990D02*
Y017038D01*
X010520Y016976D02*
X011380Y017836D01*
X010370Y017038D02*
X011230Y017898D01*
X008459Y016016D02*
X008740Y016297D01*
Y016638*
X008598Y015877D02*
X008940Y016219D01*
X010090Y018200D02*
X010740D01*
X009977Y017875D02*
X010405D01*
X008560Y016670D02*
X010090Y018200D01*
X008740Y016638D02*
X009977Y017875D01*
X008940Y016219D02*
Y016610D01*
X009880Y017550*
X010070*
X003250Y016700D02*
Y016880D01*
X003027Y013323D02*
Y015217D01*
X003260Y015450*
X003729*
X002940Y015540D02*
Y015990D01*
X003000Y016050*
X003669D02*
Y016609D01*
X003780Y016720*
X004883Y018300D02*
X005200D01*
X004984Y018613D02*
X005510D01*
X005085Y018927D02*
X005810D01*
X005186Y019240D02*
X006160D01*
X005134Y019400D02*
X005912D01*
X005072Y019550D02*
X005850D01*
X004990Y019700D02*
X005762D01*
X010800Y019750D02*
X011250Y020200D01*
X009711Y019983D02*
X009944Y019750D01*
X011800Y020300D02*
Y020750D01*
X009709Y019150D02*
X010050D01*
X009294Y019565D02*
X009709Y019150D01*
X009572Y019844D02*
X009816Y019600D01*
X011100*
X011800Y020300*
X016100Y018500D02*
X016200Y018600D01*
X016400*
X015900Y017750D02*
X015957Y017693D01*
X018209*
X018411Y017895*
X018650Y018384D02*
X018748Y018287D01*
X022650Y006400D02*
Y007065D01*
X022641Y007074D02*
X022650Y007065D01*
X018748Y017857D02*
Y018287D01*
X009944Y019750D02*
X010800D01*
X019365Y007750D02*
Y007985D01*
X019100Y008250D02*
X019365Y007985D01*
X019100Y008250D02*
Y009750D01*
X018950Y009900D02*
X019100Y009750D01*
X018600Y009900D02*
X018950D01*
X018400Y009700D02*
X018600Y009900D01*
X017950Y009700D02*
X018400D01*
X017700Y009950D02*
X017950Y009700D01*
X008705Y019587D02*
X009008Y019284D01*
X008705Y019587D02*
Y020150D01*
X008655Y020100D02*
X008705Y020150D01*
X008650Y020100D02*
X008655D01*
X008050Y022050D02*
X008550D01*
X007150Y023450D02*
Y023580D01*
X007850Y023450D02*
Y023520D01*
X005857Y021207D02*
X006214Y020850D01*
X007100*
X006100Y021700D02*
X006650Y021150D01*
X007150*
X008050Y022050*
X018200Y004200D02*
X018850Y003550D01*
X021170*
X021490Y003870*
X015490Y013020D02*
X015620Y013150D01*
Y013527*
X015352Y013796D02*
X015620Y013527D01*
X015630Y014074D02*
X015850Y013854D01*
Y012850D02*
Y013854D01*
X016050Y013220D02*
X016170Y013100D01*
X016050Y013220D02*
Y013932D01*
X015769Y014213D02*
X016050Y013932D01*
X016770Y014325D02*
X017200Y013895D01*
X015250Y012340D02*
X015380Y012210D01*
X015250Y012340D02*
Y012784D01*
X014795Y013239D02*
X015250Y012784D01*
X015550Y012600D02*
X015600D01*
X015850Y012850*
X012217Y022489D02*
X012450Y022255D01*
Y021900D02*
Y022255D01*
Y021900D02*
X012850Y021500D01*
X012900*
X010220Y017100D02*
X011080Y017960D01*
Y018396*
X011230Y017898D02*
Y018458D01*
X011380Y017836D02*
Y018520D01*
X011650Y019050D02*
Y019750D01*
X012150Y020250*
Y020500*
X012200Y019050D02*
Y019750D01*
X012650Y020200*
Y020500*
X009280Y022790D02*
X011070D01*
X011792Y022068*
X008550Y022900D02*
X008850D01*
X009900Y022011D02*
Y022050D01*
Y022011D02*
X010818Y021093D01*
X007050Y022400D02*
X010500D01*
X006564Y021914D02*
X007050Y022400D01*
X008850Y022900D02*
X009100Y023150D01*
X011850Y022567D02*
Y022800D01*
X012450Y023400*
X013300*
X005890Y014440D02*
Y016560D01*
X005700Y014250D02*
X005890Y014440D01*
X005700Y013550D02*
Y014250D01*
Y013550D02*
X006000Y013250D01*
X007900Y004650D02*
X008450D01*
X007600Y004350D02*
X007900Y004650D01*
X014720Y000920D02*
Y001150D01*
X015800Y001750D02*
Y002050D01*
X015215D02*
X015225D01*
X015800*
X016384*
X010350Y001400D02*
Y001750D01*
Y001150D02*
Y001400D01*
X011450Y000950D02*
Y001100D01*
X011287Y001263D02*
X011450Y001100D01*
X010885Y001263D02*
X010895D01*
X011287*
X022390Y004600D02*
Y005190D01*
X021100Y005274D02*
X022306D01*
X022390Y005190*
X022250Y006000D02*
X022650Y006400D01*
X021265Y007400D02*
X022950D01*
X023000Y007350*
Y006200D02*
Y007350D01*
X022448Y005648D02*
X023000Y006200D01*
X021265Y007400D02*
Y007750D01*
X021927Y005648D02*
X022448D01*
X008650Y001600D02*
Y003750D01*
X007600Y002438D02*
Y004350D01*
X019500Y003000D02*
X019600D01*
X008257Y015258D02*
X008737Y015738D01*
X008257Y014907D02*
Y015258D01*
X008450Y014850D02*
Y015172D01*
X008876Y015598*
X006000Y013907D02*
X006657D01*
X007250Y014500*
X006300Y013550D02*
X006550D01*
X007350Y014350*
X006000Y013250D02*
X006500D01*
X007400Y014150*
X005558Y012453D02*
X006153D01*
X007250Y014500D02*
X007850D01*
X008257Y014907*
X007350Y014350D02*
X007950D01*
X008450Y014850*
X007400Y014150D02*
X007990D01*
X009157Y015317*
X008113Y014000D02*
X009294Y015181D01*
X003027Y013323D02*
X004240Y012110D01*
X004302Y012260D02*
X006324D01*
X007307Y013243*
X006153Y012453D02*
X007050Y013350D01*
X009670Y012380D02*
Y013170D01*
X009900Y013400*
X009520Y012680D02*
Y013462D01*
X010271Y014213*
X009370Y012760D02*
Y013591D01*
X009207Y012977D02*
Y013697D01*
X008670Y012920D02*
X008950Y013200D01*
Y013300*
X008998Y014050D02*
X009711Y014763D01*
X008950Y014098D02*
X008998Y014050D01*
X008950Y014098D02*
Y014100D01*
X004240Y012110D02*
X006410D01*
X009027Y013800D02*
X009851Y014624D01*
X006410Y012110D02*
X007500Y013200D01*
X007307Y013243D02*
Y013757D01*
X007550Y014000*
X008113*
X007500Y013200D02*
Y013700D01*
X007600Y013800*
X009027*
X004850Y006500D02*
X006800D01*
X002600Y006850D02*
X006600D01*
X002400Y007050D02*
X002600Y006850D01*
X002400Y007050D02*
Y008200D01*
X008450Y013150D02*
Y013450D01*
X008000Y013200D02*
Y013450D01*
X006600Y006850D02*
X007050Y007300D01*
Y012250*
X008000Y013200*
X006800Y006500D02*
X007300Y007000D01*
Y012000*
X008450Y013150*
X007162Y020250D02*
X007962Y021050D01*
X010036*
X010407Y020679*
X007250Y020100D02*
X008050Y020900D01*
X009908*
X010268Y020540*
X005021Y017657D02*
X008114Y020750D01*
X009769*
X010122Y020397*
X005171Y017595D02*
X008176Y020600D01*
X009641*
X009983Y020258*
X005321Y017533D02*
X008238Y020450D01*
X009512*
X009843Y020119*
X007088Y020600D02*
X008095Y021607D01*
X007100Y020850D02*
X008007Y021757D01*
X008095Y021607D02*
X008917D01*
X009125Y021400*
X009550*
X008007Y021757D02*
X008957D01*
X009100Y021900*
Y022050*
X016200Y017950D02*
X016307Y017843D01*
X016200Y017950D02*
Y018050D01*
X018384Y017493D02*
X018748Y017857D01*
X013930Y023162D02*
Y023421D01*
X015100Y018320D02*
X016570D01*
X015140Y018500D02*
X016100D01*
X015060Y018800D02*
X015850D01*
X011382Y021653D02*
X012245Y020790D01*
X012830*
X012950Y020670*
X017153Y021150D02*
X018927Y019375D01*
X016815Y021700D02*
X019077Y019438D01*
X016827Y021900D02*
X019227Y019500D01*
X016839Y022100D02*
X019377Y019562D01*
X016250Y022901D02*
X019527Y019624D01*
X016550Y022814D02*
X019677Y019686D01*
X016850Y022938D02*
X019977Y019810D01*
X017000Y023000D02*
X020127Y019873D01*
X016700Y022876D02*
X019827Y019748D01*
X019580Y014110D02*
X019827Y014357D01*
X019750Y014030D02*
X019977Y014257D01*
X019900Y013940D02*
X020127Y014167D01*
X012370Y008731D02*
X016600Y012961D01*
Y013190*
X012520Y008669D02*
X016750Y012899D01*
Y013501*
X012670Y008607D02*
X016900Y012837D01*
Y013639*
X012820Y008545D02*
X017050Y012775D01*
Y013768*
X012970Y008483D02*
X017200Y012713D01*
Y013895*
X016930Y011169D02*
X018950Y013189D01*
Y013750*
X017080Y011106D02*
X019300Y013326D01*
Y013550*
X017230Y011044D02*
X019580Y013394D01*
Y014110*
X017380Y010982D02*
X019750Y013352D01*
Y014030*
X017530Y010920D02*
X019900Y013290D01*
Y013940*
X017700Y009950D02*
Y010870D01*
X020060Y013230*
Y013360*
X020220Y013520*
X018950Y013750D02*
X019677Y014477D01*
X019420Y014720D02*
Y014770D01*
X019677Y014477D02*
Y019686D01*
X019827Y014357D02*
Y019748D01*
X019977Y014257D02*
Y019810D01*
X020127Y014167D02*
Y019873D01*
X018570Y013021D02*
Y013860D01*
X016780Y011231D02*
X018570Y013021D01*
X018830Y014140D02*
X018840D01*
X019420Y014720*
X014050Y021607D02*
X014375Y021932D01*
X021910Y014570D02*
X021920Y014560D01*
X021910Y014550D02*
X021920Y014560D01*
X020850Y014550D02*
X021910D01*
X011294Y005594D02*
X011600Y005900D01*
X010885Y005594D02*
X011294D01*
X011339Y005397D02*
X011750Y005808D01*
X010885Y005397D02*
X011339D01*
X011354Y005200D02*
X011900Y005746D01*
X011370Y005003D02*
X012050Y005684D01*
X011385Y004806D02*
X012200Y005621D01*
X011419Y004609D02*
X012350Y005540D01*
X011437Y004415D02*
X012500Y005478D01*
X011450Y004216D02*
X012650Y005416D01*
X011900Y005746D02*
Y007155D01*
X011750Y005808D02*
Y007217D01*
X011600Y005900D02*
Y007279D01*
X010885Y007562D02*
X011246D01*
X011430Y007080D02*
Y007321D01*
X021070Y006730D02*
Y006990D01*
X021265Y007185*
Y007400*
X011733Y016033D02*
X012250Y016550D01*
X015928*
X017022Y015456*
X011700Y016670D02*
X011880Y016850D01*
X017020*
X017718Y016152*
X017954Y017307D02*
X018414Y016848D01*
X017277Y017150D02*
X017996Y016430D01*
X015707Y017493D02*
X018384D01*
X015258Y017307D02*
X017954D01*
X015250Y017300D02*
X015258Y017307D01*
X011770Y017300D02*
X015250D01*
X011690Y017380D02*
X011770Y017300D01*
X011530Y017150D02*
X017277D01*
X011360Y017320D02*
X011530Y017150D01*
X017148Y017000D02*
X017857Y016291D01*
X010810Y016670D02*
X011140Y017000D01*
X017148*
X012443Y010747D02*
X012901D01*
X012070Y010490D02*
X012186D01*
X012443Y010747*
X012901D02*
X014070Y011916D01*
X011800Y012119D02*
X012078Y012397D01*
X011950Y011991D02*
X012217Y012258D01*
X012100Y011862D02*
X012356Y012119D01*
X012100Y011740D02*
X012740Y011100D01*
X012100Y011740D02*
Y011862D01*
X011950Y011650D02*
Y011991D01*
Y011650D02*
X012340Y011260D01*
Y011110D02*
Y011260D01*
X011800Y011560D02*
Y012119D01*
Y011560D02*
X011950Y011410D01*
Y011120D02*
Y011410D01*
X012495Y011905D02*
Y011979D01*
Y011905D02*
X013060Y011340D01*
X015215Y001066D02*
X015225D01*
X015666*
X012220Y015110D02*
Y015730D01*
X011980Y014430D02*
X012500Y014950D01*
Y015280*
X012070Y014270D02*
X012650Y014850D01*
Y015342*
X011244Y013232D02*
X012800Y014788D01*
Y015600*
X011382Y013093D02*
X012229Y013940D01*
X013210Y013730D02*
X014930Y015450D01*
X006337Y017683D02*
Y017837D01*
X007020Y017000D02*
X007474D01*
X006337Y017683D02*
X007020Y017000D01*
X007474D02*
X007626Y016848D01*
X011521Y012954D02*
X012297Y013730D01*
X013300Y014980D02*
X013470Y014810D01*
X013300Y014980D02*
Y015600D01*
X012297Y013730D02*
X013210D01*
X012229Y013940D02*
X013208D01*
X013470Y014202*
Y014810*
X014540Y013760D02*
X014932Y013368D01*
X014050Y008060D02*
X014143Y008153D01*
X015225*
X012148Y016700D02*
X016056D01*
X017161Y015595*
X011738Y016290D02*
X012148Y016700D01*
X011480Y016290D02*
X011738D01*
X011150Y016550D02*
X011185D01*
X013890Y018890D02*
X013900Y018900D01*
X014300*
X015707Y017493*
X015110Y019080D02*
X015960D01*
X014050Y021490D02*
Y021607D01*
Y021490D02*
X014230Y021310D01*
X013400Y021470D02*
X013910Y020960D01*
X013400Y022349D02*
X013679Y022628D01*
X014420Y019770D02*
X015110Y019080D01*
X014140Y019770D02*
X014420D01*
X013480Y020430D02*
X014140Y019770D01*
X013480Y020430D02*
Y020440D01*
X015960Y019080D02*
X016190Y018850D01*
X016570Y018320D02*
X016750Y018500D01*
Y019018*
X017019Y019287*
X016570Y019116D02*
X016880Y019426D01*
X016190Y018850D02*
X016440D01*
X016570Y018980*
Y019116*
X016360Y023510D02*
X016700Y023170D01*
Y022876D02*
Y023170D01*
X016422Y023660D02*
X016850Y023232D01*
X016484Y023810D02*
X017000Y023294D01*
X016850Y022938D02*
Y023232D01*
X017000Y023000D02*
Y023294D01*
X015200Y021920D02*
Y023390D01*
X015620Y023810*
X016484*
X015350Y023328D02*
X015682Y023660D01*
X016422*
X015500Y023266D02*
X015744Y023510D01*
X016360*
X015350Y021788D02*
Y023328D01*
X015500Y021650D02*
Y023266D01*
X008650Y001600D02*
X008920Y001330D01*
X009920*
X007600Y002438D02*
X008858Y001180D01*
X009850*
X010310Y000720*
X009920Y001330D02*
X010380Y000870D01*
X010310Y000720D02*
X011010D01*
X011280Y000450*
X011072Y000870D02*
X011342Y000600D01*
X010380Y000870D02*
X011072D01*
X011342Y000600D02*
X014840D01*
X011280Y000450D02*
X014910D01*
X014840Y000600D02*
X015140Y000900D01*
X014910Y000450D02*
X015210Y000750D01*
X016140*
X016490Y001100*
X016078Y000900D02*
X016428Y001250D01*
X015140Y000900D02*
X016078D01*
X016490Y001100D02*
X017010D01*
X016428Y001250D02*
X016948D01*
X017010Y001100D02*
X017700Y001790D01*
X018290*
X019500Y003000*
X016948Y001250D02*
X017638Y001940D01*
X018040*
X019150Y003050*
X016307Y017843D02*
X017802D01*
X012950Y020250D02*
Y020670D01*
Y020250D02*
X013710Y019490D01*
X014370*
X013400Y021470D02*
Y022349D01*
X014235Y022071D02*
X014650Y022486D01*
X014096Y022210D02*
X014500Y022614D01*
X013960Y022356D02*
X014350Y022747D01*
X014500Y022614D02*
Y023488D01*
X014350Y022747D02*
Y023426D01*
X013820Y022495D02*
X014200Y022875D01*
Y023364*
X008550Y023490D02*
X008910Y023850D01*
X013501*
X013930Y023421*
X007300Y024300D02*
X013688D01*
X007720Y024150D02*
X013626D01*
X008330Y024000D02*
X013564D01*
X007850Y023520D02*
X008330Y024000D01*
X013564D02*
X014200Y023364D01*
X007150Y023580D02*
X007720Y024150D01*
X013626D02*
X014350Y023426D01*
X006550Y023550D02*
X007300Y024300D01*
X013688D02*
X014500Y023488D01*
X013150Y005400D02*
X013610Y005860D01*
X013140Y005800D02*
X013460Y006120D01*
X013090Y006250D02*
X013280Y006440D01*
X014100Y006800D02*
Y007100D01*
X014270Y007270*
X012960Y006710D02*
Y006850D01*
X013570Y007460*
Y008234*
X013280Y006440D02*
Y006958D01*
X013460Y006120D02*
Y006926D01*
X013610Y005860D02*
Y006864D01*
X014050Y007304*
X013460Y006926D02*
X013900Y007366D01*
X013280Y006958D02*
X013742Y007420D01*
Y008194*
X013900Y007366D02*
Y008140D01*
X014050Y007304D02*
Y008060D01*
X013420Y007614D02*
Y008296D01*
X013270Y007677D02*
Y008359D01*
X013120Y007739D02*
Y008421D01*
X012970Y007801D02*
Y008483D01*
X012820Y007863D02*
Y008545D01*
X012670Y007925D02*
Y008607D01*
X012520Y007987D02*
Y008669D01*
X012370Y008049D02*
Y008731D01*
X012220Y008111D02*
Y008793D01*
X012650Y005416D02*
Y006844D01*
X013420Y007614*
X012500Y005478D02*
Y006907D01*
X013270Y007677*
X012350Y005540D02*
Y006969D01*
X013120Y007739*
X012200Y005621D02*
Y007031D01*
X012970Y007801*
X012050Y005684D02*
Y007093D01*
X012820Y007863*
X011900Y007155D02*
X012670Y007925D01*
X011750Y007217D02*
X012520Y007987D01*
X011600Y007279D02*
X012370Y008049D01*
X011430Y007321D02*
X012220Y008111D01*
X012070Y008174D02*
Y008856D01*
X011246Y007562D02*
X011920Y008236D01*
Y008918*
X011262Y007365D02*
X012070Y008174D01*
X010885Y007956D02*
X011416D01*
X011770Y008310*
Y008980*
X010885Y008153D02*
X011393D01*
X011620Y008380*
Y009042*
X011170Y012319D02*
X011693Y012841D01*
X011320Y012190D02*
X011832Y012702D01*
X011470Y012062D02*
X011971Y012563D01*
X011170Y010570D02*
Y012319D01*
X011700Y018100D02*
Y018370D01*
X011870Y018540*
X009433Y019705D02*
X009728Y019410D01*
X012950Y019340D02*
X014300D01*
X011870Y018540D02*
X012370D01*
X013010Y019180*
X014240*
X011460Y018690D02*
X012300D01*
X012950Y019340*
G54D28*
X021250Y017115D02*
Y017591D01*
Y017115D02*
X021415Y016950D01*
X022680Y012830D02*
Y015140D01*
X023040Y015500*
X023700*
X018790Y005490D02*
Y009610D01*
X018500Y005200D02*
X018790Y005490D01*
X018200Y005200D02*
X018500D01*
X017437Y024423D02*
X017710Y024150D01*
X017437Y024423D02*
Y024437D01*
X002505Y011385D02*
X002580Y011460D01*
X002250Y011385D02*
X002505D01*
X002100Y009844D02*
Y010050D01*
X005700Y008235D02*
D01*
Y008965*
X004500D02*
X005100D01*
X005700D02*
D01*
X005100D02*
X005700D01*
X005985D01*
X006124Y008826*
X006500*
X006439Y009635D02*
X006500Y009574D01*
X005700Y009635D02*
X006439D01*
X003625Y010600D02*
X004750D01*
X005100Y010250*
Y009635D02*
Y010250D01*
Y009635D02*
X005700D01*
X002975Y010425D02*
Y010600D01*
X002700Y010150D02*
X002975Y010425D01*
X002200Y010150D02*
X002700D01*
X002100Y010050D02*
X002200Y010150D01*
X001650Y010715D02*
D01*
X002250*
X006406Y015009D02*
X006585Y014830D01*
X006406Y015009D02*
Y015540D01*
X005863Y017363D02*
X006406Y016821D01*
X023887Y018274D02*
X023900Y018261D01*
X022085Y016950D02*
X022765D01*
X022085D02*
Y017407D01*
X021900Y017591D02*
X022085Y017407D01*
X021900Y017591D02*
X022550D01*
X020550Y017526D02*
X021185D01*
X021250Y017591*
X023250Y017400D02*
Y017591D01*
Y017400D02*
X023435Y017215D01*
Y016950D02*
Y017215D01*
X023250Y017591D02*
X023900D01*
X002900Y011515D02*
X002965Y011450D01*
X002900Y011515D02*
Y011750D01*
X006406Y015540D02*
Y016821D01*
X023900Y017591D02*
X024391D01*
X024400Y017600*
X021859Y011714D02*
X021964Y011609D01*
X020876Y010966D02*
X020955Y011045D01*
X021150*
X019496Y009770D02*
X019500Y009774D01*
X019717Y009991*
X019500Y009026D02*
X019914D01*
X020131Y008809*
X021935Y007750D02*
X022635D01*
X022650Y007735*
X020035Y007750D02*
Y008714D01*
X020131Y008809*
X022870Y010870D02*
Y011609D01*
X022860Y010860D02*
X022870Y010870D01*
X023906Y009926D02*
X024700D01*
X023830Y009850D02*
X023906Y009926D01*
X020600Y008809D02*
X021831D01*
X021870Y008770*
X022650Y007735D02*
Y008510D01*
X022640Y008520D02*
X022650Y008510D01*
X024700Y009926D02*
X024726Y009900D01*
X023700Y012530D02*
Y013500D01*
Y012530D02*
X023790Y012440D01*
Y011623D02*
Y012440D01*
X023776Y011609D02*
X023790Y011623D01*
X020430Y011714D02*
X021859D01*
X022655Y007730D02*
X023860D01*
X022650Y007735D02*
X022655Y007730D01*
X020035Y004200D02*
X020765D01*
X019496Y009770D02*
Y009934D01*
X019717Y009991D02*
X020600D01*
X002905Y011460D02*
X002965Y011400D01*
X002580Y011460D02*
X002905D01*
X002900Y007426D02*
X004300D01*
X024541Y013209D02*
X025000D01*
X024250Y013500D02*
X024541Y013209D01*
X023700Y013500D02*
X024250D01*
X023700Y014500D02*
X024891D01*
X025000Y014391*
X006585Y014715D02*
X006835Y014465D01*
X006585Y014715D02*
Y014830D01*
X007154Y015540D02*
X007285Y015409D01*
Y015050D02*
Y015409D01*
X020550Y018274D02*
X023887D01*
X020460Y005060D02*
Y005290D01*
X018200Y010200D02*
X019230D01*
X019496Y009934*
X020430Y010966D02*
X020876D01*
X022210Y012360D02*
X022680Y012830D01*
X018750Y010730D02*
Y011240D01*
X019870Y012360*
X022210*
X024726Y009900D02*
X025060D01*
X025400Y010240*
Y011265*
G54D29*
X019860Y021040D02*
Y021870D01*
Y021040D02*
X020383Y020517D01*
X018580Y022320D02*
X019300D01*
X018017Y022883D02*
X018580Y022320D01*
X002226Y008174D02*
X002900D01*
X002100Y008300D02*
Y008556D01*
Y008850*
X003625Y010325D02*
X003850Y010100D01*
X003625Y010325D02*
Y010600D01*
X003635Y010610*
Y011400*
X002100Y008850D02*
X002300Y009050D01*
X001650Y009550D02*
Y010715D01*
X002900Y007426D02*
D01*
Y008174D02*
X002939Y008135D01*
X003600*
X020300Y004900D02*
X021927D01*
X020076Y006326D02*
X020313D01*
X019860Y006110D02*
X020076Y006326D01*
X019860Y005502D02*
Y006110D01*
Y005502D02*
X020300Y005062D01*
Y004900D02*
Y005062D01*
X024700Y010674D02*
Y011740D01*
X024895Y011935*
X025400*
X020035Y003925D02*
Y004200D01*
X019910Y003800D02*
X020035Y003925D01*
X019020Y003800D02*
X019910D01*
X018810Y004010D02*
X019020Y003800D01*
X018810Y004010D02*
Y004730D01*
X005265Y007565D02*
X005700D01*
X004724Y008174D02*
X004900Y008350D01*
X004300Y008174D02*
X004724D01*
X004300Y007426D02*
X004426D01*
X005585Y008235D02*
X005700D01*
X005250Y007900D02*
X005585Y008235D01*
X004900Y007900D02*
X005250D01*
X004426Y007426D02*
X004900Y007900D01*
Y007200D02*
X005265Y007565D01*
X020383Y020394D02*
X021263Y019513D01*
X020383Y020394D02*
Y020517D01*
X018017Y022883D02*
Y022910D01*
X016963Y023963D02*
X018017Y022910D01*
X021737Y019987D02*
X022050Y020300D01*
X022414*
X022707Y020593*
X007295Y015060D02*
X008000D01*
X007285Y015050D02*
X007295Y015060D01*
X002100Y008300D02*
X002226Y008174D01*
X022950Y018800D02*
Y019250D01*
Y018800D02*
X023050Y018700D01*
X024300*
Y018050D02*
Y018700D01*
X024600Y017950D02*
X024750Y017800D01*
X024400Y017950D02*
X024600D01*
X024300Y018050D02*
X024400Y017950D01*
X024750Y017350D02*
Y017800D01*
X024000Y017150D02*
X024550D01*
X024750Y017350*
X023850Y016600D02*
Y017000D01*
X024000Y017150*
X022765Y016585D02*
Y016950D01*
Y016585D02*
X022850Y016500D01*
X023750*
X023850Y016600*
X021927Y006326D02*
D01*
X020313D02*
X021927D01*
G54D35*
X006564Y021914D03*
X005857Y022621D03*
Y021207D03*
X005150Y021914D03*
Y020500D03*
X004443Y021207D03*
Y019793D03*
X003736Y020500D03*
Y019086D03*
X013350Y025250D03*
X018200Y010200D03*
Y009200D03*
Y008200D03*
Y007200D03*
Y006200D03*
Y005200D03*
Y004200D03*
X008170Y010160D03*
Y009160D03*
Y008160D03*
Y007160D03*
Y006160D03*
Y005160D03*
Y004160D03*
X020393Y022907D03*
X022707Y020593D03*
X021530Y016060D03*
X020530Y015060D03*
X021530D03*
X020530Y014060D03*
X021530D03*
X020530Y013060D03*
X021530D03*
G54D36*
X003029Y019793D03*
G54D37*
X014890Y024250D03*
X016110D03*
G54D38*
X012350Y025250D03*
G54D39*
X018200Y003200D03*
X008170Y003160D03*
X020530Y016060D03*
G54D40*
X023700Y015500D03*
G54D41*
X023700Y014500D03*
Y013500D03*
G54D42*
X021100Y022200D03*
X022000Y021300D03*
G54D43*
X003113Y009083D03*
X003546D03*
X003113Y009517D03*
X003546D03*
X021430Y017250D03*
X018650Y018400D03*
X018770Y010730D03*
Y009610D03*
X007660Y009670D03*
X017710Y024150D03*
X019860Y021870D03*
X019300Y022320D03*
X016040Y019400D03*
X016310Y019140D03*
X015250Y019530D03*
X014840Y019830D03*
X016340Y009820D03*
X014710Y017900D03*
X009100Y022050D03*
X015850Y018800D03*
X012800Y015600D03*
X016280Y021120D03*
X013900Y015600D03*
X010320Y002640D03*
Y006580D03*
X009850Y009700D03*
X010300Y007750D03*
X009835Y006750D03*
Y008200D03*
X016230Y013040D03*
X014550Y006100D03*
X017700Y014900D03*
X015750Y009650D03*
X018400Y015600D03*
X015869Y007168D03*
X004630Y017170D03*
X015490Y013020D03*
X016310Y013500D03*
X016840Y001640D03*
X016165Y001650D03*
X010870Y011183D03*
X013640Y005010D03*
X014110Y005200D03*
X014557Y005397D03*
X014460Y006980D03*
X015380Y012210D03*
X014750Y014740D03*
X015070Y014390D03*
X011870Y003960D03*
X014250Y004470D03*
Y003950D03*
Y003460D03*
Y002940D03*
Y002450D03*
Y001960D03*
Y001450D03*
Y000950D03*
X011870Y000960D03*
Y001460D03*
Y001960D03*
Y002460D03*
Y002960D03*
Y003460D03*
X012550Y010490D03*
X004430Y012760D03*
X010810Y016290D03*
X005690Y012760D03*
X004990D03*
X011700Y016670D03*
X005890Y016560D03*
X006410Y016710D03*
X003729Y015450D03*
X003335Y015090D03*
X014700Y000950D03*
X016160Y002790D03*
Y003820D03*
X016150Y006450D03*
Y007620D03*
X016845Y002770D03*
X013300Y015600D03*
X007510Y018910D03*
X017100Y018400D03*
X017750Y017050D03*
X013200Y011700D03*
X013250Y012500D03*
X011350Y013900D03*
X010750Y013000D03*
X012950Y012750D03*
X009350Y018800D03*
X010800Y020250D03*
X011300Y020700D03*
X012100Y021500D03*
X012900Y022400D03*
Y021950D03*
X010900Y022400D03*
X007400Y017700D03*
X015800Y015030D03*
X016200Y015400D03*
X014400Y020250D03*
X011150Y015450D03*
Y014750D03*
X012950Y006700D03*
Y006250D03*
X014100Y006800D03*
X014450Y007550D03*
X015850Y008500D03*
X012600Y004950D03*
X007900Y011500D03*
X008950Y012780D03*
X010800Y011550D03*
X010543Y011950D03*
X010210Y011690D03*
X009929Y012285D03*
X009950Y012950D03*
X012950Y005800D03*
X009480Y012190D03*
X009950Y013400D03*
X012950Y005400D03*
X014390Y014210D03*
X014450Y013760D03*
X017060Y020010D03*
X017160Y014340D03*
X017200Y004100D03*
Y005050D03*
Y005450D03*
X017850Y005700D03*
X016600Y020750D03*
X016700Y021150D03*
X012900Y021500D03*
X015750Y005200D03*
X010300Y006150D03*
X016200Y023000D03*
X015850Y023200D03*
X005810Y018927D03*
X005200Y018300D03*
X006850Y018250D03*
X007180Y018580D03*
X005510Y018613D03*
X006160Y019240D03*
X007840D03*
X006750Y019800D03*
X008350D03*
X002300Y013150D03*
X002000Y013450D03*
X001600Y013900D03*
X001250Y013600D03*
X008300Y017450D03*
X004850Y017900D03*
X006900Y017750D03*
X002600Y012850D03*
X003250Y016700D03*
X001250Y013150D03*
X001200Y011400D03*
X002900Y012550D03*
Y012150D03*
Y011750D03*
X009835Y002825D03*
Y001750D03*
X010320Y003810D03*
X009150Y001750D03*
Y004000D03*
Y005300D03*
Y006600D03*
X018000Y019400D03*
X018400D03*
X017300Y020600D03*
X018650Y019100D03*
X018400Y018750D03*
X017000Y020850D03*
X024400Y017600D03*
X022950Y019250D03*
X008650Y021350D03*
X015900Y017750D03*
X011250Y020200D03*
X009550Y021400D03*
X012360Y016290D03*
X018110Y015320D03*
X015810Y016280D03*
X018550Y016200D03*
X014390Y007920D03*
X010870Y009710D03*
X021540Y011710D03*
X024895Y011935D03*
X023860Y007730D03*
X022610Y008020D03*
X024530Y009050D03*
X018800Y004720D03*
X019920Y009990D03*
X011360Y017320D03*
X010740Y018200D03*
X010405Y017875D03*
X010070Y017550D03*
X002940Y015540D03*
X003780Y016700D03*
X004900Y008350D03*
Y007200D03*
X011800Y020750D03*
X010050Y019150D03*
X016400Y018600D03*
X019300Y013550D03*
X008650Y020100D03*
X008550Y022050D03*
X009280Y022790D03*
X008550Y022900D03*
X007150Y023450D03*
X008550D03*
X007850D03*
X015550Y012600D03*
X011700Y017640D03*
Y018100D03*
X011650Y019050D03*
X012200D03*
X012150Y020500D03*
X012650D03*
X011100Y023350D03*
X009900Y022050D03*
X010500Y022400D03*
X012350Y024600D03*
X011900Y023350D03*
X013300Y023400D03*
X006835Y014465D03*
X006000Y013907D03*
X006300Y013550D03*
X008650Y003750D03*
X008450Y004650D03*
X015800Y001750D03*
X010350D03*
X011450Y000950D03*
X022250Y006000D03*
X019150Y003100D03*
X019550D03*
X008000Y015450D03*
Y015060D03*
X007050Y013350D03*
X008950Y013300D03*
Y014100D03*
X008000Y013450D03*
X008450D03*
X004850Y006500D03*
X016850Y018100D03*
X016200Y018050D03*
X020220Y013520D03*
X019420Y014770D03*
X018570Y013860D03*
X018830Y014140D03*
X014230Y021310D03*
X020850Y014550D03*
X021890Y014560D03*
X013040Y001230D03*
X013060Y002710D03*
X013050Y004230D03*
X004330Y005110D03*
X005990Y004630D03*
X005980Y010140D03*
Y011610D03*
X009220Y009710D03*
X020660Y008150D03*
X021640Y005980D03*
X020820Y007410D03*
X019780Y010520D03*
X012070Y010490D03*
X011950Y011120D03*
X012340Y011110D03*
X012740Y011100D03*
X013060Y011340D03*
X013000Y014365D03*
X021570Y018274D03*
X020720Y019410D03*
X018650Y024030D03*
X020460Y005290D03*
X012220Y015110D03*
X014930Y015450D03*
X006550Y017460D03*
X021440Y018790D03*
X016260Y010400D03*
X019300Y010740D03*
X013910Y020960D03*
X020800Y010960D03*
X022930Y012250D03*
X011480Y016290D03*
X011150Y016550D03*
X013890Y018890D03*
X013480Y020440D03*
G54D46*
X012495Y022767D03*
X012356Y022628D03*
X012217Y022489D03*
X012078Y022349D03*
X011939Y022210D03*
X011799Y022071D03*
X011660Y021932D03*
X011521Y021793D03*
X011382Y021653D03*
X011243Y021514D03*
X011103Y021375D03*
X010964Y021236D03*
X010825Y021097D03*
X010686Y020957D03*
X010547Y020818D03*
X010407Y020679D03*
X010268Y020540D03*
X010129Y020401D03*
X009990Y020261D03*
X009851Y020122D03*
X009711Y019983D03*
X009572Y019844D03*
X009433Y019705D03*
X009294Y019565D03*
X009155Y019426D03*
X009016Y019287D03*
X008876Y019148D03*
X008737Y019009D03*
X008598Y018869D03*
X008459Y018730D03*
X008320Y018591D03*
X008180Y018452D03*
X008041Y018313D03*
X007902Y018173D03*
X007763Y018034D03*
X007624Y017895D03*
X013539Y011979D03*
X013679Y012119D03*
X013818Y012258D03*
X013957Y012397D03*
X014096Y012536D03*
X014235Y012675D03*
X014375Y012815D03*
X014514Y012954D03*
X014653Y013093D03*
X014792Y013232D03*
X014931Y013371D03*
X015070Y013510D03*
X015210Y013650D03*
X015349Y013789D03*
X015488Y013928D03*
X015627Y014067D03*
X015766Y014206D03*
X015906Y014346D03*
X016045Y014485D03*
X016184Y014624D03*
X016323Y014763D03*
X016462Y014902D03*
X016602Y015042D03*
X016741Y015181D03*
X016880Y015320D03*
X017298Y015738D03*
X017437Y015877D03*
X017576Y016016D03*
X018133Y016573D03*
X018272Y016712D03*
X018411Y016851D03*
X017715Y016155D03*
X017158Y015598D03*
X017019Y015459D03*
X017854Y016294D03*
X017994Y016434D03*
G54D47*
X007624Y016851D03*
X007763Y016712D03*
X007902Y016573D03*
X008041Y016434D03*
X008180Y016294D03*
X008320Y016155D03*
X008459Y016016D03*
X008598Y015877D03*
X008737Y015738D03*
X008876Y015598D03*
X009016Y015459D03*
X009433Y015042D03*
X009572Y014902D03*
X009711Y014763D03*
X010129Y014346D03*
X010268Y014206D03*
X010407Y014067D03*
X010547Y013928D03*
X010686Y013789D03*
X010825Y013650D03*
X010964Y013510D03*
X011103Y013371D03*
X011243Y013232D03*
X011382Y013093D03*
X011521Y012954D03*
X011660Y012815D03*
X011799Y012675D03*
X011939Y012536D03*
X012078Y012397D03*
X012217Y012258D03*
X012356Y012119D03*
X012495Y011979D03*
X018411Y017895D03*
X018272Y018034D03*
X018133Y018173D03*
X017994Y018313D03*
X017854Y018452D03*
X017715Y018591D03*
X017576Y018730D03*
X017437Y018869D03*
X017298Y019009D03*
X017158Y019148D03*
X017019Y019287D03*
X016880Y019426D03*
X016741Y019565D03*
X016602Y019705D03*
X016462Y019844D03*
X016323Y019983D03*
X016184Y020122D03*
X016045Y020261D03*
X015906Y020401D03*
X015766Y020540D03*
X015627Y020679D03*
X015488Y020818D03*
X015349Y020957D03*
X015210Y021097D03*
X015070Y021236D03*
X014931Y021375D03*
X014792Y021514D03*
X014653Y021653D03*
X014514Y021793D03*
X014375Y021932D03*
X014235Y022071D03*
X014096Y022210D03*
X013957Y022349D03*
X013818Y022489D03*
X013679Y022628D03*
X013539Y022767D03*
X009155Y015320D03*
X009851Y014624D03*
X009990Y014485D03*
X009294Y015181D03*
G54D48*
X015225Y006184D03*
Y005594D03*
Y005791D03*
Y005987D03*
Y006381D03*
X010895Y008546D03*
Y008743D03*
Y009137D03*
Y008153D03*
Y006972D03*
Y007365D03*
Y007562D03*
Y007956D03*
Y001066D03*
Y001263D03*
Y001460D03*
Y001657D03*
Y001854D03*
Y002050D03*
Y002247D03*
Y002444D03*
Y002641D03*
Y002838D03*
Y003035D03*
Y003232D03*
Y003428D03*
Y003625D03*
Y003822D03*
Y004019D03*
Y004216D03*
Y004413D03*
Y004609D03*
Y004806D03*
Y005003D03*
Y005200D03*
Y005397D03*
Y005594D03*
Y005791D03*
Y005987D03*
Y006184D03*
Y006381D03*
Y006578D03*
Y006775D03*
Y007168D03*
Y007759D03*
Y008350D03*
Y008940D03*
Y009334D03*
X015225Y001066D03*
Y001263D03*
Y001460D03*
Y001657D03*
Y001854D03*
Y002050D03*
Y002247D03*
Y002444D03*
Y002641D03*
Y002838D03*
Y003035D03*
Y003232D03*
Y003428D03*
Y003625D03*
Y003822D03*
Y004019D03*
Y004216D03*
Y004413D03*
Y004609D03*
Y004806D03*
Y005003D03*
Y005200D03*
Y005397D03*
Y006578D03*
Y006775D03*
Y006972D03*
Y007168D03*
Y007365D03*
Y007562D03*
Y007759D03*
Y007956D03*
Y008153D03*
Y008350D03*
Y008546D03*
Y008743D03*
Y008940D03*
Y009137D03*
Y009334D03*
G54D49*
X020383Y020517D03*
X018017Y022883D03*
G54D50*
X022860Y008881D03*
G54D51*
X023766Y011539D03*
X022860D03*
G54D52*
X021955Y011539D03*
G54D53*
X003330Y009300D03*
G54D54*
X002818Y009684D03*
Y009428D03*
Y009172D03*
Y008916D03*
X003842D03*
Y009172D03*
Y009428D03*
Y009684D03*
G54D55*
X021100Y006700D03*
X021927Y006326D03*
Y007074D03*
X021100Y005274D03*
X021927Y004900D03*
Y005648D03*
X019473Y005274D03*
X020300Y004900D03*
Y005648D03*
X019487Y006700D03*
X020313Y006326D03*
Y007074D03*
G54D56*
X002100Y008556D03*
Y009844D03*
G54D57*
X003625Y010600D03*
X002975D03*
G54D58*
X022790Y009325D03*
G54D59*
X022975Y010685D03*
G54D70*
X003478Y009885D02*
Y009814D01*
X003699*
Y008786*
X003478*
Y008715*
X003438*
Y008786*
X003222*
Y008715*
X003182*
Y008786*
X002961*
Y009814*
X003182*
Y009885*
X003222*
Y009814*
X003438*
Y009885*
X003478*
G54D27*
X003428Y009835D02*
Y009764D01*
X003649*
Y008836*
X003428*
Y008765*
X003488*
Y008836*
X003172*
Y008765*
X003232*
Y008836*
X003011*
Y009764*
X003232*
Y009835*
X003172*
Y009764*
X003488*
Y009835*
X003428*
X003060Y008850D02*
Y009740D01*
X003160Y008850D02*
Y009740D01*
X003260Y008850D02*
Y009740D01*
X003360Y008850D02*
Y009740D01*
X003460Y008770D02*
Y009830D01*
X003560Y008850D02*
Y009740D01*
M02*