%FSDAX23Y23*%
%MOIN*%
%SFA1B1*%

%IPPOS*%
%ADD65C,0.002000*%
%ADD66C,0.002700*%
%LNde-020717-1*%
%LPD*%
G54D65*
X02588Y03488D02*
Y03504D01*
X02604*
Y03488*
X02588*
X02517Y03559D02*
Y03575D01*
X02533*
Y03559*
X02517*
Y03417D02*
Y03433D01*
X02533*
Y03417*
X02517*
X02447Y03488D02*
Y03504D01*
X02463*
Y03488*
X02447*
Y03347D02*
Y03363D01*
X02463*
Y03347*
X02447*
X02376Y03417D02*
Y03433D01*
X02392*
Y03417*
X02376*
Y03276D02*
Y03292D01*
X02392*
Y03276*
X02376*
X02305Y03347D02*
Y03363D01*
X02321*
Y03347*
X02305*
Y03205D02*
Y03221D01*
X02321*
Y03205*
X02305*
X02234Y03276D02*
Y03292D01*
X02250*
Y03276*
X02234*
X03267Y03822D02*
Y03838D01*
X03283*
Y03822*
X03267*
X03167D02*
Y03838D01*
X03183*
Y03822*
X03167*
X03752Y02317D02*
Y02333D01*
X03768*
Y02317*
X03752*
Y02217D02*
Y02233D01*
X03768*
Y02217*
X03752*
Y02117D02*
Y02133D01*
X03768*
Y02117*
X03752*
Y02017D02*
Y02033D01*
X03768*
Y02017*
X03752*
Y01917D02*
Y01933D01*
X03768*
Y01917*
X03752*
Y01817D02*
Y01833D01*
X03768*
Y01817*
X03752*
Y01717D02*
Y01733D01*
X03768*
Y01717*
X03752*
Y01617D02*
Y01633D01*
X03768*
Y01617*
X03752*
X02749Y02313D02*
Y02329D01*
X02765*
Y02313*
X02749*
Y02213D02*
Y02229D01*
X02765*
Y02213*
X02749*
Y02113D02*
Y02129D01*
X02765*
Y02113*
X02749*
Y02013D02*
Y02029D01*
X02765*
Y02013*
X02749*
Y01913D02*
Y01929D01*
X02765*
Y01913*
X02749*
Y01813D02*
Y01829D01*
X02765*
Y01813*
X02749*
Y01713D02*
Y01729D01*
X02765*
Y01713*
X02749*
Y01613D02*
Y01629D01*
X02765*
Y01613*
X02749*
X04310Y02847D02*
X04302Y02863D01*
X04318*
X04310Y02847*
Y02747D02*
X04302Y02763D01*
X04318*
X04310Y02747*
Y02647D02*
X04302Y02663D01*
X04318*
X04310Y02647*
X03971Y03587D02*
Y03603D01*
X03987*
Y03587*
X03971*
X04042Y03517D02*
Y03533D01*
X04058*
Y03517*
X04042*
X04202Y03356D02*
Y03372D01*
X04218*
Y03356*
X04202*
X04132Y03427D02*
Y03443D01*
X04148*
Y03427*
X04132*
X03985Y02903D02*
Y02919D01*
X04001*
Y02903*
X03985*
X04085D02*
Y02919D01*
X04101*
Y02903*
X04085*
X03985Y02803D02*
Y02819D01*
X04001*
Y02803*
X03985*
X04085D02*
Y02819D01*
X04101*
Y02803*
X04085*
X03985Y02703D02*
Y02719D01*
X04001*
Y02703*
X03985*
X04085D02*
Y02719D01*
X04101*
Y02703*
X04085*
X03985Y02603D02*
Y02619D01*
X04001*
Y02603*
X03985*
X04085D02*
Y02619D01*
X04101*
Y02603*
X04085*
X02230Y02787D02*
X02234Y02791D01*
X02238*
X02234Y02795*
X02238Y02799*
X02234*
X02230Y02803*
X02226Y02799*
X02222*
X02226Y02795*
X02222Y02791*
X02226*
X02230Y02787*
Y02842D02*
X02234Y02846D01*
X02238*
X02234Y02850*
X02238Y02854*
X02234*
X02230Y02858*
X02226Y02854*
X02222*
X02226Y02850*
X02222Y02846*
X02226*
X02230Y02842*
X02390Y02727D02*
X02394Y02731D01*
X02398*
X02394Y02735*
X02398Y02739*
X02394*
X02390Y02743*
X02386Y02739*
X02382*
X02386Y02735*
X02382Y02731*
X02386*
X02390Y02727*
X02495Y02832D02*
X02499Y02836D01*
X02503*
X02499Y02840*
X02503Y02844*
X02499*
X02495Y02848*
X02491Y02844*
X02487*
X02491Y02840*
X02487Y02836*
X02491*
X02495Y02832*
X02530Y02852D02*
X02534Y02856D01*
X02538*
X02534Y02860*
X02538Y02864*
X02534*
X02530Y02868*
X02526Y02864*
X02522*
X02526Y02860*
X02522Y02856*
X02526*
X02530Y02852*
X02548Y02780D02*
X02552Y02784D01*
X02556*
X02552Y02788*
X02556Y02792*
X02552*
X02548Y02796*
X02544Y02792*
X02540*
X02544Y02788*
X02540Y02784*
X02544*
X02548Y02780*
X02265Y03018D02*
X02269Y03022D01*
X02273*
X02269Y03026*
X02273Y03030*
X02269*
X02265Y03034*
X02261Y03030*
X02257*
X02261Y03026*
X02257Y03022*
X02261*
X02265Y03018*
X02268Y02981D02*
X02272Y02985D01*
X02276*
X02272Y02989*
X02276Y02993*
X02272*
X02268Y02997*
X02264Y02993*
X02260*
X02264Y02989*
X02260Y02985*
X02264*
X02268Y02981*
X02311Y03024D02*
X02315Y03028D01*
X02319*
X02315Y03032*
X02319Y03036*
X02315*
X02311Y03040*
X02307Y03036*
X02303*
X02307Y03032*
X02303Y03028*
X02307*
X02311Y03024*
X02515Y02732D02*
X02519Y02736D01*
X02523*
X02519Y02740*
X02523Y02744*
X02519*
X02515Y02748*
X02511Y02744*
X02507*
X02511Y02740*
X02507Y02736*
X02511*
X02515Y02732*
X02251Y02205D02*
X02255Y02209D01*
X02259*
X02255Y02213*
X02259Y02217*
X02255*
X02251Y02221*
X02247Y02217*
X02243*
X02247Y02213*
X02243Y02209*
X02247*
X02251Y02205*
X02294D02*
X02298Y02209D01*
X02302*
X02298Y02213*
X02302Y02217*
X02298*
X02294Y02221*
X02290Y02217*
X02286*
X02290Y02213*
X02286Y02209*
X02290*
X02294Y02205*
X02251Y02248D02*
X02255Y02252D01*
X02259*
X02255Y02256*
X02259Y02260*
X02255*
X02251Y02264*
X02247Y02260*
X02243*
X02247Y02256*
X02243Y02252*
X02247*
X02251Y02248*
X02294D02*
X02298Y02252D01*
X02302*
X02298Y02256*
X02302Y02260*
X02298*
X02294Y02264*
X02290Y02260*
X02286*
X02290Y02256*
X02286Y02252*
X02290*
X02294Y02248*
X04083Y03022D02*
X04087Y03026D01*
X04091*
X04087Y03030*
X04091Y03034*
X04087*
X04083Y03038*
X04079Y03034*
X04075*
X04079Y03030*
X04075Y03026*
X04079*
X04083Y03022*
X03805Y03137D02*
X03809Y03141D01*
X03813*
X03809Y03145*
X03813Y03149*
X03809*
X03805Y03153*
X03801Y03149*
X03797*
X03801Y03145*
X03797Y03141*
X03801*
X03805Y03137*
X03817Y02370D02*
X03821Y02374D01*
X03825*
X03821Y02378*
X03825Y02382*
X03821*
X03817Y02386*
X03813Y02382*
X03809*
X03813Y02378*
X03809Y02374*
X03813*
X03817Y02370*
Y02258D02*
X03821Y02262D01*
X03825*
X03821Y02266*
X03825Y02270*
X03821*
X03817Y02274*
X03813Y02270*
X03809*
X03813Y02266*
X03809Y02262*
X03813*
X03817Y02258*
X02706Y02264D02*
X02710Y02268D01*
X02714*
X02710Y02272*
X02714Y02276*
X02710*
X02706Y02280*
X02702Y02276*
X02698*
X02702Y02272*
X02698Y02268*
X02702*
X02706Y02264*
X03711Y03712D02*
X03715Y03716D01*
X03719*
X03715Y03720*
X03719Y03724*
X03715*
X03711Y03728*
X03707Y03724*
X03703*
X03707Y03720*
X03703Y03716*
X03707*
X03711Y03712*
X03926Y03484D02*
X03930Y03488D01*
X03934*
X03930Y03492*
X03934Y03496*
X03930*
X03926Y03500*
X03922Y03496*
X03918*
X03922Y03492*
X03918Y03488*
X03922*
X03926Y03484*
X03870Y03529D02*
X03874Y03533D01*
X03878*
X03874Y03537*
X03878Y03541*
X03874*
X03870Y03545*
X03866Y03541*
X03862*
X03866Y03537*
X03862Y03533*
X03866*
X03870Y03529*
X03544Y03237D02*
X03548Y03241D01*
X03552*
X03548Y03245*
X03552Y03249*
X03548*
X03544Y03253*
X03540Y03249*
X03536*
X03540Y03245*
X03536Y03241*
X03540*
X03544Y03237*
X03571Y03211D02*
X03575Y03215D01*
X03579*
X03575Y03219*
X03579Y03223*
X03575*
X03571Y03227*
X03567Y03223*
X03563*
X03567Y03219*
X03563Y03215*
X03567*
X03571Y03211*
X03465Y03250D02*
X03469Y03254D01*
X03473*
X03469Y03258*
X03473Y03262*
X03469*
X03465Y03266*
X03461Y03262*
X03457*
X03461Y03258*
X03457Y03254*
X03461*
X03465Y03250*
X03424Y03280D02*
X03428Y03284D01*
X03432*
X03428Y03288*
X03432Y03292*
X03428*
X03424Y03296*
X03420Y03292*
X03416*
X03420Y03288*
X03416Y03284*
X03420*
X03424Y03280*
X03574Y02279D02*
X03578Y02283D01*
X03582*
X03578Y02287*
X03582Y02291*
X03578*
X03574Y02295*
X03570Y02291*
X03566*
X03570Y02287*
X03566Y02283*
X03570*
X03574Y02279*
X03411Y03087D02*
X03415Y03091D01*
X03419*
X03415Y03095*
X03419Y03099*
X03415*
X03411Y03103*
X03407Y03099*
X03403*
X03407Y03095*
X03403Y03091*
X03407*
X03411Y03087*
X02850Y03502D02*
X02854Y03506D01*
X02858*
X02854Y03510*
X02858Y03514*
X02854*
X02850Y03518*
X02846Y03514*
X02842*
X02846Y03510*
X02842Y03506*
X02846*
X02850Y03502*
X03525Y03177D02*
X03529Y03181D01*
X03533*
X03529Y03185*
X03533Y03189*
X03529*
X03525Y03193*
X03521Y03189*
X03517*
X03521Y03185*
X03517Y03181*
X03521*
X03525Y03177*
X03220Y02857D02*
X03224Y02861D01*
X03228*
X03224Y02865*
X03228Y02869*
X03224*
X03220Y02873*
X03216Y02869*
X03212*
X03216Y02865*
X03212Y02861*
X03216*
X03220Y02857*
X03568Y03409D02*
X03572Y03413D01*
X03576*
X03572Y03417*
X03576Y03421*
X03572*
X03568Y03425*
X03564Y03421*
X03560*
X03564Y03417*
X03560Y03413*
X03564*
X03568Y03409*
X03330Y02857D02*
X03334Y02861D01*
X03338*
X03334Y02865*
X03338Y02869*
X03334*
X03330Y02873*
X03326Y02869*
X03322*
X03326Y02865*
X03322Y02861*
X03326*
X03330Y02857*
X02972Y01561D02*
X02976Y01565D01*
X02980*
X02976Y01569*
X02980Y01573*
X02976*
X02972Y01577*
X02968Y01573*
X02964*
X02968Y01569*
X02964Y01565*
X02968*
X02972Y01561*
Y01955D02*
X02976Y01959D01*
X02980*
X02976Y01963*
X02980Y01967*
X02976*
X02972Y01971*
X02968Y01967*
X02964*
X02968Y01963*
X02964Y01959*
X02968*
X02972Y01955*
X02925Y02267D02*
X02929Y02271D01*
X02933*
X02929Y02275*
X02933Y02279*
X02929*
X02925Y02283*
X02921Y02279*
X02917*
X02921Y02275*
X02917Y02271*
X02921*
X02925Y02267*
X02970Y02072D02*
X02974Y02076D01*
X02978*
X02974Y02080*
X02978Y02084*
X02974*
X02970Y02088*
X02966Y02084*
X02962*
X02966Y02080*
X02962Y02076*
X02966*
X02970Y02072*
X02923Y01972D02*
X02927Y01976D01*
X02931*
X02927Y01980*
X02931Y01984*
X02927*
X02923Y01988*
X02919Y01984*
X02915*
X02919Y01980*
X02915Y01976*
X02919*
X02923Y01972*
Y02117D02*
X02927Y02121D01*
X02931*
X02927Y02125*
X02931Y02129*
X02927*
X02923Y02133*
X02919Y02129*
X02915*
X02919Y02125*
X02915Y02121*
X02919*
X02923Y02117*
X03563Y02601D02*
X03567Y02605D01*
X03571*
X03567Y02609*
X03571Y02613*
X03567*
X03563Y02617*
X03559Y02613*
X03555*
X03559Y02609*
X03555Y02605*
X03559*
X03563Y02601*
X03395Y01907D02*
X03399Y01911D01*
X03403*
X03399Y01915*
X03403Y01919*
X03399*
X03395Y01923*
X03391Y01919*
X03387*
X03391Y01915*
X03387Y01911*
X03391*
X03395Y01907*
X03710Y02787D02*
X03714Y02791D01*
X03718*
X03714Y02795*
X03718Y02799*
X03714*
X03710Y02803*
X03706Y02799*
X03702*
X03706Y02795*
X03702Y02791*
X03706*
X03710Y02787*
X03515Y02262D02*
X03519Y02266D01*
X03523*
X03519Y02270*
X03523Y02274*
X03519*
X03515Y02278*
X03511Y02274*
X03507*
X03511Y02270*
X03507Y02266*
X03511*
X03515Y02262*
X03780Y02857D02*
X03784Y02861D01*
X03788*
X03784Y02865*
X03788Y02869*
X03784*
X03780Y02873*
X03776Y02869*
X03772*
X03776Y02865*
X03772Y02861*
X03776*
X03780Y02857*
X03526Y02013D02*
X03530Y02017D01*
X03534*
X03530Y02021*
X03534Y02025*
X03530*
X03526Y02029*
X03522Y02025*
X03518*
X03522Y02021*
X03518Y02017*
X03522*
X03526Y02013*
X03489Y02599D02*
X03493Y02603D01*
X03497*
X03493Y02607*
X03497Y02611*
X03493*
X03489Y02615*
X03485Y02611*
X03481*
X03485Y02607*
X03481Y02603*
X03485*
X03489Y02599*
X03571Y02647D02*
X03575Y02651D01*
X03579*
X03575Y02655*
X03579Y02659*
X03575*
X03571Y02663*
X03567Y02659*
X03563*
X03567Y02655*
X03563Y02651*
X03567*
X03571Y02647*
X03624Y01461D02*
X03628Y01465D01*
X03632*
X03628Y01469*
X03632Y01473*
X03628*
X03624Y01477*
X03620Y01473*
X03616*
X03620Y01469*
X03616Y01465*
X03620*
X03624Y01461*
X03556Y01462D02*
X03560Y01466D01*
X03564*
X03560Y01470*
X03564Y01474*
X03560*
X03556Y01478*
X03552Y01474*
X03548*
X03552Y01470*
X03548Y01466*
X03552*
X03556Y01462*
X03027Y02415D02*
X03031Y02419D01*
X03035*
X03031Y02423*
X03035Y02427*
X03031*
X03027Y02431*
X03023Y02427*
X03019*
X03023Y02423*
X03019Y02419*
X03023*
X03027Y02415*
X03304Y01798D02*
X03308Y01802D01*
X03312*
X03308Y01806*
X03312Y01810*
X03308*
X03304Y01814*
X03300Y01810*
X03296*
X03300Y01806*
X03296Y01802*
X03300*
X03304Y01798*
X03351Y01817D02*
X03355Y01821D01*
X03359*
X03355Y01825*
X03359Y01829*
X03355*
X03351Y01833*
X03347Y01829*
X03343*
X03347Y01825*
X03343Y01821*
X03347*
X03351Y01817*
X03395Y01836D02*
X03399Y01840D01*
X03403*
X03399Y01844*
X03403Y01848*
X03399*
X03395Y01852*
X03391Y01848*
X03387*
X03391Y01844*
X03387Y01840*
X03391*
X03395Y01836*
X03386Y01995D02*
X03390Y01999D01*
X03394*
X03390Y02003*
X03394Y02007*
X03390*
X03386Y02011*
X03382Y02007*
X03378*
X03382Y02003*
X03378Y01999*
X03382*
X03386Y01995*
X03478Y02518D02*
X03482Y02522D01*
X03486*
X03482Y02526*
X03486Y02530*
X03482*
X03478Y02534*
X03474Y02530*
X03470*
X03474Y02526*
X03470Y02522*
X03474*
X03478Y02518*
X03415Y02771D02*
X03419Y02775D01*
X03423*
X03419Y02779*
X03423Y02783*
X03419*
X03415Y02787*
X03411Y02783*
X03407*
X03411Y02779*
X03407Y02775*
X03411*
X03415Y02771*
X03447Y02736D02*
X03451Y02740D01*
X03455*
X03451Y02744*
X03455Y02748*
X03451*
X03447Y02752*
X03443Y02748*
X03439*
X03443Y02744*
X03439Y02740*
X03443*
X03447Y02736*
X03127Y01693D02*
X03131Y01697D01*
X03135*
X03131Y01701*
X03135Y01705*
X03131*
X03127Y01709*
X03123Y01705*
X03119*
X03123Y01701*
X03119Y01697*
X03123*
X03127Y01693*
X03365Y01744D02*
X03369Y01748D01*
X03373*
X03369Y01752*
X03373Y01756*
X03369*
X03365Y01760*
X03361Y01756*
X03357*
X03361Y01752*
X03357Y01748*
X03361*
X03365Y01744*
Y01692D02*
X03369Y01696D01*
X03373*
X03369Y01700*
X03373Y01704*
X03369*
X03365Y01708*
X03361Y01704*
X03357*
X03361Y01700*
X03357Y01696*
X03361*
X03365Y01692*
Y01643D02*
X03369Y01647D01*
X03373*
X03369Y01651*
X03373Y01655*
X03369*
X03365Y01659*
X03361Y01655*
X03357*
X03361Y01651*
X03357Y01647*
X03361*
X03365Y01643*
Y01591D02*
X03369Y01595D01*
X03373*
X03369Y01599*
X03373Y01603*
X03369*
X03365Y01607*
X03361Y01603*
X03357*
X03361Y01599*
X03357Y01595*
X03361*
X03365Y01591*
Y01542D02*
X03369Y01546D01*
X03373*
X03369Y01550*
X03373Y01554*
X03369*
X03365Y01558*
X03361Y01554*
X03357*
X03361Y01550*
X03357Y01546*
X03361*
X03365Y01542*
Y01493D02*
X03369Y01497D01*
X03373*
X03369Y01501*
X03373Y01505*
X03369*
X03365Y01509*
X03361Y01505*
X03357*
X03361Y01501*
X03357Y01497*
X03361*
X03365Y01493*
Y01442D02*
X03369Y01446D01*
X03373*
X03369Y01450*
X03373Y01454*
X03369*
X03365Y01458*
X03361Y01454*
X03357*
X03361Y01450*
X03357Y01446*
X03361*
X03365Y01442*
Y01392D02*
X03369Y01396D01*
X03373*
X03369Y01400*
X03373Y01404*
X03369*
X03365Y01408*
X03361Y01404*
X03357*
X03361Y01400*
X03357Y01396*
X03361*
X03365Y01392*
X03127Y01393D02*
X03131Y01397D01*
X03135*
X03131Y01401*
X03135Y01405*
X03131*
X03127Y01409*
X03123Y01405*
X03119*
X03123Y01401*
X03119Y01397*
X03123*
X03127Y01393*
Y01443D02*
X03131Y01447D01*
X03135*
X03131Y01451*
X03135Y01455*
X03131*
X03127Y01459*
X03123Y01455*
X03119*
X03123Y01451*
X03119Y01447*
X03123*
X03127Y01443*
Y01493D02*
X03131Y01497D01*
X03135*
X03131Y01501*
X03135Y01505*
X03131*
X03127Y01509*
X03123Y01505*
X03119*
X03123Y01501*
X03119Y01497*
X03123*
X03127Y01493*
Y01543D02*
X03131Y01547D01*
X03135*
X03131Y01551*
X03135Y01555*
X03131*
X03127Y01559*
X03123Y01555*
X03119*
X03123Y01551*
X03119Y01547*
X03123*
X03127Y01543*
Y01593D02*
X03131Y01597D01*
X03135*
X03131Y01601*
X03135Y01605*
X03131*
X03127Y01609*
X03123Y01605*
X03119*
X03123Y01601*
X03119Y01597*
X03123*
X03127Y01593*
Y01643D02*
X03131Y01647D01*
X03135*
X03131Y01651*
X03135Y01655*
X03131*
X03127Y01659*
X03123Y01655*
X03119*
X03123Y01651*
X03119Y01647*
X03123*
X03127Y01643*
X03195Y02346D02*
X03199Y02350D01*
X03203*
X03199Y02354*
X03203Y02358*
X03199*
X03195Y02362*
X03191Y02358*
X03187*
X03191Y02354*
X03187Y02350*
X03191*
X03195Y02346*
X03110Y02964D02*
X03114Y02968D01*
X03118*
X03114Y02972*
X03118Y02976*
X03114*
X03110Y02980*
X03106Y02976*
X03102*
X03106Y02972*
X03102Y02968*
X03106*
X03110Y02964*
X03410Y01392D02*
X03414Y01396D01*
X03418*
X03414Y01400*
X03418Y01404*
X03414*
X03410Y01408*
X03406Y01404*
X03402*
X03406Y01400*
X03402Y01396*
X03406*
X03410Y01392*
X03556Y01576D02*
X03560Y01580D01*
X03564*
X03560Y01584*
X03564Y01588*
X03560*
X03556Y01592*
X03552Y01588*
X03548*
X03552Y01584*
X03548Y01580*
X03552*
X03556Y01576*
Y01679D02*
X03560Y01683D01*
X03564*
X03560Y01687*
X03564Y01691*
X03560*
X03556Y01695*
X03552Y01691*
X03548*
X03552Y01687*
X03548Y01683*
X03552*
X03556Y01679*
X03555Y01942D02*
X03559Y01946D01*
X03563*
X03559Y01950*
X03563Y01954*
X03559*
X03555Y01958*
X03551Y01954*
X03547*
X03551Y01950*
X03547Y01946*
X03551*
X03555Y01942*
Y02059D02*
X03559Y02063D01*
X03563*
X03559Y02067*
X03563Y02071*
X03559*
X03555Y02075*
X03551Y02071*
X03547*
X03551Y02067*
X03547Y02063*
X03551*
X03555Y02059*
X03624Y01574D02*
X03628Y01578D01*
X03632*
X03628Y01582*
X03632Y01586*
X03628*
X03624Y01590*
X03620Y01586*
X03616*
X03620Y01582*
X03616Y01578*
X03620*
X03624Y01574*
X03270Y02857D02*
X03274Y02861D01*
X03278*
X03274Y02865*
X03278Y02869*
X03274*
X03270Y02873*
X03266Y02869*
X03262*
X03266Y02865*
X03262Y02861*
X03266*
X03270Y02857*
X02691Y03188D02*
X02695Y03192D01*
X02699*
X02695Y03196*
X02699Y03200*
X02695*
X02691Y03204*
X02687Y03200*
X02683*
X02687Y03196*
X02683Y03192*
X02687*
X02691Y03188*
X03650Y03137D02*
X03654Y03141D01*
X03658*
X03654Y03145*
X03658Y03149*
X03654*
X03650Y03153*
X03646Y03149*
X03642*
X03646Y03145*
X03642Y03141*
X03646*
X03650Y03137*
X03715Y03002D02*
X03719Y03006D01*
X03723*
X03719Y03010*
X03723Y03014*
X03719*
X03715Y03018*
X03711Y03014*
X03707*
X03711Y03010*
X03707Y03006*
X03711*
X03715Y03002*
X03260Y02467D02*
X03264Y02471D01*
X03268*
X03264Y02475*
X03268Y02479*
X03264*
X03260Y02483*
X03256Y02479*
X03252*
X03256Y02475*
X03252Y02471*
X03256*
X03260Y02467*
X03265Y02547D02*
X03269Y02551D01*
X03273*
X03269Y02555*
X03273Y02559*
X03269*
X03265Y02563*
X03261Y02559*
X03257*
X03261Y02555*
X03257Y02551*
X03261*
X03265Y02547*
X03075Y02687D02*
X03079Y02691D01*
X03083*
X03079Y02695*
X03083Y02699*
X03079*
X03075Y02703*
X03071Y02699*
X03067*
X03071Y02695*
X03067Y02691*
X03071*
X03075Y02687*
X03015Y02597D02*
X03019Y02601D01*
X03023*
X03019Y02605*
X03023Y02609*
X03019*
X03015Y02613*
X03011Y02609*
X03007*
X03011Y02605*
X03007Y02601*
X03011*
X03015Y02597*
X03235Y02572D02*
X03239Y02576D01*
X03243*
X03239Y02580*
X03243Y02584*
X03239*
X03235Y02588*
X03231Y02584*
X03227*
X03231Y02580*
X03227Y02576*
X03231*
X03235Y02572*
X02875Y03177D02*
X02879Y03181D01*
X02883*
X02879Y03185*
X02883Y03189*
X02879*
X02875Y03193*
X02871Y03189*
X02867*
X02871Y03185*
X02867Y03181*
X02871*
X02875Y03177*
X03020Y03322D02*
X03024Y03326D01*
X03028*
X03024Y03330*
X03028Y03334*
X03024*
X03020Y03338*
X03016Y03334*
X03012*
X03016Y03330*
X03012Y03326*
X03016*
X03020Y03322*
X03070Y03367D02*
X03074Y03371D01*
X03078*
X03074Y03375*
X03078Y03379*
X03074*
X03070Y03383*
X03066Y03379*
X03062*
X03066Y03375*
X03062Y03371*
X03066*
X03070Y03367*
X03150Y03447D02*
X03154Y03451D01*
X03158*
X03154Y03455*
X03158Y03459*
X03154*
X03150Y03463*
X03146Y03459*
X03142*
X03146Y03455*
X03142Y03451*
X03146*
X03150Y03447*
X03230Y03537D02*
X03234Y03541D01*
X03238*
X03234Y03545*
X03238Y03549*
X03234*
X03230Y03553*
X03226Y03549*
X03222*
X03226Y03545*
X03222Y03541*
X03226*
X03230Y03537*
Y03492D02*
X03234Y03496D01*
X03238*
X03234Y03500*
X03238Y03504*
X03234*
X03230Y03508*
X03226Y03504*
X03222*
X03226Y03500*
X03222Y03496*
X03226*
X03230Y03492*
X03030Y03537D02*
X03034Y03541D01*
X03038*
X03034Y03545*
X03038Y03549*
X03034*
X03030Y03553*
X03026Y03549*
X03022*
X03026Y03545*
X03022Y03541*
X03026*
X03030Y03537*
X03520Y02800D02*
X03524Y02804D01*
X03528*
X03524Y02808*
X03528Y02812*
X03524*
X03520Y02816*
X03516Y02812*
X03512*
X03516Y02808*
X03512Y02804*
X03516*
X03520Y02800*
X03560Y02837D02*
X03564Y02841D01*
X03568*
X03564Y02845*
X03568Y02849*
X03564*
X03560Y02853*
X03556Y02849*
X03552*
X03556Y02845*
X03552Y02841*
X03556*
X03560Y02837*
X03380Y03322D02*
X03384Y03326D01*
X03388*
X03384Y03330*
X03388Y03334*
X03384*
X03380Y03338*
X03376Y03334*
X03372*
X03376Y03330*
X03372Y03326*
X03376*
X03380Y03322*
X03055Y02772D02*
X03059Y02776D01*
X03063*
X03059Y02780*
X03063Y02784*
X03059*
X03055Y02788*
X03051Y02784*
X03047*
X03051Y02780*
X03047Y02776*
X03051*
X03055Y02772*
X03235Y01967D02*
X03239Y01971D01*
X03243*
X03239Y01975*
X03243Y01979*
X03239*
X03235Y01983*
X03231Y01979*
X03227*
X03231Y01975*
X03227Y01971*
X03231*
X03235Y01967*
Y01922D02*
X03239Y01926D01*
X03243*
X03239Y01930*
X03243Y01934*
X03239*
X03235Y01938*
X03231Y01934*
X03227*
X03231Y01930*
X03227Y01926*
X03231*
X03235Y01922*
X03350Y01977D02*
X03354Y01981D01*
X03358*
X03354Y01985*
X03358Y01989*
X03354*
X03350Y01993*
X03346Y01989*
X03342*
X03346Y01985*
X03342Y01981*
X03346*
X03350Y01977*
X03385Y02052D02*
X03389Y02056D01*
X03393*
X03389Y02060*
X03393Y02064*
X03389*
X03385Y02068*
X03381Y02064*
X03377*
X03381Y02060*
X03377Y02056*
X03381*
X03385Y02052*
X03525Y02147D02*
X03529Y02151D01*
X03533*
X03529Y02155*
X03533Y02159*
X03529*
X03525Y02163*
X03521Y02159*
X03517*
X03521Y02155*
X03517Y02151*
X03521*
X03525Y02147*
X03200Y01792D02*
X03204Y01796D01*
X03208*
X03204Y01800*
X03208Y01804*
X03204*
X03200Y01808*
X03196Y01804*
X03192*
X03196Y01800*
X03192Y01796*
X03196*
X03200Y01792*
X02730Y02447D02*
X02734Y02451D01*
X02738*
X02734Y02455*
X02738Y02459*
X02734*
X02730Y02463*
X02726Y02459*
X02722*
X02726Y02455*
X02722Y02451*
X02726*
X02730Y02447*
X02835Y02575D02*
X02839Y02579D01*
X02843*
X02839Y02583*
X02843Y02587*
X02839*
X02835Y02591*
X02831Y02587*
X02827*
X02831Y02583*
X02827Y02579*
X02831*
X02835Y02575*
X03020Y02452D02*
X03024Y02456D01*
X03028*
X03024Y02460*
X03028Y02464*
X03024*
X03020Y02468*
X03016Y02464*
X03012*
X03016Y02460*
X03012Y02456*
X03016*
X03020Y02452*
X02994Y02492D02*
X02998Y02496D01*
X03002*
X02998Y02500*
X03002Y02504*
X02998*
X02994Y02508*
X02990Y02504*
X02986*
X02990Y02500*
X02986Y02496*
X02990*
X02994Y02492*
X02961Y02466D02*
X02965Y02470D01*
X02969*
X02965Y02474*
X02969Y02478*
X02965*
X02961Y02482*
X02957Y02478*
X02953*
X02957Y02474*
X02953Y02470*
X02957*
X02961Y02466*
X02932Y02525D02*
X02936Y02529D01*
X02940*
X02936Y02533*
X02940Y02537*
X02936*
X02932Y02541*
X02928Y02537*
X02924*
X02928Y02533*
X02924Y02529*
X02928*
X02932Y02525*
X02935Y02592D02*
X02939Y02596D01*
X02943*
X02939Y02600*
X02943Y02604*
X02939*
X02935Y02608*
X02931Y02604*
X02927*
X02931Y02600*
X02927Y02596*
X02931*
X02935Y02592*
X03235Y01877D02*
X03239Y01881D01*
X03243*
X03239Y01885*
X03243Y01889*
X03239*
X03235Y01893*
X03231Y01889*
X03227*
X03231Y01885*
X03227Y01881*
X03231*
X03235Y01877*
X02888Y02516D02*
X02892Y02520D01*
X02896*
X02892Y02524*
X02896Y02528*
X02892*
X02888Y02532*
X02884Y02528*
X02880*
X02884Y02524*
X02880Y02520*
X02884*
X02888Y02516*
X02935Y02637D02*
X02939Y02641D01*
X02943*
X02939Y02645*
X02943Y02649*
X02939*
X02935Y02653*
X02931Y02649*
X02927*
X02931Y02645*
X02927Y02641*
X02931*
X02935Y02637*
X03235Y01837D02*
X03239Y01841D01*
X03243*
X03239Y01845*
X03243Y01849*
X03239*
X03235Y01853*
X03231Y01849*
X03227*
X03231Y01845*
X03227Y01841*
X03231*
X03235Y01837*
X03379Y02718D02*
X03383Y02722D01*
X03387*
X03383Y02726*
X03387Y02730*
X03383*
X03379Y02734*
X03375Y02730*
X03371*
X03375Y02726*
X03371Y02722*
X03375*
X03379Y02718*
X03385Y02673D02*
X03389Y02677D01*
X03393*
X03389Y02681*
X03393Y02685*
X03389*
X03385Y02689*
X03381Y02685*
X03377*
X03381Y02681*
X03377Y02677*
X03381*
X03385Y02673*
X03646Y03298D02*
X03650Y03302D01*
X03654*
X03650Y03306*
X03654Y03310*
X03650*
X03646Y03314*
X03642Y03310*
X03638*
X03642Y03306*
X03638Y03302*
X03642*
X03646Y03298*
X03656Y02731D02*
X03660Y02735D01*
X03664*
X03660Y02739*
X03664Y02743*
X03660*
X03656Y02747*
X03652Y02743*
X03648*
X03652Y02739*
X03648Y02735*
X03652*
X03656Y02731*
X03660Y01707D02*
X03664Y01711D01*
X03668*
X03664Y01715*
X03668Y01719*
X03664*
X03660Y01723*
X03656Y01719*
X03652*
X03656Y01715*
X03652Y01711*
X03656*
X03660Y01707*
Y01802D02*
X03664Y01806D01*
X03668*
X03664Y01810*
X03668Y01814*
X03664*
X03660Y01818*
X03656Y01814*
X03652*
X03656Y01810*
X03652Y01806*
X03656*
X03660Y01802*
Y01842D02*
X03664Y01846D01*
X03668*
X03664Y01850*
X03668Y01854*
X03664*
X03660Y01858*
X03656Y01854*
X03652*
X03656Y01850*
X03652Y01846*
X03656*
X03660Y01842*
X03725Y01867D02*
X03729Y01871D01*
X03733*
X03729Y01875*
X03733Y01879*
X03729*
X03725Y01883*
X03721Y01879*
X03717*
X03721Y01875*
X03717Y01871*
X03721*
X03725Y01867*
X03600Y03372D02*
X03604Y03376D01*
X03608*
X03604Y03380*
X03608Y03384*
X03604*
X03600Y03388*
X03596Y03384*
X03592*
X03596Y03380*
X03592Y03376*
X03596*
X03600Y03372*
X03610Y03412D02*
X03614Y03416D01*
X03618*
X03614Y03420*
X03618Y03424*
X03614*
X03610Y03428*
X03606Y03424*
X03602*
X03606Y03420*
X03602Y03416*
X03606*
X03610Y03412*
X03230Y03447D02*
X03234Y03451D01*
X03238*
X03234Y03455*
X03238Y03459*
X03234*
X03230Y03463*
X03226Y03459*
X03222*
X03226Y03455*
X03222Y03451*
X03226*
X03230Y03447*
X03515Y01817D02*
X03519Y01821D01*
X03523*
X03519Y01825*
X03523Y01829*
X03519*
X03515Y01833*
X03511Y01829*
X03507*
X03511Y01825*
X03507Y01821*
X03511*
X03515Y01817*
X02970Y01912D02*
X02974Y01916D01*
X02978*
X02974Y01920*
X02978Y01924*
X02974*
X02970Y01928*
X02966Y01924*
X02962*
X02966Y01920*
X02962Y01916*
X02966*
X02970Y01912*
X03560Y03597D02*
X03564Y03601D01*
X03568*
X03564Y03605*
X03568Y03609*
X03564*
X03560Y03613*
X03556Y03609*
X03552*
X03556Y03605*
X03552Y03601*
X03556*
X03560Y03597*
X03525Y03617D02*
X03529Y03621D01*
X03533*
X03529Y03625*
X03533Y03629*
X03529*
X03525Y03633*
X03521Y03629*
X03517*
X03521Y03625*
X03517Y03621*
X03521*
X03525Y03617*
X02521Y03189D02*
X02525Y03193D01*
X02529*
X02525Y03197*
X02529Y03201*
X02525*
X02521Y03205*
X02517Y03201*
X02513*
X02517Y03197*
X02513Y03193*
X02517*
X02521Y03189*
X02460Y03127D02*
X02464Y03131D01*
X02468*
X02464Y03135*
X02468Y03139*
X02464*
X02460Y03143*
X02456Y03139*
X02452*
X02456Y03135*
X02452Y03131*
X02456*
X02460Y03127*
X02625Y03122D02*
X02629Y03126D01*
X02633*
X02629Y03130*
X02633Y03134*
X02629*
X02625Y03138*
X02621Y03134*
X02617*
X02621Y03130*
X02617Y03126*
X02621*
X02625Y03122*
X02658Y03155D02*
X02662Y03159D01*
X02666*
X02662Y03163*
X02666Y03167*
X02662*
X02658Y03171*
X02654Y03167*
X02650*
X02654Y03163*
X02650Y03159*
X02654*
X02658Y03155*
X02491Y03158D02*
X02495Y03162D01*
X02499*
X02495Y03166*
X02499Y03170*
X02495*
X02491Y03174*
X02487Y03170*
X02483*
X02487Y03166*
X02483Y03162*
X02487*
X02491Y03158*
X02556Y03221D02*
X02560Y03225D01*
X02564*
X02560Y03229*
X02564Y03233*
X02560*
X02556Y03237*
X02552Y03233*
X02548*
X02552Y03229*
X02548Y03225*
X02552*
X02556Y03221*
X02724D02*
X02728Y03225D01*
X02732*
X02728Y03229*
X02732Y03233*
X02728*
X02724Y03237*
X02720Y03233*
X02716*
X02720Y03229*
X02716Y03225*
X02720*
X02724Y03221*
X02615Y03277D02*
X02619Y03281D01*
X02623*
X02619Y03285*
X02623Y03289*
X02619*
X02615Y03293*
X02611Y03289*
X02607*
X02611Y03285*
X02607Y03281*
X02611*
X02615Y03277*
X02775D02*
X02779Y03281D01*
X02783*
X02779Y03285*
X02783Y03289*
X02779*
X02775Y03293*
X02771Y03289*
X02767*
X02771Y03285*
X02767Y03281*
X02771*
X02775Y03277*
X02170Y02612D02*
X02174Y02616D01*
X02178*
X02174Y02620*
X02178Y02624*
X02174*
X02170Y02628*
X02166Y02624*
X02162*
X02166Y02620*
X02162Y02616*
X02166*
X02170Y02612*
X02140Y02642D02*
X02144Y02646D01*
X02148*
X02144Y02650*
X02148Y02654*
X02144*
X02140Y02658*
X02136Y02654*
X02132*
X02136Y02650*
X02132Y02646*
X02136*
X02140Y02642*
X02100Y02687D02*
X02104Y02691D01*
X02108*
X02104Y02695*
X02108Y02699*
X02104*
X02100Y02703*
X02096Y02699*
X02092*
X02096Y02695*
X02092Y02691*
X02096*
X02100Y02687*
X02065Y02657D02*
X02069Y02661D01*
X02073*
X02069Y02665*
X02073Y02669*
X02069*
X02065Y02673*
X02061Y02669*
X02057*
X02061Y02665*
X02057Y02661*
X02061*
X02065Y02657*
X02425Y03087D02*
X02429Y03091D01*
X02433*
X02429Y03095*
X02433Y03099*
X02429*
X02425Y03103*
X02421Y03099*
X02417*
X02421Y03095*
X02417Y03091*
X02421*
X02425Y03087*
X02630Y03072D02*
X02634Y03076D01*
X02638*
X02634Y03080*
X02638Y03084*
X02634*
X02630Y03088*
X02626Y03084*
X02622*
X02626Y03080*
X02622Y03076*
X02626*
X02630Y03072*
X02200Y02582D02*
X02204Y02586D01*
X02208*
X02204Y02590*
X02208Y02594*
X02204*
X02200Y02598*
X02196Y02594*
X02192*
X02196Y02590*
X02192Y02586*
X02196*
X02200Y02582*
X02065Y02612D02*
X02069Y02616D01*
X02073*
X02069Y02620*
X02073Y02624*
X02069*
X02065Y02628*
X02061Y02624*
X02057*
X02061Y02620*
X02057Y02616*
X02061*
X02065Y02612*
X02060Y02437D02*
X02064Y02441D01*
X02068*
X02064Y02445*
X02068Y02449*
X02064*
X02060Y02453*
X02056Y02449*
X02052*
X02056Y02445*
X02052Y02441*
X02056*
X02060Y02437*
X02230Y02552D02*
X02234Y02556D01*
X02238*
X02234Y02560*
X02238Y02564*
X02234*
X02230Y02568*
X02226Y02564*
X02222*
X02226Y02560*
X02222Y02556*
X02226*
X02230Y02552*
Y02512D02*
X02234Y02516D01*
X02238*
X02234Y02520*
X02238Y02524*
X02234*
X02230Y02528*
X02226Y02524*
X02222*
X02226Y02520*
X02222Y02516*
X02226*
X02230Y02512*
Y02472D02*
X02234Y02476D01*
X02238*
X02234Y02480*
X02238Y02484*
X02234*
X02230Y02488*
X02226Y02484*
X02222*
X02226Y02480*
X02222Y02476*
X02226*
X02230Y02472*
X02923Y01579D02*
X02927Y01583D01*
X02931*
X02927Y01587*
X02931Y01591*
X02927*
X02923Y01595*
X02919Y01591*
X02915*
X02919Y01587*
X02915Y01583*
X02919*
X02923Y01579*
Y01472D02*
X02927Y01476D01*
X02931*
X02927Y01480*
X02931Y01484*
X02927*
X02923Y01488*
X02919Y01484*
X02915*
X02919Y01480*
X02915Y01476*
X02919*
X02923Y01472*
X02972Y01678D02*
X02976Y01682D01*
X02980*
X02976Y01686*
X02980Y01690*
X02976*
X02972Y01694*
X02968Y01690*
X02964*
X02968Y01686*
X02964Y01682*
X02968*
X02972Y01678*
X02855Y01472D02*
X02859Y01476D01*
X02863*
X02859Y01480*
X02863Y01484*
X02859*
X02855Y01488*
X02851Y01484*
X02847*
X02851Y01480*
X02847Y01476*
X02851*
X02855Y01472*
Y01697D02*
X02859Y01701D01*
X02863*
X02859Y01705*
X02863Y01709*
X02859*
X02855Y01713*
X02851Y01709*
X02847*
X02851Y01705*
X02847Y01701*
X02851*
X02855Y01697*
Y01827D02*
X02859Y01831D01*
X02863*
X02859Y01835*
X02863Y01839*
X02859*
X02855Y01843*
X02851Y01839*
X02847*
X02851Y01835*
X02847Y01831*
X02851*
X02855Y01827*
Y01957D02*
X02859Y01961D01*
X02863*
X02859Y01965*
X02863Y01969*
X02859*
X02855Y01973*
X02851Y01969*
X02847*
X02851Y01965*
X02847Y01961*
X02851*
X02855Y01957*
X03740Y03237D02*
X03744Y03241D01*
X03748*
X03744Y03245*
X03748Y03249*
X03744*
X03740Y03253*
X03736Y03249*
X03732*
X03736Y03245*
X03732Y03241*
X03736*
X03740Y03237*
X03780D02*
X03784Y03241D01*
X03788*
X03784Y03245*
X03788Y03249*
X03784*
X03780Y03253*
X03776Y03249*
X03772*
X03776Y03245*
X03772Y03241*
X03776*
X03780Y03237*
X03670Y03357D02*
X03674Y03361D01*
X03678*
X03674Y03365*
X03678Y03369*
X03674*
X03670Y03373*
X03666Y03369*
X03662*
X03666Y03365*
X03662Y03361*
X03666*
X03670Y03357*
X03805Y03207D02*
X03809Y03211D01*
X03813*
X03809Y03215*
X03813Y03219*
X03809*
X03805Y03223*
X03801Y03219*
X03797*
X03801Y03215*
X03797Y03211*
X03801*
X03805Y03207*
X03780Y03172D02*
X03784Y03176D01*
X03788*
X03784Y03180*
X03788Y03184*
X03784*
X03780Y03188*
X03776Y03184*
X03772*
X03776Y03180*
X03772Y03176*
X03776*
X03780Y03172*
X03640Y03382D02*
X03644Y03386D01*
X03648*
X03644Y03390*
X03648Y03394*
X03644*
X03640Y03398*
X03636Y03394*
X03632*
X03636Y03390*
X03632Y03386*
X03636*
X03640Y03382*
X04380Y03057D02*
X04384Y03061D01*
X04388*
X04384Y03065*
X04388Y03069*
X04384*
X04380Y03073*
X04376Y03069*
X04372*
X04376Y03065*
X04372Y03061*
X04376*
X04380Y03057*
X04235Y03222D02*
X04239Y03226D01*
X04243*
X04239Y03230*
X04243Y03234*
X04239*
X04235Y03238*
X04231Y03234*
X04227*
X04231Y03230*
X04227Y03226*
X04231*
X04235Y03222*
X02805Y03432D02*
X02809Y03436D01*
X02813*
X02809Y03440*
X02813Y03444*
X02809*
X02805Y03448*
X02801Y03444*
X02797*
X02801Y03440*
X02797Y03436*
X02801*
X02805Y03432*
X03530Y03072D02*
X03534Y03076D01*
X03538*
X03534Y03080*
X03538Y03084*
X03534*
X03530Y03088*
X03526Y03084*
X03522*
X03526Y03080*
X03522Y03076*
X03526*
X03530Y03072*
X03065Y03317D02*
X03069Y03321D01*
X03073*
X03069Y03325*
X03073Y03329*
X03069*
X03065Y03333*
X03061Y03329*
X03057*
X03061Y03325*
X03057Y03321*
X03061*
X03065Y03317*
X02895Y03437D02*
X02899Y03441D01*
X02903*
X02899Y03445*
X02903Y03449*
X02899*
X02895Y03453*
X02891Y03449*
X02887*
X02891Y03445*
X02887Y03441*
X02891*
X02895Y03437*
X03751Y02829D02*
X03755Y02833D01*
X03759*
X03755Y02837*
X03759Y02841*
X03755*
X03751Y02845*
X03747Y02841*
X03743*
X03747Y02837*
X03743Y02833*
X03747*
X03751Y02829*
X03521Y02925D02*
X03525Y02929D01*
X03529*
X03525Y02933*
X03529Y02937*
X03525*
X03521Y02941*
X03517Y02937*
X03513*
X03517Y02933*
X03513Y02929*
X03517*
X03521Y02925*
X03795Y02917D02*
X03799Y02921D01*
X03803*
X03799Y02925*
X03803Y02929*
X03799*
X03795Y02933*
X03791Y02929*
X03787*
X03791Y02925*
X03787Y02921*
X03791*
X03795Y02917*
X03379Y02089D02*
X03383Y02093D01*
X03387*
X03383Y02097*
X03387Y02101*
X03383*
X03379Y02105*
X03375Y02101*
X03371*
X03375Y02097*
X03371Y02093*
X03375*
X03379Y02089*
X03027Y02268D02*
X03031Y02272D01*
X03035*
X03031Y02276*
X03035Y02280*
X03031*
X03027Y02284*
X03023Y02280*
X03019*
X03023Y02276*
X03019Y02272*
X03023*
X03027Y02268*
X04094Y02468D02*
X04098Y02472D01*
X04102*
X04098Y02476*
X04102Y02480*
X04098*
X04094Y02484*
X04090Y02480*
X04086*
X04090Y02476*
X04086Y02472*
X04090*
X04094Y02468*
X04429Y02490D02*
X04433Y02494D01*
X04437*
X04433Y02498*
X04437Y02502*
X04433*
X04429Y02506*
X04425Y02502*
X04421*
X04425Y02498*
X04421Y02494*
X04425*
X04429Y02490*
X04326Y02070D02*
X04330Y02074D01*
X04334*
X04330Y02078*
X04334Y02082*
X04330*
X04326Y02086*
X04322Y02082*
X04318*
X04322Y02078*
X04318Y02074*
X04322*
X04326Y02070*
X04201Y02099D02*
X04205Y02103D01*
X04209*
X04205Y02107*
X04209Y02111*
X04205*
X04201Y02115*
X04197Y02111*
X04193*
X04197Y02107*
X04193Y02103*
X04197*
X04201Y02099*
X04393Y02202D02*
X04397Y02206D01*
X04401*
X04397Y02210*
X04401Y02214*
X04397*
X04393Y02218*
X04389Y02214*
X04385*
X04389Y02210*
X04385Y02206*
X04389*
X04393Y02202*
X03820Y01769D02*
X03824Y01773D01*
X03828*
X03824Y01777*
X03828Y01781*
X03824*
X03820Y01785*
X03816Y01781*
X03812*
X03816Y01777*
X03812Y01773*
X03816*
X03820Y01769*
X03932Y02296D02*
X03936Y02300D01*
X03940*
X03936Y02304*
X03940Y02308*
X03936*
X03932Y02312*
X03928Y02308*
X03924*
X03928Y02304*
X03924Y02300*
X03928*
X03932Y02296*
X03126Y03050D02*
X03130Y03054D01*
X03134*
X03130Y03058*
X03134Y03062*
X03130*
X03126Y03066*
X03122Y03062*
X03118*
X03122Y03058*
X03118Y03054*
X03122*
X03126Y03050*
X03014Y03117D02*
X03018Y03121D01*
X03022*
X03018Y03125*
X03022Y03129*
X03018*
X03014Y03133*
X03010Y03129*
X03006*
X03010Y03125*
X03006Y03121*
X03010*
X03014Y03117*
X02980Y03084D02*
X02984Y03088D01*
X02988*
X02984Y03092*
X02988Y03096*
X02984*
X02980Y03100*
X02976Y03096*
X02972*
X02976Y03092*
X02972Y03088*
X02976*
X02980Y03084*
X02947Y03052D02*
X02951Y03056D01*
X02955*
X02951Y03060*
X02955Y03064*
X02951*
X02947Y03068*
X02943Y03064*
X02939*
X02943Y03060*
X02939Y03056*
X02943*
X02947Y03052*
X02430Y02132D02*
X02434Y02136D01*
X02438*
X02434Y02140*
X02438Y02144*
X02434*
X02430Y02148*
X02426Y02144*
X02422*
X02426Y02140*
X02422Y02136*
X02426*
X02430Y02132*
Y02017D02*
X02434Y02021D01*
X02438*
X02434Y02025*
X02438Y02029*
X02434*
X02430Y02033*
X02426Y02029*
X02422*
X02426Y02025*
X02422Y02021*
X02426*
X02430Y02017*
X03120Y03372D02*
X03124Y03376D01*
X03128*
X03124Y03380*
X03128Y03384*
X03124*
X03120Y03388*
X03116Y03384*
X03112*
X03116Y03380*
X03112Y03376*
X03116*
X03120Y03372*
X02945Y03212D02*
X02949Y03216D01*
X02953*
X02949Y03220*
X02953Y03224*
X02949*
X02945Y03228*
X02941Y03224*
X02937*
X02941Y03220*
X02937Y03216*
X02941*
X02945Y03212*
X03580Y03157D02*
X03584Y03161D01*
X03588*
X03584Y03165*
X03588Y03169*
X03584*
X03580Y03173*
X03576Y03169*
X03572*
X03576Y03165*
X03572Y03161*
X03576*
X03580Y03157*
X03870Y02652D02*
X03874Y02656D01*
X03878*
X03874Y02660*
X03878Y02664*
X03874*
X03870Y02668*
X03866Y02664*
X03862*
X03866Y02660*
X03862Y02656*
X03866*
X03870Y02652*
X02805Y03307D02*
X02809Y03311D01*
X02813*
X02809Y03315*
X02813Y03319*
X02809*
X02805Y03323*
X02801Y03319*
X02797*
X02801Y03315*
X02797Y03311*
X02801*
X02805Y03307*
X02795Y03502D02*
X02799Y03506D01*
X02803*
X02799Y03510*
X02803Y03514*
X02799*
X02795Y03518*
X02791Y03514*
X02787*
X02791Y03510*
X02787Y03506*
X02791*
X02795Y03502*
X02868Y03576D02*
X02872Y03580D01*
X02876*
X02872Y03584*
X02876Y03588*
X02872*
X02868Y03592*
X02864Y03588*
X02860*
X02864Y03584*
X02860Y03580*
X02864*
X02868Y03576*
X02795Y03587D02*
X02799Y03591D01*
X02803*
X02799Y03595*
X02803Y03599*
X02799*
X02795Y03603*
X02791Y03599*
X02787*
X02791Y03595*
X02787Y03591*
X02791*
X02795Y03587*
X02655Y03642D02*
X02659Y03646D01*
X02663*
X02659Y03650*
X02663Y03654*
X02659*
X02655Y03658*
X02651Y03654*
X02647*
X02651Y03650*
X02647Y03646*
X02651*
X02655Y03642*
X02795D02*
X02799Y03646D01*
X02803*
X02799Y03650*
X02803Y03654*
X02799*
X02795Y03658*
X02791Y03654*
X02787*
X02791Y03650*
X02787Y03646*
X02791*
X02795Y03642*
X02725D02*
X02729Y03646D01*
X02733*
X02729Y03650*
X02733Y03654*
X02729*
X02725Y03658*
X02721Y03654*
X02717*
X02721Y03650*
X02717Y03646*
X02721*
X02725Y03642*
X03495Y02557D02*
X03499Y02561D01*
X03503*
X03499Y02565*
X03503Y02569*
X03499*
X03495Y02573*
X03491Y02569*
X03487*
X03491Y02565*
X03487Y02561*
X03491*
X03495Y02557*
X03087Y03026D02*
X03091Y03030D01*
X03095*
X03091Y03034*
X03095Y03038*
X03091*
X03087Y03042*
X03083Y03038*
X03079*
X03083Y03034*
X03079Y03030*
X03083*
X03087Y03026*
X03110Y03107D02*
X03114Y03111D01*
X03118*
X03114Y03115*
X03118Y03119*
X03114*
X03110Y03123*
X03106Y03119*
X03102*
X03106Y03115*
X03102Y03111*
X03106*
X03110Y03107*
X03105Y03202D02*
X03109Y03206D01*
X03113*
X03109Y03210*
X03113Y03214*
X03109*
X03105Y03218*
X03101Y03214*
X03097*
X03101Y03210*
X03097Y03206*
X03101*
X03105Y03202*
X03160D02*
X03164Y03206D01*
X03168*
X03164Y03210*
X03168Y03214*
X03164*
X03160Y03218*
X03156Y03214*
X03152*
X03156Y03210*
X03152Y03206*
X03156*
X03160Y03202*
X03155Y03347D02*
X03159Y03351D01*
X03163*
X03159Y03355*
X03163Y03359*
X03159*
X03155Y03363*
X03151Y03359*
X03147*
X03151Y03355*
X03147Y03351*
X03151*
X03155Y03347*
X03205D02*
X03209Y03351D01*
X03213*
X03209Y03355*
X03213Y03359*
X03209*
X03205Y03363*
X03201Y03359*
X03197*
X03201Y03355*
X03197Y03351*
X03201*
X03205Y03347*
X03050Y03632D02*
X03054Y03636D01*
X03058*
X03054Y03640*
X03058Y03644*
X03054*
X03050Y03648*
X03046Y03644*
X03042*
X03046Y03640*
X03042Y03636*
X03046*
X03050Y03632*
X02930Y03502D02*
X02934Y03506D01*
X02938*
X02934Y03510*
X02938Y03514*
X02934*
X02930Y03518*
X02926Y03514*
X02922*
X02926Y03510*
X02922Y03506*
X02926*
X02930Y03502*
X02990Y03537D02*
X02994Y03541D01*
X02998*
X02994Y03545*
X02998Y03549*
X02994*
X02990Y03553*
X02986Y03549*
X02982*
X02986Y03545*
X02982Y03541*
X02986*
X02990Y03537*
X03175Y03757D02*
X03179Y03761D01*
X03183*
X03179Y03765*
X03183Y03769*
X03179*
X03175Y03773*
X03171Y03769*
X03167*
X03171Y03765*
X03167Y03761*
X03171*
X03175Y03757*
X03130Y03632D02*
X03134Y03636D01*
X03138*
X03134Y03640*
X03138Y03644*
X03134*
X03130Y03648*
X03126Y03644*
X03122*
X03126Y03640*
X03122Y03636*
X03126*
X03130Y03632*
X03270Y03637D02*
X03274Y03641D01*
X03278*
X03274Y03645*
X03278Y03649*
X03274*
X03270Y03653*
X03266Y03649*
X03262*
X03266Y03645*
X03262Y03641*
X03266*
X03270Y03637*
X02623Y02743D02*
X02627Y02747D01*
X02631*
X02627Y02751*
X02631Y02755*
X02627*
X02623Y02759*
X02619Y02755*
X02615*
X02619Y02751*
X02615Y02747*
X02619*
X02623Y02743*
X02533Y02652D02*
X02537Y02656D01*
X02541*
X02537Y02660*
X02541Y02664*
X02537*
X02533Y02668*
X02529Y02664*
X02525*
X02529Y02660*
X02525Y02656*
X02529*
X02533Y02652*
X02570D02*
X02574Y02656D01*
X02578*
X02574Y02660*
X02578Y02664*
X02574*
X02570Y02668*
X02566Y02664*
X02562*
X02566Y02660*
X02562Y02656*
X02566*
X02570Y02652*
X02805Y01672D02*
X02809Y01676D01*
X02813*
X02809Y01680*
X02813Y01684*
X02809*
X02805Y01688*
X02801Y01684*
X02797*
X02801Y01680*
X02797Y01676*
X02801*
X02805Y01672*
X02785Y01762D02*
X02789Y01766D01*
X02793*
X02789Y01770*
X02793Y01774*
X02789*
X02785Y01778*
X02781Y01774*
X02777*
X02781Y01770*
X02777Y01766*
X02781*
X02785Y01762*
X03520Y01472D02*
X03524Y01476D01*
X03528*
X03524Y01480*
X03528Y01484*
X03524*
X03520Y01488*
X03516Y01484*
X03512*
X03516Y01480*
X03512Y01476*
X03516*
X03520Y01472*
X02975D02*
X02979Y01476D01*
X02983*
X02979Y01480*
X02983Y01484*
X02979*
X02975Y01488*
X02971Y01484*
X02967*
X02971Y01480*
X02967Y01476*
X02971*
X02975Y01472*
X03085Y01392D02*
X03089Y01396D01*
X03093*
X03089Y01400*
X03093Y01404*
X03089*
X03085Y01408*
X03081Y01404*
X03077*
X03081Y01400*
X03077Y01396*
X03081*
X03085Y01392*
X04165Y01897D02*
X04169Y01901D01*
X04173*
X04169Y01905*
X04173Y01909*
X04169*
X04165Y01913*
X04161Y01909*
X04157*
X04161Y01905*
X04157Y01901*
X04161*
X04165Y01897*
X03855Y01607D02*
X03859Y01611D01*
X03863*
X03859Y01615*
X03863Y01619*
X03859*
X03855Y01623*
X03851Y01619*
X03847*
X03851Y01615*
X03847Y01611*
X03851*
X03855Y01607*
X03895D02*
X03899Y01611D01*
X03903*
X03899Y01615*
X03903Y01619*
X03899*
X03895Y01623*
X03891Y01619*
X03887*
X03891Y01615*
X03887Y01611*
X03891*
X03895Y01607*
X02740Y02803D02*
X02744Y02807D01*
X02748*
X02744Y02811*
X02748Y02815*
X02744*
X02740Y02819*
X02736Y02815*
X02732*
X02736Y02811*
X02732Y02807*
X02736*
X02740Y02803*
X02425Y01947D02*
X02429Y01951D01*
X02433*
X02429Y01955*
X02433Y01959*
X02429*
X02425Y01963*
X02421Y01959*
X02417*
X02421Y01955*
X02417Y01951*
X02421*
X02425Y01947*
X03625Y03107D02*
X03629Y03111D01*
X03633*
X03629Y03115*
X03633Y03119*
X03629*
X03625Y03123*
X03621Y03119*
X03617*
X03621Y03115*
X03617Y03111*
X03621*
X03625Y03107*
X03560Y03102D02*
X03564Y03106D01*
X03568*
X03564Y03110*
X03568Y03114*
X03564*
X03560Y03118*
X03556Y03114*
X03552*
X03556Y03110*
X03552Y03106*
X03556*
X03560Y03102*
X03962Y02649D02*
X03966Y02653D01*
X03970*
X03966Y02657*
X03970Y02661*
X03966*
X03962Y02665*
X03958Y02661*
X03954*
X03958Y02657*
X03954Y02653*
X03958*
X03962Y02649*
X03882Y02774D02*
X03886Y02778D01*
X03890*
X03886Y02782*
X03890Y02786*
X03886*
X03882Y02790*
X03878Y02786*
X03874*
X03878Y02782*
X03874Y02778*
X03878*
X03882Y02774*
X03797Y02683D02*
X03801Y02687D01*
X03805*
X03801Y02691*
X03805Y02695*
X03801*
X03797Y02699*
X03793Y02695*
X03789*
X03793Y02691*
X03789Y02687*
X03793*
X03797Y02683*
X03823Y02711D02*
X03827Y02715D01*
X03831*
X03827Y02719*
X03831Y02723*
X03827*
X03823Y02727*
X03819Y02723*
X03815*
X03819Y02719*
X03815Y02715*
X03819*
X03823Y02711*
X03363Y03428D02*
X03367Y03432D01*
X03371*
X03367Y03436*
X03371Y03440*
X03367*
X03363Y03444*
X03359Y03440*
X03355*
X03359Y03436*
X03355Y03432*
X03359*
X03363Y03428*
X04025Y02752D02*
X04029Y02756D01*
X04033*
X04029Y02760*
X04033Y02764*
X04029*
X04025Y02768*
X04021Y02764*
X04017*
X04021Y02760*
X04017Y02756*
X04021*
X04025Y02752*
X04129Y02753D02*
X04133Y02757D01*
X04137*
X04133Y02761*
X04137Y02765*
X04133*
X04129Y02769*
X04125Y02765*
X04121*
X04125Y02761*
X04121Y02757*
X04125*
X04129Y02753*
X03244Y01420D02*
X03248Y01424D01*
X03252*
X03248Y01428*
X03252Y01432*
X03248*
X03244Y01436*
X03240Y01432*
X03236*
X03240Y01428*
X03236Y01424*
X03240*
X03244Y01420*
X03246Y01568D02*
X03250Y01572D01*
X03254*
X03250Y01576*
X03254Y01580*
X03250*
X03246Y01584*
X03242Y01580*
X03238*
X03242Y01576*
X03238Y01572*
X03242*
X03246Y01568*
X03245Y01720D02*
X03249Y01724D01*
X03253*
X03249Y01728*
X03253Y01732*
X03249*
X03245Y01736*
X03241Y01732*
X03237*
X03241Y01728*
X03237Y01724*
X03241*
X03245Y01720*
X02373Y01808D02*
X02377Y01812D01*
X02381*
X02377Y01816*
X02381Y01820*
X02377*
X02373Y01824*
X02369Y01820*
X02365*
X02369Y01816*
X02365Y01812*
X02369*
X02373Y01808*
X02539Y01760D02*
X02543Y01764D01*
X02547*
X02543Y01768*
X02547Y01772*
X02543*
X02539Y01776*
X02535Y01772*
X02531*
X02535Y01768*
X02531Y01764*
X02535*
X02539Y01760*
X02538Y02311D02*
X02542Y02315D01*
X02546*
X02542Y02319*
X02546Y02323*
X02542*
X02538Y02327*
X02534Y02323*
X02530*
X02534Y02319*
X02530Y02315*
X02534*
X02538Y02311*
Y02458D02*
X02542Y02462D01*
X02546*
X02542Y02466*
X02546Y02470*
X02542*
X02538Y02474*
X02534Y02470*
X02530*
X02534Y02466*
X02530Y02462*
X02534*
X02538Y02458*
X02862Y02268D02*
X02866Y02272D01*
X02870*
X02866Y02276*
X02870Y02280*
X02866*
X02862Y02284*
X02858Y02280*
X02854*
X02858Y02276*
X02854Y02272*
X02858*
X02862Y02268*
X04006Y02112D02*
X04010Y02116D01*
X04014*
X04010Y02120*
X04014Y02124*
X04010*
X04006Y02128*
X04002Y02124*
X03998*
X04002Y02120*
X03998Y02116*
X04002*
X04006Y02112*
X04104Y01895D02*
X04108Y01899D01*
X04112*
X04108Y01903*
X04112Y01907*
X04108*
X04104Y01911*
X04100Y01907*
X04096*
X04100Y01903*
X04096Y01899*
X04100*
X04104Y01895*
X04022Y02038D02*
X04026Y02042D01*
X04030*
X04026Y02046*
X04030Y02050*
X04026*
X04022Y02054*
X04018Y02050*
X04014*
X04018Y02046*
X04014Y02042*
X04018*
X04022Y02038*
X03918Y02349D02*
X03922Y02353D01*
X03926*
X03922Y02357*
X03926Y02361*
X03922*
X03918Y02365*
X03914Y02361*
X03910*
X03914Y02357*
X03910Y02353*
X03914*
X03918Y02349*
X03157Y02372D02*
X03161Y02376D01*
X03165*
X03161Y02380*
X03165Y02384*
X03161*
X03157Y02388*
X03153Y02384*
X03149*
X03153Y02380*
X03149Y02376*
X03153*
X03157Y02372*
X03135Y02409D02*
X03139Y02413D01*
X03143*
X03139Y02417*
X03143Y02421*
X03139*
X03135Y02425*
X03131Y02421*
X03127*
X03131Y02417*
X03127Y02413*
X03131*
X03135Y02409*
X03174Y02408D02*
X03178Y02412D01*
X03182*
X03178Y02416*
X03182Y02420*
X03178*
X03174Y02424*
X03170Y02420*
X03166*
X03170Y02416*
X03166Y02412*
X03170*
X03174Y02408*
X03214Y02407D02*
X03218Y02411D01*
X03222*
X03218Y02415*
X03222Y02419*
X03218*
X03214Y02423*
X03210Y02419*
X03206*
X03210Y02415*
X03206Y02411*
X03210*
X03214Y02407*
X03246Y02431D02*
X03250Y02435D01*
X03254*
X03250Y02439*
X03254Y02443*
X03250*
X03246Y02447*
X03242Y02443*
X03238*
X03242Y02439*
X03238Y02435*
X03242*
X03246Y02431*
X03240Y02733D02*
X03244Y02737D01*
X03248*
X03244Y02741*
X03248Y02745*
X03244*
X03240Y02749*
X03236Y02745*
X03232*
X03236Y02741*
X03232Y02737*
X03236*
X03240Y02733*
X04097Y03124D02*
X04101Y03128D01*
X04105*
X04101Y03132*
X04105Y03136*
X04101*
X04097Y03140*
X04093Y03136*
X04089*
X04093Y03132*
X04089Y03128*
X04093*
X04097Y03124*
X04012Y03238D02*
X04016Y03242D01*
X04020*
X04016Y03246*
X04020Y03250*
X04016*
X04012Y03254*
X04008Y03250*
X04004*
X04008Y03246*
X04004Y03242*
X04008*
X04012Y03238*
X03805Y03700D02*
X03809Y03704D01*
X03813*
X03809Y03708*
X03813Y03712*
X03809*
X03805Y03716*
X03801Y03712*
X03797*
X03801Y03708*
X03797Y03704*
X03801*
X03805Y03700*
X03986Y01826D02*
X03990Y01830D01*
X03994*
X03990Y01834*
X03994Y01838*
X03990*
X03986Y01842*
X03982Y01838*
X03978*
X03982Y01834*
X03978Y01830*
X03982*
X03986Y01826*
X03162Y02808D02*
X03166Y02812D01*
X03170*
X03166Y02816*
X03170Y02820*
X03166*
X03162Y02824*
X03158Y02820*
X03154*
X03158Y02816*
X03154Y02812*
X03158*
X03162Y02808*
X03433Y02842D02*
X03437Y02846D01*
X03441*
X03437Y02850*
X03441Y02854*
X03437*
X03433Y02858*
X03429Y02854*
X03425*
X03429Y02850*
X03425Y02846*
X03429*
X03433Y02842*
X04084Y03176D02*
X04088Y03180D01*
X04092*
X04088Y03184*
X04092Y03188*
X04088*
X04084Y03192*
X04080Y03188*
X04076*
X04080Y03184*
X04076Y03180*
X04080*
X04084Y03176*
X03566Y02337D02*
X03570Y02341D01*
X03574*
X03570Y02345*
X03574Y02349*
X03570*
X03566Y02353*
X03562Y02349*
X03558*
X03562Y02345*
X03558Y02341*
X03562*
X03566Y02337*
X03870Y02371D02*
X03874Y02375D01*
X03878*
X03874Y02379*
X03878Y02383*
X03874*
X03870Y02387*
X03866Y02383*
X03862*
X03866Y02379*
X03862Y02375*
X03866*
X03870Y02371*
X03331Y03393D02*
X03335Y03397D01*
X03339*
X03335Y03401*
X03339Y03405*
X03335*
X03331Y03409*
X03327Y03405*
X03323*
X03327Y03401*
X03323Y03397*
X03327*
X03331Y03393*
X04020Y02393D02*
X04024Y02397D01*
X04028*
X04024Y02401*
X04028Y02405*
X04024*
X04020Y02409*
X04016Y02405*
X04012*
X04016Y02401*
X04012Y02397*
X04016*
X04020Y02393*
X04233Y02522D02*
X04237Y02526D01*
X04241*
X04237Y02530*
X04241Y02534*
X04237*
X04233Y02538*
X04229Y02534*
X04225*
X04229Y02530*
X04225Y02526*
X04229*
X04233Y02522*
X03329Y03186D02*
X03333Y03190D01*
X03337*
X03333Y03194*
X03337Y03198*
X03333*
X03329Y03202*
X03325Y03198*
X03321*
X03325Y03194*
X03321Y03190*
X03325*
X03329Y03186*
X03288Y03341D02*
X03292Y03345D01*
X03296*
X03292Y03349*
X03296Y03353*
X03292*
X03288Y03357*
X03284Y03353*
X03280*
X03284Y03349*
X03280Y03345*
X03284*
X03288Y03341*
X02231Y02623D02*
X02235Y02627D01*
X02239*
X02235Y02631*
X02239Y02635*
X02235*
X02231Y02639*
X02227Y02635*
X02223*
X02227Y02631*
X02223Y02627*
X02227*
X02231Y02623*
X02233Y02675D02*
X02237Y02679D01*
X02241*
X02237Y02683*
X02241Y02687*
X02237*
X02233Y02691*
X02229Y02687*
X02225*
X02229Y02683*
X02225Y02679*
X02229*
X02233Y02675*
X02491Y02651D02*
X02495Y02655D01*
X02499*
X02495Y02659*
X02499Y02663*
X02495*
X02491Y02667*
X02487Y02663*
X02483*
X02487Y02659*
X02483Y02655*
X02487*
X02491Y02651*
X02402Y02844D02*
X02406Y02848D01*
X02410*
X02406Y02852*
X02410Y02856*
X02406*
X02402Y02860*
X02398Y02856*
X02394*
X02398Y02852*
X02394Y02848*
X02398*
X02402Y02844*
X03042Y02838D02*
X03046Y02842D01*
X03050*
X03046Y02846*
X03050Y02850*
X03046*
X03042Y02854*
X03038Y02850*
X03034*
X03038Y02846*
X03034Y02842*
X03038*
X03042Y02838*
X02826Y02757D02*
X02830Y02761D01*
X02834*
X02830Y02765*
X02834Y02769*
X02830*
X02826Y02773*
X02822Y02769*
X02818*
X02822Y02765*
X02818Y02761*
X02822*
X02826Y02757*
X03182Y02921D02*
X03186Y02925D01*
X03190*
X03186Y02929*
X03190Y02933*
X03186*
X03182Y02937*
X03178Y02933*
X03174*
X03178Y02929*
X03174Y02925*
X03178*
X03182Y02921*
X03006Y02976D02*
X03010Y02980D01*
X03014*
X03010Y02984*
X03014Y02988*
X03010*
X03006Y02992*
X03002Y02988*
X02998*
X03002Y02984*
X02998Y02980*
X03002*
X03006Y02976*
X03048Y02975D02*
X03052Y02979D01*
X03056*
X03052Y02983*
X03056Y02987*
X03052*
X03048Y02991*
X03044Y02987*
X03040*
X03044Y02983*
X03040Y02979*
X03044*
X03048Y02975*
X03072Y02924D02*
X03076Y02928D01*
X03080*
X03076Y02932*
X03080Y02936*
X03076*
X03072Y02940*
X03068Y02936*
X03064*
X03068Y02932*
X03064Y02928*
X03068*
X03072Y02924*
X02559Y02730D02*
X02563Y02734D01*
X02567*
X02563Y02738*
X02567Y02742*
X02563*
X02559Y02746*
X02555Y02742*
X02551*
X02555Y02738*
X02551Y02734*
X02555*
X02559Y02730*
X02230Y02982D02*
X02234Y02986D01*
X02238*
X02234Y02990*
X02238Y02994*
X02234*
X02230Y02998*
X02226Y02994*
X02222*
X02226Y02990*
X02222Y02986*
X02226*
X02230Y02982*
X02809Y03053D02*
X02813Y03057D01*
X02817*
X02813Y03061*
X02817Y03065*
X02813*
X02809Y03069*
X02805Y03065*
X02801*
X02805Y03061*
X02801Y03057*
X02805*
X02809Y03053*
X02770D02*
X02774Y03057D01*
X02778*
X02774Y03061*
X02778Y03065*
X02774*
X02770Y03069*
X02766Y03065*
X02762*
X02766Y03061*
X02762Y03057*
X02766*
X02770Y03053*
X02671Y03072D02*
X02675Y03076D01*
X02679*
X02675Y03080*
X02679Y03084*
X02675*
X02671Y03088*
X02667Y03084*
X02663*
X02667Y03080*
X02663Y03076*
X02667*
X02671Y03072*
X02408Y02961D02*
X02412Y02965D01*
X02416*
X02412Y02969*
X02416Y02973*
X02412*
X02408Y02977*
X02404Y02973*
X02400*
X02404Y02969*
X02400Y02965*
X02404*
X02408Y02961*
X02448Y02943D02*
X02452Y02947D01*
X02456*
X02452Y02951*
X02456Y02955*
X02452*
X02448Y02959*
X02444Y02955*
X02440*
X02444Y02951*
X02440Y02947*
X02444*
X02448Y02943*
X02830Y02656D02*
X02834Y02660D01*
X02838*
X02834Y02664*
X02838Y02668*
X02834*
X02830Y02672*
X02826Y02668*
X02822*
X02826Y02664*
X02822Y02660*
X02826*
X02830Y02656*
X02782Y02718D02*
X02786Y02722D01*
X02790*
X02786Y02726*
X02790Y02730*
X02786*
X02782Y02734*
X02778Y02730*
X02774*
X02778Y02726*
X02774Y02722*
X02778*
X02782Y02718*
X02645Y02652D02*
X02649Y02656D01*
X02653*
X02649Y02660*
X02653Y02664*
X02649*
X02645Y02668*
X02641Y02664*
X02637*
X02641Y02660*
X02637Y02656*
X02641*
X02645Y02652*
X02529Y02812D02*
X02533Y02816D01*
X02537*
X02533Y02820*
X02537Y02824*
X02533*
X02529Y02828*
X02525Y02824*
X02521*
X02525Y02820*
X02521Y02816*
X02525*
X02529Y02812*
G54D66*
X03437Y03730D02*
D01*
X03436Y03730*
X03436Y03731*
X03436Y03731*
X03436Y03732*
X03436Y03732*
X03436Y03733*
X03436Y03733*
X03435Y03734*
X03435Y03734*
X03435Y03735*
X03434Y03735*
X03434Y03735*
X03433Y03736*
X03433Y03736*
X03433Y03736*
X03432Y03737*
X03431Y03737*
X03431Y03737*
X03430Y03737*
X03430Y03737*
X03429Y03737*
X03429Y03737*
X03428*
X03428Y03737*
X03427Y03737*
X03427Y03737*
X03426Y03737*
X03426Y03737*
X03425Y03737*
X03425Y03736*
X03424Y03736*
X03424Y03736*
X03423Y03735*
X03423Y03735*
X03422Y03735*
X03422Y03734*
X03422Y03734*
X03421Y03733*
X03421Y03733*
X03421Y03732*
X03421Y03732*
X03421Y03731*
X03421Y03731*
X03421Y03730*
X03421Y03730*
X03421Y03729*
X03421Y03728*
X03421Y03728*
X03421Y03727*
X03421Y03727*
X03421Y03726*
X03421Y03726*
X03422Y03725*
X03422Y03725*
X03422Y03724*
X03423Y03724*
X03423Y03724*
X03424Y03723*
X03424Y03723*
X03425Y03723*
X03425Y03722*
X03426Y03722*
X03426Y03722*
X03427Y03722*
X03427Y03722*
X03428Y03722*
X03428Y03722*
X03429*
X03429Y03722*
X03430Y03722*
X03430Y03722*
X03431Y03722*
X03431Y03722*
X03432Y03722*
X03433Y03723*
X03433Y03723*
X03433Y03723*
X03434Y03724*
X03434Y03724*
X03435Y03724*
X03435Y03725*
X03435Y03725*
X03436Y03726*
X03436Y03726*
X03436Y03727*
X03436Y03727*
X03436Y03728*
X03436Y03728*
X03436Y03729*
X03437Y03730*
X03559D02*
D01*
X03558Y03730*
X03558Y03731*
X03558Y03731*
X03558Y03732*
X03558Y03732*
X03558Y03733*
X03558Y03733*
X03557Y03734*
X03557Y03734*
X03557Y03735*
X03556Y03735*
X03556Y03735*
X03555Y03736*
X03555Y03736*
X03555Y03736*
X03554Y03737*
X03553Y03737*
X03553Y03737*
X03552Y03737*
X03552Y03737*
X03551Y03737*
X03551Y03737*
X03550*
X03550Y03737*
X03549Y03737*
X03549Y03737*
X03548Y03737*
X03548Y03737*
X03547Y03737*
X03547Y03736*
X03546Y03736*
X03546Y03736*
X03545Y03735*
X03545Y03735*
X03544Y03735*
X03544Y03734*
X03544Y03734*
X03543Y03733*
X03543Y03733*
X03543Y03732*
X03543Y03732*
X03543Y03731*
X03543Y03731*
X03543Y03730*
X03543Y03730*
X03543Y03729*
X03543Y03728*
X03543Y03728*
X03543Y03727*
X03543Y03727*
X03543Y03726*
X03543Y03726*
X03544Y03725*
X03544Y03725*
X03544Y03724*
X03545Y03724*
X03545Y03724*
X03546Y03723*
X03546Y03723*
X03547Y03723*
X03547Y03722*
X03548Y03722*
X03548Y03722*
X03549Y03722*
X03549Y03722*
X03550Y03722*
X03550Y03722*
X03551*
X03551Y03722*
X03552Y03722*
X03552Y03722*
X03553Y03722*
X03553Y03722*
X03554Y03722*
X03555Y03723*
X03555Y03723*
X03555Y03723*
X03556Y03724*
X03556Y03724*
X03557Y03724*
X03557Y03725*
X03557Y03725*
X03558Y03726*
X03558Y03726*
X03558Y03727*
X03558Y03727*
X03558Y03728*
X03558Y03728*
X03558Y03729*
X03559Y03730*
M02*