%FSDAX23Y23*%
%MOIN*%
%SFA1B1*%

%IPPOS*%
%ADD61C,0.003900*%
%ADD63C,0.000000*%
%LNde-020717-1*%
%LPD*%
G54D61*
X03622Y03278D02*
D01*
X03622Y03280*
X03622Y03281*
X03622Y03282*
X03621Y03284*
X03621Y03285*
X03620Y03286*
X03620Y03288*
X03619Y03289*
X03618Y03290*
X03617Y03291*
X03616Y03292*
X03615Y03293*
X03614Y03294*
X03613Y03295*
X03612Y03295*
X03611Y03296*
X03610Y03297*
X03608Y03297*
X03607Y03297*
X03606Y03298*
X03604Y03298*
X03603Y03298*
X03602*
X03600Y03298*
X03599Y03298*
X03598Y03297*
X03596Y03297*
X03595Y03297*
X03594Y03296*
X03592Y03295*
X03591Y03295*
X03590Y03294*
X03589Y03293*
X03588Y03292*
X03587Y03291*
X03586Y03290*
X03586Y03289*
X03585Y03288*
X03584Y03286*
X03584Y03285*
X03583Y03284*
X03583Y03282*
X03583Y03281*
X03583Y03280*
X03583Y03278*
X03583Y03277*
X03583Y03276*
X03583Y03274*
X03583Y03273*
X03584Y03272*
X03584Y03270*
X03585Y03269*
X03586Y03268*
X03586Y03267*
X03587Y03266*
X03588Y03265*
X03589Y03264*
X03590Y03263*
X03591Y03262*
X03592Y03261*
X03594Y03261*
X03595Y03260*
X03596Y03260*
X03598Y03259*
X03599Y03259*
X03600Y03259*
X03602Y03259*
X03603*
X03604Y03259*
X03606Y03259*
X03607Y03259*
X03608Y03260*
X03610Y03260*
X03611Y03261*
X03612Y03261*
X03613Y03262*
X03614Y03263*
X03615Y03264*
X03616Y03265*
X03617Y03266*
X03618Y03267*
X03619Y03268*
X03620Y03269*
X03620Y03270*
X03621Y03272*
X03621Y03273*
X03622Y03274*
X03622Y03276*
X03622Y03277*
X03622Y03278*
X03376Y03078D02*
D01*
X03376Y03079*
X03376Y03081*
X03376Y03082*
X03376Y03083*
X03375Y03085*
X03375Y03086*
X03374Y03087*
X03373Y03088*
X03373Y03089*
X03372Y03090*
X03371Y03091*
X03370Y03092*
X03369Y03093*
X03368Y03094*
X03366Y03095*
X03365Y03096*
X03364Y03096*
X03363Y03097*
X03361Y03097*
X03360Y03097*
X03359Y03097*
X03357Y03097*
X03356*
X03355Y03097*
X03353Y03097*
X03352Y03097*
X03351Y03097*
X03349Y03096*
X03348Y03096*
X03347Y03095*
X03346Y03094*
X03344Y03093*
X03343Y03092*
X03342Y03091*
X03342Y03090*
X03341Y03089*
X03340Y03088*
X03339Y03087*
X03339Y03086*
X03338Y03085*
X03338Y03083*
X03337Y03082*
X03337Y03081*
X03337Y03079*
X03337Y03078*
X03337Y03076*
X03337Y03075*
X03337Y03074*
X03338Y03072*
X03338Y03071*
X03339Y03070*
X03339Y03069*
X03340Y03067*
X03341Y03066*
X03342Y03065*
X03342Y03064*
X03343Y03063*
X03344Y03062*
X03346Y03061*
X03347Y03061*
X03348Y03060*
X03349Y03060*
X03351Y03059*
X03352Y03059*
X03353Y03058*
X03355Y03058*
X03356Y03058*
X03357*
X03359Y03058*
X03360Y03058*
X03361Y03059*
X03363Y03059*
X03364Y03060*
X03365Y03060*
X03366Y03061*
X03368Y03061*
X03369Y03062*
X03370Y03063*
X03371Y03064*
X03372Y03065*
X03373Y03066*
X03373Y03067*
X03374Y03069*
X03375Y03070*
X03375Y03071*
X03376Y03072*
X03376Y03074*
X03376Y03075*
X03376Y03076*
X03376Y03078*
X04043Y02097D02*
D01*
X04043Y02098*
X04043Y02099*
X04043Y02101*
X04042Y02102*
X04042Y02103*
X04041Y02105*
X04041Y02106*
X04040Y02107*
X04039Y02108*
X04038Y02109*
X04037Y02110*
X04036Y02111*
X04035Y02112*
X04034Y02113*
X04033Y02114*
X04032Y02114*
X04031Y02115*
X04029Y02115*
X04028Y02116*
X04027Y02116*
X04025Y02116*
X04024Y02116*
X04023*
X04021Y02116*
X04020Y02116*
X04019Y02116*
X04017Y02115*
X04016Y02115*
X04015Y02114*
X04013Y02114*
X04012Y02113*
X04011Y02112*
X04010Y02111*
X04009Y02110*
X04008Y02109*
X04007Y02108*
X04007Y02107*
X04006Y02106*
X04005Y02105*
X04005Y02103*
X04004Y02102*
X04004Y02101*
X04004Y02099*
X04004Y02098*
X04004Y02097*
X04004Y02095*
X04004Y02094*
X04004Y02092*
X04004Y02091*
X04005Y02090*
X04005Y02088*
X04006Y02087*
X04007Y02086*
X04007Y02085*
X04008Y02084*
X04009Y02083*
X04010Y02082*
X04011Y02081*
X04012Y02080*
X04013Y02079*
X04015Y02079*
X04016Y02078*
X04017Y02078*
X04019Y02077*
X04020Y02077*
X04021Y02077*
X04023Y02077*
X04024*
X04025Y02077*
X04027Y02077*
X04028Y02077*
X04029Y02078*
X04031Y02078*
X04032Y02079*
X04033Y02079*
X04034Y02080*
X04035Y02081*
X04036Y02082*
X04037Y02083*
X04038Y02084*
X04039Y02085*
X04040Y02086*
X04041Y02087*
X04041Y02088*
X04042Y02090*
X04042Y02091*
X04043Y02092*
X04043Y02094*
X04043Y02095*
X04043Y02097*
X02383Y02149D02*
D01*
X02383Y02150*
X02383Y02152*
X02383Y02153*
X02383Y02154*
X02382Y02156*
X02382Y02157*
X02381Y02158*
X02380Y02159*
X02380Y02160*
X02379Y02162*
X02378Y02163*
X02377Y02164*
X02376Y02164*
X02375Y02165*
X02374Y02166*
X02372Y02167*
X02371Y02167*
X02370Y02168*
X02368Y02168*
X02367Y02168*
X02366Y02168*
X02364Y02169*
X02363*
X02362Y02168*
X02360Y02168*
X02359Y02168*
X02358Y02168*
X02356Y02167*
X02355Y02167*
X02354Y02166*
X02353Y02165*
X02352Y02164*
X02351Y02164*
X02350Y02163*
X02349Y02162*
X02348Y02160*
X02347Y02159*
X02346Y02158*
X02346Y02157*
X02345Y02156*
X02345Y02154*
X02344Y02153*
X02344Y02152*
X02344Y02150*
X02344Y02149*
X02344Y02148*
X02344Y02146*
X02344Y02145*
X02345Y02143*
X02345Y02142*
X02346Y02141*
X02346Y02140*
X02347Y02138*
X02348Y02137*
X02349Y02136*
X02350Y02135*
X02351Y02134*
X02352Y02133*
X02353Y02133*
X02354Y02132*
X02355Y02131*
X02356Y02131*
X02358Y02130*
X02359Y02130*
X02360Y02129*
X02362Y02129*
X02363Y02129*
X02364*
X02366Y02129*
X02367Y02129*
X02368Y02130*
X02370Y02130*
X02371Y02131*
X02372Y02131*
X02374Y02132*
X02375Y02133*
X02376Y02133*
X02377Y02134*
X02378Y02135*
X02379Y02136*
X02380Y02137*
X02380Y02138*
X02381Y02140*
X02382Y02141*
X02382Y02142*
X02383Y02143*
X02383Y02145*
X02383Y02146*
X02383Y02148*
X02383Y02149*
X03431Y02228D02*
D01*
X03430Y02229*
X03430Y02231*
X03430Y02232*
X03430Y02233*
X03429Y02235*
X03429Y02236*
X03428Y02237*
X03428Y02238*
X03427Y02240*
X03426Y02241*
X03425Y02242*
X03424Y02243*
X03423Y02244*
X03422Y02244*
X03421Y02245*
X03419Y02246*
X03418Y02246*
X03417Y02247*
X03416Y02247*
X03414Y02247*
X03413Y02248*
X03411Y02248*
X03410*
X03409Y02248*
X03407Y02247*
X03406Y02247*
X03405Y02247*
X03403Y02246*
X03402Y02246*
X03401Y02245*
X03400Y02244*
X03399Y02244*
X03398Y02243*
X03397Y02242*
X03396Y02241*
X03395Y02240*
X03394Y02238*
X03393Y02237*
X03393Y02236*
X03392Y02235*
X03392Y02233*
X03392Y02232*
X03391Y02231*
X03391Y02229*
X03391Y02228*
X03391Y02227*
X03391Y02225*
X03392Y02224*
X03392Y02223*
X03392Y02221*
X03393Y02220*
X03393Y02219*
X03394Y02218*
X03395Y02216*
X03396Y02215*
X03397Y02214*
X03398Y02213*
X03399Y02212*
X03400Y02212*
X03401Y02211*
X03402Y02210*
X03403Y02210*
X03405Y02209*
X03406Y02209*
X03407Y02209*
X03409Y02208*
X03410Y02208*
X03411*
X03413Y02208*
X03414Y02209*
X03416Y02209*
X03417Y02209*
X03418Y02210*
X03419Y02210*
X03421Y02211*
X03422Y02212*
X03423Y02212*
X03424Y02213*
X03425Y02214*
X03426Y02215*
X03427Y02216*
X03428Y02218*
X03428Y02219*
X03429Y02220*
X03429Y02221*
X03430Y02223*
X03430Y02224*
X03430Y02225*
X03430Y02227*
X03431Y02228*
X02319Y02261D02*
D01*
X02319Y02262*
X02319Y02264*
X02318Y02265*
X02318Y02267*
X02318Y02268*
X02317Y02269*
X02316Y02270*
X02316Y02272*
X02315Y02273*
X02314Y02274*
X02313Y02275*
X02312Y02276*
X02311Y02277*
X02310Y02277*
X02309Y02278*
X02308Y02279*
X02306Y02279*
X02305Y02280*
X02304Y02280*
X02303Y02281*
X02301Y02281*
X02300Y02281*
X02298*
X02297Y02281*
X02296Y02281*
X02294Y02280*
X02293Y02280*
X02292Y02279*
X02290Y02279*
X02289Y02278*
X02288Y02277*
X02287Y02277*
X02286Y02276*
X02285Y02275*
X02284Y02274*
X02283Y02273*
X02282Y02272*
X02282Y02270*
X02281Y02269*
X02281Y02268*
X02280Y02267*
X02280Y02265*
X02280Y02264*
X02279Y02262*
X02279Y02261*
X02279Y02260*
X02280Y02258*
X02280Y02257*
X02280Y02256*
X02281Y02254*
X02281Y02253*
X02282Y02252*
X02282Y02251*
X02283Y02250*
X02284Y02248*
X02285Y02247*
X02286Y02246*
X02287Y02246*
X02288Y02245*
X02289Y02244*
X02290Y02243*
X02292Y02243*
X02293Y02242*
X02294Y02242*
X02296Y02242*
X02297Y02242*
X02298Y02241*
X02300*
X02301Y02242*
X02303Y02242*
X02304Y02242*
X02305Y02242*
X02306Y02243*
X02308Y02243*
X02309Y02244*
X02310Y02245*
X02311Y02246*
X02312Y02246*
X02313Y02247*
X02314Y02248*
X02315Y02250*
X02316Y02251*
X02316Y02252*
X02317Y02253*
X02318Y02254*
X02318Y02256*
X02318Y02257*
X02319Y02258*
X02319Y02260*
X02319Y02261*
X03602Y03228D02*
X03755Y03381D01*
X03449D02*
X03602Y03535D01*
X03449Y03381D02*
X03602Y03228D01*
Y03535D02*
X03755Y03381D01*
X03195Y02956D02*
Y03113D01*
X03392D02*
Y02956D01*
X03195D02*
X03392D01*
X03195Y03113D02*
X03392D01*
X03901Y02258D02*
X04059D01*
X03901Y02061D02*
X04059D01*
X03901D02*
Y02258D01*
X04059Y02061D02*
Y02258D01*
X02436Y02242D02*
Y02329D01*
X02381Y02242D02*
Y02329D01*
Y02242D02*
X02436D01*
X02381Y02329D02*
X02436D01*
X02328Y01795D02*
X02482D01*
X02328Y02184D02*
X02482D01*
Y01795D02*
Y02184D01*
X02328Y01795D02*
Y02184D01*
X02436Y02383D02*
Y02470D01*
X02381Y02383D02*
Y02470D01*
Y02383D02*
X02436D01*
X02381Y02470D02*
X02436D01*
X03045Y01386D02*
X03446D01*
X03045Y02264D02*
X03446D01*
X03045Y01386D02*
Y02264D01*
X03446Y01386D02*
Y02264D01*
X04249Y02550D02*
Y02959D01*
X04197Y02550D02*
X04378D01*
X04197Y02959D02*
Y02550D01*
Y02959D02*
X04378D01*
Y02550D01*
X02211Y02173D02*
X02335D01*
X02211Y02297D02*
X02335D01*
X02211Y02173D02*
Y02297D01*
X02335Y02173D02*
Y02297D01*
X04063Y01915D02*
X04118D01*
X04063Y02034D02*
X04118D01*
X04063Y01915D02*
Y02034D01*
X04118D02*
Y01915D01*
X04063Y01773D02*
X04118D01*
X04063Y01891D02*
X04118D01*
X04063D02*
Y01773D01*
X04118D02*
Y01891D01*
X03901Y01773D02*
X03956D01*
X03901Y01891D02*
X03956D01*
X03901Y01773D02*
Y01891D01*
X03956Y01773D02*
Y01891D01*
X03902Y01915D02*
X03957D01*
X03902Y02034D02*
X03957D01*
X03902D02*
Y01915D01*
X03957D02*
Y02034D01*
X02181Y02278D02*
Y02172D01*
X02118Y02278D02*
X02181D01*
X02118Y02172D02*
X02181D01*
X02118Y02278D02*
Y02172D01*
X02319Y02325D02*
Y02404D01*
X02220Y02325D02*
Y02404D01*
X02319*
X02220Y02325D02*
X02319D01*
G54D63*
X03260Y03545D02*
D01*
X03260Y03545*
X03260Y03545*
X03260Y03545*
X03260Y03546*
X03260Y03546*
X03260Y03546*
X03260Y03546*
X03260Y03546*
X03259Y03546*
X03259Y03547*
X03259Y03547*
X03259Y03547*
X03259Y03547*
X03259Y03547*
X03259Y03547*
X03258Y03547*
X03258Y03547*
X03258Y03548*
X03258Y03548*
X03258Y03548*
X03257Y03548*
X03257Y03548*
X03257*
X03257Y03548*
X03256Y03548*
X03256Y03548*
X03256Y03548*
X03256Y03547*
X03256Y03547*
X03256Y03547*
X03255Y03547*
X03255Y03547*
X03255Y03547*
X03255Y03547*
X03255Y03547*
X03255Y03546*
X03254Y03546*
X03254Y03546*
X03254Y03546*
X03254Y03546*
X03254Y03546*
X03254Y03545*
X03254Y03545*
X03254Y03545*
X03254Y03545*
X03254Y03544*
X03254Y03544*
X03254Y03544*
X03254Y03544*
X03254Y03544*
X03254Y03543*
X03254Y03543*
X03254Y03543*
X03255Y03543*
X03255Y03543*
X03255Y03543*
X03255Y03542*
X03255Y03542*
X03255Y03542*
X03256Y03542*
X03256Y03542*
X03256Y03542*
X03256Y03542*
X03256Y03542*
X03256Y03542*
X03257Y03542*
X03257Y03542*
X03257*
X03257Y03542*
X03258Y03542*
X03258Y03542*
X03258Y03542*
X03258Y03542*
X03258Y03542*
X03259Y03542*
X03259Y03542*
X03259Y03542*
X03259Y03542*
X03259Y03543*
X03259Y03543*
X03259Y03543*
X03260Y03543*
X03260Y03543*
X03260Y03543*
X03260Y03544*
X03260Y03544*
X03260Y03544*
X03260Y03544*
X03260Y03544*
X03260Y03545*
M02*