%FSDAX24Y24*%
%MOIN*%
%SFA1B1*%

%IPPOS*%
%AMD13*
4,1,4,0.006900,-0.023600,0.023600,-0.006900,-0.006900,0.023600,-0.023600,0.006900,0.006900,-0.023600,0.0*
1,1,0.023600,0.015300,-0.015300*
1,1,0.023600,-0.015300,0.015300*
%
%AMD17*
4,1,4,-0.001300,0.029200,-0.029200,0.001300,0.001300,-0.029200,0.029200,-0.001300,-0.001300,0.029200,0.0*
%
%AMD18*
4,1,4,0.029200,0.001300,0.001300,0.029200,-0.029200,-0.001300,-0.001300,-0.029200,0.029200,0.001300,0.0*
%
%AMD36*
4,1,4,-0.041700,0.000000,0.000000,-0.041700,0.041700,0.000000,0.000000,0.041700,-0.041700,0.000000,0.0*
%
%AMD42*
4,1,4,0.000000,-0.041700,0.041700,0.000000,0.000000,0.041700,-0.041700,0.000000,0.000000,-0.041700,0.0*
%
%ADD10R,0.039400X0.043300*%
%ADD11R,0.043300X0.039400*%
%ADD12R,0.031500X0.031500*%
G04~CAMADD=13~3~0.0~0.0~236.0~669.0~0.0~0.0~0~0.0~0.0~0.0~0.0~0~0.0~0.0~0.0~0.0~0~0.0~0.0~0.0~225.0~540.0~540.0*
%ADD13D13*%
%ADD14O,0.023600X0.078700*%
%ADD15O,0.086600X0.023600*%
%ADD16R,0.027600X0.015700*%
G04~CAMADD=17~9~0.0~0.0~394.0~433.0~0.0~0.0~0~0.0~0.0~0.0~0.0~0~0.0~0.0~0.0~0.0~0~0.0~0.0~0.0~45.0~584.0~583.0*
%ADD17D17*%
G04~CAMADD=18~9~0.0~0.0~394.0~433.0~0.0~0.0~0~0.0~0.0~0.0~0.0~0~0.0~0.0~0.0~0.0~0~0.0~0.0~0.0~315.0~584.0~583.0*
%ADD18D18*%
%ADD19R,0.035400X0.027600*%
%ADD20R,0.059100X0.059100*%
%ADD21C,0.059100*%
%ADD22R,0.011800X0.049200*%
%ADD23R,0.013800X0.049200*%
%ADD24R,0.086600X0.078700*%
%ADD25R,0.051200X0.059100*%
%ADD26R,0.059100X0.051200*%
%ADD35C,0.059100*%
G04~CAMADD=36~10~0.0~590.4~0.0~0.0~0.0~0.0~0~0.0~0.0~0.0~0.0~0~0.0~0.0~0.0~0.0~0~0.0~0.0~0.0~135.0~590.4~0.0*
%ADD36D36*%
%ADD37C,0.051200*%
%ADD38R,0.059100X0.059100*%
%ADD39R,0.059100X0.059100*%
%ADD40R,0.066900X0.066900*%
%ADD41C,0.066900*%
G04~CAMADD=42~10~0.0~590.4~0.0~0.0~0.0~0.0~0~0.0~0.0~0.0~0.0~0~0.0~0.0~0.0~0.0~0~0.0~0.0~0.0~225.0~590.4~0.0*
%ADD42D42*%
%ADD43C,0.030000*%
%LNde-020717_soldermask_top-1*%
%LPD*%
G54D10*
X019450Y018435D03*
Y017765D03*
X019400Y006200D03*
Y006869D03*
X009250Y008665D03*
Y009335D03*
X013900Y015035D03*
Y014365D03*
X021650Y006935D03*
Y006265D03*
X006600Y004300D03*
Y003631D03*
X012700Y014365D03*
Y015035D03*
X013300Y014365D03*
Y015035D03*
X024800Y014105D03*
Y013435D03*
Y014965D03*
Y015635D03*
X015070Y017545D03*
Y016875D03*
X024100Y009028D03*
Y008359D03*
X022600Y009028D03*
Y008359D03*
X005690Y010145D03*
Y009475D03*
X007200Y003631D03*
Y004300D03*
X005690Y011595D03*
Y010925D03*
X014040Y011045D03*
Y011715D03*
X009850Y009335D03*
Y008665D03*
X011600Y015435D03*
Y014765D03*
X018650Y011365D03*
Y012035D03*
G54D11*
X023280Y007722D03*
X022610D03*
X020035Y012050D03*
X019365D03*
X020855Y005610D03*
X021525D03*
X006975Y010160D03*
X006305D03*
Y009460D03*
X006975D03*
X006565Y004900D03*
X007235D03*
X007215Y005600D03*
X006545D03*
X007235Y006300D03*
X006565D03*
X007235Y006900D03*
X006565D03*
X006975Y011610D03*
X006305D03*
X007235Y007600D03*
X006565D03*
X007235Y008200D03*
X006565D03*
X007235Y008800D03*
X006565D03*
X009215Y024550D03*
X009885D03*
X006305Y010910D03*
X006975D03*
X013335Y024350D03*
X012665D03*
X023305Y006560D03*
X022635D03*
X023305Y007140D03*
X022635D03*
X020963Y018454D03*
X020294D03*
X020963Y017060D03*
X020294D03*
X020085Y005600D03*
X019415D03*
X020835Y007000D03*
X020165D03*
X007335Y002800D03*
X006665D03*
X007915Y011050D03*
X008585D03*
X015525Y025260D03*
X014855D03*
X009185Y001220D03*
X009855D03*
X009165Y002200D03*
X009835D03*
X009165Y003450D03*
X009835D03*
X009165Y004700D03*
X009835D03*
X009165Y005950D03*
X009835D03*
X009165Y007200D03*
X009835D03*
X016835Y008974D03*
X016165D03*
X017085Y008250D03*
X016415D03*
X017085Y007000D03*
X016415D03*
X019365Y011350D03*
X020035D03*
X016935Y005920D03*
X016265D03*
X016735Y004300D03*
X016065D03*
X016835Y003379D03*
X016165D03*
X016835Y002164D03*
X016165D03*
X016835Y001150D03*
X016165D03*
X009885Y010050D03*
X009215D03*
G54D12*
X010850Y025145D03*
Y024555D03*
G54D13*
X017093Y019243D03*
X017446Y019596D03*
X017800Y019950D03*
X018154Y020304D03*
X015102Y021233D03*
X015456Y021587D03*
X015810Y021940D03*
X016163Y022294D03*
G54D14*
X012791Y016316D03*
X013291D03*
X013791D03*
X014291D03*
X012791Y018284D03*
X013291D03*
X013791D03*
X014291D03*
G54D15*
X019460Y009300D03*
Y008800D03*
Y008300D03*
Y007800D03*
X021350Y009300D03*
Y008800D03*
Y008300D03*
Y007800D03*
X005600Y005100D03*
Y005600D03*
Y006100D03*
Y006600D03*
Y007100D03*
Y007600D03*
Y008100D03*
Y008600D03*
X003710Y005100D03*
Y005600D03*
Y006100D03*
Y006600D03*
Y007100D03*
Y007600D03*
Y008100D03*
Y008600D03*
G54D16*
X005094Y009554D03*
Y009810D03*
Y010066D03*
X004286D03*
Y009554D03*
X005094Y010964D03*
Y011220D03*
Y011476D03*
X004286D03*
Y010964D03*
G54D17*
X018120Y021991D03*
X017647Y022464D03*
X019387Y023263D03*
X018913Y023737D03*
X020029Y020082D03*
X019556Y020555D03*
X013163Y022707D03*
X013637Y022233D03*
X015137Y020063D03*
X014663Y020537D03*
X018107Y022924D03*
X018580Y022450D03*
X020016Y021014D03*
X020489Y020541D03*
X017937Y017613D03*
X017463Y018087D03*
X015267Y019033D03*
X014793Y019507D03*
G54D18*
X020440Y019622D03*
X020913Y020095D03*
X011163Y021763D03*
X011637Y022237D03*
X017747Y023697D03*
X017273Y023223D03*
X019487Y021537D03*
X019013Y021063D03*
X017437Y024437D03*
X016963Y023963D03*
X016737Y014967D03*
X016263Y014493D03*
X013663Y012963D03*
X014137Y013437D03*
X012537Y013037D03*
X012063Y012563D03*
X012117Y013457D03*
X011643Y012983D03*
X018323Y016673D03*
X017850Y016200D03*
X012163Y022763D03*
X012637Y023237D03*
X010263Y020813D03*
X010737Y021287D03*
X008863Y019363D03*
X009337Y019837D03*
X013043Y020903D03*
X013517Y021377D03*
G54D19*
X012278Y004480D03*
X012790D03*
X013846D03*
X013334D03*
X012278Y003960D03*
X012790D03*
X012278Y003460D03*
X012790D03*
X012278Y002960D03*
X012790D03*
X012278Y002460D03*
X012790D03*
X012278Y001960D03*
X012790D03*
X012278Y001460D03*
X012790D03*
X012278Y000960D03*
X012790D03*
X011056Y001250D03*
X010544D03*
X014994D03*
X015506D03*
X013846Y000960D03*
X013334D03*
X013846Y001460D03*
X013334D03*
X013846Y001960D03*
X013334D03*
X013846Y002460D03*
X013334D03*
X013846Y002960D03*
X013334D03*
X013846Y003460D03*
X013334D03*
X013846Y003960D03*
X013334D03*
G54D20*
X009850Y018100D03*
G54D21*
X008850Y018100D03*
X007850D03*
G54D22*
X009437Y016050D03*
X009240D03*
X009043D03*
X008847D03*
X008650D03*
X008453D03*
X008256D03*
X008059D03*
X007862D03*
X007666D03*
X007469D03*
X007272D03*
X007075D03*
X006878D03*
X006681D03*
X006484D03*
X006288D03*
X006091D03*
X005894D03*
X005697D03*
X005500D03*
X005303D03*
X005106D03*
X004910D03*
X004713D03*
X004516D03*
X004319D03*
X004122D03*
X003925D03*
X003729D03*
X003532D03*
X003335D03*
X003138D03*
X002941D03*
X002744D03*
X002547D03*
X002351D03*
X002154D03*
X001957D03*
X001760D03*
G54D23*
X022748Y011800D03*
X022945D03*
X023142D03*
X023339D03*
X023536D03*
X023733D03*
X023929D03*
X024126D03*
X024323D03*
X024530D03*
G54D24*
X022750Y013409D03*
Y014591D03*
X023650Y017409D03*
Y018591D03*
X022200Y017409D03*
Y018591D03*
G54D25*
X020176Y017750D03*
X020924D03*
X020126Y006300D03*
X020874D03*
G54D26*
X023345Y008398D03*
Y009146D03*
X017950Y011226D03*
Y011974D03*
X017150Y011226D03*
Y011974D03*
G54D35*
X006564Y021914D03*
X005857Y022621D03*
Y021207D03*
X005150Y021914D03*
Y020500D03*
X004443Y021207D03*
Y019793D03*
X003736Y020500D03*
Y019086D03*
X013350Y025250D03*
X018200Y010200D03*
Y009200D03*
Y008200D03*
Y007200D03*
Y006200D03*
Y005200D03*
Y004200D03*
X008170Y010160D03*
Y009160D03*
Y008160D03*
Y007160D03*
Y006160D03*
Y005160D03*
Y004160D03*
X020393Y022907D03*
X022707Y020593D03*
X021530Y016060D03*
X020530Y015060D03*
X021530D03*
X020530Y014060D03*
X021530D03*
X020530Y013060D03*
X021530D03*
G54D36*
X003029Y019793D03*
G54D37*
X014890Y024250D03*
X016110D03*
G54D38*
X012350Y025250D03*
G54D39*
X018200Y003200D03*
X008170Y003160D03*
X020530Y016060D03*
G54D40*
X023700Y015500D03*
G54D41*
X023700Y014500D03*
Y013500D03*
G54D42*
X021100Y022200D03*
X022000Y021300D03*
G54D43*
X003113Y009083D03*
X003546D03*
X003113Y009517D03*
X003546D03*
X021430Y017250D03*
X018650Y018400D03*
X018770Y010730D03*
Y009610D03*
X007660Y009670D03*
X017710Y024150D03*
X019860Y021870D03*
X019300Y022320D03*
X016040Y019400D03*
X016310Y019140D03*
X015250Y019530D03*
X014840Y019830D03*
X016340Y009820D03*
X014710Y017900D03*
X009100Y022050D03*
X015850Y018800D03*
X012800Y015600D03*
X016280Y021120D03*
X013900Y015600D03*
X010320Y002640D03*
Y006580D03*
X009850Y009700D03*
X010300Y007750D03*
X009835Y006750D03*
Y008200D03*
X016230Y013040D03*
X014550Y006100D03*
X017700Y014900D03*
X015750Y009650D03*
X018400Y015600D03*
X015869Y007168D03*
X004630Y017170D03*
X015490Y013020D03*
X016310Y013500D03*
X016840Y001640D03*
X016165Y001650D03*
X010870Y011183D03*
X013640Y005010D03*
X014110Y005200D03*
X014557Y005397D03*
X014460Y006980D03*
X015380Y012210D03*
X014750Y014740D03*
X015070Y014390D03*
X011870Y003960D03*
X014250Y004470D03*
Y003950D03*
Y003460D03*
Y002940D03*
Y002450D03*
Y001960D03*
Y001450D03*
Y000950D03*
X011870Y000960D03*
Y001460D03*
Y001960D03*
Y002460D03*
Y002960D03*
Y003460D03*
X012550Y010490D03*
X004430Y012760D03*
X010810Y016290D03*
X005690Y012760D03*
X004990D03*
X011700Y016670D03*
X005890Y016560D03*
X006410Y016710D03*
X003729Y015450D03*
X003335Y015090D03*
X014700Y000950D03*
X016160Y002790D03*
Y003820D03*
X016150Y006450D03*
Y007620D03*
X016845Y002770D03*
X013300Y015600D03*
X007510Y018910D03*
X017100Y018400D03*
X017750Y017050D03*
X013200Y011700D03*
X013250Y012500D03*
X011350Y013900D03*
X010750Y013000D03*
X012950Y012750D03*
X009350Y018800D03*
X010800Y020250D03*
X011300Y020700D03*
X012100Y021500D03*
X012900Y022400D03*
Y021950D03*
X010900Y022400D03*
X007400Y017700D03*
X015800Y015030D03*
X016200Y015400D03*
X014400Y020250D03*
X011150Y015450D03*
Y014750D03*
X012950Y006700D03*
Y006250D03*
X014100Y006800D03*
X014450Y007550D03*
X015850Y008500D03*
X012600Y004950D03*
X007900Y011500D03*
X008950Y012780D03*
X010800Y011550D03*
X010543Y011950D03*
X010210Y011690D03*
X009929Y012285D03*
X009950Y012950D03*
X012950Y005800D03*
X009480Y012190D03*
X009950Y013400D03*
X012950Y005400D03*
X014390Y014210D03*
X014450Y013760D03*
X017060Y020010D03*
X017160Y014340D03*
X017200Y004100D03*
Y005050D03*
Y005450D03*
X017850Y005700D03*
X016600Y020750D03*
X016700Y021150D03*
X012900Y021500D03*
X015750Y005200D03*
X010300Y006150D03*
X016200Y023000D03*
X015850Y023200D03*
X005810Y018927D03*
X005200Y018300D03*
X006850Y018250D03*
X007180Y018580D03*
X005510Y018613D03*
X006160Y019240D03*
X007840D03*
X006750Y019800D03*
X008350D03*
X002300Y013150D03*
X002000Y013450D03*
X001600Y013900D03*
X001250Y013600D03*
X008300Y017450D03*
X004850Y017900D03*
X006900Y017750D03*
X002600Y012850D03*
X003250Y016700D03*
X001250Y013150D03*
X001200Y011400D03*
X002900Y012550D03*
Y012150D03*
Y011750D03*
X009835Y002825D03*
Y001750D03*
X010320Y003810D03*
X009150Y001750D03*
Y004000D03*
Y005300D03*
Y006600D03*
X018000Y019400D03*
X018400D03*
X017300Y020600D03*
X018650Y019100D03*
X018400Y018750D03*
X017000Y020850D03*
X024400Y017600D03*
X022950Y019250D03*
X008650Y021350D03*
X015900Y017750D03*
X011250Y020200D03*
X009550Y021400D03*
X012360Y016290D03*
X018110Y015320D03*
X015810Y016280D03*
X018550Y016200D03*
X014390Y007920D03*
X010870Y009710D03*
X021540Y011710D03*
X024895Y011935D03*
X023860Y007730D03*
X022610Y008020D03*
X024530Y009050D03*
X018800Y004720D03*
X019920Y009990D03*
X011360Y017320D03*
X010740Y018200D03*
X010405Y017875D03*
X010070Y017550D03*
X002940Y015540D03*
X003780Y016700D03*
X004900Y008350D03*
Y007200D03*
X011800Y020750D03*
X010050Y019150D03*
X016400Y018600D03*
X019300Y013550D03*
X008650Y020100D03*
X008550Y022050D03*
X009280Y022790D03*
X008550Y022900D03*
X007150Y023450D03*
X008550D03*
X007850D03*
X015550Y012600D03*
X011700Y017640D03*
Y018100D03*
X011650Y019050D03*
X012200D03*
X012150Y020500D03*
X012650D03*
X011100Y023350D03*
X009900Y022050D03*
X010500Y022400D03*
X012350Y024600D03*
X011900Y023350D03*
X013300Y023400D03*
X006835Y014465D03*
X006000Y013907D03*
X006300Y013550D03*
X008650Y003750D03*
X008450Y004650D03*
X015800Y001750D03*
X010350D03*
X011450Y000950D03*
X022250Y006000D03*
X019150Y003100D03*
X019550D03*
X008000Y015450D03*
Y015060D03*
X007050Y013350D03*
X008950Y013300D03*
Y014100D03*
X008000Y013450D03*
X008450D03*
X004850Y006500D03*
X016850Y018100D03*
X016200Y018050D03*
X020220Y013520D03*
X019420Y014770D03*
X018570Y013860D03*
X018830Y014140D03*
X014230Y021310D03*
X020850Y014550D03*
X021890Y014560D03*
X013040Y001230D03*
X013060Y002710D03*
X013050Y004230D03*
X004330Y005110D03*
X005990Y004630D03*
X005980Y010140D03*
Y011610D03*
X009220Y009710D03*
X020660Y008150D03*
X021640Y005980D03*
X020820Y007410D03*
X019780Y010520D03*
X012070Y010490D03*
X011950Y011120D03*
X012340Y011110D03*
X012740Y011100D03*
X013060Y011340D03*
X013000Y014365D03*
X021570Y018274D03*
X020720Y019410D03*
X018650Y024030D03*
X020460Y005290D03*
X012220Y015110D03*
X014930Y015450D03*
X006550Y017460D03*
X021440Y018790D03*
X016260Y010400D03*
X019300Y010740D03*
X013910Y020960D03*
X020800Y010960D03*
X022930Y012250D03*
X011480Y016290D03*
X011150Y016550D03*
X013890Y018890D03*
X013480Y020440D03*
M02*