%FSDAX23Y23*%
%MOIN*%
%SFA1B1*%

%IPPOS*%
%AMD18*
4,1,4,0.029200,0.001300,0.001300,0.029200,-0.029200,-0.001300,-0.001300,-0.029200,0.029200,0.001300,0.0*
%
%AMD35*
4,1,4,-0.041700,0.000000,0.000000,-0.041700,0.041700,0.000000,0.000000,0.041700,-0.041700,0.000000,0.0*
%
%AMD40*
4,1,4,0.000000,-0.041700,0.041700,0.000000,0.000000,0.041700,-0.041700,0.000000,0.000000,-0.041700,0.0*
%
%AMD44*
4,1,4,-0.083500,0.041800,0.041800,-0.083500,0.083500,-0.041800,-0.041800,0.083500,-0.083500,0.041800,0.0*
%
%AMD53*
4,1,4,0.023600,-0.013900,-0.013900,0.023600,-0.023600,0.013900,0.013900,-0.023600,0.023600,-0.013900,0.0*
%
%AMD54*
4,1,4,0.013900,0.023600,-0.023600,-0.013900,-0.013900,-0.023600,0.023600,0.013900,0.013900,0.023600,0.0*
%
%ADD10R,0.039400X0.043300*%
%ADD11R,0.043300X0.039400*%
G04~CAMADD=18~9~0.0~0.0~394.0~433.0~0.0~0.0~0~0.0~0.0~0.0~0.0~0~0.0~0.0~0.0~0.0~0~0.0~0.0~0.0~315.0~584.0~583.0*
%ADD18D18*%
%ADD20R,0.059100X0.059100*%
%ADD21C,0.059100*%
%ADD23R,0.086600X0.078700*%
%ADD24R,0.051200X0.059100*%
%ADD25R,0.059100X0.051200*%
G04~CAMADD=35~10~0.0~590.4~0.0~0.0~0.0~0.0~0~0.0~0.0~0.0~0.0~0~0.0~0.0~0.0~0.0~0~0.0~0.0~0.0~135.0~590.4~0.0*
%ADD35D35*%
%ADD36C,0.051200*%
%ADD37R,0.059100X0.059100*%
%ADD38R,0.066900X0.066900*%
%ADD39C,0.066900*%
G04~CAMADD=40~10~0.0~590.4~0.0~0.0~0.0~0.0~0~0.0~0.0~0.0~0.0~0~0.0~0.0~0.0~0.0~0~0.0~0.0~0.0~225.0~590.4~0.0*
%ADD40D40*%
%ADD43O,0.063000X0.011800*%
G04~CAMADD=44~9~0.0~0.0~1772.0~591.0~0.0~0.0~0~0.0~0.0~0.0~0.0~0~0.0~0.0~0.0~0.0~0~0.0~0.0~0.0~135.0~1670.0~1669.0*
%ADD44D44*%
%ADD45R,0.135800X0.061000*%
%ADD46R,0.043300X0.061000*%
%ADD47R,0.043300X0.061000*%
%ADD48R,0.016500X0.107900*%
%ADD49R,0.019700X0.013800*%
%ADD50R,0.051200X0.023600*%
%ADD51R,0.048000X0.035800*%
%ADD52R,0.033500X0.078700*%
G04~CAMADD=53~9~0.0~0.0~531.0~138.0~0.0~0.0~0~0.0~0.0~0.0~0.0~0~0.0~0.0~0.0~0.0~0~0.0~0.0~0.0~315.0~472.0~471.0*
%ADD53D53*%
G04~CAMADD=54~9~0.0~0.0~531.0~138.0~0.0~0.0~0~0.0~0.0~0.0~0.0~0~0.0~0.0~0.0~0.0~0~0.0~0.0~0.0~45.0~472.0~471.0*
%ADD54D54*%
%LNde-020717-1*%
%LPD*%
G54D10*
X02510Y02128D03*
Y02061D03*
X04205Y02011D03*
Y02078D03*
X02105Y02376D03*
Y02443D03*
X02165Y02376D03*
Y02443D03*
X02395Y02268D03*
Y02202D03*
X04480Y02498D03*
Y02431D03*
X04055Y02476D03*
Y02409D03*
X02510Y02268D03*
Y02201D03*
X02452Y02268D03*
Y02201D03*
X02298Y02113D03*
Y02046D03*
X04265Y03131D03*
Y03064D03*
X04330Y03131D03*
Y03064D03*
X04195Y03131D03*
Y03064D03*
X04130Y03131D03*
Y03064D03*
X04065Y03131D03*
Y03064D03*
G54D11*
X04148Y03000D03*
X04081D03*
X02303Y02450D03*
X02236D03*
X02306Y02910D03*
X02240D03*
X04066Y02080D03*
X04133D03*
X03943D03*
X03876D03*
X04083Y01725D03*
X04016D03*
X03943D03*
X03876D03*
X04283Y03000D03*
X04216D03*
X02601Y02790D03*
X02668D03*
X02577Y02928D03*
X02644D03*
G54D18*
X02532Y03044D03*
X02579Y03091D03*
X04113Y03303D03*
X04066Y03256D03*
X03683Y03748D03*
X03636Y03701D03*
G54D20*
X03175Y03830D03*
G54D21*
X02596Y03496D03*
X02525Y03567D03*
Y03425D03*
X02455Y03496D03*
Y03355D03*
X02384Y03425D03*
Y03284D03*
X02313Y03355D03*
Y03213D03*
X03275Y03830D03*
X03760Y02325D03*
Y02225D03*
Y02125D03*
Y02025D03*
Y01925D03*
Y01825D03*
Y01725D03*
X02757Y02321D03*
Y02221D03*
Y02121D03*
Y02021D03*
Y01921D03*
Y01821D03*
Y01721D03*
X03979Y03595D03*
X04210Y03364D03*
X04093Y02911D03*
X03993Y02811D03*
X04093D03*
X03993Y02711D03*
X04093D03*
X03993Y02611D03*
X04093D03*
G54D23*
X04000Y02185D03*
Y02304D03*
X04440Y02625D03*
Y02744D03*
G54D24*
X02580Y02859D03*
X02655D03*
G54D25*
X02370Y02047D03*
Y02122D03*
X03890Y02207D03*
Y02282D03*
X04410Y02297D03*
Y02372D03*
X03983Y02401D03*
Y02476D03*
X02590Y02187D03*
Y02262D03*
X02230Y02122D03*
Y02047D03*
X03995Y03132D03*
Y03057D03*
G54D35*
X02242Y03284D03*
G54D36*
X03429Y03730D03*
X03551D03*
G54D37*
X03760Y01625D03*
X02757Y01621D03*
X03993Y02911D03*
G54D38*
X04310Y02855D03*
G54D39*
X04310Y02755D03*
Y02655D03*
G54D40*
X04050Y03525D03*
X04140Y03435D03*
G54D43*
X03462Y01923D03*
Y01864D03*
Y01884D03*
Y01903D03*
Y01943D03*
X03029Y02159D03*
Y02179D03*
Y02218D03*
Y02120D03*
Y02002D03*
Y02041D03*
Y02061D03*
Y02100D03*
Y01411D03*
Y01431D03*
Y01451D03*
Y01470D03*
Y01490D03*
Y01510D03*
Y01529D03*
Y01549D03*
Y01569D03*
Y01588D03*
Y01608D03*
Y01628D03*
Y01647D03*
Y01667D03*
Y01687D03*
Y01706D03*
Y01726D03*
Y01746D03*
Y01765D03*
Y01785D03*
Y01805D03*
Y01825D03*
Y01844D03*
Y01864D03*
Y01884D03*
Y01903D03*
Y01923D03*
Y01943D03*
Y01962D03*
Y01982D03*
Y02021D03*
Y02080D03*
Y02140D03*
Y02199D03*
Y02238D03*
X03462Y01411D03*
Y01431D03*
Y01451D03*
Y01470D03*
Y01490D03*
Y01510D03*
Y01529D03*
Y01549D03*
Y01569D03*
Y01588D03*
Y01608D03*
Y01628D03*
Y01647D03*
Y01667D03*
Y01687D03*
Y01706D03*
Y01726D03*
Y01746D03*
Y01765D03*
Y01785D03*
Y01805D03*
Y01825D03*
Y01844D03*
Y01962D03*
Y01982D03*
Y02002D03*
Y02021D03*
Y02041D03*
Y02061D03*
Y02080D03*
Y02100D03*
Y02120D03*
Y02140D03*
Y02159D03*
Y02179D03*
Y02199D03*
Y02218D03*
Y02238D03*
G54D44*
X03978Y03356D03*
X03741Y03593D03*
G54D45*
X04226Y02193D03*
G54D46*
X04316Y02458D03*
X04226D03*
G54D47*
X04135Y02458D03*
G54D48*
X02273Y02235D03*
G54D49*
X02221Y02273D03*
Y02247D03*
Y02222D03*
Y02196D03*
X02324D03*
Y02222D03*
Y02247D03*
Y02273D03*
G54D50*
X04050Y01975D03*
X04132Y01937D03*
Y02012D03*
X04050Y01832D03*
X04132Y01795D03*
Y01869D03*
X03887Y01832D03*
X03970Y01795D03*
Y01869D03*
X03888Y01975D03*
X03971Y01937D03*
Y02012D03*
G54D51*
X02150Y02160D03*
Y02289D03*
G54D52*
X02302Y02365D03*
X02237D03*
G54D53*
X03189Y03581D03*
X03175Y03567D03*
X03161Y03553D03*
X03147Y03539D03*
X03133Y03526D03*
X03119Y03512D03*
X03106Y03498D03*
X03092Y03484D03*
X03078Y03470D03*
X03064Y03456D03*
X03050Y03442D03*
X03036Y03428D03*
X03022Y03414D03*
X03008Y03400D03*
X02994Y03386D03*
X02980Y03372D03*
X02966Y03359D03*
X02952Y03345D03*
X02939Y03331D03*
X02925Y03317D03*
X02911Y03303D03*
X02897Y03289D03*
X02883Y03275D03*
X02869Y03261D03*
X02855Y03247D03*
X02841Y03233D03*
X02827Y03219D03*
X02813Y03205D03*
X02799Y03191D03*
X02785Y03178D03*
X02772Y03164D03*
X02758Y03150D03*
X02744Y03136D03*
X02730Y03122D03*
X02716Y03108D03*
X02702Y03094D03*
X03293Y02502D03*
X03307Y02516D03*
X03321Y02530D03*
X03335Y02544D03*
X03349Y02558D03*
X03363Y02572D03*
X03377Y02586D03*
X03391Y02600D03*
X03405Y02614D03*
X03419Y02628D03*
X03433Y02642D03*
X03447Y02656D03*
X03461Y02670D03*
X03474Y02683D03*
X03488Y02697D03*
X03502Y02711D03*
X03516Y02725D03*
X03530Y02739D03*
X03544Y02753D03*
X03558Y02767D03*
X03572Y02781D03*
X03586Y02795D03*
X03600Y02809D03*
X03614Y02823D03*
X03628Y02837D03*
X03669Y02878D03*
X03683Y02892D03*
X03697Y02906D03*
X03753Y02962D03*
X03767Y02976D03*
X03781Y02990D03*
X03711Y02920D03*
X03655Y02864D03*
X03641Y02850D03*
X03725Y02934D03*
X03739Y02948D03*
G54D54*
X02702Y02990D03*
X02716Y02976D03*
X02730Y02962D03*
X02744Y02948D03*
X02758Y02934D03*
X02772Y02920D03*
X02785Y02906D03*
X02799Y02892D03*
X02813Y02878D03*
X02827Y02864D03*
X02841Y02850D03*
X02883Y02809D03*
X02897Y02795D03*
X02911Y02781D03*
X02952Y02739D03*
X02966Y02725D03*
X02980Y02711D03*
X02994Y02697D03*
X03008Y02683D03*
X03022Y02670D03*
X03036Y02656D03*
X03050Y02642D03*
X03064Y02628D03*
X03078Y02614D03*
X03092Y02600D03*
X03106Y02586D03*
X03119Y02572D03*
X03133Y02558D03*
X03147Y02544D03*
X03161Y02530D03*
X03175Y02516D03*
X03189Y02502D03*
X03781Y03094D03*
X03767Y03108D03*
X03753Y03122D03*
X03739Y03136D03*
X03725Y03150D03*
X03711Y03164D03*
X03697Y03178D03*
X03683Y03191D03*
X03669Y03205D03*
X03655Y03219D03*
X03641Y03233D03*
X03628Y03247D03*
X03614Y03261D03*
X03600Y03275D03*
X03586Y03289D03*
X03572Y03303D03*
X03558Y03317D03*
X03544Y03331D03*
X03530Y03345D03*
X03516Y03359D03*
X03502Y03372D03*
X03488Y03386D03*
X03474Y03400D03*
X03461Y03414D03*
X03447Y03428D03*
X03433Y03442D03*
X03419Y03456D03*
X03405Y03470D03*
X03391Y03484D03*
X03377Y03498D03*
X03363Y03512D03*
X03349Y03526D03*
X03335Y03539D03*
X03321Y03553D03*
X03307Y03567D03*
X03293Y03581D03*
X02855Y02837D03*
X02925Y02767D03*
X02939Y02753D03*
X02869Y02823D03*
M02*