%FSDAX23Y23*%
%MOIN*%
%SFA1B1*%

%IPPOS*%
%ADD27C,0.010000*%
%ADD57C,0.007900*%
%ADD58C,0.009800*%
%ADD59C,0.023600*%
%ADD60C,0.003000*%
%ADD61C,0.003900*%
%ADD62C,0.006000*%
%LNde-020717-1*%
%LPD*%
G36*
X03638Y02781D02*
X03627Y02770D01*
X03620Y02778*
X03631Y02788*
X03638Y02781*
G37*
G36*
X02793Y02847D02*
X02786Y02840D01*
X02775Y02851*
X02782Y02858*
X02793Y02847*
G37*
G36*
X03777Y02920D02*
X03767Y02910D01*
X03759Y02917*
X03770Y02927*
X03777Y02920*
G37*
G36*
X02932Y02708D02*
X02925Y02701D01*
X02914Y02711*
X02921Y02719*
X02932Y02708*
G37*
G36*
X03360Y02503D02*
X03349Y02492D01*
X03342Y02499*
X03352Y02510*
X03360Y02503*
G37*
G36*
X03071Y02569D02*
X03064Y02562D01*
X03053Y02572*
X03060Y02579*
X03071Y02569*
G37*
G36*
X03499Y02642D02*
X03488Y02631D01*
X03481Y02638*
X03492Y02649*
X03499Y02642*
G37*
G36*
X02974Y03418D02*
X02963Y03407D01*
X02956Y03414*
X02967Y03425*
X02974Y03418*
G37*
G36*
X03457Y03484D02*
X03450Y03477D01*
X03439Y03487*
X03446Y03494*
X03457Y03484*
G37*
G36*
X03113Y03557D02*
X03102Y03546D01*
X03095Y03553*
X03106Y03564*
X03113Y03557*
G37*
G36*
X03596Y03344D02*
X03589Y03337D01*
X03579Y03348*
X03586Y03355*
X03596Y03344*
G37*
G36*
X02695Y03139D02*
X02685Y03129D01*
X02678Y03136*
X02688Y03146*
X02695Y03139*
G37*
G36*
X03735Y03205D02*
X03728Y03198D01*
X03718Y03209*
X03725Y03216*
X03735Y03205*
G37*
G36*
X02834Y03278D02*
X02824Y03268D01*
X02817Y03275*
X02827Y03285*
X02834Y03278*
G37*
G54D27*
X03289Y03701D02*
X03307Y03719D01*
X03314*
X03321Y03712*
Y03705*
X03303Y03687*
X03332Y03701D02*
X03339Y03694D01*
X03335Y03698*
X03314Y03677*
Y03684*
G54D57*
X02172Y03284D02*
X02525Y03637D01*
X02313Y03142D02*
X02667Y03496D01*
X02172Y03284D02*
X02313Y03142D01*
X02525Y03637D02*
X02667Y03496D01*
X03810Y01575D02*
Y02375D01*
X03710Y01575D02*
X03810D01*
X03710D02*
Y02375D01*
X03810*
X03076Y01386D02*
X03415D01*
X03076Y02264D02*
X03415D01*
X03076Y01386D02*
Y02264D01*
X03415Y01386D02*
Y02264D01*
X02807Y01571D02*
Y02371D01*
X02707Y01571D02*
X02807D01*
X02707Y02371D02*
Y01571D01*
Y02371D02*
X02807D01*
X04048Y02984D02*
Y03015D01*
X02494Y02028D02*
X02525D01*
X02203Y02434D02*
Y02465D01*
X03929Y03266D02*
X03957Y03294D01*
X04041Y03377D02*
X04068Y03405D01*
X03630Y03565D02*
X03658Y03593D01*
X03950Y03245D02*
X03978Y03273D01*
X04061Y03356D02*
X04089Y03384D01*
X03630Y03565D02*
X03950Y03245D01*
X03741Y03676D02*
X03769Y03704D01*
X04089Y03384*
X04094Y02253D02*
Y02398D01*
X04357*
Y02253*
X04094D02*
X04357D01*
X04197Y02550D02*
Y02959D01*
Y02550D02*
X04378D01*
Y02959*
X04197D02*
X04378D01*
X04217Y02550D02*
Y02959D01*
X02340Y02296D02*
Y02302D01*
X02320D02*
X02340D01*
Y02167D02*
Y02174D01*
X02320Y02167D02*
X02340D01*
X02205Y02174D02*
Y02167D01*
X02225*
X02205Y02296D02*
Y02302D01*
X02225*
X04063Y01947D02*
Y01915D01*
X04091*
X04063Y02002D02*
Y02034D01*
X04091*
X04063Y01773D02*
Y01804D01*
Y01773D02*
X04091D01*
X04063Y01860D02*
Y01891D01*
X04091*
X03901Y01773D02*
Y01804D01*
Y01773D02*
X03928D01*
X03901Y01860D02*
Y01891D01*
X03928*
X03902Y01915D02*
Y01947D01*
Y01915D02*
X03930D01*
X03902Y02002D02*
Y02034D01*
X03930*
X03979Y03666D02*
X04120Y03525D01*
X04050Y03454D02*
X04120Y03525D01*
X03908Y03595D02*
X04050Y03454D01*
X03908Y03595D02*
X03979Y03666D01*
X04069Y03435D02*
X04210Y03293D01*
X04069Y03435D02*
X04140Y03505D01*
X04281Y03364*
X04210Y03293D02*
X04281Y03364D01*
X02118Y02194D02*
X02181D01*
Y02255*
X02118Y02194D02*
Y02255D01*
X02181*
X03864Y02319D02*
X03915D01*
X04384Y02409D02*
X04435D01*
X04464Y02531D02*
X04495D01*
X04039Y02509D02*
X04070D01*
X03957Y02513D02*
X04008D01*
X04057Y02225D02*
Y02172D01*
Y02317D02*
X04059D01*
X03942Y02172D02*
Y02225D01*
X03940Y02317D02*
X03942D01*
X04059Y02172D02*
Y02317D01*
X03940Y02172D02*
Y02317D01*
X04497Y02665D02*
Y02612D01*
Y02757D02*
X04499D01*
X04382Y02612D02*
Y02665D01*
X04380Y02757D02*
X04382D01*
X04499D02*
Y02612D01*
X04380Y02757D02*
Y02612D01*
X02568Y02774D02*
Y02805D01*
X02564Y02299D02*
X02615D01*
X02494Y02301D02*
X02525D01*
X02436D02*
X02467D01*
X02204Y02010D02*
X02255D01*
X02282Y02146D02*
X02313D01*
X02497Y03031D02*
X02519Y03009D01*
X02544Y02912D02*
Y02943D01*
X03969Y03169D02*
X04020D01*
X04249Y03164D02*
X04280D01*
X04314D02*
X04345D01*
X04179D02*
X04210D01*
X04114D02*
X04145D01*
X04049D02*
X04080D01*
X04126Y03338D02*
X04148Y03316D01*
X03696Y03783D02*
X03718Y03761D01*
X03943Y02561D02*
X04143D01*
X03943Y02961D02*
X04143D01*
Y02561D02*
Y02961D01*
X03943Y02561D02*
Y02961D01*
X02543Y02833D02*
Y02884D01*
G54D58*
X03467Y02265D02*
D01*
X03467Y02266*
X03467Y02266*
X03467Y02266*
X03467Y02267*
X03467Y02267*
X03467Y02267*
X03466Y02268*
X03466Y02268*
X03466Y02268*
X03466Y02269*
X03466Y02269*
X03465Y02269*
X03465Y02269*
X03465Y02269*
X03465Y02270*
X03464Y02270*
X03464Y02270*
X03464Y02270*
X03463Y02270*
X03463Y02270*
X03463Y02270*
X03462Y02270*
X03462*
X03462Y02270*
X03461Y02270*
X03461Y02270*
X03461Y02270*
X03460Y02270*
X03460Y02270*
X03460Y02270*
X03459Y02269*
X03459Y02269*
X03459Y02269*
X03459Y02269*
X03458Y02269*
X03458Y02268*
X03458Y02268*
X03458Y02268*
X03458Y02267*
X03457Y02267*
X03457Y02267*
X03457Y02266*
X03457Y02266*
X03457Y02266*
X03457Y02265*
X03457Y02265*
X03457Y02265*
X03457Y02264*
X03457Y02264*
X03457Y02264*
X03458Y02263*
X03458Y02263*
X03458Y02263*
X03458Y02263*
X03458Y02262*
X03459Y02262*
X03459Y02262*
X03459Y02262*
X03459Y02261*
X03460Y02261*
X03460Y02261*
X03460Y02261*
X03461Y02261*
X03461Y02261*
X03461Y02261*
X03462Y02261*
X03462Y02261*
X03462*
X03463Y02261*
X03463Y02261*
X03463Y02261*
X03464Y02261*
X03464Y02261*
X03464Y02261*
X03465Y02261*
X03465Y02261*
X03465Y02262*
X03465Y02262*
X03466Y02262*
X03466Y02262*
X03466Y02263*
X03466Y02263*
X03466Y02263*
X03467Y02263*
X03467Y02264*
X03467Y02264*
X03467Y02264*
X03467Y02265*
X03467Y02265*
X03467Y02265*
X04140Y02511D02*
D01*
X04140Y02511*
X04140Y02511*
X04140Y02512*
X04140Y02512*
X04140Y02512*
X04139Y02512*
X04139Y02513*
X04139Y02513*
X04139Y02513*
X04139Y02514*
X04139Y02514*
X04138Y02514*
X04138Y02514*
X04138Y02515*
X04137Y02515*
X04137Y02515*
X04137Y02515*
X04137Y02515*
X04136Y02515*
X04136Y02515*
X04136Y02515*
X04135Y02515*
X04135*
X04134Y02515*
X04134Y02515*
X04134Y02515*
X04133Y02515*
X04133Y02515*
X04133Y02515*
X04133Y02515*
X04132Y02515*
X04132Y02514*
X04132Y02514*
X04131Y02514*
X04131Y02514*
X04131Y02513*
X04131Y02513*
X04131Y02513*
X04131Y02512*
X04130Y02512*
X04130Y02512*
X04130Y02512*
X04130Y02511*
X04130Y02511*
X04130Y02511*
X04130Y02510*
X04130Y02510*
X04130Y02509*
X04130Y02509*
X04130Y02509*
X04131Y02509*
X04131Y02508*
X04131Y02508*
X04131Y02508*
X04131Y02507*
X04131Y02507*
X04132Y02507*
X04132Y02507*
X04132Y02506*
X04133Y02506*
X04133Y02506*
X04133Y02506*
X04133Y02506*
X04134Y02506*
X04134Y02506*
X04134Y02506*
X04135Y02506*
X04135*
X04136Y02506*
X04136Y02506*
X04136Y02506*
X04137Y02506*
X04137Y02506*
X04137Y02506*
X04137Y02506*
X04138Y02506*
X04138Y02507*
X04138Y02507*
X04139Y02507*
X04139Y02507*
X04139Y02508*
X04139Y02508*
X04139Y02508*
X04139Y02509*
X04140Y02509*
X04140Y02509*
X04140Y02509*
X04140Y02510*
X04140Y02510*
X04140Y02511*
X04358Y02934D02*
D01*
X04358Y02934*
X04358Y02934*
X04358Y02935*
X04358Y02935*
X04357Y02935*
X04357Y02936*
X04357Y02936*
X04357Y02936*
X04357Y02936*
X04357Y02937*
X04356Y02937*
X04356Y02937*
X04356Y02937*
X04356Y02938*
X04355Y02938*
X04355Y02938*
X04355Y02938*
X04354Y02938*
X04354Y02938*
X04354Y02938*
X04353Y02938*
X04353Y02938*
X04353*
X04352Y02938*
X04352Y02938*
X04352Y02938*
X04351Y02938*
X04351Y02938*
X04351Y02938*
X04350Y02938*
X04350Y02938*
X04350Y02937*
X04350Y02937*
X04349Y02937*
X04349Y02937*
X04349Y02936*
X04349Y02936*
X04348Y02936*
X04348Y02936*
X04348Y02935*
X04348Y02935*
X04348Y02935*
X04348Y02934*
X04348Y02934*
X04348Y02934*
X04348Y02933*
X04348Y02933*
X04348Y02933*
X04348Y02932*
X04348Y02932*
X04348Y02932*
X04348Y02931*
X04349Y02931*
X04349Y02931*
X04349Y02930*
X04349Y02930*
X04350Y02930*
X04350Y02930*
X04350Y02930*
X04350Y02929*
X04351Y02929*
X04351Y02929*
X04351Y02929*
X04352Y02929*
X04352Y02929*
X04352Y02929*
X04353Y02929*
X04353*
X04353Y02929*
X04354Y02929*
X04354Y02929*
X04354Y02929*
X04355Y02929*
X04355Y02929*
X04355Y02929*
X04356Y02930*
X04356Y02930*
X04356Y02930*
X04356Y02930*
X04357Y02930*
X04357Y02931*
X04357Y02931*
X04357Y02931*
X04357Y02932*
X04357Y02932*
X04358Y02932*
X04358Y02933*
X04358Y02933*
X04358Y02933*
X04358Y02934*
X04137Y02045D02*
D01*
X04137Y02046*
X04137Y02046*
X04137Y02046*
X04137Y02047*
X04137Y02047*
X04137Y02047*
X04137Y02048*
X04136Y02048*
X04136Y02048*
X04136Y02049*
X04136Y02049*
X04135Y02049*
X04135Y02049*
X04135Y02049*
X04135Y02050*
X04134Y02050*
X04134Y02050*
X04134Y02050*
X04133Y02050*
X04133Y02050*
X04133Y02050*
X04132Y02050*
X04132*
X04132Y02050*
X04131Y02050*
X04131Y02050*
X04131Y02050*
X04130Y02050*
X04130Y02050*
X04130Y02050*
X04129Y02049*
X04129Y02049*
X04129Y02049*
X04129Y02049*
X04128Y02049*
X04128Y02048*
X04128Y02048*
X04128Y02048*
X04128Y02047*
X04128Y02047*
X04127Y02047*
X04127Y02046*
X04127Y02046*
X04127Y02046*
X04127Y02045*
X04127Y02045*
X04127Y02045*
X04127Y02044*
X04127Y02044*
X04128Y02044*
X04128Y02043*
X04128Y02043*
X04128Y02043*
X04128Y02043*
X04128Y02042*
X04129Y02042*
X04129Y02042*
X04129Y02042*
X04129Y02041*
X04130Y02041*
X04130Y02041*
X04130Y02041*
X04131Y02041*
X04131Y02041*
X04131Y02041*
X04132Y02041*
X04132Y02041*
X04132*
X04133Y02041*
X04133Y02041*
X04133Y02041*
X04134Y02041*
X04134Y02041*
X04134Y02041*
X04135Y02041*
X04135Y02041*
X04135Y02042*
X04135Y02042*
X04136Y02042*
X04136Y02042*
X04136Y02043*
X04136Y02043*
X04137Y02043*
X04137Y02043*
X04137Y02044*
X04137Y02044*
X04137Y02044*
X04137Y02045*
X04137Y02045*
X04137Y02045*
Y01903D02*
D01*
X04137Y01903*
X04137Y01903*
X04137Y01904*
X04137Y01904*
X04137Y01904*
X04137Y01905*
X04137Y01905*
X04136Y01905*
X04136Y01906*
X04136Y01906*
X04136Y01906*
X04135Y01906*
X04135Y01907*
X04135Y01907*
X04135Y01907*
X04134Y01907*
X04134Y01907*
X04134Y01907*
X04133Y01908*
X04133Y01908*
X04133Y01908*
X04132Y01908*
X04132*
X04132Y01908*
X04131Y01908*
X04131Y01908*
X04131Y01907*
X04130Y01907*
X04130Y01907*
X04130Y01907*
X04129Y01907*
X04129Y01907*
X04129Y01906*
X04129Y01906*
X04128Y01906*
X04128Y01906*
X04128Y01905*
X04128Y01905*
X04128Y01905*
X04128Y01904*
X04127Y01904*
X04127Y01904*
X04127Y01903*
X04127Y01903*
X04127Y01903*
X04127Y01902*
X04127Y01902*
X04127Y01902*
X04127Y01901*
X04128Y01901*
X04128Y01901*
X04128Y01900*
X04128Y01900*
X04128Y01900*
X04128Y01900*
X04129Y01899*
X04129Y01899*
X04129Y01899*
X04129Y01899*
X04130Y01899*
X04130Y01898*
X04130Y01898*
X04131Y01898*
X04131Y01898*
X04131Y01898*
X04132Y01898*
X04132Y01898*
X04132*
X04133Y01898*
X04133Y01898*
X04133Y01898*
X04134Y01898*
X04134Y01898*
X04134Y01898*
X04135Y01899*
X04135Y01899*
X04135Y01899*
X04135Y01899*
X04136Y01899*
X04136Y01900*
X04136Y01900*
X04136Y01900*
X04137Y01900*
X04137Y01901*
X04137Y01901*
X04137Y01901*
X04137Y01902*
X04137Y01902*
X04137Y01902*
X04137Y01903*
X03974D02*
D01*
X03974Y01903*
X03974Y01903*
X03974Y01904*
X03974Y01904*
X03974Y01904*
X03974Y01905*
X03974Y01905*
X03974Y01905*
X03973Y01906*
X03973Y01906*
X03973Y01906*
X03973Y01906*
X03973Y01907*
X03972Y01907*
X03972Y01907*
X03972Y01907*
X03971Y01907*
X03971Y01907*
X03971Y01908*
X03970Y01908*
X03970Y01908*
X03970Y01908*
X03969*
X03969Y01908*
X03969Y01908*
X03968Y01908*
X03968Y01907*
X03968Y01907*
X03967Y01907*
X03967Y01907*
X03967Y01907*
X03966Y01907*
X03966Y01906*
X03966Y01906*
X03966Y01906*
X03966Y01906*
X03965Y01905*
X03965Y01905*
X03965Y01905*
X03965Y01904*
X03965Y01904*
X03965Y01904*
X03965Y01903*
X03965Y01903*
X03965Y01903*
X03965Y01902*
X03965Y01902*
X03965Y01902*
X03965Y01901*
X03965Y01901*
X03965Y01901*
X03965Y01900*
X03965Y01900*
X03966Y01900*
X03966Y01900*
X03966Y01899*
X03966Y01899*
X03966Y01899*
X03967Y01899*
X03967Y01899*
X03967Y01898*
X03968Y01898*
X03968Y01898*
X03968Y01898*
X03969Y01898*
X03969Y01898*
X03969Y01898*
X03970*
X03970Y01898*
X03970Y01898*
X03971Y01898*
X03971Y01898*
X03971Y01898*
X03972Y01898*
X03972Y01899*
X03972Y01899*
X03973Y01899*
X03973Y01899*
X03973Y01899*
X03973Y01900*
X03973Y01900*
X03974Y01900*
X03974Y01900*
X03974Y01901*
X03974Y01901*
X03974Y01901*
X03974Y01902*
X03974Y01902*
X03974Y01902*
X03974Y01903*
X03976Y02045D02*
D01*
X03976Y02046*
X03976Y02046*
X03976Y02046*
X03976Y02047*
X03976Y02047*
X03975Y02047*
X03975Y02048*
X03975Y02048*
X03975Y02048*
X03975Y02049*
X03974Y02049*
X03974Y02049*
X03974Y02049*
X03974Y02049*
X03973Y02050*
X03973Y02050*
X03973Y02050*
X03972Y02050*
X03972Y02050*
X03972Y02050*
X03971Y02050*
X03971Y02050*
X03971*
X03970Y02050*
X03970Y02050*
X03970Y02050*
X03969Y02050*
X03969Y02050*
X03969Y02050*
X03968Y02050*
X03968Y02049*
X03968Y02049*
X03968Y02049*
X03967Y02049*
X03967Y02049*
X03967Y02048*
X03967Y02048*
X03967Y02048*
X03966Y02047*
X03966Y02047*
X03966Y02047*
X03966Y02046*
X03966Y02046*
X03966Y02046*
X03966Y02045*
X03966Y02045*
X03966Y02045*
X03966Y02044*
X03966Y02044*
X03966Y02044*
X03966Y02043*
X03967Y02043*
X03967Y02043*
X03967Y02043*
X03967Y02042*
X03967Y02042*
X03968Y02042*
X03968Y02042*
X03968Y02041*
X03968Y02041*
X03969Y02041*
X03969Y02041*
X03969Y02041*
X03970Y02041*
X03970Y02041*
X03970Y02041*
X03971Y02041*
X03971*
X03971Y02041*
X03972Y02041*
X03972Y02041*
X03972Y02041*
X03973Y02041*
X03973Y02041*
X03973Y02041*
X03974Y02041*
X03974Y02042*
X03974Y02042*
X03974Y02042*
X03975Y02042*
X03975Y02043*
X03975Y02043*
X03975Y02043*
X03975Y02043*
X03976Y02044*
X03976Y02044*
X03976Y02044*
X03976Y02045*
X03976Y02045*
X03976Y02045*
X02200Y02160D02*
D01*
X02200Y02160*
X02200Y02161*
X02200Y02161*
X02200Y02161*
X02200Y02162*
X02200Y02162*
X02200Y02162*
X02199Y02163*
X02199Y02163*
X02199Y02163*
X02199Y02164*
X02198Y02164*
X02198Y02164*
X02198Y02164*
X02198Y02164*
X02197Y02165*
X02197Y02165*
X02197Y02165*
X02196Y02165*
X02196Y02165*
X02196Y02165*
X02195Y02165*
X02195*
X02195Y02165*
X02194Y02165*
X02194Y02165*
X02194Y02165*
X02193Y02165*
X02193Y02165*
X02193Y02164*
X02192Y02164*
X02192Y02164*
X02192Y02164*
X02192Y02164*
X02191Y02163*
X02191Y02163*
X02191Y02163*
X02191Y02162*
X02191Y02162*
X02191Y02162*
X02190Y02161*
X02190Y02161*
X02190Y02161*
X02190Y02160*
X02190Y02160*
X02190Y02160*
X02190Y02159*
X02190Y02159*
X02190Y02159*
X02191Y02158*
X02191Y02158*
X02191Y02158*
X02191Y02158*
X02191Y02157*
X02191Y02157*
X02192Y02157*
X02192Y02156*
X02192Y02156*
X02192Y02156*
X02193Y02156*
X02193Y02156*
X02193Y02156*
X02194Y02155*
X02194Y02155*
X02194Y02155*
X02195Y02155*
X02195Y02155*
X02195*
X02196Y02155*
X02196Y02155*
X02196Y02155*
X02197Y02155*
X02197Y02156*
X02197Y02156*
X02198Y02156*
X02198Y02156*
X02198Y02156*
X02198Y02156*
X02199Y02157*
X02199Y02157*
X02199Y02157*
X02199Y02158*
X02200Y02158*
X02200Y02158*
X02200Y02158*
X02200Y02159*
X02200Y02159*
X02200Y02159*
X02200Y02160*
X02200Y02160*
X04064Y02138D02*
D01*
X04063Y02139*
X04063Y02139*
X04063Y02139*
X04063Y02140*
X04063Y02140*
X04063Y02140*
X04063Y02141*
X04063Y02141*
X04063Y02141*
X04062Y02141*
X04062Y02142*
X04062Y02142*
X04062Y02142*
X04061Y02142*
X04061Y02142*
X04061Y02143*
X04060Y02143*
X04060Y02143*
X04060Y02143*
X04059Y02143*
X04059Y02143*
X04059Y02143*
X04058*
X04058Y02143*
X04058Y02143*
X04057Y02143*
X04057Y02143*
X04057Y02143*
X04056Y02143*
X04056Y02142*
X04056Y02142*
X04056Y02142*
X04055Y02142*
X04055Y02142*
X04055Y02141*
X04055Y02141*
X04054Y02141*
X04054Y02141*
X04054Y02140*
X04054Y02140*
X04054Y02140*
X04054Y02139*
X04054Y02139*
X04054Y02139*
X04054Y02138*
X04054Y02138*
X04054Y02138*
X04054Y02137*
X04054Y02137*
X04054Y02137*
X04054Y02136*
X04054Y02136*
X04054Y02136*
X04055Y02135*
X04055Y02135*
X04055Y02135*
X04055Y02135*
X04056Y02134*
X04056Y02134*
X04056Y02134*
X04056Y02134*
X04057Y02134*
X04057Y02134*
X04057Y02133*
X04058Y02133*
X04058Y02133*
X04058Y02133*
X04059*
X04059Y02133*
X04059Y02133*
X04060Y02133*
X04060Y02134*
X04060Y02134*
X04061Y02134*
X04061Y02134*
X04061Y02134*
X04062Y02134*
X04062Y02135*
X04062Y02135*
X04062Y02135*
X04063Y02135*
X04063Y02136*
X04063Y02136*
X04063Y02136*
X04063Y02137*
X04063Y02137*
X04063Y02137*
X04063Y02138*
X04063Y02138*
X04064Y02138*
X04504Y02578D02*
D01*
X04503Y02579*
X04503Y02579*
X04503Y02579*
X04503Y02580*
X04503Y02580*
X04503Y02580*
X04503Y02581*
X04503Y02581*
X04503Y02581*
X04502Y02581*
X04502Y02582*
X04502Y02582*
X04502Y02582*
X04501Y02582*
X04501Y02582*
X04501Y02583*
X04500Y02583*
X04500Y02583*
X04500Y02583*
X04499Y02583*
X04499Y02583*
X04499Y02583*
X04498*
X04498Y02583*
X04498Y02583*
X04497Y02583*
X04497Y02583*
X04497Y02583*
X04496Y02583*
X04496Y02582*
X04496Y02582*
X04496Y02582*
X04495Y02582*
X04495Y02582*
X04495Y02581*
X04495Y02581*
X04494Y02581*
X04494Y02581*
X04494Y02580*
X04494Y02580*
X04494Y02580*
X04494Y02579*
X04494Y02579*
X04494Y02579*
X04494Y02578*
X04494Y02578*
X04494Y02578*
X04494Y02577*
X04494Y02577*
X04494Y02577*
X04494Y02576*
X04494Y02576*
X04494Y02576*
X04495Y02575*
X04495Y02575*
X04495Y02575*
X04495Y02575*
X04496Y02574*
X04496Y02574*
X04496Y02574*
X04496Y02574*
X04497Y02574*
X04497Y02574*
X04497Y02573*
X04498Y02573*
X04498Y02573*
X04498Y02573*
X04499*
X04499Y02573*
X04499Y02573*
X04500Y02573*
X04500Y02574*
X04500Y02574*
X04501Y02574*
X04501Y02574*
X04501Y02574*
X04502Y02574*
X04502Y02575*
X04502Y02575*
X04502Y02575*
X04503Y02575*
X04503Y02576*
X04503Y02576*
X04503Y02576*
X04503Y02577*
X04503Y02577*
X04503Y02577*
X04503Y02578*
X04503Y02578*
X04504Y02578*
G54D59*
X03387Y02224D02*
D01*
X03387Y02225*
X03387Y02226*
X03387Y02227*
X03387Y02227*
X03386Y02228*
X03386Y02229*
X03386Y02230*
X03385Y02230*
X03385Y02231*
X03384Y02232*
X03384Y02232*
X03383Y02233*
X03383Y02233*
X03382Y02234*
X03381Y02234*
X03381Y02235*
X03380Y02235*
X03379Y02235*
X03378Y02236*
X03377Y02236*
X03377Y02236*
X03376Y02236*
X03375*
X03374Y02236*
X03373Y02236*
X03373Y02236*
X03372Y02235*
X03371Y02235*
X03370Y02235*
X03370Y02234*
X03369Y02234*
X03368Y02233*
X03368Y02233*
X03367Y02232*
X03366Y02232*
X03366Y02231*
X03365Y02230*
X03365Y02230*
X03365Y02229*
X03364Y02228*
X03364Y02227*
X03364Y02227*
X03364Y02226*
X03364Y02225*
X03364Y02224*
X03364Y02223*
X03364Y02222*
X03364Y02222*
X03364Y02221*
X03364Y02220*
X03365Y02219*
X03365Y02219*
X03365Y02218*
X03366Y02217*
X03366Y02217*
X03367Y02216*
X03368Y02215*
X03368Y02215*
X03369Y02214*
X03370Y02214*
X03370Y02213*
X03371Y02213*
X03372Y02213*
X03373Y02213*
X03373Y02212*
X03374Y02212*
X03375Y02212*
X03376*
X03377Y02212*
X03377Y02212*
X03378Y02213*
X03379Y02213*
X03380Y02213*
X03381Y02213*
X03381Y02214*
X03382Y02214*
X03383Y02215*
X03383Y02215*
X03384Y02216*
X03384Y02217*
X03385Y02217*
X03385Y02218*
X03386Y02219*
X03386Y02219*
X03386Y02220*
X03387Y02221*
X03387Y02222*
X03387Y02222*
X03387Y02223*
X03387Y02224*
G54D60*
X03921Y02745D02*
X03906D01*
Y02737*
X03908Y02735*
X03913*
X03916Y02737*
Y02745*
X03906Y02730D02*
Y02720D01*
X03908*
X03918Y02730*
X03921*
X02337Y02404D02*
X02352D01*
Y02394*
Y02381D02*
X02337D01*
X02344Y02389*
Y02379*
X02345Y03475D02*
X02334Y03485D01*
X02329Y03480*
Y03476*
X02332Y03473*
X02336*
X02341Y03478*
X02334Y03464D02*
X02330Y03460D01*
X02332Y03462*
X02322Y03473*
X02325*
X02316Y03464D02*
X02313D01*
X02309Y03460*
Y03457*
X02316Y03450*
X02320*
X02323Y03453*
Y03457*
X02316Y03464*
X03596Y03671D02*
X03592D01*
X03589Y03674*
Y03678*
X03596Y03685*
X03599*
X03603Y03681*
Y03678*
X03608Y03676D02*
X03612Y03672D01*
X03610Y03674*
X03599Y03664*
Y03667*
X03617D02*
X03621Y03664D01*
X03619Y03665*
X03608Y03655*
Y03658*
X04092Y03347D02*
Y03351D01*
X04095Y03354*
X04099*
X04106Y03347*
Y03344*
X04102Y03340*
X04099*
X04097Y03335D02*
X04093Y03331D01*
X04095Y03333*
X04085Y03344*
X04088*
X04079Y03335D02*
X04076D01*
X04072Y03331*
Y03328*
X04074Y03326*
X04078*
Y03323*
X04079Y03321*
X04083*
X04086Y03324*
Y03328*
X04085Y03330*
X04081*
Y03333*
X04079Y03335*
X04081Y03330D02*
X04078Y03326D01*
X04047Y03205D02*
X04045Y03207D01*
Y03212*
X04047Y03215*
X04057*
X04060Y03212*
Y03207*
X04057Y03205*
X04047Y03200D02*
X04045Y03197D01*
Y03192*
X04047Y03190*
X04050*
X04052Y03192*
Y03195*
Y03192*
X04055Y03190*
X04057*
X04060Y03192*
Y03197*
X04057Y03200*
X04047Y03185D02*
X04045Y03182D01*
Y03177*
X04047Y03175*
X04057*
X04060Y03177*
Y03182*
X04057Y03185*
X04047*
X04126Y03199D02*
X04124Y03201D01*
Y03206*
X04126Y03209*
X04136*
X04139Y03206*
Y03201*
X04136Y03199*
X04126Y03194D02*
X04124Y03191D01*
Y03186*
X04126Y03184*
X04129*
X04131Y03186*
Y03189*
Y03186*
X04134Y03184*
X04136*
X04139Y03186*
Y03191*
X04136Y03194*
X04139Y03179D02*
Y03174D01*
Y03176*
X04124*
X04126Y03179*
X04187Y03204D02*
X04185Y03206D01*
Y03211*
X04187Y03214*
X04197*
X04200Y03211*
Y03206*
X04197Y03204*
X04187Y03199D02*
X04185Y03196D01*
Y03191*
X04187Y03189*
X04190*
X04192Y03191*
Y03194*
Y03191*
X04195Y03189*
X04197*
X04200Y03191*
Y03196*
X04197Y03199*
X04200Y03174D02*
Y03184D01*
X04190Y03174*
X04187*
X04185Y03176*
Y03181*
X04187Y03184*
X04326Y03206D02*
X04324Y03208D01*
Y03213*
X04326Y03216*
X04336*
X04339Y03213*
Y03208*
X04336Y03206*
X04326Y03201D02*
X04324Y03198D01*
Y03193*
X04326Y03191*
X04329*
X04331Y03193*
Y03196*
Y03193*
X04334Y03191*
X04336*
X04339Y03193*
Y03198*
X04336Y03201*
X04326Y03186D02*
X04324Y03183D01*
Y03178*
X04326Y03176*
X04329*
X04331Y03178*
Y03181*
Y03178*
X04334Y03176*
X04336*
X04339Y03178*
Y03183*
X04336Y03186*
X04264Y03208D02*
X04262Y03210D01*
Y03215*
X04264Y03218*
X04274*
X04277Y03215*
Y03210*
X04274Y03208*
X04264Y03203D02*
X04262Y03200D01*
Y03195*
X04264Y03193*
X04267*
X04269Y03195*
Y03198*
Y03195*
X04272Y03193*
X04274*
X04277Y03195*
Y03200*
X04274Y03203*
X04277Y03180D02*
X04262D01*
X04269Y03188*
Y03178*
X03973Y03211D02*
X03971Y03213D01*
Y03218*
X03973Y03221*
X03983*
X03986Y03218*
Y03213*
X03983Y03211*
X03973Y03206D02*
X03971Y03203D01*
Y03198*
X03973Y03196*
X03976*
X03978Y03198*
Y03201*
Y03198*
X03981Y03196*
X03983*
X03986Y03198*
Y03203*
X03983Y03206*
X03971Y03181D02*
Y03191D01*
X03978*
X03976Y03186*
Y03183*
X03978Y03181*
X03983*
X03986Y03183*
Y03188*
X03983Y03191*
X02516Y02927D02*
X02514Y02929D01*
Y02934*
X02516Y02937*
X02526*
X02529Y02934*
Y02929*
X02526Y02927*
X02516Y02922D02*
X02514Y02919D01*
Y02914*
X02516Y02912*
X02519*
X02521Y02914*
Y02917*
Y02914*
X02524Y02912*
X02526*
X02529Y02914*
Y02919*
X02526Y02922*
X02514Y02897D02*
X02516Y02902D01*
X02521Y02907*
X02526*
X02529Y02904*
Y02899*
X02526Y02897*
X02524*
X02521Y02899*
Y02907*
X02500Y03078D02*
Y03082D01*
X02503Y03085*
X02507*
X02514Y03078*
Y03075*
X02510Y03071*
X02507*
X02496Y03075D02*
X02493D01*
X02489Y03071*
Y03068*
X02491Y03066*
X02494*
X02496Y03068*
X02494Y03066*
Y03062*
X02496Y03061*
X02500*
X02503Y03064*
Y03068*
X02486Y03064D02*
X02482D01*
X02478Y03061*
Y03057*
X02480Y03055*
X02484*
Y03052*
X02486Y03050*
X02489*
X02493Y03054*
Y03057*
X02491Y03059*
X02487*
Y03062*
X02486Y03064*
X02487Y03059D02*
X02484Y03055D01*
X02294Y01998D02*
X02292Y02000D01*
Y02005*
X02294Y02008*
X02304*
X02307Y02005*
Y02000*
X02304Y01998*
X02292Y01983D02*
Y01993D01*
X02299*
X02297Y01988*
Y01985*
X02299Y01983*
X02304*
X02307Y01985*
Y01990*
X02304Y01993*
X02294Y01978D02*
X02292Y01975D01*
Y01970*
X02294Y01968*
X02297*
X02299Y01970*
Y01973*
Y01970*
X02302Y01968*
X02304*
X02307Y01970*
Y01975*
X02304Y01978*
X02174Y02036D02*
X02172Y02038D01*
Y02043*
X02174Y02046*
X02184*
X02187Y02043*
Y02038*
X02184Y02036*
X02172Y02021D02*
Y02031D01*
X02179*
X02177Y02026*
Y02023*
X02179Y02021*
X02184*
X02187Y02023*
Y02028*
X02184Y02031*
X02187Y02008D02*
X02172D01*
X02179Y02016*
Y02006*
X02447Y02346D02*
X02445Y02348D01*
Y02353*
X02447Y02356*
X02457*
X02460Y02353*
Y02348*
X02457Y02346*
X02445Y02331D02*
Y02341D01*
X02452*
X02450Y02336*
Y02333*
X02452Y02331*
X02457*
X02460Y02333*
Y02338*
X02457Y02341*
X02445Y02316D02*
Y02326D01*
X02452*
X02450Y02321*
Y02318*
X02452Y02316*
X02457*
X02460Y02318*
Y02323*
X02457Y02326*
X02500Y02346D02*
X02498Y02348D01*
Y02353*
X02500Y02356*
X02510*
X02513Y02353*
Y02348*
X02510Y02346*
X02498Y02331D02*
Y02341D01*
X02505*
X02503Y02336*
Y02333*
X02505Y02331*
X02510*
X02513Y02333*
Y02338*
X02510Y02341*
X02498Y02316D02*
X02500Y02321D01*
X02505Y02326*
X02510*
X02513Y02323*
Y02318*
X02510Y02316*
X02508*
X02505Y02318*
Y02326*
X02588Y02344D02*
X02586Y02346D01*
Y02351*
X02588Y02354*
X02598*
X02601Y02351*
Y02346*
X02598Y02344*
X02586Y02329D02*
Y02339D01*
X02593*
X02591Y02334*
Y02331*
X02593Y02329*
X02598*
X02601Y02331*
Y02336*
X02598Y02339*
X02586Y02324D02*
Y02314D01*
X02588*
X02598Y02324*
X02601*
X02516Y02860D02*
X02514Y02862D01*
Y02867*
X02516Y02870*
X02526*
X02529Y02867*
Y02862*
X02526Y02860*
X02516Y02855D02*
X02514Y02852D01*
Y02847*
X02516Y02845*
X02519*
X02521Y02847*
X02524Y02845*
X02526*
X02529Y02847*
Y02852*
X02526Y02855*
X02524*
X02521Y02852*
X02519Y02855*
X02516*
X02521Y02852D02*
Y02847D01*
X02529Y02840D02*
Y02835D01*
Y02837*
X02514*
X02516Y02840*
X02543Y02794D02*
X02541Y02797D01*
Y02802*
X02543Y02804*
X02553*
X02556Y02802*
Y02797*
X02553Y02794*
X02543Y02789D02*
X02541Y02787D01*
Y02782*
X02543Y02779*
X02546*
X02548Y02782*
X02551Y02779*
X02553*
X02556Y02782*
Y02787*
X02553Y02789*
X02551*
X02548Y02787*
X02546Y02789*
X02543*
X02548Y02787D02*
Y02782D01*
X02556Y02764D02*
Y02774D01*
X02546Y02764*
X02543*
X02541Y02767*
Y02772*
X02543Y02774*
X04445Y02827D02*
X04443Y02829D01*
Y02834*
X04445Y02837*
X04455*
X04458Y02834*
Y02829*
X04455Y02827*
X04445Y02822D02*
X04443Y02819D01*
Y02814*
X04445Y02812*
X04448*
X04450Y02814*
X04453Y02812*
X04455*
X04458Y02814*
Y02819*
X04455Y02822*
X04453*
X04450Y02819*
X04448Y02822*
X04445*
X04450Y02819D02*
Y02814D01*
X04443Y02797D02*
Y02807D01*
X04450*
X04448Y02802*
Y02799*
X04450Y02797*
X04455*
X04458Y02799*
Y02804*
X04455Y02807*
X03913Y02148D02*
X03911Y02150D01*
Y02155*
X03913Y02158*
X03923*
X03926Y02155*
Y02150*
X03923Y02148*
X03913Y02143D02*
X03911Y02140D01*
Y02135*
X03913Y02133*
X03916*
X03918Y02135*
X03921Y02133*
X03923*
X03926Y02135*
Y02140*
X03923Y02143*
X03921*
X03918Y02140*
X03916Y02143*
X03913*
X03918Y02140D02*
Y02135D01*
X03911Y02128D02*
Y02118D01*
X03913*
X03923Y02128*
X03926*
X03931Y02500D02*
X03928Y02502D01*
Y02507*
X03931Y02510*
X03941*
X03943Y02507*
Y02502*
X03941Y02500*
Y02495D02*
X03943Y02492D01*
Y02487*
X03941Y02485*
X03931*
X03928Y02487*
Y02492*
X03931Y02495*
X03933*
X03936Y02492*
Y02485*
X03931Y02480D02*
X03928Y02477D01*
Y02472*
X03931Y02470*
X03941*
X03943Y02472*
Y02477*
X03941Y02480*
X03931*
X04068Y02535D02*
X04070Y02538D01*
X04075*
X04078Y02535*
Y02525*
X04075Y02523*
X04070*
X04068Y02525*
X04063D02*
X04060Y02523D01*
X04055*
X04053Y02525*
Y02535*
X04055Y02538*
X04060*
X04063Y02535*
Y02533*
X04060Y02530*
X04053*
X04048Y02523D02*
X04043D01*
X04045*
Y02538*
X04048Y02535*
X04471Y02386D02*
X04469Y02388D01*
Y02393*
X04471Y02396*
X04481*
X04484Y02393*
Y02388*
X04481Y02386*
Y02381D02*
X04484Y02378D01*
Y02373*
X04481Y02371*
X04471*
X04469Y02373*
Y02378*
X04471Y02381*
X04474*
X04476Y02378*
Y02371*
X04484Y02356D02*
Y02366D01*
X04474Y02356*
X04471*
X04469Y02358*
Y02363*
X04471Y02366*
X04427Y02248D02*
X04425Y02250D01*
Y02255*
X04427Y02258*
X04437*
X04440Y02255*
Y02250*
X04437Y02248*
Y02243D02*
X04440Y02240D01*
Y02235*
X04437Y02233*
X04427*
X04425Y02235*
Y02240*
X04427Y02243*
X04430*
X04432Y02240*
Y02233*
X04427Y02228D02*
X04425Y02225D01*
Y02220*
X04427Y02218*
X04430*
X04432Y02220*
Y02223*
Y02220*
X04435Y02218*
X04437*
X04440Y02220*
Y02225*
X04437Y02228*
X03862Y02158D02*
X03860Y02160D01*
Y02165*
X03862Y02168*
X03872*
X03875Y02165*
Y02160*
X03872Y02158*
Y02153D02*
X03875Y02150D01*
Y02145*
X03872Y02143*
X03862*
X03860Y02145*
Y02150*
X03862Y02153*
X03865*
X03867Y02150*
Y02143*
X03875Y02130D02*
X03860D01*
X03867Y02138*
Y02128*
X02091Y02236D02*
X02106D01*
Y02228*
X02103Y02226*
X02093*
X02091Y02228*
Y02236*
X02106Y02211D02*
Y02221D01*
X02096Y02211*
X02093*
X02091Y02213*
Y02218*
X02093Y02221*
X04285Y03339D02*
X04274Y03328D01*
X04279Y03323*
X04283*
X04286Y03326*
Y03330*
X04281Y03335*
X04302Y03321D02*
X04295Y03328D01*
Y03314*
X04293Y03312*
X04290*
X04286Y03316*
Y03319*
X03930Y03691D02*
X03919Y03680D01*
X03924Y03675*
X03928*
X03931Y03678*
Y03682*
X03926Y03687*
X03931Y03671D02*
Y03668D01*
X03935Y03664*
X03938*
X03940Y03666*
Y03669*
X03938Y03671*
X03940Y03669*
X03944*
X03945Y03671*
Y03675*
X03942Y03678*
X03938*
X03876Y01928D02*
X03866D01*
X03864Y01930*
Y01935*
X03866Y01938*
X03876*
X03879Y01935*
Y01930*
X03874Y01933D02*
X03879Y01928D01*
Y01930D02*
X03876Y01928D01*
X03879Y01923D02*
Y01918D01*
Y01920*
X03864*
X03866Y01923*
X03875Y01788D02*
X03865D01*
X03863Y01790*
Y01795*
X03865Y01798*
X03875*
X03878Y01795*
Y01790*
X03873Y01793D02*
X03878Y01788D01*
Y01790D02*
X03875Y01788D01*
X03878Y01773D02*
Y01783D01*
X03868Y01773*
X03865*
X03863Y01775*
Y01780*
X03865Y01783*
X04034Y01784D02*
X04024D01*
X04022Y01786*
Y01791*
X04024Y01794*
X04034*
X04037Y01791*
Y01786*
X04032Y01789D02*
X04037Y01784D01*
Y01786D02*
X04034Y01784D01*
X04024Y01779D02*
X04022Y01776D01*
Y01771*
X04024Y01769*
X04027*
X04029Y01771*
Y01774*
Y01771*
X04032Y01769*
X04034*
X04037Y01771*
Y01776*
X04034Y01779*
Y01928D02*
X04024D01*
X04022Y01930*
Y01935*
X04024Y01938*
X04034*
X04037Y01935*
Y01930*
X04032Y01933D02*
X04037Y01928D01*
Y01930D02*
X04034Y01928D01*
X04037Y01915D02*
X04022D01*
X04029Y01923*
Y01913*
X04333Y03010D02*
X04318D01*
Y03002*
X04320Y03000*
X04325*
X04328Y03002*
Y03010*
Y03005D02*
X04333Y03000D01*
Y02985D02*
Y02995D01*
X04323Y02985*
X04320*
X04318Y02987*
Y02992*
X04320Y02995*
X04318Y02980D02*
Y02970D01*
X04320*
X04330Y02980*
X04333*
X02403Y02354D02*
X02388D01*
Y02346*
X02390Y02344*
X02395*
X02398Y02346*
Y02354*
Y02349D02*
X02403Y02344D01*
Y02331D02*
X02388D01*
X02395Y02339*
Y02329*
X02388Y02314D02*
Y02324D01*
X02395*
X02393Y02319*
Y02316*
X02395Y02314*
X02400*
X02403Y02316*
Y02321*
X02400Y02324*
X02175Y02518D02*
X02160D01*
Y02510*
X02162Y02508*
X02167*
X02170Y02510*
Y02518*
Y02513D02*
X02175Y02508D01*
Y02495D02*
X02160D01*
X02167Y02503*
Y02493*
X02160Y02478D02*
X02162Y02483D01*
X02167Y02488*
X02172*
X02175Y02485*
Y02480*
X02172Y02478*
X02170*
X02167Y02480*
Y02488*
X02378Y02010D02*
X02363D01*
Y02002*
X02365Y02000*
X02370*
X02373Y02002*
Y02010*
Y02005D02*
X02378Y02000D01*
Y01987D02*
X02363D01*
X02370Y01995*
Y01985*
X02363Y01980D02*
Y01970D01*
X02365*
X02375Y01980*
X02378*
X02113Y02517D02*
X02098D01*
Y02509*
X02100Y02507*
X02105*
X02108Y02509*
Y02517*
Y02512D02*
X02113Y02507D01*
Y02494D02*
X02098D01*
X02105Y02502*
Y02492*
X02100Y02487D02*
X02098Y02484D01*
Y02479*
X02100Y02477*
X02103*
X02105Y02479*
X02108Y02477*
X02110*
X02113Y02479*
Y02484*
X02110Y02487*
X02108*
X02105Y02484*
X02103Y02487*
X02100*
X02105Y02484D02*
Y02479D01*
X03870Y01691D02*
X03855D01*
Y01683*
X03857Y01681*
X03862*
X03865Y01683*
Y01691*
Y01686D02*
X03870Y01681D01*
X03855Y01666D02*
Y01676D01*
X03862*
X03860Y01671*
Y01668*
X03862Y01666*
X03867*
X03870Y01668*
Y01673*
X03867Y01676*
X03870Y01661D02*
Y01656D01*
Y01658*
X03855*
X03857Y01661*
X04010Y01693D02*
X03995D01*
Y01685*
X03997Y01683*
X04002*
X04005Y01685*
Y01693*
Y01688D02*
X04010Y01683D01*
X03995Y01668D02*
Y01678D01*
X04002*
X04000Y01673*
Y01670*
X04002Y01668*
X04007*
X04010Y01670*
Y01675*
X04007Y01678*
X04010Y01653D02*
Y01663D01*
X04000Y01653*
X03997*
X03995Y01655*
Y01660*
X03997Y01663*
X03840Y02100D02*
X03825D01*
Y02092*
X03827Y02090*
X03832*
X03835Y02092*
Y02100*
Y02095D02*
X03840Y02090D01*
X03825Y02075D02*
Y02085D01*
X03832*
X03830Y02080*
Y02077*
X03832Y02075*
X03837*
X03840Y02077*
Y02082*
X03837Y02085*
X03827Y02070D02*
X03825Y02067D01*
Y02062*
X03827Y02060*
X03830*
X03832Y02062*
Y02065*
Y02062*
X03835Y02060*
X03837*
X03840Y02062*
Y02067*
X03837Y02070*
X04224Y01975D02*
X04209D01*
Y01967*
X04211Y01965*
X04216*
X04219Y01967*
Y01975*
Y01970D02*
X04224Y01965D01*
X04209Y01950D02*
Y01960D01*
X04216*
X04214Y01955*
Y01952*
X04216Y01950*
X04221*
X04224Y01952*
Y01957*
X04221Y01960*
X04224Y01937D02*
X04209D01*
X04216Y01945*
Y01935*
X04154Y02149D02*
X04139D01*
Y02141*
X04141Y02139*
X04146*
X04149Y02141*
Y02149*
Y02144D02*
X04154Y02139D01*
X04139Y02124D02*
Y02134D01*
X04146*
X04144Y02129*
Y02126*
X04146Y02124*
X04151*
X04154Y02126*
Y02131*
X04151Y02134*
X04139Y02109D02*
Y02119D01*
X04146*
X04144Y02114*
Y02111*
X04146Y02109*
X04151*
X04154Y02111*
Y02116*
X04151Y02119*
X02354Y02929D02*
X02339D01*
Y02921*
X02341Y02919*
X02346*
X02349Y02921*
Y02929*
Y02924D02*
X02354Y02919D01*
X02339Y02904D02*
Y02914D01*
X02346*
X02344Y02909*
Y02906*
X02346Y02904*
X02351*
X02354Y02906*
Y02911*
X02351Y02914*
X02341Y02899D02*
X02339Y02896D01*
Y02891*
X02341Y02889*
X02344*
X02346Y02891*
X02349Y02889*
X02351*
X02354Y02891*
Y02896*
X02351Y02899*
X02349*
X02346Y02896*
X02344Y02899*
X02341*
X02346Y02896D02*
Y02891D01*
X02347Y02341D02*
X02359D01*
X02362Y02338*
Y02333*
X02359Y02331*
X02347*
Y02316D02*
X02349Y02321D01*
X02354Y02326*
X02359*
X02362Y02323*
Y02318*
X02359Y02316*
X02357*
X02354Y02318*
Y02326*
X04397Y02951D02*
X04409D01*
X04412Y02948*
Y02943*
X04409Y02941*
X04397*
X04412Y02936D02*
Y02931D01*
Y02933*
X04397*
X04399Y02936*
X04412Y02923D02*
Y02918D01*
Y02921*
X04397*
X04399Y02923*
X04394Y02406D02*
X04406D01*
X04409Y02403*
Y02398*
X04406Y02396*
X04394*
X04409Y02391D02*
Y02386D01*
Y02388*
X04394*
X04396Y02391*
X04409Y02368D02*
Y02378D01*
X04399Y02368*
X04396*
X04394Y02371*
Y02376*
X04396Y02378*
X03757Y03383D02*
X03759Y03385D01*
X03766*
Y03378*
X03764Y03376*
X03766Y03385D02*
X03771Y03390D01*
X03778Y03383D02*
X03782Y03379D01*
X03780Y03381*
X03769Y03371*
Y03374*
X02336Y02470D02*
X02351D01*
Y02460*
X02336Y02445D02*
Y02455D01*
X02343*
X02341Y02450*
Y02447*
X02343Y02445*
X02348*
X02351Y02447*
Y02452*
X02348Y02455*
X02540Y02051D02*
X02555D01*
Y02041*
X02540Y02036D02*
Y02026D01*
X02542*
X02552Y02036*
X02555*
X04021Y03011D02*
X04036D01*
Y03001*
X04023Y02996D02*
X04021Y02993D01*
Y02988*
X04023Y02986*
X04026*
X04028Y02988*
Y02991*
Y02988*
X04031Y02986*
X04033*
X04036Y02988*
Y02993*
X04033Y02996*
X02681Y01938D02*
X02666D01*
Y01930*
X02668Y01928*
X02673*
X02676Y01930*
Y01938*
X02681Y01923D02*
Y01918D01*
Y01920*
X02666*
X02668Y01923*
X02681Y01910D02*
Y01905D01*
Y01908*
X02666*
X02668Y01910*
X02964Y01808D02*
X02976D01*
X02979Y01805*
Y01800*
X02976Y01798*
X02964*
X02979Y01783D02*
Y01793D01*
X02969Y01783*
X02966*
X02964Y01785*
Y01790*
X02966Y01793*
X03684Y01983D02*
X03669D01*
Y01975*
X03671Y01973*
X03676*
X03679Y01975*
Y01983*
X03684Y01968D02*
Y01963D01*
Y01965*
X03669*
X03671Y01968*
X03684Y01945D02*
Y01955D01*
X03674Y01945*
X03671*
X03669Y01948*
Y01953*
X03671Y01955*
X02696Y03523D02*
X02692Y03520D01*
X02694Y03521*
X02683Y03532*
X02687*
X02678Y03523D02*
X02674D01*
X02671Y03520*
Y03516*
X02678Y03509*
X02682*
X02685Y03513*
Y03516*
X02678Y03523*
X02556Y03645D02*
Y03642D01*
X02552Y03638*
X02549*
X02542Y03645*
Y03649*
X02545Y03652*
X02549*
X02550Y03651*
Y03647*
X02545Y03642*
X02178Y03256D02*
X02174Y03252D01*
X02176Y03254*
X02165Y03264*
X02169*
X02289Y03134D02*
X02297Y03142D01*
X02282*
X02281Y03143*
Y03147*
X02284Y03150*
X02288*
X04160Y02575D02*
X04158Y02572D01*
Y02567*
X04160Y02565*
X04163*
X04165Y02567*
X04168Y02565*
X04170*
X04173Y02567*
Y02572*
X04170Y02575*
X04168*
X04165Y02572*
X04163Y02575*
X04160*
X04165Y02572D02*
Y02567D01*
X03914Y02568D02*
Y02558D01*
X03916*
X03926Y02568*
X03929*
X03925Y02949D02*
Y02944D01*
Y02946*
X03910*
X03912Y02949*
X04177Y02940D02*
Y02950D01*
X04167Y02940*
X04164*
X04162Y02942*
Y02947*
X04164Y02950*
G54D61*
X02362Y02302D02*
D01*
X02362Y02303*
X02362Y02303*
X02362Y02303*
X02362Y02303*
X02362Y02303*
X02362Y02303*
X02362Y02303*
X02362Y02303*
X02362Y02304*
X02362Y02304*
X02362Y02304*
X02361Y02304*
X02361Y02304*
X02361Y02304*
X02361Y02304*
X02361Y02304*
X02361Y02304*
X02361Y02304*
X02361Y02304*
X02360Y02304*
X02360Y02304*
X02360Y02304*
X02360*
X02360Y02304*
X02360Y02304*
X02360Y02304*
X02359Y02304*
X02359Y02304*
X02359Y02304*
X02359Y02304*
X02359Y02304*
X02359Y02304*
X02359Y02304*
X02359Y02304*
X02359Y02304*
X02358Y02304*
X02358Y02303*
X02358Y02303*
X02358Y02303*
X02358Y02303*
X02358Y02303*
X02358Y02303*
X02358Y02303*
X02358Y02303*
X02358Y02302*
X02358Y02302*
X02358Y02302*
X02358Y02302*
X02358Y02302*
X02358Y02302*
X02358Y02302*
X02358Y02301*
X02358Y02301*
X02358Y02301*
X02359Y02301*
X02359Y02301*
X02359Y02301*
X02359Y02301*
X02359Y02301*
X02359Y02301*
X02359Y02301*
X02359Y02301*
X02359Y02300*
X02360Y02300*
X02360Y02300*
X02360Y02300*
X02360Y02300*
X02360*
X02360Y02300*
X02360Y02300*
X02361Y02300*
X02361Y02300*
X02361Y02301*
X02361Y02301*
X02361Y02301*
X02361Y02301*
X02361Y02301*
X02361Y02301*
X02362Y02301*
X02362Y02301*
X02362Y02301*
X02362Y02301*
X02362Y02301*
X02362Y02302*
X02362Y02302*
X02362Y02302*
X02362Y02302*
X02362Y02302*
X02362Y02302*
X02362Y02302*
G54D62*
X03329Y03614D02*
D01*
X03329Y03614*
X03329Y03614*
X03329Y03615*
X03329Y03615*
X03329Y03615*
X03329Y03615*
X03329Y03615*
X03329Y03616*
X03329Y03616*
X03329Y03616*
X03328Y03616*
X03328Y03616*
X03328Y03616*
X03328Y03616*
X03328Y03617*
X03328Y03617*
X03327Y03617*
X03327Y03617*
X03327Y03617*
X03327Y03617*
X03327Y03617*
X03326Y03617*
X03326*
X03326Y03617*
X03326Y03617*
X03326Y03617*
X03325Y03617*
X03325Y03617*
X03325Y03617*
X03325Y03617*
X03325Y03616*
X03324Y03616*
X03324Y03616*
X03324Y03616*
X03324Y03616*
X03324Y03616*
X03324Y03616*
X03324Y03615*
X03324Y03615*
X03323Y03615*
X03323Y03615*
X03323Y03615*
X03323Y03614*
X03323Y03614*
X03323Y03614*
X03323Y03614*
X03323Y03614*
X03323Y03613*
X03323Y03613*
X03323Y03613*
X03324Y03613*
X03324Y03613*
X03324Y03612*
X03324Y03612*
X03324Y03612*
X03324Y03612*
X03324Y03612*
X03324Y03612*
X03325Y03612*
X03325Y03611*
X03325Y03611*
X03325Y03611*
X03325Y03611*
X03326Y03611*
X03326Y03611*
X03326Y03611*
X03326Y03611*
X03326*
X03327Y03611*
X03327Y03611*
X03327Y03611*
X03327Y03611*
X03327Y03611*
X03328Y03611*
X03328Y03611*
X03328Y03612*
X03328Y03612*
X03328Y03612*
X03328Y03612*
X03329Y03612*
X03329Y03612*
X03329Y03612*
X03329Y03613*
X03329Y03613*
X03329Y03613*
X03329Y03613*
X03329Y03613*
X03329Y03614*
X03329Y03614*
X03329Y03614*
X02672Y03042D02*
X02699Y03015D01*
X03241Y02472D02*
X03268Y02499D01*
X03784Y03069D02*
X03811Y03042D01*
X03241Y03611D02*
X03268Y03584D01*
X02672Y03042D02*
X02699Y03069D01*
X03214Y02499D02*
X03241Y02472D01*
X03784Y03015D02*
X03811Y03042D01*
X03214Y03584D02*
X03241Y03611D01*
M02*