%FSDAX23Y23*%
%MOIN*%
%SFA1B1*%

%IPPOS*%
%ADD9500C,0.010000*%
%ADD9501C,0.027600*%
%ADD9502C,0.035400*%
%ADD9503C,0.043300*%
%LNde-020717-1*%
%LPD*%
G54D9500*
X02855Y01480D03*
X02923D03*
X02975D03*
X03085Y01400D03*
X03127Y01401D03*
Y01451D03*
Y01501D03*
Y01551D03*
X03365Y01550D03*
Y01501D03*
Y01450D03*
Y01400D03*
X03410D03*
X03520Y01480D03*
X03556Y01470D03*
X03624Y01469D03*
X03244Y01428D03*
X03246Y01576D03*
X03365Y01599D03*
Y01651D03*
Y01700D03*
Y01752D03*
X03351Y01825D03*
X03395Y01844D03*
X03395Y01915D03*
X03386Y02003D03*
X03350Y01985D03*
X03385Y02060D03*
X03379Y02097D03*
X03525Y02155D03*
X03555Y02067D03*
X03526Y02021D03*
X03555Y01950D03*
X03515Y01825D03*
X03660Y01810D03*
Y01850D03*
X03725Y01875D03*
X03820Y01777D03*
X03855Y01615D03*
X03895D03*
X03624Y01582D03*
X03556Y01584D03*
Y01687D03*
X03660Y01715D03*
X03245Y01728D03*
X03200Y01800D03*
X03235Y01845D03*
Y01885D03*
Y01930D03*
Y01975D03*
X03304Y01806D03*
X03127Y01701D03*
Y01651D03*
Y01601D03*
X03157Y02380D03*
X03174Y02416D03*
X03135Y02417D03*
X03214Y02415D03*
X03246Y02439D03*
X03260Y02475D03*
X03265Y02555D03*
X03235Y02580D03*
X03240Y02741D03*
X03220Y02865D03*
X03270D03*
X03330D03*
X03433Y02850D03*
X03415Y02779D03*
X03447Y02744D03*
X03379Y02726D03*
X03385Y02681D03*
X03489Y02607D03*
X03495Y02565D03*
X03478Y02526D03*
X03563Y02609D03*
X03571Y02655D03*
X03656Y02739D03*
X03710Y02795D03*
X03751Y02837D03*
X03780Y02865D03*
X03795Y02925D03*
X03715Y03010D03*
X03625Y03115D03*
X03560Y03110D03*
X03530Y03080D03*
X03411Y03095D03*
X03521Y02933D03*
X03520Y02808D03*
X03560Y02845D03*
X03882Y02782D03*
X03823Y02719D03*
X03797Y02691D03*
X03870Y02660D03*
X03962Y02657D03*
X04025Y02760D03*
X04129Y02761D03*
X04083Y03030D03*
X04380Y03065D03*
X04429Y02498D03*
X04233Y02530D03*
X04094Y02476D03*
X04020Y02401D03*
X03918Y02357D03*
X03932Y02304D03*
X03870Y02379D03*
X03817Y02378D03*
Y02266D03*
X03574Y02287D03*
X03566Y02345D03*
X03515Y02270D03*
X03195Y02354D03*
X03162Y02816D03*
X03182Y02929D03*
X03126Y03058D03*
X04006Y02120D03*
X04022Y02046D03*
X04104Y01903D03*
X04165Y01905D03*
X04201Y02107D03*
X04326Y02078D03*
X04393Y02210D03*
X03986Y01834D03*
X02970Y01920D03*
X02972Y01963D03*
X02923Y01980D03*
X02855Y01965D03*
Y01835D03*
Y01705D03*
X02805Y01680D03*
X02785Y01770D03*
X02539Y01768D03*
X02373Y01816D03*
X02425Y01955D03*
X02430Y02025D03*
Y02140D03*
X02294Y02213D03*
Y02256D03*
X02251D03*
Y02213D03*
X02230Y02480D03*
Y02520D03*
Y02560D03*
X02200Y02590D03*
X02170Y02620D03*
X02140Y02650D03*
X02100Y02695D03*
X02065Y02665D03*
Y02620D03*
X02231Y02631D03*
X02233Y02683D03*
X02230Y02795D03*
Y02850D03*
Y02990D03*
X02268Y02989D03*
X02265Y03026D03*
X02311Y03032D03*
X02408Y02969D03*
X02448Y02951D03*
X02402Y02852D03*
X02495Y02840D03*
X02529Y02820D03*
X02530Y02860D03*
X02548Y02788D03*
X02559Y02738D03*
X02515Y02740D03*
X02533Y02660D03*
X02570D03*
X02645D03*
X02623Y02751D03*
X02740Y02811D03*
X02782Y02726D03*
X02826Y02765D03*
X02830Y02664D03*
X02835Y02583D03*
X02888Y02524D03*
X02932Y02533D03*
X02935Y02600D03*
Y02645D03*
X03015Y02605D03*
X02994Y02500D03*
X02961Y02474D03*
X03020Y02460D03*
X03027Y02423D03*
Y02276D03*
X02925Y02275D03*
X02862Y02276D03*
X02706Y02272D03*
X02730Y02455D03*
X02538Y02466D03*
Y02319D03*
X02491Y02659D03*
X02390Y02735D03*
X02425Y03095D03*
X02630Y03080D03*
X02671D03*
X02770Y03061D03*
X02809D03*
X02947Y03060D03*
X02980Y03092D03*
X03006Y02984D03*
X03048Y02983D03*
X03110Y02972D03*
X03072Y02932D03*
X03042Y02846D03*
X03055Y02780D03*
X03075Y02695D03*
X03087Y03034D03*
X03110Y03115D03*
X02970Y02080D03*
X02923Y02125D03*
X02972Y01686D03*
Y01569D03*
X02923Y01587D03*
X02060Y02445D03*
X02460Y03135D03*
X02491Y03166D03*
X02521Y03197D03*
X02556Y03229D03*
X02615Y03285D03*
X02775D03*
X02805Y03315D03*
Y03440D03*
X02795Y03510D03*
X02850D03*
X02930D03*
X02990Y03545D03*
X03030D03*
X03050Y03640D03*
X02868Y03584D03*
X02795Y03595D03*
Y03650D03*
X02725D03*
X02655D03*
X02895Y03445D03*
X03020Y03330D03*
X03065Y03325D03*
X03070Y03375D03*
X03120Y03380D03*
X03105Y03210D03*
X02945Y03220D03*
X02875Y03185D03*
X02691Y03196D03*
X02658Y03163D03*
X02625Y03130D03*
X02724Y03229D03*
X03014Y03125D03*
X03160Y03210D03*
X03155Y03355D03*
X03205D03*
X03288Y03349D03*
X03331Y03401D03*
X03363Y03436D03*
X03380Y03330D03*
X03424Y03288D03*
X03465Y03258D03*
X03544Y03245D03*
X03571Y03219D03*
X03580Y03165D03*
X03525Y03185D03*
X03650Y03145D03*
X03805D03*
X03780Y03180D03*
X03805Y03215D03*
X03780Y03245D03*
X03740D03*
X03646Y03306D03*
X03670Y03365D03*
X03640Y03390D03*
X03600Y03380D03*
X03610Y03420D03*
X03568Y03417D03*
X03560Y03605D03*
X03525Y03625D03*
X03270Y03645D03*
X03230Y03545D03*
Y03500D03*
Y03455D03*
X03150D03*
X03130Y03640D03*
X03175Y03765D03*
X03711Y03720D03*
X03805Y03708D03*
X03870Y03537D03*
X03926Y03492D03*
X04012Y03246D03*
X04084Y03184D03*
X04097Y03132D03*
X04235Y03230D03*
X03329Y03194D03*
G54D9501*
X03429Y03730D03*
X03551D03*
G54D9502*
X03760Y01625D03*
Y01725D03*
Y01825D03*
Y01925D03*
Y02025D03*
Y02125D03*
Y02225D03*
Y02325D03*
X03993Y02611D03*
Y02711D03*
X04093D03*
Y02811D03*
Y02911D03*
X03993D03*
Y02811D03*
X04093Y02611D03*
X02757Y02321D03*
Y02221D03*
Y02121D03*
Y02021D03*
Y01921D03*
Y01821D03*
Y01721D03*
Y01621D03*
X02455Y03355D03*
X02384Y03284D03*
X02313Y03355D03*
X02384Y03425D03*
X02525D03*
X02596Y03496D03*
X02525Y03567D03*
X02455Y03496D03*
X02313Y03213D03*
X02242Y03284D03*
X03175Y03830D03*
X03275D03*
X03979Y03595D03*
X04050Y03525D03*
X04140Y03435D03*
X04210Y03364D03*
G54D9503*
X04310Y02655D03*
Y02755D03*
Y02855D03*
M02*