%FSDAX23Y23*%
%MOIN*%
%SFA1B1*%

%IPPOS*%
%ADD27C,0.010000*%
%ADD57C,0.007900*%
%ADD58C,0.009800*%
%ADD59C,0.023600*%
%ADD60C,0.003000*%
%LNde-020717-1*%
%LPD*%
G54D27*
X04396Y02439D02*
X04397D01*
X04176Y02292D02*
Y02316D01*
X04177Y02291D02*
X04441D01*
Y02315*
X04131Y02316D02*
Y02330D01*
Y02316D02*
X04176D01*
Y02342*
X04441D02*
X04442Y02343D01*
X04441Y02315D02*
Y02342D01*
Y02315D02*
X04484D01*
Y02330*
X04148Y02381D02*
X04176D01*
Y02342D02*
Y02381D01*
Y02342D02*
X04442D01*
Y02382*
X04461*
X04119Y02467D02*
X04496D01*
X04479Y02484D02*
X04496Y02467D01*
Y02466D02*
Y02467D01*
Y02336D02*
Y02466D01*
X04466Y02336D02*
X04496D01*
X04466D02*
Y02432D01*
X04452D02*
X04466D01*
X04452Y02409D02*
Y02432D01*
X04441Y02409D02*
X04452D01*
X04441Y02399D02*
Y02409D01*
X04440Y02398D02*
X04441Y02399D01*
X04175Y02398D02*
X04440D01*
X04175D02*
Y02408D01*
X04173Y02410D02*
X04175Y02408D01*
X04162Y02410D02*
X04173D01*
X04162D02*
Y02433D01*
X04145D02*
X04162D01*
X04145Y02333D02*
Y02433D01*
X04121Y02333D02*
X04145D01*
X04119Y02335D02*
X04121Y02333D01*
X04119Y02335D02*
Y02467D01*
X04136Y02484*
X04479*
X03028Y02699D02*
Y02735D01*
X03013Y02684D02*
X03028Y02699D01*
X01997Y02684D02*
X03013D01*
X01984Y02697D02*
X01997Y02684D01*
X01984Y02697D02*
Y02735D01*
X03028*
X02907Y02752D02*
Y02911D01*
Y02752D02*
X02920Y02739D01*
X02971*
X02982Y02750*
Y02878*
X02949Y02911D02*
X02982Y02878D01*
X02094Y02743D02*
Y02911D01*
X02086Y02735D02*
X02094Y02743D01*
X02027Y02735D02*
X02086D01*
X02021Y02741D02*
X02027Y02735D01*
X02021Y02741D02*
Y02880D01*
X02052Y02911*
X02949*
X02114Y02863D02*
Y02864D01*
G54D57*
X03443Y03690D02*
D01*
X03446Y03687*
X03449Y03684*
X03452Y03681*
X03456Y03679*
X03459Y03676*
X03463Y03674*
X03467Y03673*
X03471Y03671*
X03475Y03670*
X03479Y03669*
X03484Y03669*
X03488Y03669*
X03492Y03669*
X03496Y03669*
X03501Y03670*
X03505Y03670*
X03509Y03672*
X03513Y03673*
X03517Y03675*
X03520Y03677*
X03524Y03679*
X03527Y03682*
X03531Y03685*
X03534Y03687*
X03535Y03689*
X03535Y03770D02*
D01*
X03532Y03773*
X03529Y03776*
X03526Y03778*
X03522Y03781*
X03518Y03783*
X03515Y03785*
X03511Y03787*
X03507Y03788*
X03503Y03789*
X03498Y03790*
X03494Y03790*
X03490Y03791*
X03486Y03790*
X03481Y03790*
X03477Y03789*
X03473Y03788*
X03469Y03787*
X03465Y03786*
X03461Y03784*
X03457Y03782*
X03454Y03779*
X03451Y03777*
X03447Y03774*
X03444Y03771*
X03443Y03769*
X03869Y03048D02*
X03900D01*
X03864Y02025D02*
X03895D01*
X04167Y02093D02*
Y02061D01*
X02849Y02271D02*
X02880D01*
X03843Y02494D02*
Y02525D01*
X03056Y03736D02*
Y03776D01*
X02993Y03736D02*
X03009Y03717D01*
X03040D02*
X03056Y03736D01*
X02993D02*
Y03776D01*
X03009Y03717D02*
X03040D01*
X02993Y03851D02*
X03056D01*
Y03803D02*
Y03851D01*
X02993Y03803D02*
Y03851D01*
X03591Y03240D02*
X03744Y03393D01*
X03461Y03370D02*
X03614Y03523D01*
X03461Y03370D02*
X03591Y03240D01*
X03614Y03523D02*
X03744Y03393D01*
X03195Y02991D02*
Y03078D01*
X03392D02*
Y02991D01*
X03195D02*
X03392D01*
X03195Y03078D02*
X03392D01*
X03945Y02258D02*
X04015D01*
X03945Y02061D02*
X04015D01*
X03945D02*
Y02258D01*
X04015Y02061D02*
Y02258D01*
X02397Y02242D02*
X02420D01*
X02397Y02329D02*
X02420D01*
Y02242D02*
Y02329D01*
X02397Y02242D02*
Y02329D01*
X02370Y01793D02*
X02440D01*
X02370Y02186D02*
X02440D01*
Y01793D02*
Y02186D01*
X02370Y01793D02*
Y02186D01*
X02397Y02383D02*
X02420D01*
X02397Y02470D02*
X02420D01*
Y02383*
X02397D02*
Y02470D01*
X02675Y03165D02*
X02975D01*
X02675Y03065D02*
Y03165D01*
Y03065D02*
X02975D01*
Y03165*
X03125Y03880D02*
X03325D01*
X03125Y03780D02*
Y03880D01*
Y03780D02*
X03325D01*
Y03880*
X04404Y02748D02*
X04435D01*
X04404Y02768D02*
X04435D01*
X04157Y02632D02*
Y02685D01*
X04155Y02777D02*
X04157D01*
X04272Y02685D02*
Y02632D01*
Y02777D02*
X04274D01*
X04155Y02632D02*
Y02777D01*
X04274Y02632D02*
Y02777D01*
X04247Y03032D02*
Y03085D01*
X04245Y03177D02*
X04247D01*
X04362Y03032D02*
Y03085D01*
Y03177D02*
X04364D01*
X04245Y03032D02*
Y03177D01*
X04364Y03032D02*
Y03177D01*
X04102Y03032D02*
Y03085D01*
X04100Y03177D02*
X04102D01*
X04217Y03085D02*
Y03032D01*
Y03177D02*
X04219D01*
X04100Y03032D02*
Y03177D01*
X04219D02*
Y03032D01*
X03466Y03276D02*
X03488Y03298D01*
X03431Y03092D02*
X03462D01*
X04069Y03134D02*
Y03166D01*
Y03026D02*
Y02995D01*
Y03054D02*
Y03105D01*
X03981Y01849D02*
Y01880D01*
X04056Y01989D02*
Y02020D01*
X04064Y01960D02*
Y01909D01*
X04334Y02241D02*
X04365D01*
X04184D02*
X04215D01*
X02493Y02352D02*
X02524D01*
X02644Y01634D02*
X02675D01*
X03727Y03709D02*
X03749Y03687D01*
X02706Y01569D02*
Y01600D01*
X03715Y03609D02*
X03738Y03632D01*
X02493Y02497D02*
X02524D01*
X03906Y03419D02*
X03929Y03441D01*
X03901Y03493D02*
X03923Y03471D01*
X02698Y02394D02*
Y02425D01*
X03696Y03783D02*
X03718Y03761D01*
X03626Y02836D02*
X03648Y02814D01*
X03271Y02588D02*
X03293Y02566D01*
X03206Y02643D02*
X03228Y02621D01*
X03164Y02685D02*
X03186Y02663D01*
X03328Y02376D02*
X03359D01*
X03525Y03815D02*
Y03846D01*
X03746Y03031D02*
X03768Y03053D01*
X03784Y03007D02*
X03807Y02984D01*
X03121Y03568D02*
X03143Y03546D01*
X02931Y03373D02*
X02953Y03351D01*
X02791Y03228D02*
X02813Y03206D01*
X02825Y01411D02*
Y01442D01*
X02823Y01509D02*
Y01540D01*
Y01634D02*
Y01665D01*
Y01759D02*
Y01790D01*
Y01884D02*
Y01915D01*
Y02009D02*
Y02040D01*
X02909Y02271D02*
X02940D01*
X03656Y02186D02*
Y02218D01*
X03681Y02114D02*
Y02145D01*
Y01989D02*
Y02020D01*
X03076Y02870D02*
X03107D01*
X03709Y02390D02*
X03760D01*
X03629D02*
X03680D01*
X03843Y02424D02*
Y02455D01*
X03789Y02408D02*
X03820D01*
X03666Y01881D02*
Y01912D01*
X03646Y01719D02*
Y01750D01*
X03656Y01627D02*
Y01658D01*
Y01505D02*
Y01537D01*
Y01404D02*
Y01435D01*
X02961Y02294D02*
Y02325D01*
X04257Y02241D02*
X04288D01*
G54D58*
X03630Y03205D02*
D01*
X03630Y03205*
X03630Y03206*
X03630Y03206*
X03630Y03206*
X03630Y03207*
X03630Y03207*
X03629Y03207*
X03629Y03208*
X03629Y03208*
X03629Y03208*
X03629Y03209*
X03628Y03209*
X03628Y03209*
X03628Y03209*
X03628Y03209*
X03627Y03210*
X03627Y03210*
X03627Y03210*
X03626Y03210*
X03626Y03210*
X03626Y03210*
X03625Y03210*
X03625*
X03625Y03210*
X03624Y03210*
X03624Y03210*
X03624Y03210*
X03623Y03210*
X03623Y03210*
X03623Y03209*
X03622Y03209*
X03622Y03209*
X03622Y03209*
X03622Y03209*
X03621Y03208*
X03621Y03208*
X03621Y03208*
X03621Y03207*
X03621Y03207*
X03620Y03207*
X03620Y03206*
X03620Y03206*
X03620Y03206*
X03620Y03205*
X03620Y03205*
X03620Y03205*
X03620Y03204*
X03620Y03204*
X03620Y03204*
X03620Y03203*
X03621Y03203*
X03621Y03203*
X03621Y03203*
X03621Y03202*
X03621Y03202*
X03622Y03202*
X03622Y03201*
X03622Y03201*
X03622Y03201*
X03623Y03201*
X03623Y03201*
X03623Y03201*
X03624Y03200*
X03624Y03200*
X03624Y03200*
X03625Y03200*
X03625Y03200*
X03625*
X03626Y03200*
X03626Y03200*
X03626Y03200*
X03627Y03200*
X03627Y03201*
X03627Y03201*
X03628Y03201*
X03628Y03201*
X03628Y03201*
X03628Y03201*
X03629Y03202*
X03629Y03202*
X03629Y03202*
X03629Y03203*
X03629Y03203*
X03630Y03203*
X03630Y03203*
X03630Y03204*
X03630Y03204*
X03630Y03204*
X03630Y03205*
X03630Y03205*
X03407Y03133D02*
D01*
X03407Y03133*
X03407Y03134*
X03407Y03134*
X03407Y03134*
X03407Y03135*
X03407Y03135*
X03406Y03135*
X03406Y03135*
X03406Y03136*
X03406Y03136*
X03406Y03136*
X03405Y03137*
X03405Y03137*
X03405Y03137*
X03405Y03137*
X03404Y03137*
X03404Y03137*
X03404Y03138*
X03403Y03138*
X03403Y03138*
X03403Y03138*
X03402Y03138*
X03402*
X03402Y03138*
X03401Y03138*
X03401Y03138*
X03401Y03138*
X03400Y03137*
X03400Y03137*
X03400Y03137*
X03399Y03137*
X03399Y03137*
X03399Y03137*
X03399Y03136*
X03398Y03136*
X03398Y03136*
X03398Y03135*
X03398Y03135*
X03398Y03135*
X03397Y03135*
X03397Y03134*
X03397Y03134*
X03397Y03134*
X03397Y03133*
X03397Y03133*
X03397Y03133*
X03397Y03132*
X03397Y03132*
X03397Y03132*
X03397Y03131*
X03398Y03131*
X03398Y03131*
X03398Y03130*
X03398Y03130*
X03398Y03130*
X03399Y03129*
X03399Y03129*
X03399Y03129*
X03399Y03129*
X03400Y03129*
X03400Y03128*
X03400Y03128*
X03401Y03128*
X03401Y03128*
X03401Y03128*
X03402Y03128*
X03402Y03128*
X03402*
X03403Y03128*
X03403Y03128*
X03403Y03128*
X03404Y03128*
X03404Y03128*
X03404Y03128*
X03405Y03129*
X03405Y03129*
X03405Y03129*
X03405Y03129*
X03406Y03129*
X03406Y03130*
X03406Y03130*
X03406Y03130*
X03406Y03131*
X03407Y03131*
X03407Y03131*
X03407Y03132*
X03407Y03132*
X03407Y03132*
X03407Y03133*
X03407Y03133*
X04079Y02051D02*
D01*
X04079Y02051*
X04079Y02052*
X04079Y02052*
X04079Y02052*
X04079Y02053*
X04079Y02053*
X04079Y02053*
X04079Y02054*
X04078Y02054*
X04078Y02054*
X04078Y02054*
X04078Y02055*
X04078Y02055*
X04077Y02055*
X04077Y02055*
X04077Y02055*
X04076Y02056*
X04076Y02056*
X04076Y02056*
X04075Y02056*
X04075Y02056*
X04075Y02056*
X04074*
X04074Y02056*
X04074Y02056*
X04073Y02056*
X04073Y02056*
X04073Y02056*
X04072Y02055*
X04072Y02055*
X04072Y02055*
X04071Y02055*
X04071Y02055*
X04071Y02054*
X04071Y02054*
X04071Y02054*
X04070Y02054*
X04070Y02053*
X04070Y02053*
X04070Y02053*
X04070Y02052*
X04070Y02052*
X04070Y02052*
X04070Y02051*
X04070Y02051*
X04070Y02051*
X04070Y02050*
X04070Y02050*
X04070Y02050*
X04070Y02049*
X04070Y02049*
X04070Y02049*
X04070Y02048*
X04071Y02048*
X04071Y02048*
X04071Y02048*
X04071Y02047*
X04071Y02047*
X04072Y02047*
X04072Y02047*
X04072Y02047*
X04073Y02046*
X04073Y02046*
X04073Y02046*
X04074Y02046*
X04074Y02046*
X04074Y02046*
X04075*
X04075Y02046*
X04075Y02046*
X04076Y02046*
X04076Y02046*
X04076Y02046*
X04077Y02047*
X04077Y02047*
X04077Y02047*
X04078Y02047*
X04078Y02047*
X04078Y02048*
X04078Y02048*
X04078Y02048*
X04079Y02048*
X04079Y02049*
X04079Y02049*
X04079Y02049*
X04079Y02050*
X04079Y02050*
X04079Y02050*
X04079Y02051*
X04079Y02051*
X02454Y02230D02*
D01*
X02454Y02231*
X02454Y02231*
X02454Y02231*
X02454Y02232*
X02454Y02232*
X02453Y02232*
X02453Y02233*
X02453Y02233*
X02453Y02233*
X02453Y02234*
X02452Y02234*
X02452Y02234*
X02452Y02234*
X02452Y02234*
X02451Y02235*
X02451Y02235*
X02451Y02235*
X02450Y02235*
X02450Y02235*
X02450Y02235*
X02449Y02235*
X02449Y02235*
X02449*
X02448Y02235*
X02448Y02235*
X02448Y02235*
X02447Y02235*
X02447Y02235*
X02447Y02235*
X02446Y02235*
X02446Y02234*
X02446Y02234*
X02446Y02234*
X02445Y02234*
X02445Y02234*
X02445Y02233*
X02445Y02233*
X02445Y02233*
X02444Y02232*
X02444Y02232*
X02444Y02232*
X02444Y02231*
X02444Y02231*
X02444Y02231*
X02444Y02230*
X02444Y02230*
X02444Y02230*
X02444Y02229*
X02444Y02229*
X02444Y02229*
X02444Y02228*
X02445Y02228*
X02445Y02228*
X02445Y02228*
X02445Y02227*
X02445Y02227*
X02446Y02227*
X02446Y02227*
X02446Y02226*
X02446Y02226*
X02447Y02226*
X02447Y02226*
X02447Y02226*
X02448Y02226*
X02448Y02226*
X02448Y02226*
X02449Y02226*
X02449*
X02449Y02226*
X02450Y02226*
X02450Y02226*
X02450Y02226*
X02451Y02226*
X02451Y02226*
X02451Y02226*
X02452Y02226*
X02452Y02227*
X02452Y02227*
X02452Y02227*
X02453Y02227*
X02453Y02228*
X02453Y02228*
X02453Y02228*
X02453Y02228*
X02454Y02229*
X02454Y02229*
X02454Y02229*
X02454Y02230*
X02454Y02230*
X02454Y02230*
X02315Y02198D02*
D01*
X02315Y02198*
X02315Y02199*
X02315Y02199*
X02315Y02199*
X02315Y02200*
X02315Y02200*
X02315Y02200*
X02315Y02201*
X02314Y02201*
X02314Y02201*
X02314Y02201*
X02314Y02202*
X02314Y02202*
X02313Y02202*
X02313Y02202*
X02313Y02202*
X02312Y02203*
X02312Y02203*
X02312Y02203*
X02311Y02203*
X02311Y02203*
X02311Y02203*
X02310*
X02310Y02203*
X02310Y02203*
X02309Y02203*
X02309Y02203*
X02309Y02203*
X02308Y02202*
X02308Y02202*
X02308Y02202*
X02307Y02202*
X02307Y02202*
X02307Y02201*
X02307Y02201*
X02307Y02201*
X02306Y02201*
X02306Y02200*
X02306Y02200*
X02306Y02200*
X02306Y02199*
X02306Y02199*
X02306Y02199*
X02306Y02198*
X02306Y02198*
X02306Y02198*
X02306Y02197*
X02306Y02197*
X02306Y02197*
X02306Y02196*
X02306Y02196*
X02306Y02196*
X02306Y02195*
X02307Y02195*
X02307Y02195*
X02307Y02195*
X02307Y02194*
X02307Y02194*
X02308Y02194*
X02308Y02194*
X02308Y02194*
X02309Y02193*
X02309Y02193*
X02309Y02193*
X02310Y02193*
X02310Y02193*
X02310Y02193*
X02311*
X02311Y02193*
X02311Y02193*
X02312Y02193*
X02312Y02193*
X02312Y02193*
X02313Y02194*
X02313Y02194*
X02313Y02194*
X02314Y02194*
X02314Y02194*
X02314Y02195*
X02314Y02195*
X02314Y02195*
X02315Y02195*
X02315Y02196*
X02315Y02196*
X02315Y02196*
X02315Y02197*
X02315Y02197*
X02315Y02197*
X02315Y02198*
X02315Y02198*
X02454Y02371D02*
D01*
X02454Y02372*
X02454Y02372*
X02454Y02372*
X02454Y02373*
X02454Y02373*
X02453Y02373*
X02453Y02374*
X02453Y02374*
X02453Y02374*
X02453Y02375*
X02452Y02375*
X02452Y02375*
X02452Y02375*
X02452Y02375*
X02451Y02376*
X02451Y02376*
X02451Y02376*
X02450Y02376*
X02450Y02376*
X02450Y02376*
X02449Y02376*
X02449Y02376*
X02449*
X02448Y02376*
X02448Y02376*
X02448Y02376*
X02447Y02376*
X02447Y02376*
X02447Y02376*
X02446Y02376*
X02446Y02375*
X02446Y02375*
X02446Y02375*
X02445Y02375*
X02445Y02375*
X02445Y02374*
X02445Y02374*
X02445Y02374*
X02444Y02373*
X02444Y02373*
X02444Y02373*
X02444Y02372*
X02444Y02372*
X02444Y02372*
X02444Y02371*
X02444Y02371*
X02444Y02371*
X02444Y02370*
X02444Y02370*
X02444Y02370*
X02444Y02369*
X02445Y02369*
X02445Y02369*
X02445Y02369*
X02445Y02368*
X02445Y02368*
X02446Y02368*
X02446Y02368*
X02446Y02367*
X02446Y02367*
X02447Y02367*
X02447Y02367*
X02447Y02367*
X02448Y02367*
X02448Y02367*
X02448Y02367*
X02449Y02367*
X02449*
X02449Y02367*
X02450Y02367*
X02450Y02367*
X02450Y02367*
X02451Y02367*
X02451Y02367*
X02451Y02367*
X02452Y02367*
X02452Y02368*
X02452Y02368*
X02452Y02368*
X02453Y02368*
X02453Y02369*
X02453Y02369*
X02453Y02369*
X02453Y02369*
X02454Y02370*
X02454Y02370*
X02454Y02370*
X02454Y02371*
X02454Y02371*
X02454Y02371*
X04160Y02598D02*
D01*
X04160Y02599*
X04160Y02599*
X04160Y02599*
X04160Y02600*
X04160Y02600*
X04160Y02600*
X04160Y02601*
X04160Y02601*
X04159Y02601*
X04159Y02601*
X04159Y02602*
X04159Y02602*
X04159Y02602*
X04158Y02602*
X04158Y02602*
X04158Y02603*
X04157Y02603*
X04157Y02603*
X04157Y02603*
X04156Y02603*
X04156Y02603*
X04156Y02603*
X04155*
X04155Y02603*
X04155Y02603*
X04154Y02603*
X04154Y02603*
X04154Y02603*
X04153Y02603*
X04153Y02602*
X04153Y02602*
X04152Y02602*
X04152Y02602*
X04152Y02602*
X04152Y02601*
X04152Y02601*
X04151Y02601*
X04151Y02601*
X04151Y02600*
X04151Y02600*
X04151Y02600*
X04151Y02599*
X04151Y02599*
X04151Y02599*
X04151Y02598*
X04151Y02598*
X04151Y02598*
X04151Y02597*
X04151Y02597*
X04151Y02597*
X04151Y02596*
X04151Y02596*
X04151Y02596*
X04152Y02595*
X04152Y02595*
X04152Y02595*
X04152Y02595*
X04152Y02594*
X04153Y02594*
X04153Y02594*
X04153Y02594*
X04154Y02594*
X04154Y02594*
X04154Y02593*
X04155Y02593*
X04155Y02593*
X04155Y02593*
X04156*
X04156Y02593*
X04156Y02593*
X04157Y02593*
X04157Y02594*
X04157Y02594*
X04158Y02594*
X04158Y02594*
X04158Y02594*
X04159Y02594*
X04159Y02595*
X04159Y02595*
X04159Y02595*
X04159Y02595*
X04160Y02596*
X04160Y02596*
X04160Y02596*
X04160Y02597*
X04160Y02597*
X04160Y02597*
X04160Y02598*
X04160Y02598*
X04160Y02598*
X04250Y02998D02*
D01*
X04250Y02999*
X04250Y02999*
X04250Y02999*
X04250Y03000*
X04250Y03000*
X04250Y03000*
X04250Y03001*
X04250Y03001*
X04249Y03001*
X04249Y03001*
X04249Y03002*
X04249Y03002*
X04249Y03002*
X04248Y03002*
X04248Y03002*
X04248Y03003*
X04247Y03003*
X04247Y03003*
X04247Y03003*
X04246Y03003*
X04246Y03003*
X04246Y03003*
X04245*
X04245Y03003*
X04245Y03003*
X04244Y03003*
X04244Y03003*
X04244Y03003*
X04243Y03003*
X04243Y03002*
X04243Y03002*
X04242Y03002*
X04242Y03002*
X04242Y03002*
X04242Y03001*
X04242Y03001*
X04241Y03001*
X04241Y03001*
X04241Y03000*
X04241Y03000*
X04241Y03000*
X04241Y02999*
X04241Y02999*
X04241Y02999*
X04241Y02998*
X04241Y02998*
X04241Y02998*
X04241Y02997*
X04241Y02997*
X04241Y02997*
X04241Y02996*
X04241Y02996*
X04241Y02996*
X04242Y02995*
X04242Y02995*
X04242Y02995*
X04242Y02995*
X04242Y02994*
X04243Y02994*
X04243Y02994*
X04243Y02994*
X04244Y02994*
X04244Y02994*
X04244Y02993*
X04245Y02993*
X04245Y02993*
X04245Y02993*
X04246*
X04246Y02993*
X04246Y02993*
X04247Y02993*
X04247Y02994*
X04247Y02994*
X04248Y02994*
X04248Y02994*
X04248Y02994*
X04249Y02994*
X04249Y02995*
X04249Y02995*
X04249Y02995*
X04249Y02995*
X04250Y02996*
X04250Y02996*
X04250Y02996*
X04250Y02997*
X04250Y02997*
X04250Y02997*
X04250Y02998*
X04250Y02998*
X04250Y02998*
X04105D02*
D01*
X04105Y02999*
X04105Y02999*
X04105Y02999*
X04105Y03000*
X04105Y03000*
X04105Y03000*
X04105Y03001*
X04105Y03001*
X04104Y03001*
X04104Y03001*
X04104Y03002*
X04104Y03002*
X04104Y03002*
X04103Y03002*
X04103Y03002*
X04103Y03003*
X04102Y03003*
X04102Y03003*
X04102Y03003*
X04101Y03003*
X04101Y03003*
X04101Y03003*
X04100*
X04100Y03003*
X04100Y03003*
X04099Y03003*
X04099Y03003*
X04099Y03003*
X04098Y03003*
X04098Y03002*
X04098Y03002*
X04097Y03002*
X04097Y03002*
X04097Y03002*
X04097Y03001*
X04097Y03001*
X04096Y03001*
X04096Y03001*
X04096Y03000*
X04096Y03000*
X04096Y03000*
X04096Y02999*
X04096Y02999*
X04096Y02999*
X04096Y02998*
X04096Y02998*
X04096Y02998*
X04096Y02997*
X04096Y02997*
X04096Y02997*
X04096Y02996*
X04096Y02996*
X04096Y02996*
X04097Y02995*
X04097Y02995*
X04097Y02995*
X04097Y02995*
X04097Y02994*
X04098Y02994*
X04098Y02994*
X04098Y02994*
X04099Y02994*
X04099Y02994*
X04099Y02993*
X04100Y02993*
X04100Y02993*
X04100Y02993*
X04101*
X04101Y02993*
X04101Y02993*
X04102Y02993*
X04102Y02994*
X04102Y02994*
X04103Y02994*
X04103Y02994*
X04103Y02994*
X04104Y02994*
X04104Y02995*
X04104Y02995*
X04104Y02995*
X04104Y02995*
X04105Y02996*
X04105Y02996*
X04105Y02996*
X04105Y02997*
X04105Y02997*
X04105Y02997*
X04105Y02998*
X04105Y02998*
X04105Y02998*
G54D59*
X03602Y03296D02*
D01*
X03602Y03297*
X03602Y03297*
X03602Y03298*
X03602Y03299*
X03602Y03300*
X03601Y03300*
X03601Y03301*
X03601Y03302*
X03600Y03303*
X03600Y03303*
X03599Y03304*
X03598Y03304*
X03598Y03305*
X03597Y03305*
X03596Y03306*
X03596Y03306*
X03595Y03307*
X03594Y03307*
X03593Y03307*
X03593Y03307*
X03592Y03307*
X03591Y03307*
X03590*
X03589Y03307*
X03588Y03307*
X03588Y03307*
X03587Y03307*
X03586Y03307*
X03585Y03306*
X03585Y03306*
X03584Y03305*
X03583Y03305*
X03583Y03304*
X03582Y03304*
X03581Y03303*
X03581Y03303*
X03580Y03302*
X03580Y03301*
X03580Y03300*
X03579Y03300*
X03579Y03299*
X03579Y03298*
X03579Y03297*
X03579Y03297*
X03579Y03296*
X03579Y03295*
X03579Y03294*
X03579Y03293*
X03579Y03292*
X03579Y03292*
X03580Y03291*
X03580Y03290*
X03580Y03289*
X03581Y03289*
X03581Y03288*
X03582Y03288*
X03583Y03287*
X03583Y03286*
X03584Y03286*
X03585Y03285*
X03585Y03285*
X03586Y03285*
X03587Y03284*
X03588Y03284*
X03588Y03284*
X03589Y03284*
X03590Y03284*
X03591*
X03592Y03284*
X03593Y03284*
X03593Y03284*
X03594Y03284*
X03595Y03285*
X03596Y03285*
X03596Y03285*
X03597Y03286*
X03598Y03286*
X03598Y03287*
X03599Y03288*
X03600Y03288*
X03600Y03289*
X03601Y03289*
X03601Y03290*
X03601Y03291*
X03602Y03292*
X03602Y03292*
X03602Y03293*
X03602Y03294*
X03602Y03295*
X03602Y03296*
G54D60*
X02988Y02312D02*
X02985Y02315D01*
X02980*
X02978Y02312*
Y02302*
X02980Y02300*
X02985*
X02988Y02302*
X02993Y02300D02*
X02998D01*
X02995*
Y02315*
X02993Y02312*
X03679Y01444D02*
X03676Y01447D01*
X03671*
X03669Y01444*
Y01434*
X03671Y01432*
X03676*
X03679Y01434*
X03694Y01432D02*
X03684D01*
X03694Y01442*
Y01444*
X03691Y01447*
X03686*
X03684Y01444*
X03679Y01539D02*
X03676Y01542D01*
X03671*
X03669Y01539*
Y01529*
X03671Y01527*
X03676*
X03679Y01529*
X03684Y01539D02*
X03686Y01542D01*
X03691*
X03694Y01539*
Y01537*
X03691Y01534*
X03689*
X03691*
X03694Y01532*
Y01529*
X03691Y01527*
X03686*
X03684Y01529*
X03674Y01661D02*
X03671Y01664D01*
X03666*
X03664Y01661*
Y01651*
X03666Y01649*
X03671*
X03674Y01651*
X03686Y01649D02*
Y01664D01*
X03679Y01656*
X03689*
X03667Y01755D02*
X03664Y01758D01*
X03659*
X03657Y01755*
Y01745*
X03659Y01743*
X03664*
X03667Y01745*
X03682Y01758D02*
X03672D01*
Y01750*
X03677Y01753*
X03679*
X03682Y01750*
Y01745*
X03679Y01743*
X03674*
X03672Y01745*
X03687Y01913D02*
X03684Y01916D01*
X03679*
X03677Y01913*
Y01903*
X03679Y01901*
X03684*
X03687Y01903*
X03702Y01916D02*
X03697Y01913D01*
X03692Y01908*
Y01903*
X03694Y01901*
X03699*
X03702Y01903*
Y01906*
X03699Y01908*
X03692*
X03803Y02552D02*
X03800Y02555D01*
X03795*
X03793Y02552*
Y02542*
X03795Y02540*
X03800*
X03803Y02542*
X03808Y02555D02*
X03818D01*
Y02552*
X03808Y02542*
Y02540*
X03987Y02456D02*
X03984Y02459D01*
X03979*
X03977Y02456*
Y02446*
X03979Y02444*
X03984*
X03987Y02446*
X03992Y02456D02*
X03994Y02459D01*
X03999*
X04002Y02456*
Y02454*
X03999Y02451*
X04002Y02449*
Y02446*
X03999Y02444*
X03994*
X03992Y02446*
Y02449*
X03994Y02451*
X03992Y02454*
Y02456*
X03994Y02451D02*
X03999D01*
X03649Y02552D02*
X03646Y02555D01*
X03641*
X03639Y02552*
Y02542*
X03641Y02540*
X03646*
X03649Y02542*
X03654D02*
X03656Y02540D01*
X03661*
X03664Y02542*
Y02552*
X03661Y02555*
X03656*
X03654Y02552*
Y02550*
X03656Y02547*
X03664*
X03726Y02551D02*
X03723Y02554D01*
X03718*
X03716Y02551*
Y02541*
X03718Y02539*
X03723*
X03726Y02541*
X03731Y02539D02*
X03736D01*
X03733*
Y02554*
X03731Y02551*
X03743D02*
X03746Y02554D01*
X03751*
X03753Y02551*
Y02541*
X03751Y02539*
X03746*
X03743Y02541*
Y02551*
X03134Y02867D02*
X03131Y02870D01*
X03126*
X03124Y02867*
Y02857*
X03126Y02855*
X03131*
X03134Y02857*
X03139Y02855D02*
X03144D01*
X03141*
Y02870*
X03139Y02867*
X03161Y02855D02*
X03151D01*
X03161Y02865*
Y02867*
X03159Y02870*
X03154*
X03151Y02867*
X03655Y02047D02*
X03652Y02050D01*
X03647*
X03645Y02047*
Y02037*
X03647Y02035*
X03652*
X03655Y02037*
X03660Y02035D02*
X03665D01*
X03662*
Y02050*
X03660Y02047*
X03672D02*
X03675Y02050D01*
X03680*
X03682Y02047*
Y02045*
X03680Y02042*
X03677*
X03680*
X03682Y02040*
Y02037*
X03680Y02035*
X03675*
X03672Y02037*
X03656Y02094D02*
X03653Y02097D01*
X03648*
X03646Y02094*
Y02084*
X03648Y02082*
X03653*
X03656Y02084*
X03661Y02082D02*
X03666D01*
X03663*
Y02097*
X03661Y02094*
X03681Y02082D02*
Y02097D01*
X03673Y02089*
X03683*
X03679Y02206D02*
X03676Y02209D01*
X03671*
X03669Y02206*
Y02196*
X03671Y02194*
X03676*
X03679Y02196*
X03684Y02194D02*
X03689D01*
X03686*
Y02209*
X03684Y02206*
X03706Y02209D02*
X03696D01*
Y02201*
X03701Y02204*
X03704*
X03706Y02201*
Y02196*
X03704Y02194*
X03699*
X03696Y02196*
X02918Y02122D02*
X02915Y02125D01*
X02910*
X02908Y02122*
Y02112*
X02910Y02110*
X02915*
X02918Y02112*
X02923Y02110D02*
X02928D01*
X02925*
Y02125*
X02923Y02122*
X02945Y02125D02*
X02940Y02122D01*
X02935Y02117*
Y02112*
X02938Y02110*
X02943*
X02945Y02112*
Y02115*
X02943Y02117*
X02935*
X02973Y02027D02*
X02970Y02030D01*
X02965*
X02963Y02027*
Y02017*
X02965Y02015*
X02970*
X02973Y02017*
X02978Y02015D02*
X02983D01*
X02980*
Y02030*
X02978Y02027*
X02990Y02030D02*
X03000D01*
Y02027*
X02990Y02017*
Y02015*
X02967Y01891D02*
X02964Y01894D01*
X02959*
X02957Y01891*
Y01881*
X02959Y01879*
X02964*
X02967Y01881*
X02972Y01879D02*
X02977D01*
X02974*
Y01894*
X02972Y01891*
X02984Y01881D02*
X02987Y01879D01*
X02992*
X02994Y01881*
Y01891*
X02992Y01894*
X02987*
X02984Y01891*
Y01889*
X02987Y01886*
X02994*
X02967Y01766D02*
X02964Y01769D01*
X02959*
X02957Y01766*
Y01756*
X02959Y01754*
X02964*
X02967Y01756*
X02982Y01754D02*
X02972D01*
X02982Y01764*
Y01766*
X02979Y01769*
X02974*
X02972Y01766*
X02987D02*
X02989Y01769D01*
X02994*
X02997Y01766*
Y01756*
X02994Y01754*
X02989*
X02987Y01756*
Y01766*
X02968Y01642D02*
X02965Y01645D01*
X02960*
X02958Y01642*
Y01632*
X02960Y01630*
X02965*
X02968Y01632*
X02983Y01630D02*
X02973D01*
X02983Y01640*
Y01642*
X02980Y01645*
X02975*
X02973Y01642*
X02988Y01630D02*
X02993D01*
X02990*
Y01645*
X02988Y01642*
X02966Y01522D02*
X02963Y01525D01*
X02958*
X02956Y01522*
Y01512*
X02958Y01510*
X02963*
X02966Y01512*
X02981Y01510D02*
X02971D01*
X02981Y01520*
Y01522*
X02978Y01525*
X02973*
X02971Y01522*
X02996Y01510D02*
X02986D01*
X02996Y01520*
Y01522*
X02993Y01525*
X02988*
X02986Y01522*
X02928Y01393D02*
X02925Y01396D01*
X02920*
X02918Y01393*
Y01383*
X02920Y01381*
X02925*
X02928Y01383*
X02943Y01381D02*
X02933D01*
X02943Y01391*
Y01393*
X02940Y01396*
X02935*
X02933Y01393*
X02948D02*
X02950Y01396D01*
X02955*
X02958Y01393*
Y01391*
X02955Y01388*
X02953*
X02955*
X02958Y01386*
Y01383*
X02955Y01381*
X02950*
X02948Y01383*
X02841Y03313D02*
X02837D01*
X02834Y03310*
Y03306*
X02841Y03299*
X02844*
X02848Y03303*
Y03306*
X02860Y03315D02*
X02853Y03308D01*
Y03322*
X02851Y03324*
X02848*
X02844Y03321*
Y03317*
X02869Y03324D02*
X02858Y03335D01*
Y03324*
X02866Y03331*
X02975Y03457D02*
X02971D01*
X02968Y03454*
Y03450*
X02975Y03443*
X02978*
X02982Y03447*
Y03450*
X02994Y03459D02*
X02987Y03452D01*
Y03466*
X02985Y03468*
X02982*
X02978Y03465*
Y03461*
X02994Y03480D02*
X02987Y03473D01*
X02992Y03468*
X02994Y03473*
X02996Y03475*
X03000*
X03003Y03472*
Y03468*
X03000Y03465*
X02996*
X03165Y03651D02*
X03161D01*
X03158Y03648*
Y03644*
X03165Y03637*
X03168*
X03172Y03641*
Y03644*
X03184Y03653D02*
X03177Y03646D01*
Y03660*
X03175Y03662*
X03172*
X03168Y03659*
Y03655*
X03184Y03674D02*
X03182Y03669D01*
Y03662*
X03186Y03659*
X03190*
X03193Y03662*
Y03666*
X03191Y03667*
X03188*
X03182Y03662*
X03683Y02949D02*
X03679D01*
X03676Y02946*
Y02942*
X03683Y02935*
X03686*
X03690Y02939*
Y02942*
X03702Y02951D02*
X03695Y02944D01*
Y02958*
X03693Y02960*
X03690*
X03686Y02957*
Y02953*
X03695Y02965D02*
X03702Y02972D01*
X03704Y02971*
Y02957*
X03706Y02955*
X03635Y03073D02*
X03631D01*
X03628Y03070*
Y03066*
X03635Y03059*
X03638*
X03642Y03063*
Y03066*
X03654Y03075D02*
X03647Y03068D01*
Y03082*
X03645Y03084*
X03642*
X03638Y03081*
Y03077*
X03649Y03088D02*
Y03091D01*
X03652Y03095*
X03656*
X03658Y03093*
Y03089*
X03661*
X03663Y03088*
Y03084*
X03660Y03081*
X03656*
X03654Y03082*
Y03086*
X03651*
X03649Y03088*
X03654Y03086D02*
X03658Y03089D01*
X03546Y03820D02*
X03543Y03823D01*
X03538*
X03536Y03820*
Y03810*
X03538Y03808*
X03543*
X03546Y03810*
X03561Y03808D02*
X03551D01*
X03561Y03818*
Y03820*
X03558Y03823*
X03553*
X03551Y03820*
X03566Y03810D02*
X03568Y03808D01*
X03573*
X03576Y03810*
Y03820*
X03573Y03823*
X03568*
X03566Y03820*
Y03818*
X03568Y03815*
X03576*
X03335Y02349D02*
X03333Y02351D01*
X03328*
X03325Y02349*
Y02339*
X03328Y02336*
X03333*
X03335Y02339*
X03340Y02349D02*
X03343Y02351D01*
X03348*
X03350Y02349*
Y02346*
X03348Y02344*
X03345*
X03348*
X03350Y02341*
Y02339*
X03348Y02336*
X03343*
X03340Y02339*
X03355Y02351D02*
X03365D01*
Y02349*
X03355Y02339*
Y02336*
X03054Y02559D02*
X03050D01*
X03047Y02556*
Y02552*
X03054Y02545*
X03057*
X03061Y02549*
Y02552*
X03057Y02563D02*
Y02567D01*
X03061Y02570*
X03064*
X03066Y02568*
Y02565*
X03064Y02563*
X03066Y02565*
X03070*
X03071Y02563*
Y02559*
X03068Y02556*
X03064*
X03075Y02567D02*
X03079D01*
X03082Y02570*
Y02574*
X03075Y02581*
X03071*
X03068Y02577*
Y02574*
X03070Y02572*
X03073*
X03079Y02577*
X03097Y02515D02*
X03093D01*
X03090Y02512*
Y02508*
X03097Y02501*
X03100*
X03104Y02505*
Y02508*
X03114Y02515D02*
X03104Y02526D01*
Y02515*
X03111Y02523*
Y02530D02*
Y02533D01*
X03114Y02537*
X03118*
X03125Y02530*
Y02526*
X03122Y02523*
X03118*
X03111Y02530*
X03258Y02614D02*
X03254D01*
X03251Y02611*
Y02607*
X03258Y02600*
X03261*
X03265Y02604*
Y02607*
X03275Y02614D02*
X03265Y02625D01*
Y02614*
X03272Y02622*
X03281Y02620D02*
X03284Y02623D01*
X03283Y02622*
X03272Y02632*
Y02629*
X03523Y02776D02*
X03519D01*
X03516Y02773*
Y02769*
X03523Y02762*
X03526*
X03530Y02766*
Y02769*
X03540Y02776D02*
X03530Y02787D01*
Y02776*
X03537Y02784*
X03553Y02789D02*
X03546Y02782D01*
Y02796*
X03544Y02798*
X03540*
X03537Y02794*
Y02791*
X03649Y03778D02*
X03645D01*
X03642Y03775*
Y03771*
X03649Y03764*
X03652*
X03656Y03768*
Y03771*
X03666Y03778D02*
X03656Y03789D01*
Y03778*
X03663Y03786*
Y03793D02*
Y03796D01*
X03666Y03800*
X03670*
X03672Y03798*
Y03794*
X03670Y03793*
X03672Y03794*
X03675*
X03677Y03793*
Y03789*
X03674Y03786*
X03670*
X02794Y02456D02*
X02791Y02459D01*
X02786*
X02784Y02456*
Y02446*
X02786Y02444*
X02791*
X02794Y02446*
X02806Y02444D02*
Y02459D01*
X02799Y02451*
X02809*
X02821Y02444D02*
Y02459D01*
X02814Y02451*
X02824*
X03799Y03431D02*
X03795D01*
X03792Y03428*
Y03424*
X03799Y03417*
X03802*
X03806Y03421*
Y03424*
X03816Y03431D02*
X03806Y03442D01*
Y03431*
X03813Y03439*
X03818Y03454D02*
X03811Y03447D01*
X03816Y03442*
X03818Y03447*
X03820Y03449*
X03824*
X03827Y03446*
Y03442*
X03824Y03439*
X03820*
X03950Y03458D02*
X03946D01*
X03943Y03455*
Y03451*
X03950Y03444*
X03953*
X03957Y03448*
Y03451*
X03967Y03458D02*
X03957Y03469D01*
Y03458*
X03964Y03466*
X03969Y03481D02*
X03967Y03476D01*
Y03469*
X03971Y03466*
X03975*
X03978Y03469*
Y03473*
X03976Y03474*
X03973*
X03967Y03469*
X02495Y02518D02*
X02492Y02521D01*
X02487*
X02485Y02518*
Y02508*
X02487Y02506*
X02492*
X02495Y02508*
X02507Y02506D02*
Y02521D01*
X02500Y02513*
X02510*
X02515Y02521D02*
X02525D01*
Y02518*
X02515Y02508*
Y02506*
X03815Y03513D02*
X03811D01*
X03808Y03510*
Y03506*
X03815Y03499*
X03818*
X03822Y03503*
Y03506*
X03832Y03513D02*
X03822Y03524D01*
Y03513*
X03829Y03521*
Y03528D02*
Y03531D01*
X03832Y03535*
X03836*
X03838Y03533*
Y03529*
X03841*
X03843Y03528*
Y03524*
X03840Y03521*
X03836*
X03834Y03522*
Y03526*
X03831*
X03829Y03528*
X03834Y03526D02*
X03838Y03529D01*
X02541Y01602D02*
X02538Y01605D01*
X02533*
X02531Y01602*
Y01592*
X02533Y01590*
X02538*
X02541Y01592*
X02553Y01590D02*
Y01605D01*
X02546Y01597*
X02556*
X02561Y01592D02*
X02563Y01590D01*
X02568*
X02571Y01592*
Y01602*
X02568Y01605*
X02563*
X02561Y01602*
Y01600*
X02563Y01597*
X02571*
X03627Y03642D02*
X03623D01*
X03620Y03639*
Y03635*
X03627Y03628*
X03630*
X03634Y03632*
Y03635*
X03636Y03655D02*
X03629Y03648D01*
X03634Y03642*
X03636Y03648*
X03637Y03650*
X03641*
X03644Y03646*
Y03642*
X03641Y03639*
X03637*
X03641Y03657D02*
Y03660D01*
X03644Y03664*
X03648*
X03655Y03657*
Y03653*
X03652Y03650*
X03648*
X03641Y03657*
X02700Y01649D02*
X02697Y01652D01*
X02692*
X02690Y01649*
Y01639*
X02692Y01637*
X02697*
X02700Y01639*
X02715Y01652D02*
X02705D01*
Y01644*
X02710Y01647*
X02712*
X02715Y01644*
Y01639*
X02712Y01637*
X02707*
X02705Y01639*
X02720Y01637D02*
X02725D01*
X02722*
Y01652*
X02720Y01649*
X02557Y02360D02*
X02554Y02363D01*
X02549*
X02547Y02360*
Y02350*
X02549Y02348*
X02554*
X02557Y02350*
X02572Y02363D02*
X02562D01*
Y02355*
X02567Y02358*
X02569*
X02572Y02355*
Y02350*
X02569Y02348*
X02564*
X02562Y02350*
X02587Y02348D02*
X02577D01*
X02587Y02358*
Y02360*
X02584Y02363*
X02579*
X02577Y02360*
X04179Y02266D02*
X04176Y02269D01*
X04171*
X04169Y02266*
Y02256*
X04171Y02254*
X04176*
X04179Y02256*
X04194Y02269D02*
X04189Y02266D01*
X04184Y02261*
Y02256*
X04186Y02254*
X04191*
X04194Y02256*
Y02259*
X04191Y02261*
X04184*
X04209Y02269D02*
X04204Y02266D01*
X04199Y02261*
Y02256*
X04201Y02254*
X04206*
X04209Y02256*
Y02259*
X04206Y02261*
X04199*
X04260Y02270D02*
X04258Y02272D01*
X04253*
X04250Y02270*
Y02260*
X04253Y02257*
X04258*
X04260Y02260*
X04275Y02272D02*
X04270Y02270D01*
X04265Y02265*
Y02260*
X04268Y02257*
X04273*
X04275Y02260*
Y02262*
X04273Y02265*
X04265*
X04280Y02272D02*
X04290D01*
Y02270*
X04280Y02260*
Y02257*
X04339Y02263D02*
X04336Y02266D01*
X04331*
X04329Y02263*
Y02253*
X04331Y02251*
X04336*
X04339Y02253*
X04354Y02266D02*
X04349Y02263D01*
X04344Y02258*
Y02253*
X04346Y02251*
X04351*
X04354Y02253*
Y02256*
X04351Y02258*
X04344*
X04359Y02263D02*
X04361Y02266D01*
X04366*
X04369Y02263*
Y02261*
X04366Y02258*
X04369Y02256*
Y02253*
X04366Y02251*
X04361*
X04359Y02253*
Y02256*
X04361Y02258*
X04359Y02261*
Y02263*
X04361Y02258D02*
X04366D01*
X03982Y01780D02*
X03979Y01783D01*
X03974*
X03972Y01780*
Y01770*
X03974Y01768*
X03979*
X03982Y01770*
X03987Y01783D02*
X03997D01*
Y01780*
X03987Y01770*
Y01768*
X04002Y01780D02*
X04004Y01783D01*
X04009*
X04012Y01780*
Y01770*
X04009Y01768*
X04004*
X04002Y01770*
Y01780*
X03981Y01806D02*
X03978Y01809D01*
X03973*
X03971Y01806*
Y01796*
X03973Y01794*
X03978*
X03981Y01796*
X03986Y01809D02*
X03996D01*
Y01806*
X03986Y01796*
Y01794*
X04001D02*
X04006D01*
X04003*
Y01809*
X04001Y01806*
X03905Y01779D02*
X03902Y01782D01*
X03897*
X03895Y01779*
Y01769*
X03897Y01767*
X03902*
X03905Y01769*
X03910Y01782D02*
X03920D01*
Y01779*
X03910Y01769*
Y01767*
X03935D02*
X03925D01*
X03935Y01777*
Y01779*
X03932Y01782*
X03927*
X03925Y01779*
X03896Y03026D02*
X03893Y03029D01*
X03888*
X03886Y03026*
Y03016*
X03888Y03014*
X03893*
X03896Y03016*
X03901Y03029D02*
X03911D01*
Y03026*
X03901Y03016*
Y03014*
X03916Y03026D02*
X03918Y03029D01*
X03923*
X03926Y03026*
Y03024*
X03923Y03021*
X03921*
X03923*
X03926Y03019*
Y03016*
X03923Y03014*
X03918*
X03916Y03016*
X03896Y02998D02*
X03893Y03001D01*
X03888*
X03886Y02998*
Y02988*
X03888Y02986*
X03893*
X03896Y02988*
X03901Y03001D02*
X03911D01*
Y02998*
X03901Y02988*
Y02986*
X03923D02*
Y03001D01*
X03916Y02993*
X03926*
X04020Y03197D02*
X04018Y03200D01*
X04013*
X04010Y03197*
Y03187*
X04013Y03185*
X04018*
X04020Y03187*
X04025Y03200D02*
X04035D01*
Y03197*
X04025Y03187*
Y03185*
X04050Y03200D02*
X04040D01*
Y03192*
X04045Y03195*
X04048*
X04050Y03192*
Y03187*
X04048Y03185*
X04043*
X04040Y03187*
X03445Y02948D02*
X03442Y02951D01*
X03437*
X03435Y02948*
Y02938*
X03437Y02936*
X03442*
X03445Y02938*
X03450Y02951D02*
X03460D01*
Y02948*
X03450Y02938*
Y02936*
X03465Y02938D02*
X03467Y02936D01*
X03472*
X03475Y02938*
Y02948*
X03472Y02951*
X03467*
X03465Y02948*
Y02946*
X03467Y02943*
X03475*
X03362Y03380D02*
X03358D01*
X03355Y03377*
Y03373*
X03362Y03366*
X03365*
X03369Y03370*
Y03373*
X03365Y03384D02*
Y03388D01*
X03369Y03391*
X03372*
X03374Y03389*
Y03386*
X03378*
X03379Y03384*
Y03380*
X03376Y03377*
X03372*
X03371Y03379*
Y03382*
X03367*
X03365Y03384*
X03371Y03382D02*
X03374Y03386D01*
X03376Y03395D02*
Y03398D01*
X03379Y03402*
X03383*
X03390Y03395*
Y03391*
X03387Y03388*
X03383*
X03376Y03395*
X04142Y03230D02*
X04139Y03233D01*
X04134*
X04132Y03230*
Y03220*
X04134Y03218*
X04139*
X04142Y03220*
X04147Y03230D02*
X04149Y03233D01*
X04154*
X04157Y03230*
Y03228*
X04154Y03225*
X04157Y03223*
Y03220*
X04154Y03218*
X04149*
X04147Y03220*
Y03223*
X04149Y03225*
X04147Y03228*
Y03230*
X04149Y03225D02*
X04154D01*
X04162Y03230D02*
X04164Y03233D01*
X04169*
X04172Y03230*
Y03228*
X04169Y03225*
X04167*
X04169*
X04172Y03223*
Y03220*
X04169Y03218*
X04164*
X04162Y03220*
X04299Y03232D02*
X04296Y03235D01*
X04291*
X04289Y03232*
Y03222*
X04291Y03220*
X04296*
X04299Y03222*
X04304Y03232D02*
X04306Y03235D01*
X04311*
X04314Y03232*
Y03230*
X04311Y03227*
X04314Y03225*
Y03222*
X04311Y03220*
X04306*
X04304Y03222*
Y03225*
X04306Y03227*
X04304Y03230*
Y03232*
X04306Y03227D02*
X04311D01*
X04326Y03220D02*
Y03235D01*
X04319Y03227*
X04329*
X04198Y02827D02*
X04195Y02830D01*
X04190*
X04188Y02827*
Y02817*
X04190Y02815*
X04195*
X04198Y02817*
X04203Y02827D02*
X04205Y02830D01*
X04210*
X04213Y02827*
Y02825*
X04210Y02822*
X04213Y02820*
Y02817*
X04210Y02815*
X04205*
X04203Y02817*
Y02820*
X04205Y02822*
X04203Y02825*
Y02827*
X04205Y02822D02*
X04210D01*
X04228Y02830D02*
X04223Y02827D01*
X04218Y02822*
Y02817*
X04220Y02815*
X04225*
X04228Y02817*
Y02820*
X04225Y02822*
X04218*
X04409Y02916D02*
X04406Y02919D01*
X04401*
X04399Y02916*
Y02906*
X04401Y02904*
X04406*
X04409Y02906*
X04414Y02916D02*
X04416Y02919D01*
X04421*
X04424Y02916*
Y02914*
X04421Y02911*
X04424Y02909*
Y02906*
X04421Y02904*
X04416*
X04414Y02906*
Y02909*
X04416Y02911*
X04414Y02914*
Y02916*
X04416Y02911D02*
X04421D01*
X04429Y02916D02*
X04431Y02919D01*
X04436*
X04439Y02916*
Y02914*
X04436Y02911*
X04439Y02909*
Y02906*
X04436Y02904*
X04431*
X04429Y02906*
Y02909*
X04431Y02911*
X04429Y02914*
Y02916*
X04431Y02911D02*
X04436D01*
X04415Y02610D02*
X04412Y02613D01*
X04407*
X04405Y02610*
Y02600*
X04407Y02598*
X04412*
X04415Y02600*
X04420Y02610D02*
X04422Y02613D01*
X04427*
X04430Y02610*
Y02608*
X04427Y02605*
X04430Y02603*
Y02600*
X04427Y02598*
X04422*
X04420Y02600*
Y02603*
X04422Y02605*
X04420Y02608*
Y02610*
X04422Y02605D02*
X04427D01*
X04435Y02600D02*
X04437Y02598D01*
X04442*
X04445Y02600*
Y02610*
X04442Y02613*
X04437*
X04435Y02610*
Y02608*
X04437Y02605*
X04445*
X03090Y03848D02*
Y03863D01*
X03097*
X03100Y03860*
Y03855*
X03097Y03853*
X03090*
X03105Y03848D02*
X03110D01*
X03107*
Y03863*
X03105Y03860*
X04314Y02523D02*
Y02538D01*
X04321*
X04324Y02535*
Y02530*
X04321Y02528*
X04314*
X04336Y02523D02*
Y02538D01*
X04329Y02530*
X04339*
X02947Y03177D02*
Y03192D01*
X02954*
X02957Y03189*
Y03184*
X02954Y03182*
X02947*
X02962Y03179D02*
X02964Y03177D01*
X02969*
X02972Y03179*
Y03189*
X02969Y03192*
X02964*
X02962Y03189*
Y03187*
X02964Y03184*
X02972*
X03393Y01695D02*
Y01710D01*
X03400*
X03403Y01707*
Y01702*
X03400Y01700*
X03393*
X03398D02*
X03403Y01695D01*
X03408D02*
X03413D01*
X03410*
Y01710*
X03408Y01707*
X03393Y01645D02*
Y01660D01*
X03400*
X03403Y01657*
Y01652*
X03400Y01650*
X03393*
X03398D02*
X03403Y01645D01*
X03418D02*
X03408D01*
X03418Y01655*
Y01657*
X03415Y01660*
X03410*
X03408Y01657*
X03393Y01595D02*
Y01610D01*
X03400*
X03403Y01607*
Y01602*
X03400Y01600*
X03393*
X03398D02*
X03403Y01595D01*
X03408Y01607D02*
X03410Y01610D01*
X03415*
X03418Y01607*
Y01605*
X03415Y01602*
X03413*
X03415*
X03418Y01600*
Y01597*
X03415Y01595*
X03410*
X03408Y01597*
X03393Y01545D02*
Y01560D01*
X03400*
X03403Y01557*
Y01552*
X03400Y01550*
X03393*
X03398D02*
X03403Y01545D01*
X03415D02*
Y01560D01*
X03408Y01552*
X03418*
X03393Y01495D02*
Y01510D01*
X03400*
X03403Y01507*
Y01502*
X03400Y01500*
X03393*
X03398D02*
X03403Y01495D01*
X03418Y01510D02*
X03408D01*
Y01502*
X03413Y01505*
X03415*
X03418Y01502*
Y01497*
X03415Y01495*
X03410*
X03408Y01497*
X03407Y01440D02*
X03392D01*
Y01447*
X03394Y01450*
X03399*
X03402Y01447*
Y01440*
Y01445D02*
X03407Y01450D01*
X03392Y01465D02*
X03394Y01460D01*
X03399Y01455*
X03404*
X03407Y01457*
Y01462*
X03404Y01465*
X03402*
X03399Y01462*
Y01455*
X03319Y01359D02*
Y01374D01*
X03326*
X03329Y01371*
Y01366*
X03326Y01364*
X03319*
X03324D02*
X03329Y01359D01*
X03334Y01374D02*
X03344D01*
Y01371*
X03334Y01361*
Y01359*
X03486Y01390D02*
Y01405D01*
X03493*
X03496Y01402*
Y01397*
X03493Y01395*
X03486*
X03491D02*
X03496Y01390D01*
X03501Y01402D02*
X03503Y01405D01*
X03508*
X03511Y01402*
Y01400*
X03508Y01397*
X03511Y01395*
Y01392*
X03508Y01390*
X03503*
X03501Y01392*
Y01395*
X03503Y01397*
X03501Y01400*
Y01402*
X03503Y01397D02*
X03508D01*
X03036Y01390D02*
Y01405D01*
X03043*
X03046Y01402*
Y01397*
X03043Y01395*
X03036*
X03041D02*
X03046Y01390D01*
X03051Y01392D02*
X03053Y01390D01*
X03058*
X03061Y01392*
Y01402*
X03058Y01405*
X03053*
X03051Y01402*
Y01400*
X03053Y01397*
X03061*
X03204Y01361D02*
Y01376D01*
X03211*
X03214Y01373*
Y01368*
X03211Y01366*
X03204*
X03209D02*
X03214Y01361D01*
X03219D02*
X03224D01*
X03221*
Y01376*
X03219Y01373*
X03231D02*
X03234Y01376D01*
X03239*
X03241Y01373*
Y01363*
X03239Y01361*
X03234*
X03231Y01363*
Y01373*
X03101Y01437D02*
X03086D01*
Y01444*
X03088Y01447*
X03093*
X03096Y01444*
Y01437*
Y01442D02*
X03101Y01447D01*
Y01452D02*
Y01457D01*
Y01454*
X03086*
X03088Y01452*
X03101Y01464D02*
Y01469D01*
Y01467*
X03086*
X03088Y01464*
X03336Y03540D02*
X03325Y03550D01*
X03330Y03555*
X03334*
X03337Y03552*
Y03548*
X03332Y03543*
X03336Y03547D02*
X03343D01*
X03346Y03550D02*
X03350Y03554D01*
X03348Y03552*
X03337Y03563*
Y03559*
X03362Y03566D02*
X03355Y03559D01*
Y03573*
X03353Y03575*
X03350*
X03346Y03571*
Y03568*
X03074Y03539D02*
X03063Y03549D01*
X03068Y03554*
X03072*
X03075Y03551*
Y03547*
X03070Y03542*
X03074Y03546D02*
X03081D01*
X03084Y03549D02*
X03088Y03553D01*
X03086Y03551*
X03075Y03562*
Y03558*
X03084Y03567D02*
Y03570D01*
X03088Y03574*
X03091*
X03093Y03572*
Y03569*
X03091Y03567*
X03093Y03569*
X03097*
X03098Y03567*
Y03563*
X03095Y03560*
X03091*
X03067Y01492D02*
Y01507D01*
X03074*
X03077Y01504*
Y01499*
X03074Y01497*
X03067*
X03072D02*
X03077Y01492D01*
X03082D02*
X03087D01*
X03084*
Y01507*
X03082Y01504*
X03102Y01492D02*
Y01507D01*
X03094Y01499*
X03104*
X03066Y01542D02*
Y01557D01*
X03073*
X03076Y01554*
Y01549*
X03073Y01547*
X03066*
X03071D02*
X03076Y01542D01*
X03081D02*
X03086D01*
X03083*
Y01557*
X03081Y01554*
X03103Y01557D02*
X03093D01*
Y01549*
X03098Y01552*
X03101*
X03103Y01549*
Y01544*
X03101Y01542*
X03096*
X03093Y01544*
X03065Y01588D02*
Y01603D01*
X03072*
X03075Y01600*
Y01595*
X03072Y01593*
X03065*
X03070D02*
X03075Y01588D01*
X03080D02*
X03085D01*
X03082*
Y01603*
X03080Y01600*
X03102Y01603D02*
X03097Y01600D01*
X03092Y01595*
Y01590*
X03095Y01588*
X03100*
X03102Y01590*
Y01593*
X03100Y01595*
X03092*
X03067Y01645D02*
Y01660D01*
X03074*
X03077Y01657*
Y01652*
X03074Y01650*
X03067*
X03072D02*
X03077Y01645D01*
X03082D02*
X03087D01*
X03084*
Y01660*
X03082Y01657*
X03094Y01660D02*
X03104D01*
Y01657*
X03094Y01647*
Y01645*
X03066Y01694D02*
Y01709D01*
X03073*
X03076Y01706*
Y01701*
X03073Y01699*
X03066*
X03071D02*
X03076Y01694D01*
X03081D02*
X03086D01*
X03083*
Y01709*
X03081Y01706*
X03093D02*
X03096Y01709D01*
X03101*
X03103Y01706*
Y01704*
X03101Y01701*
X03103Y01699*
Y01696*
X03101Y01694*
X03096*
X03093Y01696*
Y01699*
X03096Y01701*
X03093Y01704*
Y01706*
X03096Y01701D02*
X03101D01*
X03393Y01745D02*
Y01760D01*
X03400*
X03403Y01757*
Y01752*
X03400Y01750*
X03393*
X03398D02*
X03403Y01745D01*
X03408D02*
X03413D01*
X03410*
Y01760*
X03408Y01757*
X03420Y01747D02*
X03423Y01745D01*
X03428*
X03430Y01747*
Y01757*
X03428Y01760*
X03423*
X03420Y01757*
Y01755*
X03423Y01752*
X03430*
X03137Y01738D02*
X03122D01*
Y01745*
X03124Y01748*
X03129*
X03132Y01745*
Y01738*
Y01743D02*
X03137Y01748D01*
Y01763D02*
Y01753D01*
X03127Y01763*
X03124*
X03122Y01760*
Y01755*
X03124Y01753*
Y01768D02*
X03122Y01770D01*
Y01775*
X03124Y01778*
X03134*
X03137Y01775*
Y01770*
X03134Y01768*
X03124*
X04139Y02022D02*
Y02037D01*
X04146*
X04149Y02034*
Y02029*
X04146Y02027*
X04139*
X04144D02*
X04149Y02022D01*
X04164D02*
X04154D01*
X04164Y02032*
Y02034*
X04161Y02037*
X04156*
X04154Y02034*
X04169Y02022D02*
X04174D01*
X04171*
Y02037*
X04169Y02034*
X04249Y01913D02*
Y01928D01*
X04256*
X04259Y01925*
Y01920*
X04256Y01918*
X04249*
X04254D02*
X04259Y01913D01*
X04274D02*
X04264D01*
X04274Y01923*
Y01925*
X04271Y01928*
X04266*
X04264Y01925*
X04279D02*
X04281Y01928D01*
X04286*
X04289Y01925*
Y01923*
X04286Y01920*
X04284*
X04286*
X04289Y01918*
Y01915*
X04286Y01913*
X04281*
X04279Y01915*
X03260Y03695D02*
Y03710D01*
X03267*
X03270Y03707*
Y03702*
X03267Y03700*
X03260*
X03265D02*
X03270Y03695D01*
X03285D02*
X03275D01*
X03285Y03705*
Y03707*
X03282Y03710*
X03277*
X03275Y03707*
X03297Y03695D02*
Y03710D01*
X03290Y03702*
X03300*
X03248Y02685D02*
Y02700D01*
X03255*
X03258Y02697*
Y02692*
X03255Y02690*
X03248*
X03253D02*
X03258Y02685D01*
X03273D02*
X03263D01*
X03273Y02695*
Y02697*
X03270Y02700*
X03265*
X03263Y02697*
X03288Y02700D02*
X03278D01*
Y02692*
X03283Y02695*
X03285*
X03288Y02692*
Y02687*
X03285Y02685*
X03280*
X03278Y02687*
X03193Y02685D02*
Y02700D01*
X03200*
X03203Y02697*
Y02692*
X03200Y02690*
X03193*
X03198D02*
X03203Y02685D01*
X03218D02*
X03208D01*
X03218Y02695*
Y02697*
X03215Y02700*
X03210*
X03208Y02697*
X03233Y02700D02*
X03228Y02697D01*
X03223Y02692*
Y02687*
X03225Y02685*
X03230*
X03233Y02687*
Y02690*
X03230Y02692*
X03223*
X04053Y03268D02*
X04042Y03278D01*
X04047Y03283*
X04051*
X04054Y03280*
Y03276*
X04049Y03271*
X04053Y03275D02*
X04060D01*
X04070Y03285D02*
X04063Y03278D01*
Y03292*
X04061Y03294*
X04058*
X04054Y03291*
Y03287*
X04065Y03298D02*
Y03301D01*
X04068Y03305*
X04072*
X04074Y03303*
Y03299*
X04077*
X04079Y03298*
Y03294*
X04076Y03291*
X04072*
X04070Y03292*
Y03296*
X04067*
X04065Y03298*
X04070Y03296D02*
X04074Y03299D01*
X02551Y02422D02*
Y02437D01*
X02558*
X02561Y02434*
Y02429*
X02558Y02427*
X02551*
X02556D02*
X02561Y02422D01*
X02576D02*
X02566D01*
X02576Y02432*
Y02434*
X02573Y02437*
X02568*
X02566Y02434*
X02581Y02424D02*
X02583Y02422D01*
X02588*
X02591Y02424*
Y02434*
X02588Y02437*
X02583*
X02581Y02434*
Y02432*
X02583Y02429*
X02591*
X03839Y03315D02*
X03828Y03325D01*
X03833Y03330*
X03837*
X03840Y03327*
Y03323*
X03835Y03318*
X03839Y03322D02*
X03846D01*
X03840Y03334D02*
Y03338D01*
X03844Y03341*
X03847*
X03849Y03339*
Y03336*
X03847Y03334*
X03849Y03336*
X03853*
X03854Y03334*
Y03330*
X03851Y03327*
X03847*
X03851Y03345D02*
Y03348D01*
X03854Y03352*
X03858*
X03865Y03345*
Y03341*
X03862Y03338*
X03858*
X03851Y03345*
X02848Y03790D02*
Y03805D01*
X02855*
X02858Y03802*
Y03797*
X02855Y03795*
X02848*
X02853D02*
X02858Y03790D01*
X02863Y03802D02*
X02865Y03805D01*
X02870*
X02873Y03802*
Y03800*
X02870Y03797*
X02868*
X02870*
X02873Y03795*
Y03792*
X02870Y03790*
X02865*
X02863Y03792*
X02878Y03790D02*
X02883D01*
X02880*
Y03805*
X02878Y03802*
X02711Y02167D02*
X02696D01*
Y02174*
X02698Y02177*
X02703*
X02706Y02174*
Y02167*
Y02172D02*
X02711Y02177D01*
X02698Y02182D02*
X02696Y02184D01*
Y02189*
X02698Y02192*
X02701*
X02703Y02189*
Y02187*
Y02189*
X02706Y02192*
X02708*
X02711Y02189*
Y02184*
X02708Y02182*
X02711Y02207D02*
Y02197D01*
X02701Y02207*
X02698*
X02696Y02204*
Y02199*
X02698Y02197*
X02714Y02101D02*
X02699D01*
Y02108*
X02701Y02111*
X02706*
X02709Y02108*
Y02101*
Y02106D02*
X02714Y02111D01*
X02701Y02116D02*
X02699Y02118D01*
Y02123*
X02701Y02126*
X02704*
X02706Y02123*
Y02121*
Y02123*
X02709Y02126*
X02711*
X02714Y02123*
Y02118*
X02711Y02116*
X02701Y02131D02*
X02699Y02133D01*
Y02138*
X02701Y02141*
X02704*
X02706Y02138*
Y02136*
Y02138*
X02709Y02141*
X02711*
X02714Y02138*
Y02133*
X02711Y02131*
X02714Y02044D02*
X02699D01*
Y02051*
X02701Y02054*
X02706*
X02709Y02051*
Y02044*
Y02049D02*
X02714Y02054D01*
X02701Y02059D02*
X02699Y02061D01*
Y02066*
X02701Y02069*
X02704*
X02706Y02066*
Y02064*
Y02066*
X02709Y02069*
X02711*
X02714Y02066*
Y02061*
X02711Y02059*
X02714Y02081D02*
X02699D01*
X02706Y02074*
Y02084*
X02667Y02470D02*
Y02485D01*
X02674*
X02677Y02482*
Y02477*
X02674Y02475*
X02667*
X02672D02*
X02677Y02470D01*
X02682Y02482D02*
X02684Y02485D01*
X02689*
X02692Y02482*
Y02480*
X02689Y02477*
X02687*
X02689*
X02692Y02475*
Y02472*
X02689Y02470*
X02684*
X02682Y02472*
X02707Y02485D02*
X02697D01*
Y02477*
X02702Y02480*
X02704*
X02707Y02477*
Y02472*
X02704Y02470*
X02699*
X02697Y02472*
X02716Y01974D02*
X02701D01*
Y01981*
X02703Y01984*
X02708*
X02711Y01981*
Y01974*
Y01979D02*
X02716Y01984D01*
X02703Y01989D02*
X02701Y01991D01*
Y01996*
X02703Y01999*
X02706*
X02708Y01996*
Y01994*
Y01996*
X02711Y01999*
X02713*
X02716Y01996*
Y01991*
X02713Y01989*
X02701Y02014D02*
X02703Y02009D01*
X02708Y02004*
X02713*
X02716Y02006*
Y02011*
X02713Y02014*
X02711*
X02708Y02011*
Y02004*
X02715Y01912D02*
X02700D01*
Y01919*
X02702Y01922*
X02707*
X02710Y01919*
Y01912*
Y01917D02*
X02715Y01922D01*
X02702Y01927D02*
X02700Y01929D01*
Y01934*
X02702Y01937*
X02705*
X02707Y01934*
Y01932*
Y01934*
X02710Y01937*
X02712*
X02715Y01934*
Y01929*
X02712Y01927*
X02700Y01942D02*
Y01952D01*
X02702*
X02712Y01942*
X02715*
X02713Y01845D02*
X02698D01*
Y01852*
X02700Y01855*
X02705*
X02708Y01852*
Y01845*
Y01850D02*
X02713Y01855D01*
X02700Y01860D02*
X02698Y01862D01*
Y01867*
X02700Y01870*
X02703*
X02705Y01867*
Y01865*
Y01867*
X02708Y01870*
X02710*
X02713Y01867*
Y01862*
X02710Y01860*
X02700Y01875D02*
X02698Y01877D01*
Y01882*
X02700Y01885*
X02703*
X02705Y01882*
X02708Y01885*
X02710*
X02713Y01882*
Y01877*
X02710Y01875*
X02708*
X02705Y01877*
X02703Y01875*
X02700*
X02705Y01877D02*
Y01882D01*
X03904Y03580D02*
X03893Y03590D01*
X03898Y03595*
X03902*
X03905Y03592*
Y03588*
X03900Y03583*
X03904Y03587D02*
X03911D01*
X03905Y03599D02*
Y03603D01*
X03909Y03606*
X03912*
X03914Y03604*
Y03601*
X03912Y03599*
X03914Y03601*
X03918*
X03919Y03599*
Y03595*
X03916Y03592*
X03912*
X03923Y03603D02*
X03927D01*
X03930Y03606*
Y03610*
X03923Y03617*
X03919*
X03916Y03613*
Y03610*
X03918Y03608*
X03921*
X03927Y03613*
X02714Y01774D02*
X02699D01*
Y01781*
X02701Y01784*
X02706*
X02709Y01781*
Y01774*
Y01779D02*
X02714Y01784D01*
Y01796D02*
X02699D01*
X02706Y01789*
Y01799*
X02701Y01804D02*
X02699Y01806D01*
Y01811*
X02701Y01814*
X02711*
X02714Y01811*
Y01806*
X02711Y01804*
X02701*
X02550Y02278D02*
Y02293D01*
X02557*
X02560Y02290*
Y02285*
X02557Y02283*
X02550*
X02555D02*
X02560Y02278D01*
X02572D02*
Y02293D01*
X02565Y02285*
X02575*
X02580Y02278D02*
X02585D01*
X02582*
Y02293*
X02580Y02290*
X03775Y03451D02*
X03764Y03461D01*
X03769Y03466*
X03773*
X03776Y03463*
Y03459*
X03771Y03454*
X03775Y03458D02*
X03782D01*
X03790Y03466D02*
X03780Y03477D01*
Y03466*
X03787Y03474*
X03803Y03479D02*
X03796Y03472D01*
Y03486*
X03794Y03488*
X03790*
X03787Y03484*
Y03481*
X02529Y01646D02*
Y01661D01*
X02536*
X02539Y01658*
Y01653*
X02536Y01651*
X02529*
X02534D02*
X02539Y01646D01*
X02551D02*
Y01661D01*
X02544Y01653*
X02554*
X02559Y01658D02*
X02561Y01661D01*
X02566*
X02569Y01658*
Y01656*
X02566Y01653*
X02564*
X02566*
X02569Y01651*
Y01648*
X02566Y01646*
X02561*
X02559Y01648*
X02621Y02349D02*
Y02364D01*
X02628*
X02631Y02361*
Y02356*
X02628Y02354*
X02621*
X02626D02*
X02631Y02349D01*
X02643D02*
Y02364D01*
X02636Y02356*
X02646*
X02658Y02349D02*
Y02364D01*
X02651Y02356*
X02661*
X04075Y01793D02*
Y01808D01*
X04082*
X04085Y01805*
Y01800*
X04082Y01798*
X04075*
X04080D02*
X04085Y01793D01*
X04100Y01808D02*
X04090D01*
Y01800*
X04095Y01803*
X04097*
X04100Y01800*
Y01795*
X04097Y01793*
X04092*
X04090Y01795*
X04105Y01808D02*
X04115D01*
Y01805*
X04105Y01795*
Y01793*
X04034Y01768D02*
Y01783D01*
X04041*
X04044Y01780*
Y01775*
X04041Y01773*
X04034*
X04039D02*
X04044Y01768D01*
X04059Y01783D02*
X04049D01*
Y01775*
X04054Y01778*
X04056*
X04059Y01775*
Y01770*
X04056Y01768*
X04051*
X04049Y01770*
X04064D02*
X04066Y01768D01*
X04071*
X04074Y01770*
Y01780*
X04071Y01783*
X04066*
X04064Y01780*
Y01778*
X04066Y01775*
X04074*
X03303Y02685D02*
Y02700D01*
X03310*
X03313Y02697*
Y02692*
X03310Y02690*
X03303*
X03308D02*
X03313Y02685D01*
X03328Y02700D02*
X03323Y02697D01*
X03318Y02692*
Y02687*
X03320Y02685*
X03325*
X03328Y02687*
Y02690*
X03325Y02692*
X03318*
X03333Y02697D02*
X03335Y02700D01*
X03340*
X03343Y02697*
Y02687*
X03340Y02685*
X03335*
X03333Y02687*
Y02697*
X03375Y03262D02*
X03364Y03272D01*
X03369Y03277*
X03373*
X03376Y03274*
Y03270*
X03371Y03265*
X03375Y03269D02*
X03382D01*
Y03290D02*
X03380Y03285D01*
Y03277*
X03383Y03274*
X03387*
X03390Y03277*
Y03281*
X03389Y03283*
X03385*
X03380Y03277*
X03396Y03283D02*
X03399Y03286D01*
X03398Y03285*
X03387Y03295*
Y03292*
X02307Y02475D02*
Y02462D01*
X02309Y02460*
X02314*
X02317Y02462*
Y02475*
X02322Y02472D02*
X02324Y02475D01*
X02329*
X02332Y02472*
Y02470*
X02329Y02467*
X02327*
X02329*
X02332Y02465*
Y02462*
X02329Y02460*
X02324*
X02322Y02462*
X02220Y02168D02*
Y02155D01*
X02222Y02153*
X02227*
X02230Y02155*
Y02168*
X02242Y02153D02*
Y02168D01*
X02235Y02160*
X02245*
X02305Y02341D02*
Y02328D01*
X02307Y02326*
X02312*
X02315Y02328*
Y02341*
X02330D02*
X02320D01*
Y02333*
X02325Y02336*
X02327*
X02330Y02333*
Y02328*
X02327Y02326*
X02322*
X02320Y02328*
X04007Y02300D02*
Y02287D01*
X04009Y02285*
X04014*
X04017Y02287*
Y02300*
X04022Y02297D02*
X04024Y02300D01*
X04029*
X04032Y02297*
Y02295*
X04029Y02292*
X04032Y02290*
Y02287*
X04029Y02285*
X04024*
X04022Y02287*
Y02290*
X04024Y02292*
X04022Y02295*
Y02297*
X04024Y02292D02*
X04029D01*
X03193Y03210D02*
Y03197D01*
X03195Y03195*
X03200*
X03203Y03197*
Y03210*
X03208Y03197D02*
X03210Y03195D01*
X03215*
X03218Y03197*
Y03207*
X03215Y03210*
X03210*
X03208Y03207*
Y03205*
X03210Y03202*
X03218*
X03451Y03524D02*
X03460Y03515D01*
X03463*
X03467Y03519*
Y03522*
X03458Y03531*
X03472Y03524D02*
X03476Y03528D01*
X03474Y03526*
X03463Y03537*
Y03533*
X03472Y03542D02*
Y03545D01*
X03476Y03549*
X03479*
X03486Y03542*
Y03538*
X03483Y03535*
X03479*
X03472Y03542*
X03453Y03648D02*
Y03645D01*
X03458Y03640*
X03463Y03645*
Y03648*
X03458Y03640D02*
Y03633D01*
X03478D02*
X03468D01*
X03478Y03643*
Y03645*
X03475Y03648*
X03470*
X03468Y03645*
X02962Y03849D02*
Y03834D01*
X02969*
X02972Y03836*
Y03846*
X02969Y03849*
X02962*
X02977Y03834D02*
X02982D01*
X02979*
Y03849*
X02977Y03846*
X03858Y02560D02*
Y02545D01*
X03868*
X03873D02*
X03878D01*
X03875*
Y02560*
X03873Y02557*
X02848Y02125D02*
Y02110D01*
X02858*
X02873D02*
X02863D01*
X02873Y02120*
Y02122*
X02870Y02125*
X02865*
X02863Y02122*
X04133Y02097D02*
Y02082D01*
X04143*
X04148Y02094D02*
X04150Y02097D01*
X04155*
X04158Y02094*
Y02092*
X04155Y02089*
X04158Y02087*
Y02084*
X04155Y02082*
X04150*
X04148Y02084*
Y02087*
X04150Y02089*
X04148Y02092*
Y02094*
X04150Y02089D02*
X04155D01*
X03867Y01811D02*
Y01796D01*
X03877*
X03882Y01798D02*
X03884Y01796D01*
X03889*
X03892Y01798*
Y01808*
X03889Y01811*
X03884*
X03882Y01808*
Y01806*
X03884Y01803*
X03892*
X03868Y03200D02*
Y03185D01*
X03878*
X03883D02*
X03888D01*
X03885*
Y03200*
X03883Y03197*
X03895D02*
X03898Y03200D01*
X03903*
X03905Y03197*
Y03187*
X03903Y03185*
X03898*
X03895Y03187*
Y03197*
X03324Y03460D02*
X03313Y03470D01*
X03318Y03475*
X03322*
X03325Y03472*
Y03468*
X03320Y03463*
X03324Y03467D02*
X03331D01*
X03341Y03477D02*
X03334Y03470D01*
Y03484*
X03332Y03486*
X03329*
X03325Y03483*
Y03479*
X03352Y03488D02*
X03345Y03481D01*
Y03495*
X03343Y03497*
X03339*
X03336Y03493*
Y03490*
X02055Y02932D02*
Y02947D01*
X02062*
X02065Y02944*
Y02939*
X02062Y02937*
X02055*
X02070Y02944D02*
X02072Y02947D01*
X02077*
X02080Y02944*
Y02942*
X02077Y02939*
X02080Y02937*
Y02934*
X02077Y02932*
X02072*
X02070Y02934*
Y02937*
X02072Y02939*
X02070Y02942*
Y02944*
X02072Y02939D02*
X02077D01*
M02*