%FSDAX24Y24*%
%MOIN*%
%SFA1B1*%

%IPPOS*%
%AMD36*
4,1,4,-0.041700,0.000000,0.000000,-0.041700,0.041700,0.000000,0.000000,0.041700,-0.041700,0.000000,0.0*
%
%AMD42*
4,1,4,0.000000,-0.041700,0.041700,0.000000,0.000000,0.041700,-0.041700,0.000000,0.000000,-0.041700,0.0*
%
%ADD27C,0.010000*%
%ADD29C,0.020000*%
%ADD35C,0.059100*%
G04~CAMADD=36~10~0.0~590.4~0.0~0.0~0.0~0.0~0~0.0~0.0~0.0~0.0~0~0.0~0.0~0.0~0.0~0~0.0~0.0~0.0~135.0~590.4~0.0*
%ADD36D36*%
%ADD37C,0.051200*%
%ADD38R,0.059100X0.059100*%
%ADD39R,0.059100X0.059100*%
%ADD40R,0.066900X0.066900*%
%ADD41C,0.066900*%
G04~CAMADD=42~10~0.0~590.4~0.0~0.0~0.0~0.0~0~0.0~0.0~0.0~0.0~0~0.0~0.0~0.0~0.0~0~0.0~0.0~0.0~225.0~590.4~0.0*
%ADD42D42*%
%ADD43C,0.030000*%
%ADD45C,0.040000*%
%ADD70C,0.005000*%
%ADD71C,0.080000*%
%ADD72C,0.160000*%
%ADD73C,0.320000*%
%ADD74C,0.640000*%
%LNde-020717_copper_signal_2-1*%
%LPD*%
G54D70*
X013771Y025919D02*
X014441Y025866D01*
X015108Y025778*
X015768Y025655*
X016422Y025498*
X017066Y025308*
X017700Y025083*
X018320Y024827*
X018927Y024537*
X019518Y024216*
X020091Y023866*
X020645Y023484*
X021178Y023075*
X021689Y022639*
X022176Y022176*
X022639Y021689*
X023075Y021178*
X023484Y020645*
X023866Y020091*
X024216Y019518*
X024537Y018927*
X024827Y018320*
X025083Y017700*
X025308Y017066*
X025498Y016422*
X025655Y015768*
X025778Y015108*
X025866Y014441*
X025919Y013771*
X025936Y013100*
X025919Y012428*
X025866Y011758*
X025778Y011091*
X025655Y010431*
X025498Y009777*
X025308Y009133*
X025083Y008499*
X024827Y007879*
X024537Y007272*
X024216Y006681*
X023866Y006108*
X023484Y005554*
X023075Y005021*
X022639Y004510*
X022176Y004023*
X021689Y003560*
X021178Y003124*
X020645Y002715*
X020091Y002333*
X019518Y001983*
X018927Y001662*
X018320Y001372*
X017700Y001116*
X017066Y000891*
X016422Y000701*
X015768Y000544*
X015108Y000421*
X014441Y000333*
X013771Y000280*
X013100Y000263*
X012428Y000280*
X011758Y000333*
X011091Y000421*
X010431Y000544*
X009777Y000701*
X009133Y000891*
X008499Y001116*
X007879Y001372*
X007272Y001662*
X006681Y001983*
X006108Y002333*
X005554Y002715*
X005021Y003124*
X004510Y003560*
X004023Y004023*
X003560Y004510*
X003124Y005021*
X002715Y005554*
X002333Y006108*
X001983Y006681*
X001662Y007272*
X001372Y007879*
X001116Y008499*
X000891Y009133*
X000701Y009777*
X000544Y010431*
X000421Y011091*
X000333Y011758*
X000280Y012428*
X000263Y013100*
X000280Y013771*
X000333Y014441*
X000421Y015108*
X000544Y015768*
X000701Y016422*
X000891Y017066*
X001116Y017700*
X001372Y018320*
X001662Y018927*
X001983Y019518*
X002333Y020091*
X002715Y020645*
X003124Y021178*
X003560Y021689*
X004023Y022176*
X004510Y022639*
X005021Y023075*
X005554Y023484*
X006108Y023866*
X006681Y024216*
X007272Y024537*
X007879Y024827*
X008499Y025083*
X009133Y025308*
X009777Y025498*
X010431Y025655*
X011091Y025778*
X011758Y025866*
X012428Y025919*
X013100Y025936*
X013771Y025919*
G54D27*
X013769Y025869D02*
X014436Y025816D01*
X015100Y025728*
X015758Y025606*
X016409Y025450*
X017050Y025260*
X017682Y025036*
X018300Y024781*
X018904Y024493*
X019493Y024173*
X020064Y023824*
X020615Y023444*
X021146Y023036*
X021655Y022602*
X022140Y022140*
X022602Y021655*
X023036Y021146*
X023444Y020615*
X023824Y020064*
X024173Y019493*
X024493Y018904*
X024781Y018300*
X025036Y017682*
X025260Y017050*
X025450Y016409*
X025606Y015758*
X025728Y015100*
X025816Y014436*
X025869Y013769*
X025886Y013099*
X025869Y012430*
X025816Y011763*
X025728Y011099*
X025606Y010441*
X025450Y009790*
X025260Y009149*
X025036Y008517*
X024781Y007899*
X024493Y007295*
X024173Y006706*
X023824Y006135*
X023444Y005584*
X023036Y005053*
X022602Y004544*
X022140Y004059*
X021655Y003597*
X021146Y003163*
X020615Y002755*
X020064Y002375*
X019493Y002026*
X018904Y001706*
X018300Y001418*
X017682Y001163*
X017050Y000939*
X016409Y000749*
X015758Y000593*
X015100Y000471*
X014436Y000383*
X013769Y000330*
X013099Y000313*
X012430Y000330*
X011763Y000383*
X011099Y000471*
X010441Y000593*
X009790Y000749*
X009149Y000939*
X008517Y001163*
X007899Y001418*
X007295Y001706*
X006706Y002026*
X006135Y002375*
X005584Y002755*
X005053Y003163*
X004544Y003597*
X004059Y004059*
X003597Y004544*
X003163Y005053*
X002755Y005584*
X002375Y006135*
X002026Y006706*
X001706Y007295*
X001418Y007899*
X001163Y008517*
X000939Y009149*
X000749Y009790*
X000593Y010441*
X000471Y011099*
X000383Y011763*
X000330Y012430*
X000313Y013099*
X000330Y013769*
X000383Y014436*
X000471Y015100*
X000593Y015758*
X000749Y016409*
X000939Y017050*
X001163Y017682*
X001418Y018300*
X001706Y018904*
X002026Y019493*
X002375Y020064*
X002755Y020615*
X003163Y021146*
X003597Y021655*
X004059Y022140*
X004544Y022602*
X005053Y023036*
X005584Y023444*
X006135Y023824*
X006706Y024173*
X007295Y024493*
X007899Y024781*
X008517Y025036*
X009149Y025260*
X009790Y025450*
X010441Y025606*
X011099Y025728*
X011763Y025816*
X012430Y025869*
X013099Y025886*
X013769Y025869*
G54D29*
X013763Y025769D02*
X014425Y025716D01*
X015084Y025630*
X015737Y025508*
X016383Y025353*
X017019Y025165*
X017646Y024943*
X018259Y024690*
X018859Y024404*
X019443Y024086*
X020009Y023740*
X020557Y023363*
X021083Y022958*
X021588Y022527*
X022070Y022070*
X022527Y021588*
X022958Y021083*
X023363Y020557*
X023740Y020009*
X024086Y019443*
X024404Y018859*
X024690Y018259*
X024943Y017646*
X025165Y017019*
X025353Y016383*
X025508Y015737*
X025630Y015084*
X025716Y014425*
X025769Y013763*
X025786Y013099*
X025769Y012436*
X025716Y011774*
X025630Y011115*
X025508Y010462*
X025353Y009816*
X025165Y009180*
X024943Y008553*
X024690Y007940*
X024404Y007340*
X024086Y006756*
X023740Y006190*
X023363Y005642*
X022958Y005116*
X022527Y004611*
X022070Y004129*
X021588Y003672*
X021083Y003241*
X020557Y002836*
X020009Y002459*
X019443Y002113*
X018859Y001795*
X018259Y001509*
X017646Y001256*
X017019Y001034*
X016383Y000846*
X015737Y000691*
X015084Y000569*
X014425Y000483*
X013763Y000430*
X013099Y000413*
X012436Y000430*
X011774Y000483*
X011115Y000569*
X010462Y000691*
X009816Y000846*
X009180Y001034*
X008553Y001256*
X007940Y001509*
X007340Y001795*
X006756Y002113*
X006190Y002459*
X005642Y002836*
X005116Y003241*
X004611Y003672*
X004129Y004129*
X003672Y004611*
X003241Y005116*
X002836Y005642*
X002459Y006190*
X002113Y006756*
X001795Y007340*
X001509Y007940*
X001256Y008553*
X001034Y009180*
X000846Y009816*
X000691Y010462*
X000569Y011115*
X000483Y011774*
X000430Y012436*
X000413Y013099*
X000430Y013763*
X000483Y014425*
X000569Y015084*
X000691Y015737*
X000846Y016383*
X001034Y017019*
X001256Y017646*
X001509Y018259*
X001795Y018859*
X002113Y019443*
X002459Y020009*
X002836Y020557*
X003241Y021083*
X003672Y021588*
X004129Y022070*
X004611Y022527*
X005116Y022958*
X005642Y023363*
X006190Y023740*
X006756Y024086*
X007340Y024404*
X007940Y024690*
X008553Y024943*
X009180Y025165*
X009816Y025353*
X010462Y025508*
X011115Y025630*
X011774Y025716*
X012436Y025769*
X013099Y025786*
X013763Y025769*
G54D45*
X013753Y025569D02*
X014404Y025517D01*
X015053Y025432*
X015695Y025313*
X016331Y025160*
X016958Y024975*
X017574Y024756*
X018178Y024507*
X018768Y024225*
X019343Y023913*
X019900Y023572*
X020439Y023201*
X020957Y022803*
X021454Y022379*
X021928Y021928*
X022379Y021454*
X022803Y020957*
X023201Y020439*
X023572Y019900*
X023913Y019343*
X024225Y018768*
X024507Y018178*
X024756Y017574*
X024975Y016958*
X025160Y016331*
X025313Y015695*
X025432Y015053*
X025517Y014404*
X025569Y013753*
X025586Y013099*
X025569Y012446*
X025517Y011795*
X025432Y011146*
X025313Y010504*
X025160Y009867*
X024975Y009241*
X024756Y008625*
X024507Y008021*
X024225Y007431*
X023913Y006856*
X023572Y006299*
X023201Y005760*
X022803Y005242*
X022379Y004745*
X021928Y004271*
X021454Y003820*
X020957Y003396*
X020439Y002998*
X019900Y002627*
X019343Y002286*
X018768Y001974*
X018178Y001692*
X017574Y001443*
X016958Y001224*
X016331Y001039*
X015695Y000886*
X015053Y000767*
X014404Y000682*
X013753Y000630*
X013099Y000613*
X012446Y000630*
X011795Y000682*
X011146Y000767*
X010504Y000886*
X009867Y001039*
X009241Y001224*
X008625Y001443*
X008021Y001692*
X007431Y001974*
X006856Y002286*
X006299Y002627*
X005760Y002998*
X005242Y003396*
X004745Y003820*
X004271Y004271*
X003820Y004745*
X003396Y005242*
X002998Y005760*
X002627Y006299*
X002286Y006856*
X001974Y007431*
X001692Y008021*
X001443Y008625*
X001224Y009241*
X001039Y009867*
X000886Y010504*
X000767Y011146*
X000682Y011795*
X000630Y012446*
X000613Y013099*
X000630Y013753*
X000682Y014404*
X000767Y015053*
X000886Y015695*
X001039Y016331*
X001224Y016958*
X001443Y017574*
X001692Y018178*
X001974Y018768*
X002286Y019343*
X002627Y019900*
X002998Y020439*
X003396Y020957*
X003820Y021454*
X004271Y021928*
X004745Y022379*
X005242Y022803*
X005760Y023201*
X006299Y023572*
X006856Y023913*
X007431Y024225*
X008021Y024507*
X008625Y024756*
X009241Y024975*
X009867Y025160*
X010504Y025313*
X011146Y025432*
X011795Y025517*
X012446Y025569*
X013099Y025586*
X013753Y025569*
G54D71*
X013732Y025169D02*
X014362Y025119D01*
X014990Y025037*
X015612Y024921*
X016228Y024774*
X016834Y024594*
X017431Y024383*
X018015Y024141*
X018586Y023869*
X019143Y023566*
X019682Y023236*
X020203Y022877*
X020706Y022492*
X021187Y022082*
X021645Y021645*
X022082Y021187*
X022492Y020706*
X022877Y020203*
X023236Y019682*
X023566Y019143*
X023869Y018586*
X024141Y018015*
X024383Y017431*
X024594Y016834*
X024774Y016228*
X024921Y015612*
X025037Y014990*
X025119Y014362*
X025169Y013732*
X025186Y013099*
X025169Y012467*
X025119Y011837*
X025037Y011209*
X024921Y010587*
X024774Y009971*
X024594Y009365*
X024383Y008768*
X024141Y008183*
X023869Y007613*
X023566Y007056*
X023236Y006517*
X022877Y005995*
X022492Y005493*
X022082Y005012*
X021645Y004554*
X021187Y004117*
X020706Y003707*
X020203Y003321*
X019682Y002963*
X019143Y002633*
X018586Y002330*
X018015Y002058*
X017431Y001816*
X016834Y001605*
X016228Y001425*
X015612Y001278*
X014990Y001162*
X014362Y001079*
X013732Y001030*
X013099Y001013*
X012467Y001030*
X011837Y001079*
X011209Y001162*
X010587Y001278*
X009971Y001425*
X009365Y001605*
X008768Y001816*
X008183Y002058*
X007613Y002330*
X007056Y002633*
X006517Y002963*
X005995Y003321*
X005493Y003707*
X005012Y004117*
X004554Y004554*
X004117Y005012*
X003707Y005493*
X003321Y005995*
X002963Y006517*
X002633Y007056*
X002330Y007613*
X002058Y008183*
X001816Y008768*
X001605Y009365*
X001425Y009971*
X001278Y010587*
X001162Y011209*
X001079Y011837*
X001030Y012467*
X001013Y013099*
X001030Y013732*
X001079Y014362*
X001162Y014990*
X001278Y015612*
X001425Y016228*
X001605Y016834*
X001816Y017431*
X002058Y018015*
X002330Y018586*
X002633Y019143*
X002963Y019682*
X003321Y020203*
X003707Y020706*
X004117Y021187*
X004554Y021645*
X005012Y022082*
X005493Y022492*
X005995Y022877*
X006517Y023236*
X007056Y023566*
X007613Y023869*
X008183Y024141*
X008768Y024383*
X009365Y024594*
X009971Y024774*
X010587Y024921*
X011209Y025037*
X011837Y025119*
X012467Y025169*
X013099Y025186*
X013732Y025169*
G54D72*
X013689Y024370D02*
X014279Y024324D01*
X014865Y024246*
X015446Y024138*
X016021Y024001*
X016587Y023833*
X017144Y023635*
X017690Y023410*
X018223Y023156*
X018743Y022873*
X019247Y022565*
X019733Y022230*
X020202Y021870*
X020651Y021487*
X021079Y021079*
X021487Y020651*
X021870Y020202*
X022230Y019733*
X022565Y019247*
X022873Y018743*
X023156Y018223*
X023410Y017690*
X023635Y017144*
X023833Y016587*
X024001Y016021*
X024138Y015446*
X024246Y014865*
X024324Y014279*
X024370Y013689*
X024386Y013099*
X024370Y012510*
X024324Y011920*
X024246Y011334*
X024138Y010753*
X024001Y010178*
X023833Y009612*
X023635Y009055*
X023410Y008509*
X023156Y007976*
X022873Y007456*
X022565Y006952*
X022230Y006466*
X021870Y005997*
X021487Y005548*
X021079Y005120*
X020651Y004712*
X020202Y004329*
X019733Y003969*
X019247Y003634*
X018743Y003326*
X018223Y003043*
X017690Y002789*
X017144Y002564*
X016587Y002366*
X016021Y002198*
X015446Y002061*
X014865Y001953*
X014279Y001875*
X013689Y001829*
X013099Y001813*
X012510Y001829*
X011920Y001875*
X011334Y001953*
X010753Y002061*
X010178Y002198*
X009612Y002366*
X009055Y002564*
X008509Y002789*
X007976Y003043*
X007456Y003326*
X006952Y003634*
X006466Y003969*
X005997Y004329*
X005548Y004712*
X005120Y005120*
X004712Y005548*
X004329Y005997*
X003969Y006466*
X003634Y006952*
X003326Y007456*
X003043Y007976*
X002789Y008509*
X002564Y009055*
X002366Y009612*
X002198Y010178*
X002061Y010753*
X001953Y011334*
X001875Y011920*
X001829Y012510*
X001813Y013099*
X001829Y013689*
X001875Y014279*
X001953Y014865*
X002061Y015446*
X002198Y016021*
X002366Y016587*
X002564Y017144*
X002789Y017690*
X003043Y018223*
X003326Y018743*
X003634Y019247*
X003969Y019733*
X004329Y020202*
X004712Y020651*
X005120Y021079*
X005548Y021487*
X005997Y021870*
X006466Y022230*
X006952Y022565*
X007456Y022873*
X007976Y023156*
X008509Y023410*
X009055Y023635*
X009612Y023833*
X010178Y024001*
X010753Y024138*
X011334Y024246*
X011920Y024324*
X012510Y024370*
X013099Y024386*
X013689Y024370*
G54D73*
X013605Y022772D02*
X014111Y022732D01*
X014614Y022666*
X015113Y022573*
X015607Y022454*
X016092Y022311*
X016571Y022141*
X017040Y021947*
X017496Y021730*
X017943Y021487*
X018375Y021223*
X018791Y020936*
X019195Y020626*
X019579Y020298*
X019948Y019948*
X020298Y019579*
X020626Y019195*
X020936Y018791*
X021223Y018375*
X021487Y017943*
X021730Y017496*
X021947Y017040*
X022141Y016571*
X022311Y016092*
X022454Y015607*
X022573Y015113*
X022666Y014614*
X022732Y014111*
X022772Y013605*
X022785Y013099*
X022772Y012594*
X022732Y012088*
X022666Y011585*
X022573Y011086*
X022454Y010592*
X022311Y010107*
X022141Y009628*
X021947Y009159*
X021730Y008703*
X021487Y008256*
X021223Y007824*
X020936Y007408*
X020626Y007004*
X020298Y006619*
X019948Y006251*
X019579Y005901*
X019195Y005573*
X018791Y005263*
X018375Y004976*
X017943Y004712*
X017496Y004469*
X017040Y004252*
X016571Y004058*
X016092Y003888*
X015607Y003745*
X015113Y003626*
X014614Y003533*
X014111Y003467*
X013605Y003427*
X013099Y003414*
X012594Y003427*
X012088Y003467*
X011585Y003533*
X011086Y003626*
X010592Y003745*
X010107Y003888*
X009628Y004058*
X009159Y004252*
X008703Y004469*
X008256Y004712*
X007824Y004976*
X007408Y005263*
X007004Y005573*
X006619Y005901*
X006251Y006251*
X005901Y006619*
X005573Y007004*
X005263Y007408*
X004976Y007824*
X004712Y008256*
X004469Y008703*
X004252Y009159*
X004058Y009628*
X003888Y010107*
X003745Y010592*
X003626Y011086*
X003533Y011585*
X003467Y012088*
X003427Y012594*
X003414Y013099*
X003427Y013605*
X003467Y014111*
X003533Y014614*
X003626Y015113*
X003745Y015607*
X003888Y016092*
X004058Y016571*
X004252Y017040*
X004469Y017496*
X004712Y017943*
X004976Y018375*
X005263Y018791*
X005573Y019195*
X005901Y019579*
X006251Y019948*
X006619Y020298*
X007004Y020626*
X007408Y020936*
X007824Y021223*
X008256Y021487*
X008703Y021730*
X009159Y021947*
X009628Y022141*
X010107Y022311*
X010592Y022454*
X011086Y022573*
X011585Y022666*
X012088Y022732*
X012594Y022772*
X013099Y022785*
X013605Y022772*
G54D74*
X013436Y019575D02*
X013776Y019548D01*
X014112Y019504*
X014447Y019442*
X014779Y019362*
X015102Y019267*
X015425Y019152*
X015739Y019022*
X016041Y018878*
X016343Y018714*
X016632Y018538*
X016908Y018347*
X017180Y018138*
X017437Y017920*
X017684Y017684*
X017920Y017437*
X018138Y017180*
X018347Y016908*
X018538Y016632*
X018714Y016343*
X018878Y016041*
X019022Y015739*
X019152Y015425*
X019267Y015102*
X019362Y014779*
X019442Y014447*
X019504Y014112*
X019548Y013776*
X019575Y013436*
X019584Y013099*
X019575Y012763*
X019548Y012423*
X019504Y012087*
X019442Y011752*
X019362Y011420*
X019267Y011097*
X019152Y010774*
X019022Y010460*
X018878Y010158*
X018714Y009856*
X018538Y009567*
X018347Y009290*
X018138Y009019*
X017920Y008762*
X017684Y008515*
X017437Y008279*
X017180Y008061*
X016908Y007852*
X016632Y007661*
X016343Y007484*
X016041Y007321*
X015739Y007177*
X015425Y007047*
X015102Y006932*
X014779Y006837*
X014447Y006757*
X014112Y006695*
X013776Y006651*
X013436Y006624*
X013099Y006615*
X012763Y006624*
X012423Y006651*
X012087Y006695*
X011752Y006757*
X011420Y006837*
X011097Y006932*
X010774Y007047*
X010460Y007177*
X010158Y007321*
X009856Y007484*
X009567Y007661*
X009290Y007852*
X009019Y008061*
X008762Y008279*
X008515Y008515*
X008279Y008762*
X008061Y009019*
X007852Y009290*
X007661Y009567*
X007484Y009856*
X007321Y010158*
X007177Y010460*
X007047Y010774*
X006932Y011097*
X006837Y011420*
X006757Y011752*
X006695Y012087*
X006651Y012423*
X006624Y012763*
X006615Y013099*
X006624Y013436*
X006651Y013776*
X006695Y014112*
X006757Y014447*
X006837Y014779*
X006932Y015102*
X007047Y015425*
X007177Y015739*
X007321Y016041*
X007484Y016343*
X007661Y016632*
X007852Y016908*
X008061Y017180*
X008279Y017437*
X008515Y017684*
X008762Y017920*
X009019Y018138*
X009290Y018347*
X009567Y018538*
X009856Y018714*
X010158Y018878*
X010460Y019022*
X010774Y019152*
X011097Y019267*
X011420Y019362*
X011752Y019442*
X012087Y019504*
X012423Y019548*
X012763Y019575*
X013099Y019584*
X013436Y019575*
X013267Y016379D02*
X013441Y016365D01*
X013611Y016342*
X013782Y016311*
X013951Y016270*
X014113Y016222*
X014279Y016163*
X014439Y016097*
X014587Y016027*
X014742Y015942*
X014889Y015853*
X015026Y015758*
X015166Y015651*
X015294Y015541*
X015421Y015421*
X015541Y015294*
X015651Y015166*
X015758Y015026*
X015853Y014889*
X015942Y014742*
X016027Y014587*
X016097Y014439*
X016163Y014279*
X016222Y014113*
X016270Y013951*
X016311Y013782*
X016342Y013611*
X016365Y013441*
X016379Y013267*
X016383Y013099*
X016379Y012932*
X016365Y012758*
X016342Y012588*
X016311Y012417*
X016270Y012247*
X016222Y012086*
X016163Y011920*
X016097Y011760*
X016027Y011612*
X015942Y011457*
X015853Y011310*
X015758Y011173*
X015651Y011033*
X015541Y010905*
X015421Y010778*
X015294Y010658*
X015166Y010548*
X015026Y010441*
X014889Y010346*
X014742Y010257*
X014587Y010172*
X014439Y010102*
X014279Y010036*
X014113Y009977*
X013951Y009929*
X013782Y009888*
X013611Y009856*
X013441Y009834*
X013267Y009820*
X013099Y009816*
X012932Y009820*
X012758Y009834*
X012588Y009856*
X012417Y009888*
X012247Y009929*
X012086Y009977*
X011920Y010036*
X011760Y010102*
X011612Y010172*
X011457Y010257*
X011310Y010346*
X011173Y010441*
X011033Y010548*
X010905Y010658*
X010778Y010778*
X010658Y010905*
X010548Y011033*
X010441Y011173*
X010346Y011310*
X010257Y011457*
X010172Y011612*
X010102Y011760*
X010036Y011920*
X009977Y012086*
X009929Y012247*
X009888Y012417*
X009856Y012588*
X009834Y012758*
X009820Y012932*
X009816Y013099*
X009820Y013267*
X009834Y013441*
X009856Y013611*
X009888Y013782*
X009929Y013951*
X009977Y014113*
X010036Y014279*
X010102Y014439*
X010172Y014587*
X010257Y014742*
X010346Y014889*
X010441Y015026*
X010548Y015166*
X010658Y015294*
X010778Y015421*
X010905Y015541*
X011033Y015651*
X011173Y015758*
X011310Y015853*
X011457Y015942*
X011612Y016027*
X011760Y016097*
X011920Y016163*
X012086Y016222*
X012247Y016270*
X012417Y016311*
X012588Y016342*
X012758Y016365*
X012932Y016379*
X013099Y016383*
X013267Y016379*
X013098Y013182D02*
X013105Y013181D01*
X013109Y013181*
X013116Y013180*
X013124Y013178*
X013123Y013178*
X013133Y013175*
X013138Y013172*
X013133Y013175*
X013142Y013170*
X013146Y013168*
X013143Y013170*
X013151Y013163*
X013151Y013163*
X013157Y013157*
X013163Y013151*
X013163Y013151*
X013170Y013143*
X013168Y013146*
X013170Y013142*
X013175Y013133*
X013172Y013138*
X013175Y013133*
X013178Y013123*
X013178Y013124*
X013180Y013116*
X013181Y013109*
X013181Y013105*
X013182Y013098*
X013182Y013099*
X013182Y013101*
X013181Y013094*
X013181Y013090*
X013180Y013083*
X013178Y013075*
X013178Y013075*
X013175Y013066*
X013172Y013061*
X013175Y013066*
X013170Y013057*
X013168Y013053*
X013170Y013056*
X013163Y013047*
X013163Y013048*
X013157Y013042*
X013151Y013036*
X013151Y013036*
X013143Y013029*
X013146Y013031*
X013142Y013029*
X013133Y013024*
X013138Y013027*
X013133Y013024*
X013123Y013021*
X013124Y013021*
X013116Y013019*
X013109Y013018*
X013105Y013018*
X013098Y013017*
X013099Y013017*
X013101Y013017*
X013094Y013018*
X013090Y013018*
X013083Y013019*
X013075Y013021*
X013075Y013021*
X013066Y013024*
X013061Y013027*
X013066Y013024*
X013057Y013029*
X013053Y013031*
X013056Y013029*
X013047Y013036*
X013048Y013036*
X013042Y013042*
X013036Y013048*
X013036Y013047*
X013029Y013056*
X013031Y013053*
X013029Y013057*
X013024Y013066*
X013027Y013061*
X013024Y013066*
X013021Y013075*
X013021Y013075*
X013019Y013083*
X013018Y013090*
X013018Y013094*
X013017Y013101*
X013017Y013099*
X013017Y013098*
X013018Y013105*
X013018Y013109*
X013019Y013116*
X013021Y013124*
X013021Y013123*
X013024Y013133*
X013027Y013138*
X013024Y013133*
X013029Y013142*
X013031Y013146*
X013029Y013143*
X013036Y013151*
X013036Y013151*
X013042Y013157*
X013048Y013163*
X013047Y013163*
X013056Y013170*
X013053Y013168*
X013057Y013170*
X013066Y013175*
X013061Y013172*
X013066Y013175*
X013075Y013178*
X013075Y013178*
X013083Y013180*
X013090Y013181*
X013094Y013181*
X013101Y013182*
X013099Y013182*
X013098Y013182*
%LNde-020717_copper_signal_2-2*%
%LPC*%
G36*
X012745Y025645D02*
X012400D01*
Y025300*
X012745*
Y025645*
G37*
G36*
X012300D02*
X011955D01*
Y025300*
X012300*
Y025645*
G37*
G36*
X013350Y025629D02*
X013252Y025616D01*
X013161Y025578*
X013082Y025518*
X013022Y025439*
X012984Y025348*
X012971Y025250*
X012984Y025152*
X013022Y025061*
X013082Y024982*
X013161Y024922*
X013252Y024884*
X013350Y024871*
X013448Y024884*
X013539Y024922*
X013618Y024982*
X013678Y025061*
X013716Y025152*
X013729Y025250*
X013716Y025348*
X013678Y025439*
X013618Y025518*
X013539Y025578*
X013448Y025616*
X013350Y025629*
G37*
G36*
X012745Y025200D02*
X011955D01*
Y024855*
X012227*
X012242Y024805*
X012184Y024766*
X012133Y024690*
X012115Y024600*
X012133Y024510*
X012184Y024434*
X012260Y024383*
X012350Y024365*
X012440Y024383*
X012516Y024434*
X012567Y024510*
X012585Y024600*
X012567Y024690*
X012516Y024766*
X012458Y024805*
X012473Y024855*
X012745*
Y025200*
G37*
G36*
X017760Y024395D02*
Y024200D01*
X017955*
X017945Y024248*
X017890Y024330*
X017808Y024385*
X017760Y024395*
G37*
G36*
X017660D02*
X017612Y024385D01*
X017530Y024330*
X017474Y024248*
X017465Y024200*
X017660*
Y024395*
G37*
G36*
X016110Y024589D02*
X016023Y024577D01*
X015941Y024543*
X015871Y024490*
X015817Y024419*
X015783Y024338*
X015771Y024250*
X015783Y024162*
X015817Y024081*
X015871Y024010*
X015941Y023957*
X016023Y023923*
X016110Y023911*
X016198Y023923*
X016280Y023957*
X016350Y024010*
X016404Y024081*
X016437Y024162*
X016449Y024250*
X016437Y024338*
X016404Y024419*
X016350Y024490*
X016280Y024543*
X016198Y024577*
X016110Y024589*
G37*
G36*
X014890D02*
X014802Y024577D01*
X014720Y024543*
X014650Y024490*
X014596Y024419*
X014563Y024338*
X014551Y024250*
X014563Y024162*
X014596Y024081*
X014650Y024010*
X014720Y023957*
X014802Y023923*
X014890Y023911*
X014977Y023923*
X015059Y023957*
X015129Y024010*
X015183Y024081*
X015217Y024162*
X015229Y024250*
X015217Y024338*
X015183Y024419*
X015129Y024490*
X015059Y024543*
X014977Y024577*
X014890Y024589*
G37*
G36*
X017955Y024100D02*
X017760D01*
Y023905*
X017808Y023914*
X017890Y023970*
X017945Y024052*
X017955Y024100*
G37*
G36*
X017660D02*
X017465D01*
X017474Y024052*
X017530Y023970*
X017612Y023914*
X017660Y023905*
Y024100*
G37*
G36*
X018650Y024265D02*
X018560Y024247D01*
X018484Y024196*
X018433Y024120*
X018415Y024030*
X018433Y023940*
X018484Y023864*
X018560Y023813*
X018650Y023795*
X018740Y023813*
X018816Y023864*
X018867Y023940*
X018885Y024030*
X018867Y024120*
X018816Y024196*
X018740Y024247*
X018650Y024265*
G37*
G36*
X011950Y023595D02*
Y023400D01*
X012145*
X012135Y023448*
X012080Y023530*
X011998Y023586*
X011950Y023595*
G37*
G36*
X011850D02*
X011802Y023586D01*
X011720Y023530*
X011665Y023448*
X011655Y023400*
X011850*
Y023595*
G37*
G36*
X008550Y023685D02*
X008460Y023667D01*
X008384Y023616*
X008333Y023540*
X008315Y023450*
X008333Y023360*
X008384Y023284*
X008460Y023233*
X008550Y023215*
X008640Y023233*
X008716Y023284*
X008767Y023360*
X008785Y023450*
X008767Y023540*
X008716Y023616*
X008640Y023667*
X008550Y023685*
G37*
G36*
X007850D02*
X007760Y023667D01*
X007684Y023616*
X007633Y023540*
X007615Y023450*
X007633Y023360*
X007684Y023284*
X007760Y023233*
X007850Y023215*
X007940Y023233*
X008016Y023284*
X008067Y023360*
X008085Y023450*
X008067Y023540*
X008016Y023616*
X007940Y023667*
X007850Y023685*
G37*
G36*
X007150D02*
X007060Y023667D01*
X006984Y023616*
X006933Y023540*
X006915Y023450*
X006933Y023360*
X006984Y023284*
X007060Y023233*
X007150Y023215*
X007240Y023233*
X007316Y023284*
X007367Y023360*
X007385Y023450*
X007367Y023540*
X007316Y023616*
X007240Y023667*
X007150Y023685*
G37*
G36*
X013300Y023635D02*
X013210Y023617D01*
X013134Y023566*
X013083Y023490*
X013065Y023400*
X013083Y023310*
X013134Y023234*
X013210Y023183*
X013300Y023165*
X013390Y023183*
X013466Y023234*
X013517Y023310*
X013535Y023400*
X013517Y023490*
X013466Y023566*
X013390Y023617*
X013300Y023635*
G37*
G36*
X011100Y023585D02*
X011010Y023567D01*
X010934Y023516*
X010883Y023440*
X010865Y023350*
X010883Y023260*
X010934Y023184*
X011010Y023133*
X011100Y023115*
X011190Y023133*
X011266Y023184*
X011317Y023260*
X011335Y023350*
X011317Y023440*
X011266Y023516*
X011190Y023567*
X011100Y023585*
G37*
G36*
X012145Y023300D02*
X011950D01*
Y023105*
X011998Y023115*
X012080Y023170*
X012135Y023252*
X012145Y023300*
G37*
G36*
X011850D02*
X011655D01*
X011665Y023252*
X011720Y023170*
X011802Y023115*
X011850Y023105*
Y023300*
G37*
G36*
X020393Y023306D02*
X020290Y023292D01*
X020194Y023252*
X020151Y023220*
X020393Y022978*
X020635Y023220*
X020592Y023252*
X020496Y023292*
X020393Y023306*
G37*
G36*
X015850Y023435D02*
X015760Y023417D01*
X015684Y023366*
X015633Y023290*
X015615Y023200*
X015633Y023110*
X015684Y023034*
X015760Y022983*
X015850Y022965*
X015922Y022980*
X015940Y022983*
X015976Y022947*
X015983Y022910*
X016034Y022834*
X016110Y022783*
X016200Y022765*
X016290Y022783*
X016366Y022834*
X016417Y022910*
X016435Y023000*
X016417Y023090*
X016366Y023166*
X016290Y023217*
X016200Y023235*
X016128Y023220*
X016110Y023217*
X016074Y023253*
X016067Y023290*
X016016Y023366*
X015940Y023417*
X015850Y023435*
G37*
G36*
X008550Y023135D02*
X008460Y023117D01*
X008384Y023066*
X008333Y022990*
X008315Y022900*
X008333Y022810*
X008384Y022734*
X008460Y022683*
X008550Y022665*
X008640Y022683*
X008716Y022734*
X008767Y022810*
X008785Y022900*
X008767Y022990*
X008716Y023066*
X008640Y023117*
X008550Y023135*
G37*
G36*
X020706Y023149D02*
X020464Y022907D01*
X020706Y022665*
X020738Y022708*
X020778Y022804*
X020792Y022907*
X020778Y023010*
X020738Y023106*
X020706Y023149*
G37*
G36*
X020080D02*
X020048Y023106D01*
X020008Y023010*
X019994Y022907*
X020008Y022804*
X020048Y022708*
X020080Y022665*
X020322Y022907*
X020080Y023149*
G37*
G36*
X010850Y022645D02*
X010802Y022636D01*
X010720Y022580*
X010710Y022566*
X010666*
X010590Y022617*
X010500Y022635*
X010410Y022617*
X010334Y022566*
X010283Y022490*
X010265Y022400*
X010283Y022310*
X010334Y022234*
X010410Y022183*
X010500Y022165*
X010590Y022183*
X010666Y022234*
X010710*
X010720Y022220*
X010802Y022164*
X010850Y022155*
Y022400*
Y022645*
G37*
G36*
X009280Y023025D02*
X009190Y023007D01*
X009114Y022956*
X009063Y022880*
X009045Y022790*
X009063Y022700*
X009114Y022624*
X009190Y022573*
X009280Y022555*
X009370Y022573*
X009446Y022624*
X009497Y022700*
X009515Y022790*
X009497Y022880*
X009446Y022956*
X009370Y023007*
X009280Y023025*
G37*
G36*
X020393Y022836D02*
X020151Y022594D01*
X020194Y022562*
X020290Y022522*
X020393Y022508*
X020496Y022522*
X020592Y022562*
X020635Y022594*
X020393Y022836*
G37*
G36*
X010950Y022645D02*
Y022450D01*
X011145*
X011135Y022498*
X011080Y022580*
X010998Y022636*
X010950Y022645*
G37*
G36*
X005857Y023000D02*
X005759Y022987D01*
X005668Y022949*
X005589Y022889*
X005529Y022811*
X005491Y022719*
X005479Y022621*
X005491Y022523*
X005529Y022432*
X005589Y022354*
X005668Y022294*
X005759Y022256*
X005857Y022243*
X005955Y022256*
X006046Y022294*
X006125Y022354*
X006185Y022432*
X006223Y022523*
X006236Y022621*
X006223Y022719*
X006185Y022811*
X006125Y022889*
X006046Y022949*
X005955Y022987*
X005857Y023000*
G37*
G36*
X011145Y022350D02*
X010950D01*
Y022155*
X010998Y022164*
X011080Y022220*
X011135Y022302*
X011145Y022350*
G37*
G36*
X019300Y022555D02*
X019210Y022537D01*
X019134Y022486*
X019083Y022410*
X019065Y022320*
X019083Y022230*
X019134Y022154*
X019210Y022103*
X019300Y022085*
X019390Y022103*
X019466Y022154*
X019517Y022230*
X019535Y022320*
X019517Y022410*
X019466Y022486*
X019390Y022537*
X019300Y022555*
G37*
G36*
X009900Y022285D02*
X009810Y022267D01*
X009734Y022216*
X009683Y022140*
X009665Y022050*
X009683Y021960*
X009734Y021884*
X009810Y021833*
X009900Y021815*
X009990Y021833*
X010066Y021884*
X010117Y021960*
X010135Y022050*
X010117Y022140*
X010066Y022216*
X009990Y022267*
X009900Y022285*
G37*
G36*
X009100D02*
X009010Y022267D01*
X008934Y022216*
X008883Y022140*
X008865Y022050*
X008883Y021960*
X008934Y021884*
X009010Y021833*
X009100Y021815*
X009190Y021833*
X009266Y021884*
X009317Y021960*
X009335Y022050*
X009317Y022140*
X009266Y022216*
X009190Y022267*
X009100Y022285*
G37*
G36*
X008550D02*
X008460Y022267D01*
X008384Y022216*
X008333Y022140*
X008315Y022050*
X008333Y021960*
X008384Y021884*
X008460Y021833*
X008550Y021815*
X008640Y021833*
X008716Y021884*
X008767Y021960*
X008785Y022050*
X008767Y022140*
X008716Y022216*
X008640Y022267*
X008550Y022285*
G37*
G36*
X021100Y022731D02*
X020569Y022200D01*
X021100Y021669*
X021631Y022200*
X021100Y022731*
G37*
G36*
X019860Y022105D02*
X019770Y022087D01*
X019694Y022036*
X019643Y021960*
X019625Y021870*
X019643Y021780*
X019694Y021704*
X019770Y021653*
X019860Y021635*
X019950Y021653*
X020026Y021704*
X020077Y021780*
X020095Y021870*
X020077Y021960*
X020026Y022036*
X019950Y022087*
X019860Y022105*
G37*
G36*
X005150Y022293D02*
X005052Y022280D01*
X004961Y022242*
X004882Y022182*
X004822Y022103*
X004784Y022012*
X004771Y021914*
X004784Y021816*
X004822Y021725*
X004882Y021647*
X004961Y021586*
X005052Y021549*
X005150Y021536*
X005248Y021549*
X005339Y021586*
X005418Y021647*
X005478Y021725*
X005516Y021816*
X005529Y021914*
X005516Y022012*
X005478Y022103*
X005418Y022182*
X005339Y022242*
X005248Y022280*
X005150Y022293*
G37*
G36*
X006564D02*
X006466Y022280D01*
X006375Y022242*
X006297Y022182*
X006236Y022103*
X006199Y022012*
X006186Y021914*
X006199Y021816*
X006236Y021725*
X006297Y021647*
X006375Y021586*
X006466Y021549*
X006564Y021536*
X006662Y021549*
X006753Y021586*
X006832Y021647*
X006892Y021725*
X006930Y021816*
X006943Y021914*
X006930Y022012*
X006892Y022103*
X006832Y022182*
X006753Y022242*
X006662Y022280*
X006564Y022293*
G37*
G36*
X016700Y021385D02*
X016610Y021367D01*
X016534Y021316*
X016510Y021280*
X016450*
X016446Y021286*
X016370Y021337*
X016280Y021355*
X016190Y021337*
X016114Y021286*
X016063Y021210*
X016045Y021120*
X016063Y021030*
X016114Y020954*
X016190Y020903*
X016280Y020885*
X016365Y020902*
X016378Y020892*
X016399Y020862*
X016383Y020840*
X016365Y020750*
X016383Y020660*
X016434Y020584*
X016510Y020533*
X016600Y020515*
X016690Y020533*
X016766Y020584*
X016807Y020646*
X016817Y020660*
X016868Y020662*
X016910Y020633*
X017000Y020615*
X017042Y020624*
X017065Y020600*
X017083Y020510*
X017134Y020434*
X017210Y020383*
X017300Y020365*
X017390Y020383*
X017466Y020434*
X017517Y020510*
X017535Y020600*
X017517Y020690*
X017466Y020766*
X017390Y020817*
X017300Y020835*
X017258Y020826*
X017235Y020850*
X017217Y020940*
X017166Y021016*
X017090Y021067*
X017000Y021085*
X016962Y021077*
X016927Y021112*
X016935Y021150*
X016917Y021240*
X016866Y021316*
X016790Y021367*
X016700Y021385*
G37*
G36*
X012900Y022635D02*
X012810Y022617D01*
X012734Y022566*
X012683Y022490*
X012665Y022400*
X012683Y022310*
X012734Y022234*
X012778Y022205*
Y022145*
X012734Y022116*
X012683Y022040*
X012665Y021950*
X012683Y021860*
X012734Y021784*
X012778Y021755*
Y021695*
X012734Y021666*
X012683Y021590*
X012665Y021500*
X012683Y021410*
X012734Y021334*
X012810Y021283*
X012900Y021265*
X012990Y021283*
X013066Y021334*
X013117Y021410*
X013135Y021500*
X013117Y021590*
X013066Y021666*
X013022Y021695*
Y021755*
X013066Y021784*
X013117Y021860*
X013135Y021950*
X013117Y022040*
X013066Y022116*
X013022Y022145*
Y022205*
X013066Y022234*
X013117Y022310*
X013135Y022400*
X013117Y022490*
X013066Y022566*
X012990Y022617*
X012900Y022635*
G37*
G36*
X012100Y021735D02*
X012010Y021717D01*
X011934Y021666*
X011883Y021590*
X011865Y021500*
X011883Y021410*
X011934Y021334*
X012010Y021283*
X012100Y021265*
X012190Y021283*
X012266Y021334*
X012317Y021410*
X012335Y021500*
X012317Y021590*
X012266Y021666*
X012190Y021717*
X012100Y021735*
G37*
G36*
X014230Y021545D02*
X014140Y021527D01*
X014064Y021476*
X014013Y021400*
X013995Y021310*
X014013Y021224*
X014003Y021208*
X013980Y021181*
X013910Y021195*
X013820Y021177*
X013744Y021126*
X013693Y021050*
X013675Y020960*
X013693Y020870*
X013744Y020794*
X013820Y020743*
X013910Y020725*
X014000Y020743*
X014076Y020794*
X014127Y020870*
X014145Y020960*
X014127Y021046*
X014137Y021062*
X014160Y021089*
X014230Y021075*
X014320Y021093*
X014396Y021144*
X014447Y021220*
X014465Y021310*
X014447Y021400*
X014396Y021476*
X014320Y021527*
X014230Y021545*
G37*
G36*
X009550Y021635D02*
X009460Y021617D01*
X009384Y021566*
X009333Y021490*
X009315Y021400*
X009333Y021310*
X009384Y021234*
X009460Y021183*
X009550Y021165*
X009640Y021183*
X009716Y021234*
X009767Y021310*
X009785Y021400*
X009767Y021490*
X009716Y021566*
X009640Y021617*
X009550Y021635*
G37*
G36*
X008650Y021585D02*
X008560Y021567D01*
X008484Y021516*
X008433Y021440*
X008415Y021350*
X008433Y021260*
X008484Y021184*
X008560Y021133*
X008650Y021115*
X008740Y021133*
X008816Y021184*
X008867Y021260*
X008885Y021350*
X008867Y021440*
X008816Y021516*
X008740Y021567*
X008650Y021585*
G37*
G36*
X005857Y021586D02*
X005759Y021573D01*
X005668Y021535*
X005589Y021475*
X005529Y021396*
X005491Y021305*
X005479Y021207*
X005491Y021109*
X005529Y021018*
X005589Y020939*
X005668Y020879*
X005759Y020841*
X005857Y020829*
X005955Y020841*
X006046Y020879*
X006125Y020939*
X006185Y021018*
X006223Y021109*
X006236Y021207*
X006223Y021305*
X006185Y021396*
X006125Y021475*
X006046Y021535*
X005955Y021573*
X005857Y021586*
G37*
G36*
X004443D02*
X004345Y021573D01*
X004254Y021535*
X004175Y021475*
X004115Y021396*
X004077Y021305*
X004064Y021207*
X004077Y021109*
X004115Y021018*
X004175Y020939*
X004254Y020879*
X004345Y020841*
X004443Y020829*
X004541Y020841*
X004632Y020879*
X004711Y020939*
X004771Y021018*
X004809Y021109*
X004821Y021207*
X004809Y021305*
X004771Y021396*
X004711Y021475*
X004632Y021535*
X004541Y021573*
X004443Y021586*
G37*
G36*
X011800Y020985D02*
X011710Y020967D01*
X011634Y020916*
X011583Y020840*
X011571Y020775*
X011520*
X011517Y020790*
X011466Y020866*
X011390Y020917*
X011300Y020935*
X011210Y020917*
X011134Y020866*
X011083Y020790*
X011065Y020700*
X011083Y020610*
X011134Y020534*
X011210Y020483*
X011225Y020480*
Y020429*
X011160Y020417*
X011084Y020366*
X011080Y020360*
X011024Y020365*
X010980Y020430*
X010898Y020485*
X010850Y020495*
Y020250*
Y020005*
X010898Y020015*
X010980Y020070*
X010991Y020086*
X011050Y020085*
X011084Y020034*
X011160Y019983*
X011250Y019965*
X011340Y019983*
X011416Y020034*
X011467Y020110*
X011485Y020200*
X011467Y020290*
X011416Y020366*
X011340Y020417*
X011325Y020420*
Y020471*
X011390Y020483*
X011466Y020534*
X011517Y020610*
X011529Y020675*
X011580*
X011583Y020660*
X011634Y020584*
X011710Y020533*
X011800Y020515*
X011870Y020529*
X011909Y020504*
X011917Y020492*
X011933Y020410*
X011984Y020334*
X012060Y020283*
X012150Y020265*
X012240Y020283*
X012316Y020334*
X012367Y020410*
X012375Y020450*
X012425*
X012433Y020410*
X012484Y020334*
X012560Y020283*
X012650Y020265*
X012740Y020283*
X012816Y020334*
X012867Y020410*
X012885Y020500*
X012867Y020590*
X012816Y020666*
X012740Y020717*
X012650Y020735*
X012560Y020717*
X012484Y020666*
X012433Y020590*
X012425Y020550*
X012375*
X012367Y020590*
X012316Y020666*
X012240Y020717*
X012150Y020735*
X012080Y020721*
X012041Y020746*
X012033Y020758*
X012017Y020840*
X011966Y020916*
X011890Y020967*
X011800Y020985*
G37*
G36*
X022000Y021831D02*
X021469Y021300D01*
X022000Y020769*
X022531Y021300*
X022000Y021831*
G37*
G36*
X022707Y020992D02*
X022604Y020978D01*
X022508Y020938*
X022465Y020906*
X022707Y020664*
X022949Y020906*
X022906Y020938*
X022810Y020978*
X022707Y020992*
G37*
G36*
X023020Y020835D02*
X022778Y020593D01*
X023020Y020351*
X023052Y020394*
X023092Y020490*
X023106Y020593*
X023092Y020696*
X023052Y020792*
X023020Y020835*
G37*
G36*
X022394D02*
X022362Y020792D01*
X022322Y020696*
X022308Y020593*
X022322Y020490*
X022362Y020394*
X022394Y020351*
X022636Y020593*
X022394Y020835*
G37*
G36*
X014450Y020495D02*
Y020300D01*
X014645*
X014635Y020348*
X014580Y020430*
X014498Y020485*
X014450Y020495*
G37*
G36*
X014350D02*
X014302Y020485D01*
X014220Y020430*
X014165Y020348*
X014155Y020300*
X014350*
Y020495*
G37*
G36*
X010750D02*
X010702Y020485D01*
X010620Y020430*
X010565Y020348*
X010555Y020300*
X010750*
Y020495*
G37*
G36*
X013480Y020675D02*
X013390Y020657D01*
X013314Y020606*
X013263Y020530*
X013245Y020440*
X013263Y020350*
X013314Y020274*
X013390Y020223*
X013480Y020205*
X013570Y020223*
X013646Y020274*
X013697Y020350*
X013715Y020440*
X013697Y020530*
X013646Y020606*
X013570Y020657*
X013480Y020675*
G37*
G36*
X022707Y020522D02*
X022465Y020280D01*
X022508Y020248*
X022604Y020208*
X022707Y020194*
X022810Y020208*
X022906Y020248*
X022949Y020280*
X022707Y020522*
G37*
G36*
X003736Y020879D02*
X003638Y020866D01*
X003547Y020828*
X003468Y020768*
X003408Y020689*
X003370Y020598*
X003357Y020500*
X003370Y020402*
X003408Y020311*
X003468Y020232*
X003547Y020172*
X003638Y020134*
X003736Y020121*
X003834Y020134*
X003925Y020172*
X004003Y020232*
X004064Y020311*
X004101Y020402*
X004114Y020500*
X004101Y020598*
X004064Y020689*
X004003Y020768*
X003925Y020828*
X003834Y020866*
X003736Y020879*
G37*
G36*
X005150D02*
X005052Y020866D01*
X004961Y020828*
X004882Y020768*
X004822Y020689*
X004784Y020598*
X004771Y020500*
X004784Y020402*
X004822Y020311*
X004882Y020232*
X004961Y020172*
X005052Y020134*
X005150Y020121*
X005248Y020134*
X005339Y020172*
X005418Y020232*
X005478Y020311*
X005516Y020402*
X005529Y020500*
X005516Y020598*
X005478Y020689*
X005418Y020768*
X005339Y020828*
X005248Y020866*
X005150Y020879*
G37*
G36*
X008650Y020335D02*
X008560Y020317D01*
X008484Y020266*
X008433Y020190*
X008415Y020100*
X008423Y020062*
X008388Y020027*
X008350Y020035*
X008260Y020017*
X008184Y019966*
X008133Y019890*
X008115Y019800*
X008133Y019710*
X008184Y019634*
X008260Y019583*
X008350Y019565*
X008440Y019583*
X008516Y019634*
X008567Y019710*
X008585Y019800*
X008577Y019838*
X008612Y019873*
X008650Y019865*
X008740Y019883*
X008816Y019934*
X008867Y020010*
X008885Y020100*
X008867Y020190*
X008816Y020266*
X008740Y020317*
X008650Y020335*
G37*
G36*
X014645Y020200D02*
X014450D01*
Y020005*
X014498Y020015*
X014580Y020070*
X014635Y020152*
X014645Y020200*
G37*
G36*
X014350D02*
X014155D01*
X014165Y020152*
X014220Y020070*
X014302Y020015*
X014350Y020005*
Y020200*
G37*
G36*
X010750D02*
X010555D01*
X010565Y020152*
X010620Y020070*
X010702Y020015*
X010750Y020005*
Y020200*
G37*
G36*
X003029Y020352D02*
X002785Y020108D01*
X003029Y019864*
X003273Y020108*
X003029Y020352*
G37*
G36*
X017060Y020245D02*
X016970Y020227D01*
X016894Y020176*
X016843Y020100*
X016825Y020010*
X016843Y019920*
X016894Y019844*
X016970Y019793*
X017060Y019775*
X017150Y019793*
X017226Y019844*
X017277Y019920*
X017295Y020010*
X017277Y020100*
X017226Y020176*
X017150Y020227*
X017060Y020245*
G37*
G36*
X006750Y020035D02*
X006660Y020017D01*
X006584Y019966*
X006533Y019890*
X006515Y019800*
X006533Y019710*
X006584Y019634*
X006660Y019583*
X006750Y019565*
X006840Y019583*
X006916Y019634*
X006967Y019710*
X006985Y019800*
X006967Y019890*
X006916Y019966*
X006840Y020017*
X006750Y020035*
G37*
G36*
X018400Y019635D02*
X018310Y019617D01*
X018234Y019566*
X018225Y019552*
X018175*
X018166Y019566*
X018090Y019617*
X018000Y019635*
X017910Y019617*
X017834Y019566*
X017783Y019490*
X017765Y019400*
X017783Y019310*
X017834Y019234*
X017910Y019183*
X018000Y019165*
X018090Y019183*
X018166Y019234*
X018175Y019248*
X018225*
X018234Y019234*
X018310Y019183*
X018386Y019168*
X018420Y019122*
X018415Y019100*
X018429Y019030*
X018404Y018991*
X018392Y018983*
X018310Y018967*
X018234Y018916*
X018183Y018840*
X018165Y018750*
X018183Y018660*
X018234Y018584*
X018310Y018533*
X018392Y018517*
X018404Y018509*
X018429Y018470*
X018415Y018400*
X018433Y018310*
X018484Y018234*
X018560Y018183*
X018650Y018165*
X018740Y018183*
X018816Y018234*
X018867Y018310*
X018885Y018400*
X018867Y018490*
X018816Y018566*
X018740Y018617*
X018658Y018633*
X018646Y018641*
X018621Y018680*
X018635Y018750*
X018621Y018820*
X018646Y018859*
X018658Y018867*
X018740Y018883*
X018816Y018934*
X018867Y019010*
X018885Y019100*
X018867Y019190*
X018816Y019266*
X018740Y019317*
X018664Y019332*
X018630Y019378*
X018635Y019400*
X018617Y019490*
X018566Y019566*
X018490Y019617*
X018400Y019635*
G37*
G36*
X002714Y020037D02*
X002470Y019793D01*
X002714Y019549*
X002958Y019793*
X002714Y020037*
G37*
G36*
X003344D02*
X003099Y019793D01*
X003344Y019549*
X003588Y019793*
X003344Y020037*
G37*
G36*
X004443Y020171D02*
X004345Y020159D01*
X004254Y020121*
X004175Y020061*
X004115Y019982*
X004077Y019891*
X004064Y019793*
X004077Y019695*
X004115Y019604*
X004175Y019525*
X004254Y019465*
X004345Y019427*
X004443Y019414*
X004541Y019427*
X004632Y019465*
X004711Y019525*
X004771Y019604*
X004809Y019695*
X004821Y019793*
X004809Y019891*
X004771Y019982*
X004711Y020061*
X004632Y020121*
X004541Y020159*
X004443Y020171*
G37*
G36*
X014840Y020065D02*
X014750Y020047D01*
X014674Y019996*
X014623Y019920*
X014605Y019830*
X014623Y019740*
X014674Y019664*
X014750Y019613*
X014840Y019595*
X014930Y019613*
X015006Y019664*
X015042Y019633*
X015033Y019620*
X015015Y019530*
X015033Y019440*
X015084Y019364*
X015160Y019313*
X015250Y019295*
X015340Y019313*
X015416Y019364*
X015467Y019440*
X015485Y019530*
X015467Y019620*
X015416Y019696*
X015340Y019747*
X015250Y019765*
X015160Y019747*
X015084Y019696*
X015048Y019727*
X015057Y019740*
X015075Y019830*
X015057Y019920*
X015006Y019996*
X014930Y020047*
X014840Y020065*
G37*
G36*
X003029Y019722D02*
X002785Y019478D01*
X003029Y019234*
X003273Y019478*
X003029Y019722*
G37*
G36*
X020720Y019645D02*
X020630Y019627D01*
X020554Y019576*
X020503Y019500*
X020485Y019410*
X020503Y019320*
X020554Y019244*
X020630Y019193*
X020720Y019175*
X020810Y019193*
X020886Y019244*
X020937Y019320*
X020955Y019410*
X020937Y019500*
X020886Y019576*
X020810Y019627*
X020720Y019645*
G37*
G36*
X006160Y019475D02*
X006070Y019457D01*
X005994Y019406*
X005943Y019330*
X005925Y019240*
X005938Y019178*
X005917Y019159*
X005893Y019145*
X005810Y019161*
X005720Y019143*
X005644Y019092*
X005593Y019016*
X005575Y018927*
X005584Y018884*
X005541Y018842*
X005510Y018848*
X005420Y018830*
X005344Y018779*
X005293Y018703*
X005275Y018613*
X005284Y018569*
X005242Y018526*
X005200Y018535*
X005110Y018517*
X005034Y018466*
X004983Y018390*
X004965Y018300*
X004983Y018210*
X005034Y018134*
X005110Y018083*
X005200Y018065*
X005290Y018083*
X005366Y018134*
X005417Y018210*
X005435Y018300*
X005426Y018345*
X005468Y018387*
X005510Y018379*
X005600Y018397*
X005676Y018448*
X005727Y018524*
X005745Y018613*
X005736Y018656*
X005779Y018698*
X005810Y018692*
X005900Y018710*
X005976Y018761*
X006027Y018837*
X006045Y018927*
X006032Y018989*
X006053Y019007*
X006076Y019022*
X006160Y019005*
X006250Y019023*
X006326Y019074*
X006377Y019150*
X006395Y019240*
X006377Y019330*
X006326Y019406*
X006250Y019457*
X006160Y019475*
G37*
G36*
X007840D02*
X007750Y019457D01*
X007674Y019406*
X007623Y019330*
X007605Y019240*
X007619Y019170*
Y019168*
X007582Y019131*
X007580*
X007510Y019145*
X007420Y019127*
X007344Y019076*
X007293Y019000*
X007275Y018910*
X007289Y018840*
Y018838*
X007252Y018801*
X007250*
X007180Y018815*
X007090Y018797*
X007014Y018746*
X006963Y018670*
X006945Y018580*
X006959Y018510*
Y018508*
X006922Y018471*
X006920*
X006850Y018485*
X006760Y018467*
X006684Y018416*
X006633Y018340*
X006615Y018250*
X006633Y018160*
X006684Y018084*
X006760Y018033*
X006825Y018021*
Y017970*
X006810Y017967*
X006734Y017916*
X006683Y017840*
X006665Y017750*
X006672Y017715*
X006660Y017700*
X006629Y017679*
X006550Y017695*
X006460Y017677*
X006384Y017626*
X006333Y017550*
X006315Y017460*
X006333Y017370*
X006384Y017294*
X006460Y017243*
X006550Y017225*
X006640Y017243*
X006716Y017294*
X006767Y017370*
X006785Y017460*
X006778Y017495*
X006790Y017510*
X006821Y017531*
X006900Y017515*
X006990Y017533*
X007066Y017584*
X007117Y017660*
X007120Y017675*
X007171*
X007183Y017610*
X007234Y017534*
X007310Y017483*
X007400Y017465*
X007490Y017483*
X007566Y017534*
X007617Y017610*
X007635Y017700*
X007617Y017790*
X007566Y017866*
X007490Y017917*
X007400Y017935*
X007310Y017917*
X007234Y017866*
X007183Y017790*
X007180Y017775*
X007129*
X007117Y017840*
X007066Y017916*
X006990Y017967*
X006925Y017979*
Y018030*
X006940Y018033*
X007016Y018084*
X007067Y018160*
X007085Y018250*
X007071Y018320*
Y018322*
X007108Y018359*
X007110*
X007180Y018345*
X007270Y018363*
X007346Y018414*
X007397Y018490*
X007415Y018580*
X007401Y018650*
Y018652*
X007438Y018689*
X007440*
X007510Y018675*
X007600Y018693*
X007676Y018744*
X007727Y018820*
X007745Y018910*
X007731Y018980*
Y018982*
X007768Y019019*
X007770*
X007840Y019005*
X007930Y019023*
X008006Y019074*
X008057Y019150*
X008075Y019240*
X008057Y019330*
X008006Y019406*
X007930Y019457*
X007840Y019475*
G37*
G36*
X022950Y019485D02*
X022860Y019467D01*
X022784Y019416*
X022733Y019340*
X022715Y019250*
X022733Y019160*
X022784Y019084*
X022860Y019033*
X022950Y019015*
X023040Y019033*
X023116Y019084*
X023167Y019160*
X023185Y019250*
X023167Y019340*
X023116Y019416*
X023040Y019467*
X022950Y019485*
G37*
G36*
X010050Y019385D02*
X009960Y019367D01*
X009884Y019316*
X009833Y019240*
X009815Y019150*
X009833Y019060*
X009884Y018984*
X009960Y018933*
X010050Y018915*
X010140Y018933*
X010216Y018984*
X010267Y019060*
X010285Y019150*
X010267Y019240*
X010216Y019316*
X010140Y019367*
X010050Y019385*
G37*
G36*
X016040Y019635D02*
X015950Y019617D01*
X015874Y019566*
X015823Y019490*
X015805Y019400*
X015823Y019310*
X015874Y019234*
X015950Y019183*
X016040Y019165*
X016048Y019167*
X016075Y019140*
X016093Y019050*
X016144Y018974*
X016220Y018923*
X016310Y018905*
X016400Y018923*
X016476Y018974*
X016527Y019050*
X016545Y019140*
X016527Y019230*
X016476Y019306*
X016400Y019357*
X016310Y019375*
X016302Y019373*
X016275Y019400*
X016257Y019490*
X016206Y019566*
X016130Y019617*
X016040Y019635*
G37*
G36*
X009400Y019045D02*
Y018850D01*
X009595*
X009585Y018898*
X009530Y018980*
X009448Y019036*
X009400Y019045*
G37*
G36*
X009300D02*
X009252Y019036D01*
X009170Y018980*
X009115Y018898*
X009105Y018850*
X009300*
Y019045*
G37*
G36*
X012200Y019285D02*
X012110Y019267D01*
X012034Y019216*
X011983Y019140*
X011965Y019050*
X011983Y018960*
X012034Y018884*
X012110Y018833*
X012200Y018815*
X012290Y018833*
X012366Y018884*
X012417Y018960*
X012435Y019050*
X012417Y019140*
X012366Y019216*
X012290Y019267*
X012200Y019285*
G37*
G36*
X011650D02*
X011560Y019267D01*
X011484Y019216*
X011433Y019140*
X011415Y019050*
X011433Y018960*
X011484Y018884*
X011560Y018833*
X011650Y018815*
X011740Y018833*
X011816Y018884*
X011867Y018960*
X011885Y019050*
X011867Y019140*
X011816Y019216*
X011740Y019267*
X011650Y019285*
G37*
G36*
X003736Y019464D02*
X003638Y019451D01*
X003547Y019414*
X003468Y019353*
X003408Y019275*
X003370Y019184*
X003357Y019086*
X003370Y018988*
X003408Y018897*
X003468Y018818*
X003547Y018758*
X003638Y018720*
X003736Y018707*
X003834Y018720*
X003925Y018758*
X004003Y018818*
X004064Y018897*
X004101Y018988*
X004114Y019086*
X004101Y019184*
X004064Y019275*
X004003Y019353*
X003925Y019414*
X003834Y019451*
X003736Y019464*
G37*
G36*
X013890Y019125D02*
X013800Y019107D01*
X013724Y019056*
X013673Y018980*
X013655Y018890*
X013673Y018800*
X013724Y018724*
X013800Y018673*
X013890Y018655*
X013980Y018673*
X014056Y018724*
X014107Y018800*
X014125Y018890*
X014107Y018980*
X014056Y019056*
X013980Y019107*
X013890Y019125*
G37*
G36*
X015850Y019035D02*
X015760Y019017D01*
X015684Y018966*
X015633Y018890*
X015615Y018800*
X015633Y018710*
X015684Y018634*
X015760Y018583*
X015850Y018565*
X015940Y018583*
X016016Y018634*
X016067Y018710*
X016085Y018800*
X016067Y018890*
X016016Y018966*
X015940Y019017*
X015850Y019035*
G37*
G36*
X021440Y019025D02*
X021350Y019007D01*
X021274Y018956*
X021223Y018880*
X021205Y018790*
X021223Y018700*
X021274Y018624*
X021350Y018573*
X021440Y018555*
X021530Y018573*
X021606Y018624*
X021657Y018700*
X021675Y018790*
X021657Y018880*
X021606Y018956*
X021530Y019007*
X021440Y019025*
G37*
G36*
X009595Y018750D02*
X009400D01*
Y018555*
X009448Y018564*
X009530Y018620*
X009585Y018702*
X009595Y018750*
G37*
G36*
X009300D02*
X009105D01*
X009115Y018702*
X009170Y018620*
X009252Y018564*
X009300Y018555*
Y018750*
G37*
G36*
X016400Y018835D02*
X016310Y018817D01*
X016234Y018766*
X016183Y018690*
X016165Y018600*
X016183Y018510*
X016234Y018434*
X016310Y018383*
X016400Y018365*
X016490Y018383*
X016566Y018434*
X016617Y018510*
X016635Y018600*
X016617Y018690*
X016566Y018766*
X016490Y018817*
X016400Y018835*
G37*
G36*
X021620Y018519D02*
Y018324D01*
X021815*
X021806Y018372*
X021750Y018454*
X021668Y018510*
X021620Y018519*
G37*
G36*
X021520D02*
X021472Y018510D01*
X021390Y018454*
X021335Y018372*
X021325Y018324*
X021520*
Y018519*
G37*
G36*
X017100Y018635D02*
X017010Y018617D01*
X016934Y018566*
X016883Y018490*
X016865Y018400*
X016866Y018399*
X016824Y018350*
X016752Y018335*
X016670Y018280*
X016615Y018198*
X016605Y018150*
X017095*
X017093Y018159*
X017100Y018165*
X017190Y018183*
X017266Y018234*
X017317Y018310*
X017335Y018400*
X017317Y018490*
X017266Y018566*
X017190Y018617*
X017100Y018635*
G37*
G36*
X010740Y018435D02*
X010650Y018417D01*
X010574Y018366*
X010523Y018290*
X010505Y018200*
X010519Y018134*
X010515Y018127*
X010478Y018095*
X010405Y018110*
X010315Y018092*
X010239Y018041*
X010188Y017965*
X010170Y017875*
X010184Y017809*
X010180Y017802*
X010143Y017770*
X010070Y017785*
X009980Y017767*
X009904Y017716*
X009853Y017640*
X009835Y017550*
X009853Y017460*
X009904Y017384*
X009980Y017333*
X010070Y017315*
X010160Y017333*
X010236Y017384*
X010287Y017460*
X010305Y017550*
X010291Y017616*
X010295Y017623*
X010332Y017655*
X010405Y017640*
X010495Y017658*
X010571Y017709*
X010622Y017785*
X010640Y017875*
X010626Y017941*
X010630Y017948*
X010667Y017980*
X010740Y017965*
X010830Y017983*
X010906Y018034*
X010957Y018110*
X010975Y018200*
X010957Y018290*
X010906Y018366*
X010830Y018417*
X010740Y018435*
G37*
G36*
X021815Y018224D02*
X021620D01*
Y018029*
X021668Y018039*
X021750Y018094*
X021806Y018176*
X021815Y018224*
G37*
G36*
X021520D02*
X021325D01*
X021335Y018176*
X021390Y018094*
X021472Y018039*
X021520Y018029*
Y018224*
G37*
G36*
X016200Y018285D02*
X016110Y018267D01*
X016034Y018216*
X015983Y018140*
X015965Y018050*
X015973Y018012*
X015938Y017977*
X015900Y017985*
X015810Y017967*
X015734Y017916*
X015683Y017840*
X015665Y017750*
X015683Y017660*
X015734Y017584*
X015810Y017533*
X015900Y017515*
X015990Y017533*
X016066Y017584*
X016117Y017660*
X016135Y017750*
X016127Y017788*
X016162Y017823*
X016200Y017815*
X016290Y017833*
X016366Y017884*
X016417Y017960*
X016435Y018050*
X016417Y018140*
X016366Y018216*
X016290Y018267*
X016200Y018285*
G37*
G36*
X014760Y018145D02*
Y017950D01*
X014955*
X014945Y017998*
X014890Y018080*
X014808Y018135*
X014760Y018145*
G37*
G36*
X014660D02*
X014612Y018135D01*
X014530Y018080*
X014475Y017998*
X014465Y017950*
X014660*
Y018145*
G37*
G36*
X017095Y018050D02*
X016900D01*
Y017855*
X016948Y017865*
X017030Y017920*
X017085Y018002*
X017095Y018050*
G37*
G36*
X016800D02*
X016605D01*
X016615Y018002*
X016670Y017920*
X016752Y017865*
X016800Y017855*
Y018050*
G37*
G36*
X004850Y018135D02*
X004760Y018117D01*
X004684Y018066*
X004633Y017990*
X004615Y017900*
X004633Y017810*
X004684Y017734*
X004760Y017683*
X004850Y017665*
X004940Y017683*
X005016Y017734*
X005067Y017810*
X005085Y017900*
X005067Y017990*
X005016Y018066*
X004940Y018117*
X004850Y018135*
G37*
G36*
X014955Y017850D02*
X014760D01*
Y017655*
X014808Y017665*
X014890Y017720*
X014945Y017802*
X014955Y017850*
G37*
G36*
X014660D02*
X014465D01*
X014475Y017802*
X014530Y017720*
X014612Y017665*
X014660Y017655*
Y017850*
G37*
G36*
X011700Y018335D02*
X011610Y018317D01*
X011534Y018266*
X011483Y018190*
X011465Y018100*
X011483Y018010*
X011534Y017934*
X011587Y017899*
Y017841*
X011534Y017806*
X011483Y017730*
X011465Y017640*
X011478Y017578*
X011469Y017566*
X011435Y017540*
X011360Y017555*
X011270Y017537*
X011194Y017486*
X011143Y017410*
X011125Y017320*
X011143Y017230*
X011194Y017154*
X011270Y017103*
X011360Y017085*
X011450Y017103*
X011526Y017154*
X011577Y017230*
X011595Y017320*
X011582Y017382*
X011591Y017394*
X011625Y017420*
X011700Y017405*
X011790Y017423*
X011866Y017474*
X011917Y017550*
X011935Y017640*
X011917Y017730*
X011866Y017806*
X011813Y017841*
Y017899*
X011866Y017934*
X011917Y018010*
X011935Y018100*
X011917Y018190*
X011866Y018266*
X011790Y018317*
X011700Y018335*
G37*
G36*
X024400Y017835D02*
X024310Y017817D01*
X024234Y017766*
X024183Y017690*
X024165Y017600*
X024183Y017510*
X024234Y017434*
X024310Y017383*
X024400Y017365*
X024490Y017383*
X024566Y017434*
X024617Y017510*
X024635Y017600*
X024617Y017690*
X024566Y017766*
X024490Y017817*
X024400Y017835*
G37*
G36*
X008300Y017685D02*
X008210Y017667D01*
X008134Y017616*
X008083Y017540*
X008065Y017450*
X008083Y017360*
X008134Y017284*
X008210Y017233*
X008300Y017215*
X008390Y017233*
X008466Y017284*
X008517Y017360*
X008535Y017450*
X008517Y017540*
X008466Y017616*
X008390Y017667*
X008300Y017685*
G37*
G36*
X021430Y017485D02*
X021340Y017467D01*
X021264Y017416*
X021213Y017340*
X021195Y017250*
X021213Y017160*
X021264Y017084*
X021340Y017033*
X021430Y017015*
X021520Y017033*
X021596Y017084*
X021647Y017160*
X021665Y017250*
X021647Y017340*
X021596Y017416*
X021520Y017467*
X021430Y017485*
G37*
G36*
X004630Y017405D02*
X004540Y017387D01*
X004464Y017336*
X004413Y017260*
X004395Y017170*
X004413Y017080*
X004464Y017004*
X004540Y016953*
X004630Y016935*
X004720Y016953*
X004796Y017004*
X004847Y017080*
X004865Y017170*
X004847Y017260*
X004796Y017336*
X004720Y017387*
X004630Y017405*
G37*
G36*
X017750Y017285D02*
X017660Y017267D01*
X017584Y017216*
X017533Y017140*
X017515Y017050*
X017533Y016960*
X017584Y016884*
X017660Y016833*
X017750Y016815*
X017840Y016833*
X017916Y016884*
X017967Y016960*
X017985Y017050*
X017967Y017140*
X017916Y017216*
X017840Y017267*
X017750Y017285*
G37*
G36*
X006460Y016955D02*
Y016760D01*
X006655*
X006645Y016808*
X006590Y016890*
X006508Y016946*
X006460Y016955*
G37*
G36*
X006360D02*
X006312Y016946D01*
X006230Y016890*
X006175Y016808*
X006165Y016760*
X006360*
Y016955*
G37*
G36*
X011700Y016905D02*
X011610Y016887D01*
X011534Y016836*
X011483Y016760*
X011465Y016670*
X011483Y016580*
X011485Y016578*
X011463Y016533*
X011417Y016524*
X011385Y016550*
X011367Y016640*
X011316Y016716*
X011240Y016767*
X011150Y016785*
X011060Y016767*
X010984Y016716*
X010933Y016640*
X010916Y016551*
X010915Y016550*
X010872Y016512*
X010810Y016525*
X010720Y016507*
X010644Y016456*
X010593Y016380*
X010575Y016290*
X010593Y016200*
X010644Y016124*
X010720Y016073*
X010810Y016055*
X010900Y016073*
X010976Y016124*
X011027Y016200*
X011044Y016289*
X011045Y016290*
X011088Y016328*
X011150Y016315*
X011202Y016326*
X011245Y016290*
X011263Y016200*
X011314Y016124*
X011390Y016073*
X011480Y016055*
X011570Y016073*
X011646Y016124*
X011697Y016200*
X011715Y016290*
X011697Y016380*
X011689Y016390*
X011717Y016439*
X011790Y016453*
X011866Y016504*
X011917Y016580*
X011935Y016670*
X011917Y016760*
X011866Y016836*
X011790Y016887*
X011700Y016905*
G37*
G36*
X003780Y016935D02*
X003690Y016917D01*
X003614Y016866*
X003563Y016790*
X003545Y016700*
X003563Y016610*
X003614Y016534*
X003690Y016483*
X003780Y016465*
X003870Y016483*
X003946Y016534*
X003997Y016610*
X004015Y016700*
X003997Y016790*
X003946Y016866*
X003870Y016917*
X003780Y016935*
G37*
G36*
X003250D02*
X003160Y016917D01*
X003084Y016866*
X003033Y016790*
X003015Y016700*
X003033Y016610*
X003084Y016534*
X003160Y016483*
X003250Y016465*
X003340Y016483*
X003416Y016534*
X003467Y016610*
X003485Y016700*
X003467Y016790*
X003416Y016866*
X003340Y016917*
X003250Y016935*
G37*
G36*
X006655Y016660D02*
X006460D01*
Y016465*
X006508Y016474*
X006590Y016530*
X006645Y016612*
X006655Y016660*
G37*
G36*
X006360D02*
X006165D01*
X006175Y016612*
X006230Y016530*
X006312Y016474*
X006360Y016465*
Y016660*
G37*
G36*
X005890Y016795D02*
X005800Y016777D01*
X005724Y016726*
X005673Y016650*
X005655Y016560*
X005673Y016470*
X005724Y016394*
X005800Y016343*
X005890Y016325*
X005980Y016343*
X006056Y016394*
X006107Y016470*
X006125Y016560*
X006107Y016650*
X006056Y016726*
X005980Y016777*
X005890Y016795*
G37*
G36*
X018600Y016445D02*
Y016250D01*
X018795*
X018786Y016298*
X018730Y016380*
X018648Y016436*
X018600Y016445*
G37*
G36*
X018500D02*
X018452Y016436D01*
X018370Y016380*
X018314Y016298*
X018305Y016250*
X018500*
Y016445*
G37*
G36*
X020925Y016455D02*
X020580D01*
Y016110*
X020925*
Y016455*
G37*
G36*
X020480D02*
X020135D01*
Y016110*
X020480*
Y016455*
G37*
G36*
X012360Y016525D02*
X012270Y016507D01*
X012194Y016456*
X012143Y016380*
X012125Y016290*
X012143Y016200*
X012194Y016124*
X012270Y016073*
X012360Y016055*
X012450Y016073*
X012526Y016124*
X012577Y016200*
X012595Y016290*
X012577Y016380*
X012526Y016456*
X012450Y016507*
X012360Y016525*
G37*
G36*
X015810Y016515D02*
X015720Y016497D01*
X015644Y016446*
X015593Y016370*
X015575Y016280*
X015593Y016190*
X015644Y016114*
X015720Y016063*
X015810Y016045*
X015900Y016063*
X015976Y016114*
X016027Y016190*
X016045Y016280*
X016027Y016370*
X015976Y016446*
X015900Y016497*
X015810Y016515*
G37*
G36*
X018795Y016150D02*
X018600D01*
Y015955*
X018648Y015964*
X018730Y016020*
X018786Y016102*
X018795Y016150*
G37*
G36*
X018500D02*
X018305D01*
X018314Y016102*
X018370Y016020*
X018452Y015964*
X018500Y015955*
Y016150*
G37*
G36*
X021530Y016439D02*
X021432Y016426D01*
X021341Y016388*
X021262Y016328*
X021202Y016249*
X021164Y016158*
X021151Y016060*
X021164Y015962*
X021202Y015871*
X021262Y015792*
X021341Y015732*
X021432Y015694*
X021530Y015681*
X021628Y015694*
X021719Y015732*
X021798Y015792*
X021858Y015871*
X021896Y015962*
X021909Y016060*
X021896Y016158*
X021858Y016249*
X021798Y016328*
X021719Y016388*
X021628Y016426*
X021530Y016439*
G37*
G36*
X013300Y015835D02*
X013210Y015817D01*
X013134Y015766*
X013083Y015690*
X013075Y015650*
X013025*
X013017Y015690*
X012966Y015766*
X012890Y015817*
X012800Y015835*
X012710Y015817*
X012634Y015766*
X012583Y015690*
X012565Y015600*
X012583Y015510*
X012634Y015434*
X012710Y015383*
X012800Y015365*
X012890Y015383*
X012966Y015434*
X013017Y015510*
X013025Y015550*
X013075*
X013083Y015510*
X013134Y015434*
X013210Y015383*
X013300Y015365*
X013390Y015383*
X013466Y015434*
X013517Y015510*
X013535Y015600*
X013517Y015690*
X013466Y015766*
X013390Y015817*
X013300Y015835*
G37*
G36*
X002990Y015785D02*
Y015590D01*
X003185*
X003176Y015638*
X003120Y015720*
X003038Y015776*
X002990Y015785*
G37*
G36*
X002890D02*
X002842Y015776D01*
X002760Y015720*
X002704Y015638*
X002695Y015590*
X002890*
Y015785*
G37*
G36*
X018400Y015835D02*
X018310Y015817D01*
X018234Y015766*
X018183Y015690*
X018165Y015600*
X018168Y015585*
X018133Y015550*
X018110Y015555*
X018020Y015537*
X017944Y015486*
X017893Y015410*
X017875Y015320*
X017893Y015230*
X017944Y015154*
X018020Y015103*
X018110Y015085*
X018200Y015103*
X018276Y015154*
X018327Y015230*
X018345Y015320*
X018342Y015335*
X018377Y015370*
X018400Y015365*
X018490Y015383*
X018566Y015434*
X018617Y015510*
X018635Y015600*
X018617Y015690*
X018566Y015766*
X018490Y015817*
X018400Y015835*
G37*
G36*
X008050Y015695D02*
Y015500D01*
X008245*
X008235Y015548*
X008180Y015630*
X008098Y015685*
X008050Y015695*
G37*
G36*
X007950D02*
X007902Y015685D01*
X007820Y015630*
X007765Y015548*
X007755Y015500*
X007950*
Y015695*
G37*
G36*
X016250Y015645D02*
Y015450D01*
X016445*
X016436Y015498*
X016380Y015580*
X016298Y015635*
X016250Y015645*
G37*
G36*
X016150D02*
X016102Y015635D01*
X016020Y015580*
X015964Y015498*
X015955Y015450*
X016150*
Y015645*
G37*
G36*
X013900Y015835D02*
X013810Y015817D01*
X013734Y015766*
X013683Y015690*
X013665Y015600*
X013683Y015510*
X013734Y015434*
X013810Y015383*
X013900Y015365*
X013990Y015383*
X014066Y015434*
X014117Y015510*
X014135Y015600*
X014117Y015690*
X014066Y015766*
X013990Y015817*
X013900Y015835*
G37*
G36*
X003185Y015490D02*
X002990D01*
Y015295*
X003038Y015304*
X003120Y015360*
X003176Y015442*
X003185Y015490*
G37*
G36*
X002890D02*
X002695D01*
X002704Y015442*
X002760Y015360*
X002842Y015304*
X002890Y015295*
Y015490*
G37*
G36*
X014930Y015685D02*
X014840Y015667D01*
X014764Y015616*
X014713Y015540*
X014695Y015450*
X014713Y015360*
X014764Y015284*
X014840Y015233*
X014930Y015215*
X015020Y015233*
X015096Y015284*
X015147Y015360*
X015165Y015450*
X015147Y015540*
X015096Y015616*
X015020Y015667*
X014930Y015685*
G37*
G36*
X011150D02*
X011060Y015667D01*
X010984Y015616*
X010933Y015540*
X010915Y015450*
X010933Y015360*
X010984Y015284*
X011060Y015233*
X011150Y015215*
X011240Y015233*
X011316Y015284*
X011367Y015360*
X011385Y015450*
X011367Y015540*
X011316Y015616*
X011240Y015667*
X011150Y015685*
G37*
G36*
X003729D02*
X003639Y015667D01*
X003563Y015616*
X003512Y015540*
X003494Y015450*
X003512Y015360*
X003563Y015284*
X003639Y015233*
X003729Y015215*
X003818Y015233*
X003894Y015284*
X003945Y015360*
X003963Y015450*
X003945Y015540*
X003894Y015616*
X003818Y015667*
X003729Y015685*
G37*
G36*
X016445Y015350D02*
X016250D01*
Y015155*
X016298Y015165*
X016380Y015220*
X016436Y015302*
X016445Y015350*
G37*
G36*
X016150D02*
X015955D01*
X015964Y015302*
X016020Y015220*
X016102Y015165*
X016150Y015155*
Y015350*
G37*
G36*
X024115Y015915D02*
X023285D01*
Y015085*
X024115*
Y015915*
G37*
G36*
X012220Y015345D02*
X012130Y015327D01*
X012054Y015276*
X012003Y015200*
X011985Y015110*
X012003Y015020*
X012054Y014944*
X012130Y014893*
X012220Y014875*
X012310Y014893*
X012386Y014944*
X012437Y015020*
X012455Y015110*
X012437Y015200*
X012386Y015276*
X012310Y015327*
X012220Y015345*
G37*
G36*
X003335Y015325D02*
X003245Y015307D01*
X003169Y015256*
X003118Y015180*
X003100Y015090*
X003118Y015000*
X003169Y014924*
X003245Y014873*
X003335Y014855*
X003425Y014873*
X003501Y014924*
X003551Y015000*
X003569Y015090*
X003551Y015180*
X003501Y015256*
X003425Y015307*
X003335Y015325*
G37*
G36*
X008245Y015400D02*
X007755D01*
X007765Y015352*
X007817Y015274*
X007834Y015226*
X007783Y015150*
X007765Y015060*
X007783Y014970*
X007834Y014894*
X007910Y014843*
X008000Y014825*
X008090Y014843*
X008166Y014894*
X008217Y014970*
X008235Y015060*
X008217Y015150*
X008166Y015226*
X008183Y015274*
X008235Y015352*
X008245Y015400*
G37*
G36*
X011200Y014995D02*
Y014800D01*
X011395*
X011386Y014848*
X011330Y014930*
X011248Y014986*
X011200Y014995*
G37*
G36*
X011100D02*
X011052Y014986D01*
X010970Y014930*
X010914Y014848*
X010905Y014800*
X011100*
Y014995*
G37*
G36*
X015800Y015265D02*
X015710Y015247D01*
X015634Y015196*
X015583Y015120*
X015565Y015030*
X015583Y014940*
X015634Y014864*
X015710Y014813*
X015800Y014795*
X015890Y014813*
X015966Y014864*
X016017Y014940*
X016035Y015030*
X016017Y015120*
X015966Y015196*
X015890Y015247*
X015800Y015265*
G37*
G36*
X017700Y015135D02*
X017610Y015117D01*
X017534Y015066*
X017483Y014990*
X017465Y014900*
X017483Y014810*
X017534Y014734*
X017610Y014683*
X017700Y014665*
X017790Y014683*
X017866Y014734*
X017917Y014810*
X017935Y014900*
X017917Y014990*
X017866Y015066*
X017790Y015117*
X017700Y015135*
G37*
G36*
X023750Y014932D02*
Y014550D01*
X024132*
X024123Y014613*
X024080Y014719*
X024010Y014810*
X023919Y014880*
X023813Y014923*
X023750Y014932*
G37*
G36*
X023650D02*
X023587Y014923D01*
X023481Y014880*
X023390Y014810*
X023320Y014719*
X023277Y014613*
X023268Y014550*
X023650*
Y014932*
G37*
G36*
X019420Y015005D02*
X019330Y014987D01*
X019254Y014936*
X019203Y014860*
X019185Y014770*
X019203Y014680*
X019254Y014604*
X019330Y014553*
X019420Y014535*
X019510Y014553*
X019586Y014604*
X019637Y014680*
X019655Y014770*
X019637Y014860*
X019586Y014936*
X019510Y014987*
X019420Y015005*
G37*
G36*
X006885Y014710D02*
Y014515D01*
X007080*
X007071Y014562*
X007016Y014645*
X006933Y014700*
X006885Y014710*
G37*
G36*
X006785D02*
X006738Y014700D01*
X006655Y014645*
X006600Y014562*
X006590Y014515*
X006785*
Y014710*
G37*
G36*
X011395Y014700D02*
X011200D01*
Y014505*
X011248Y014514*
X011330Y014570*
X011386Y014652*
X011395Y014700*
G37*
G36*
X011100D02*
X010905D01*
X010914Y014652*
X010970Y014570*
X011052Y014514*
X011100Y014505*
Y014700*
G37*
G36*
X020530Y016060D02*
D01*
Y016010*
X020135*
Y015665*
X020157*
X020177Y015615*
X019946Y015384*
X019918Y015341*
X019907Y015290*
Y014735*
X018715Y013543*
X017160*
X017109Y013532*
X017066Y013504*
X016507Y012945*
X016497Y012946*
X016457Y013003*
X016465Y013040*
X016447Y013130*
X016396Y013206*
X016366Y013226*
X016377Y013279*
X016400Y013283*
X016476Y013334*
X016527Y013410*
X016545Y013500*
X016527Y013590*
X016476Y013666*
X016400Y013717*
X016310Y013735*
X016220Y013717*
X016144Y013666*
X016093Y013590*
X016075Y013500*
X016093Y013410*
X016144Y013334*
X016174Y013314*
X016163Y013261*
X016140Y013257*
X016064Y013206*
X016013Y013130*
X015995Y013040*
X016013Y012950*
X016064Y012874*
X016140Y012823*
X016230Y012805*
X016267Y012813*
X016324Y012773*
X016325Y012763*
X015604Y012042*
X015566Y012074*
X015597Y012120*
X015615Y012210*
X015597Y012300*
X015577Y012329*
X015597Y012375*
X015640Y012383*
X015716Y012434*
X015767Y012510*
X015785Y012600*
X015767Y012690*
X015716Y012766*
X015665Y012800*
X015656Y012852*
X015659Y012859*
X015707Y012930*
X015725Y013020*
X015707Y013110*
X015656Y013186*
X015580Y013237*
X015490Y013255*
X015400Y013237*
X015324Y013186*
X015273Y013110*
X015255Y013020*
X015273Y012930*
X015324Y012854*
X015375Y012820*
X015384Y012768*
X015381Y012761*
X015333Y012690*
X015315Y012600*
X015333Y012510*
X015353Y012481*
X015333Y012435*
X015290Y012427*
X015214Y012376*
X015163Y012300*
X015145Y012210*
X015163Y012120*
X015214Y012044*
X015290Y011993*
X015380Y011975*
X015470Y011993*
X015516Y012024*
X015548Y011986*
X014815Y011253*
X013335*
X013287Y011301*
X013295Y011340*
X013277Y011430*
X013271Y011438*
X013281Y011462*
X013298Y011489*
X013366Y011534*
X013417Y011610*
X013435Y011700*
X013417Y011790*
X013366Y011866*
X013290Y011917*
X013200Y011935*
X013110Y011917*
X013034Y011866*
X012983Y011790*
X012965Y011700*
X012983Y011610*
X012989Y011602*
X012979Y011578*
X012962Y011551*
X012894Y011506*
X012843Y011430*
X012830Y011364*
X012825Y011340*
X012777Y011327*
X012740Y011335*
X012650Y011317*
X012574Y011266*
X012568Y011257*
X012518*
X012506Y011276*
X012430Y011327*
X012340Y011345*
X012250Y011327*
X012174Y011276*
X012173Y011275*
X012123*
X012116Y011286*
X012040Y011337*
X011950Y011355*
X011860Y011337*
X011784Y011286*
X011733Y011210*
X011715Y011120*
X011733Y011030*
X011784Y010954*
X011786Y010893*
X011616Y010724*
X011588Y010681*
X011577Y010630*
Y010390*
X011588Y010339*
X011616Y010296*
X011826Y010086*
X011869Y010058*
X011920Y010047*
X012680*
X012731Y010058*
X012774Y010086*
X012934Y010246*
X012962Y010289*
X012973Y010340*
Y010415*
X013085Y010527*
X015046*
X015097Y010538*
X015140Y010566*
X017351Y012777*
X019785*
X020106Y012456*
X020149Y012428*
X020200Y012417*
X020830*
X020881Y012428*
X020924Y012456*
X021144Y012676*
X021172Y012719*
X021183Y012770*
Y012814*
X021233Y012831*
X021262Y012792*
X021341Y012732*
X021432Y012694*
X021530Y012681*
X021628Y012694*
X021719Y012732*
X021798Y012792*
X021858Y012871*
X021896Y012962*
X021909Y013060*
X021896Y013158*
X021858Y013249*
X021798Y013328*
X021719Y013388*
X021628Y013426*
X021530Y013439*
X021432Y013426*
X021341Y013388*
X021262Y013328*
X021233Y013289*
X021183Y013306*
Y013455*
X021425Y013697*
X021432Y013694*
X021530Y013681*
X021628Y013694*
X021719Y013732*
X021798Y013792*
X021858Y013871*
X021896Y013962*
X021909Y014060*
X021896Y014158*
X021858Y014249*
X021829Y014287*
X021857Y014332*
X021890Y014325*
X021980Y014343*
X022056Y014394*
X022107Y014470*
X022125Y014560*
X022107Y014650*
X022056Y014726*
X021980Y014777*
X021890Y014795*
X021857Y014788*
X021829Y014833*
X021858Y014871*
X021896Y014962*
X021909Y015060*
X021896Y015158*
X021858Y015249*
X021798Y015328*
X021719Y015388*
X021628Y015426*
X021530Y015439*
X021432Y015426*
X021375Y015402*
X021144Y015634*
X021101Y015662*
X021050Y015673*
X020925*
Y016010*
X020530*
Y016060*
G37*
G36*
X014440Y014455D02*
Y014260D01*
X014635*
X014626Y014308*
X014570Y014390*
X014488Y014446*
X014440Y014455*
G37*
G36*
X014340D02*
X014292Y014446D01*
X014210Y014390*
X014154Y014308*
X014145Y014260*
X014340*
Y014455*
G37*
G36*
X007080Y014415D02*
X006885D01*
Y014220*
X006933Y014229*
X007016Y014284*
X007071Y014367*
X007080Y014415*
G37*
G36*
X006785D02*
X006590D01*
X006600Y014367*
X006655Y014284*
X006738Y014229*
X006785Y014220*
Y014415*
G37*
G36*
X014750Y014975D02*
X014660Y014957D01*
X014584Y014906*
X014533Y014830*
X014515Y014740*
X014533Y014650*
X014584Y014574*
X014660Y014523*
X014750Y014505*
X014820Y014519*
X014843Y014492*
X014853Y014476*
X014835Y014390*
X014853Y014300*
X014904Y014224*
X014980Y014173*
X015070Y014155*
X015160Y014173*
X015236Y014224*
X015287Y014300*
X015305Y014390*
X015287Y014480*
X015236Y014556*
X015160Y014607*
X015070Y014625*
X015000Y014611*
X014977Y014638*
X014967Y014654*
X014985Y014740*
X014967Y014830*
X014916Y014906*
X014840Y014957*
X014750Y014975*
G37*
G36*
X013000Y014600D02*
X012910Y014582D01*
X012834Y014531*
X012783Y014455*
X012765Y014365*
X012783Y014276*
X012834Y014200*
X012910Y014149*
X013000Y014131*
X013090Y014149*
X013166Y014200*
X013217Y014276*
X013235Y014365*
X013217Y014455*
X013166Y014531*
X013090Y014582*
X013000Y014600*
G37*
G36*
X017160Y014575D02*
X017070Y014557D01*
X016994Y014506*
X016943Y014430*
X016925Y014340*
X016943Y014250*
X016994Y014174*
X017070Y014123*
X017160Y014105*
X017250Y014123*
X017326Y014174*
X017377Y014250*
X017395Y014340*
X017377Y014430*
X017326Y014506*
X017250Y014557*
X017160Y014575*
G37*
G36*
X024132Y014450D02*
X023750D01*
Y014068*
X023813Y014077*
X023919Y014120*
X024010Y014190*
X024080Y014281*
X024123Y014387*
X024132Y014450*
G37*
G36*
X023650D02*
X023268D01*
X023277Y014387*
X023320Y014281*
X023390Y014190*
X023481Y014120*
X023587Y014077*
X023650Y014068*
Y014450*
G37*
G36*
X008950Y014335D02*
X008860Y014317D01*
X008784Y014266*
X008733Y014190*
X008715Y014100*
X008733Y014010*
X008784Y013934*
X008860Y013883*
X008950Y013865*
X009040Y013883*
X009116Y013934*
X009167Y014010*
X009185Y014100*
X009167Y014190*
X009116Y014266*
X009040Y014317*
X008950Y014335*
G37*
G36*
X001600Y014135D02*
X001510Y014117D01*
X001434Y014066*
X001383Y013990*
X001365Y013900*
X001375Y013853*
X001359Y013837*
X001331Y013818*
X001250Y013835*
X001160Y013817*
X001084Y013766*
X001033Y013690*
X001015Y013600*
X001033Y013510*
X001084Y013434*
X001128Y013405*
Y013345*
X001084Y013316*
X001033Y013240*
X001015Y013150*
X001033Y013060*
X001084Y012984*
X001160Y012933*
X001250Y012915*
X001340Y012933*
X001416Y012984*
X001467Y013060*
X001485Y013150*
X001467Y013240*
X001416Y013316*
X001372Y013345*
Y013405*
X001416Y013434*
X001467Y013510*
X001485Y013600*
X001475Y013647*
X001491Y013663*
X001519Y013682*
X001600Y013665*
X001690Y013683*
X001766Y013734*
X001817Y013810*
X001835Y013900*
X001817Y013990*
X001766Y014066*
X001690Y014117*
X001600Y014135*
G37*
G36*
X011350D02*
X011260Y014117D01*
X011184Y014066*
X011133Y013990*
X011115Y013900*
X011133Y013810*
X011184Y013734*
X011260Y013683*
X011350Y013665*
X011440Y013683*
X011516Y013734*
X011567Y013810*
X011585Y013900*
X011567Y013990*
X011516Y014066*
X011440Y014117*
X011350Y014135*
G37*
G36*
X018830Y014375D02*
X018740Y014357D01*
X018664Y014306*
X018613Y014230*
X018595Y014140*
X018596Y014136*
X018563Y014093*
X018480Y014077*
X018404Y014026*
X018353Y013950*
X018335Y013860*
X018353Y013770*
X018404Y013694*
X018480Y013643*
X018570Y013625*
X018660Y013643*
X018736Y013694*
X018787Y013770*
X018805Y013860*
X018804Y013864*
X018837Y013907*
X018920Y013923*
X018996Y013974*
X019047Y014050*
X019065Y014140*
X019047Y014230*
X018996Y014306*
X018920Y014357*
X018830Y014375*
G37*
G36*
X008450Y013685D02*
X008360Y013667D01*
X008284Y013616*
X008255Y013572*
X008195*
X008166Y013616*
X008090Y013667*
X008000Y013685*
X007910Y013667*
X007834Y013616*
X007783Y013540*
X007765Y013450*
X007783Y013360*
X007834Y013284*
X007910Y013233*
X008000Y013215*
X008090Y013233*
X008166Y013284*
X008195Y013328*
X008255*
X008284Y013284*
X008360Y013233*
X008450Y013215*
X008540Y013233*
X008616Y013284*
X008667Y013360*
X008685Y013450*
X008667Y013540*
X008616Y013616*
X008540Y013667*
X008450Y013685*
G37*
G36*
X014635Y014160D02*
X014145D01*
X014154Y014112*
X014210Y014030*
X014280Y013983*
X014288Y013928*
X014284Y013926*
X014233Y013850*
X014215Y013760*
X014233Y013670*
X014284Y013594*
X014360Y013543*
X014450Y013525*
X014540Y013543*
X014616Y013594*
X014667Y013670*
X014685Y013760*
X014667Y013850*
X014616Y013926*
X014560Y013963*
X014556Y014020*
X014570Y014030*
X014626Y014112*
X014635Y014160*
G37*
G36*
X006000Y014142D02*
X005910Y014124D01*
X005834Y014073*
X005783Y013997*
X005765Y013907*
X005783Y013818*
X005834Y013742*
X005910Y013691*
X006000Y013673*
X006052Y013683*
X006083Y013640*
X006065Y013550*
X006083Y013460*
X006134Y013384*
X006210Y013333*
X006300Y013315*
X006390Y013333*
X006466Y013384*
X006517Y013460*
X006535Y013550*
X006517Y013640*
X006466Y013716*
X006390Y013767*
X006300Y013785*
X006248Y013774*
X006217Y013818*
X006235Y013907*
X006217Y013997*
X006166Y014073*
X006090Y014124*
X006000Y014142*
G37*
G36*
X007050Y013585D02*
X006960Y013567D01*
X006884Y013516*
X006833Y013440*
X006815Y013350*
X006833Y013260*
X006884Y013184*
X006960Y013133*
X007050Y013115*
X007140Y013133*
X007216Y013184*
X007267Y013260*
X007285Y013350*
X007267Y013440*
X007216Y013516*
X007140Y013567*
X007050Y013585*
G37*
G36*
X023700Y013918D02*
X023592Y013904D01*
X023491Y013862*
X023404Y013796*
X023338Y013709*
X023296Y013608*
X023282Y013500*
X023296Y013392*
X023338Y013291*
X023404Y013204*
X023491Y013138*
X023592Y013096*
X023700Y013082*
X023808Y013096*
X023909Y013138*
X023996Y013204*
X024062Y013291*
X024104Y013392*
X024118Y013500*
X024104Y013608*
X024062Y013709*
X023996Y013796*
X023909Y013862*
X023808Y013904*
X023700Y013918*
G37*
G36*
X008950Y013535D02*
X008860Y013517D01*
X008784Y013466*
X008733Y013390*
X008715Y013300*
X008733Y013210*
X008784Y013134*
X008860Y013083*
X008950Y013065*
X009040Y013083*
X009116Y013134*
X009167Y013210*
X009185Y013300*
X009167Y013390*
X009116Y013466*
X009040Y013517*
X008950Y013535*
G37*
G36*
X010800Y013245D02*
Y013050D01*
X010995*
X010985Y013098*
X010930Y013180*
X010848Y013235*
X010800Y013245*
G37*
G36*
X010700D02*
X010652Y013235D01*
X010570Y013180*
X010515Y013098*
X010505Y013050*
X010700*
Y013245*
G37*
G36*
X012900Y012995D02*
X012852Y012986D01*
X012770Y012930*
X012715Y012848*
X012705Y012800*
X012900*
Y012995*
G37*
G36*
X010995Y012950D02*
X010800D01*
Y012755*
X010848Y012765*
X010930Y012820*
X010985Y012902*
X010995Y012950*
G37*
G36*
X010700D02*
X010505D01*
X010515Y012902*
X010570Y012820*
X010652Y012765*
X010700Y012755*
Y012950*
G37*
G36*
X009950Y013635D02*
X009860Y013617D01*
X009784Y013566*
X009733Y013490*
X009715Y013400*
X009733Y013310*
X009784Y013234*
X009828Y013205*
Y013145*
X009784Y013116*
X009733Y013040*
X009715Y012950*
X009733Y012860*
X009784Y012784*
X009860Y012733*
X009950Y012715*
X010040Y012733*
X010116Y012784*
X010167Y012860*
X010185Y012950*
X010167Y013040*
X010116Y013116*
X010072Y013145*
Y013205*
X010116Y013234*
X010167Y013310*
X010185Y013400*
X010167Y013490*
X010116Y013566*
X010040Y013617*
X009950Y013635*
G37*
G36*
X008950Y013015D02*
X008860Y012997D01*
X008784Y012946*
X008733Y012870*
X008715Y012780*
X008733Y012690*
X008784Y012614*
X008860Y012563*
X008950Y012545*
X009040Y012563*
X009116Y012614*
X009167Y012690*
X009185Y012780*
X009167Y012870*
X009116Y012946*
X009040Y012997*
X008950Y013015*
G37*
G36*
X005690Y012995D02*
X005600Y012977D01*
X005524Y012926*
X005473Y012850*
X005455Y012760*
X005473Y012670*
X005524Y012594*
X005600Y012543*
X005690Y012525*
X005780Y012543*
X005856Y012594*
X005907Y012670*
X005925Y012760*
X005907Y012850*
X005856Y012926*
X005780Y012977*
X005690Y012995*
G37*
G36*
X004990D02*
X004900Y012977D01*
X004824Y012926*
X004773Y012850*
X004755Y012760*
X004773Y012670*
X004824Y012594*
X004900Y012543*
X004990Y012525*
X005080Y012543*
X005156Y012594*
X005207Y012670*
X005225Y012760*
X005207Y012850*
X005156Y012926*
X005080Y012977*
X004990Y012995*
G37*
G36*
X004430D02*
X004340Y012977D01*
X004264Y012926*
X004213Y012850*
X004195Y012760*
X004213Y012670*
X004264Y012594*
X004340Y012543*
X004430Y012525*
X004520Y012543*
X004596Y012594*
X004647Y012670*
X004665Y012760*
X004647Y012850*
X004596Y012926*
X004520Y012977*
X004430Y012995*
G37*
G36*
X012900Y012700D02*
X012705D01*
X012715Y012652*
X012770Y012570*
X012852Y012514*
X012900Y012505*
Y012700*
G37*
G36*
X009929Y012520D02*
X009839Y012502D01*
X009763Y012451*
X009712Y012375*
X009708Y012353*
X009655Y012342*
X009646Y012356*
X009570Y012407*
X009480Y012425*
X009390Y012407*
X009314Y012356*
X009263Y012280*
X009245Y012190*
X009263Y012100*
X009314Y012024*
X009390Y011973*
X009480Y011955*
X009570Y011973*
X009646Y012024*
X009697Y012100*
X009701Y012122*
X009754Y012133*
X009763Y012119*
X009839Y012068*
X009929Y012051*
X010019Y012068*
X010095Y012119*
X010146Y012195*
X010163Y012285*
X010146Y012375*
X010095Y012451*
X010019Y012502*
X009929Y012520*
G37*
G36*
X013000Y012995D02*
Y012750D01*
Y012505*
X013009Y012507*
X013015Y012500*
X013033Y012410*
X013084Y012334*
X013160Y012283*
X013250Y012265*
X013340Y012283*
X013416Y012334*
X013467Y012410*
X013485Y012500*
X013467Y012590*
X013416Y012666*
X013340Y012717*
X013250Y012735*
X013249Y012734*
X013200Y012776*
X013185Y012848*
X013130Y012930*
X013048Y012986*
X013000Y012995*
G37*
G36*
X022930Y012485D02*
X022840Y012467D01*
X022764Y012416*
X022713Y012340*
X022695Y012250*
X022713Y012160*
X022764Y012084*
X022840Y012033*
X022930Y012015*
X023020Y012033*
X023096Y012084*
X023147Y012160*
X023165Y012250*
X023147Y012340*
X023096Y012416*
X023020Y012467*
X022930Y012485*
G37*
G36*
X024945Y012180D02*
Y011985D01*
X025140*
X025130Y012032*
X025075Y012115*
X024992Y012170*
X024945Y012180*
G37*
G36*
X024845D02*
X024797Y012170D01*
X024714Y012115*
X024659Y012032*
X024650Y011985*
X024845*
Y012180*
G37*
G36*
X010543Y012185D02*
X010453Y012167D01*
X010377Y012116*
X010326Y012040*
X010308Y011950*
X010264Y011914*
X010210Y011925*
X010120Y011907*
X010044Y011856*
X009993Y011780*
X009975Y011690*
X009993Y011600*
X010044Y011524*
X010120Y011473*
X010210Y011455*
X010300Y011473*
X010376Y011524*
X010427Y011600*
X010445Y011690*
X010488Y011726*
X010543Y011715*
X010579Y011723*
X010609Y011678*
X010583Y011640*
X010565Y011550*
X010583Y011460*
X010634Y011384*
X010699Y011341*
X010653Y011273*
X010635Y011183*
X010653Y011093*
X010704Y011017*
X010780Y010966*
X010870Y010949*
X010960Y010966*
X011036Y011017*
X011087Y011093*
X011105Y011183*
X011087Y011273*
X011036Y011349*
X010971Y011392*
X011017Y011460*
X011035Y011550*
X011017Y011640*
X010966Y011716*
X010890Y011767*
X010800Y011785*
X010764Y011777*
X010734Y011822*
X010759Y011860*
X010777Y011950*
X010759Y012040*
X010708Y012116*
X010632Y012167*
X010543Y012185*
G37*
G36*
X021590Y011955D02*
Y011760D01*
X021785*
X021776Y011808*
X021720Y011890*
X021638Y011946*
X021590Y011955*
G37*
G36*
X021490D02*
X021442Y011946D01*
X021360Y011890*
X021305Y011808*
X021295Y011760*
X021490*
Y011955*
G37*
G36*
X025140Y011885D02*
X024945D01*
Y011690*
X024992Y011699*
X025075Y011754*
X025130Y011837*
X025140Y011885*
G37*
G36*
X024845D02*
X024650D01*
X024659Y011837*
X024714Y011754*
X024797Y011699*
X024845Y011690*
Y011885*
G37*
G36*
X006030Y011855D02*
Y011660D01*
X006225*
X006215Y011708*
X006160Y011790*
X006078Y011846*
X006030Y011855*
G37*
G36*
X005930D02*
X005882Y011846D01*
X005800Y011790*
X005745Y011708*
X005735Y011660*
X005930*
Y011855*
G37*
G36*
X007950Y011745D02*
Y011550D01*
X008145*
X008135Y011598*
X008080Y011680*
X007998Y011736*
X007950Y011745*
G37*
G36*
X007850D02*
X007802Y011736D01*
X007720Y011680*
X007665Y011598*
X007655Y011550*
X007850*
Y011745*
G37*
G36*
X002000Y013685D02*
X001910Y013667D01*
X001834Y013616*
X001783Y013540*
X001765Y013450*
X001783Y013360*
X001834Y013284*
X001910Y013233*
X002000Y013215*
X002038Y013223*
X002073Y013188*
X002065Y013150*
X002083Y013060*
X002134Y012984*
X002210Y012933*
X002300Y012915*
X002338Y012923*
X002373Y012888*
X002365Y012850*
X002383Y012760*
X002434Y012684*
X002510Y012633*
X002600Y012615*
X002638Y012623*
X002673Y012588*
X002665Y012550*
X002683Y012460*
X002734Y012384*
X002748Y012375*
Y012325*
X002734Y012316*
X002683Y012240*
X002665Y012150*
X002683Y012060*
X002734Y011984*
X002748Y011975*
Y011925*
X002734Y011916*
X002683Y011840*
X002665Y011750*
X002683Y011660*
X002734Y011584*
X002810Y011533*
X002900Y011515*
X002990Y011533*
X003066Y011584*
X003117Y011660*
X003135Y011750*
X003117Y011840*
X003066Y011916*
X003052Y011925*
Y011975*
X003066Y011984*
X003117Y012060*
X003135Y012150*
X003117Y012240*
X003066Y012316*
X003052Y012325*
Y012375*
X003066Y012384*
X003117Y012460*
X003135Y012550*
X003117Y012640*
X003066Y012716*
X002990Y012767*
X002900Y012785*
X002862Y012777*
X002827Y012812*
X002835Y012850*
X002817Y012940*
X002766Y013016*
X002690Y013067*
X002600Y013085*
X002562Y013077*
X002527Y013112*
X002535Y013150*
X002517Y013240*
X002466Y013316*
X002390Y013367*
X002300Y013385*
X002262Y013377*
X002227Y013412*
X002235Y013450*
X002217Y013540*
X002166Y013616*
X002090Y013667*
X002000Y013685*
G37*
G36*
X021785Y011660D02*
X021590D01*
Y011465*
X021638Y011474*
X021720Y011530*
X021776Y011612*
X021785Y011660*
G37*
G36*
X021490D02*
X021295D01*
X021305Y011612*
X021360Y011530*
X021442Y011474*
X021490Y011465*
Y011660*
G37*
G36*
X006225Y011560D02*
X006030D01*
Y011365*
X006078Y011374*
X006160Y011430*
X006215Y011512*
X006225Y011560*
G37*
G36*
X005930D02*
X005735D01*
X005745Y011512*
X005800Y011430*
X005882Y011374*
X005930Y011365*
Y011560*
G37*
G36*
X008145Y011450D02*
X007950D01*
Y011255*
X007998Y011264*
X008080Y011320*
X008135Y011402*
X008145Y011450*
G37*
G36*
X007850D02*
X007655D01*
X007665Y011402*
X007720Y011320*
X007802Y011264*
X007850Y011255*
Y011450*
G37*
G36*
X001200Y011635D02*
X001110Y011617D01*
X001034Y011566*
X000983Y011490*
X000965Y011400*
X000983Y011310*
X001034Y011234*
X001110Y011183*
X001200Y011165*
X001290Y011183*
X001366Y011234*
X001417Y011310*
X001435Y011400*
X001417Y011490*
X001366Y011566*
X001290Y011617*
X001200Y011635*
G37*
G36*
X020800Y011195D02*
X020710Y011177D01*
X020634Y011126*
X020583Y011050*
X020565Y010960*
X020583Y010870*
X020634Y010794*
X020710Y010743*
X020800Y010725*
X020890Y010743*
X020966Y010794*
X021017Y010870*
X021035Y010960*
X021017Y011050*
X020966Y011126*
X020890Y011177*
X020800Y011195*
G37*
G36*
X019300Y010975D02*
X019210Y010957D01*
X019134Y010906*
X019083Y010830*
X019065Y010740*
X019083Y010650*
X019134Y010574*
X019210Y010523*
X019300Y010505*
X019390Y010523*
X019466Y010574*
X019517Y010650*
X019535Y010740*
X019517Y010830*
X019466Y010906*
X019390Y010957*
X019300Y010975*
G37*
G36*
X018770Y010965D02*
X018680Y010947D01*
X018604Y010896*
X018553Y010820*
X018535Y010730*
X018553Y010640*
X018604Y010564*
X018680Y010513*
X018770Y010495*
X018860Y010513*
X018936Y010564*
X018987Y010640*
X019005Y010730*
X018987Y010820*
X018936Y010896*
X018860Y010947*
X018770Y010965*
G37*
G36*
X019780Y010755D02*
X019690Y010737D01*
X019614Y010686*
X019563Y010610*
X019545Y010520*
X019563Y010430*
X019614Y010354*
X019690Y010303*
X019780Y010285*
X019870Y010303*
X019946Y010354*
X019997Y010430*
X020015Y010520*
X019997Y010610*
X019946Y010686*
X019870Y010737*
X019780Y010755*
G37*
G36*
X018250Y010592D02*
Y010250D01*
X018592*
X018585Y010303*
X018545Y010399*
X018482Y010482*
X018399Y010545*
X018303Y010585*
X018250Y010592*
G37*
G36*
X018150D02*
X018097Y010585D01*
X018001Y010545*
X017918Y010482*
X017855Y010399*
X017815Y010303*
X017808Y010250*
X018150*
Y010592*
G37*
G36*
X006030Y010385D02*
Y010190D01*
X006225*
X006215Y010238*
X006160Y010320*
X006078Y010375*
X006030Y010385*
G37*
G36*
X005930D02*
X005882Y010375D01*
X005800Y010320*
X005745Y010238*
X005735Y010190*
X005930*
Y010385*
G37*
G36*
X016260Y010635D02*
X016170Y010617D01*
X016094Y010566*
X016043Y010490*
X016025Y010400*
X016043Y010310*
X016094Y010234*
X016170Y010183*
X016260Y010165*
X016350Y010183*
X016426Y010234*
X016477Y010310*
X016495Y010400*
X016477Y010490*
X016426Y010566*
X016350Y010617*
X016260Y010635*
G37*
G36*
X019970Y010235D02*
Y010040D01*
X020165*
X020155Y010088*
X020100Y010170*
X020018Y010225*
X019970Y010235*
G37*
G36*
X019870D02*
X019822Y010225D01*
X019740Y010170*
X019684Y010088*
X019675Y010040*
X019870*
Y010235*
G37*
G36*
X006225Y010090D02*
X006030D01*
Y009895*
X006078Y009905*
X006160Y009960*
X006215Y010042*
X006225Y010090*
G37*
G36*
X005930D02*
X005735D01*
X005745Y010042*
X005800Y009960*
X005882Y009905*
X005930Y009895*
Y010090*
G37*
G36*
X016390Y010065D02*
Y009870D01*
X016585*
X016575Y009918*
X016520Y010000*
X016438Y010055*
X016390Y010065*
G37*
G36*
X016290D02*
X016242Y010055D01*
X016160Y010000*
X016105Y009918*
X016095Y009870*
X016290*
Y010065*
G37*
G36*
X018592Y010150D02*
X018250D01*
Y009808*
X018303Y009815*
X018399Y009855*
X018482Y009918*
X018545Y010001*
X018585Y010097*
X018592Y010150*
G37*
G36*
X018150D02*
X017808D01*
X017815Y010097*
X017855Y010001*
X017918Y009918*
X018001Y009855*
X018097Y009815*
X018150Y009808*
Y010150*
G37*
G36*
X008170Y010539D02*
X008072Y010526D01*
X007981Y010488*
X007902Y010428*
X007842Y010349*
X007804Y010258*
X007791Y010160*
X007804Y010062*
X007842Y009971*
X007902Y009892*
X007981Y009832*
X008072Y009794*
X008170Y009781*
X008268Y009794*
X008359Y009832*
X008438Y009892*
X008498Y009971*
X008536Y010062*
X008549Y010160*
X008536Y010258*
X008498Y010349*
X008438Y010428*
X008359Y010488*
X008268Y010526*
X008170Y010539*
G37*
G36*
X010920Y009955D02*
Y009760D01*
X011115*
X011106Y009808*
X011050Y009890*
X010968Y009945*
X010920Y009955*
G37*
G36*
X010820D02*
X010772Y009945D01*
X010690Y009890*
X010634Y009808*
X010625Y009760*
X010820*
Y009955*
G37*
G36*
X009900Y009945D02*
Y009750D01*
X010095*
X010085Y009798*
X010030Y009880*
X009948Y009935*
X009900Y009945*
G37*
G36*
X009800D02*
X009752Y009935D01*
X009670Y009880*
X009615Y009798*
X009605Y009750*
X009800*
Y009945*
G37*
G36*
X020165Y009940D02*
X019970D01*
Y009745*
X020018Y009755*
X020100Y009810*
X020155Y009892*
X020165Y009940*
G37*
G36*
X019870D02*
X019675D01*
X019684Y009892*
X019740Y009810*
X019822Y009755*
X019870Y009745*
Y009940*
G37*
G36*
X003546Y009751D02*
X003457Y009733D01*
X003381Y009682*
X003355Y009644*
X003305*
X003279Y009682*
X003203Y009733*
X003113Y009751*
X003024Y009733*
X002948Y009682*
X002897Y009606*
X002879Y009517*
X002897Y009427*
X002948Y009351*
X002986Y009325*
Y009275*
X002948Y009249*
X002897Y009173*
X002879Y009083*
X002897Y008994*
X002948Y008918*
X003024Y008867*
X003113Y008849*
X003203Y008867*
X003279Y008918*
X003305Y008956*
X003355*
X003381Y008918*
X003457Y008867*
X003546Y008849*
X003636Y008867*
X003712Y008918*
X003763Y008994*
X003781Y009083*
X003763Y009173*
X003712Y009249*
X003674Y009275*
Y009325*
X003712Y009351*
X003763Y009427*
X003781Y009517*
X003763Y009606*
X003712Y009682*
X003636Y009733*
X003546Y009751*
G37*
G36*
X016585Y009770D02*
X016390D01*
Y009575*
X016438Y009585*
X016520Y009640*
X016575Y009722*
X016585Y009770*
G37*
G36*
X016290D02*
X016095D01*
X016105Y009722*
X016160Y009640*
X016242Y009585*
X016290Y009575*
Y009770*
G37*
G36*
X009220Y009945D02*
X009130Y009927D01*
X009054Y009876*
X009003Y009800*
X008985Y009710*
X009003Y009620*
X009054Y009544*
X009130Y009493*
X009220Y009475*
X009310Y009493*
X009386Y009544*
X009437Y009620*
X009455Y009710*
X009437Y009800*
X009386Y009876*
X009310Y009927*
X009220Y009945*
G37*
G36*
X011115Y009660D02*
X010920D01*
Y009465*
X010968Y009475*
X011050Y009530*
X011106Y009612*
X011115Y009660*
G37*
G36*
X010820D02*
X010625D01*
X010634Y009612*
X010690Y009530*
X010772Y009475*
X010820Y009465*
Y009660*
G37*
G36*
X010095Y009650D02*
X009900D01*
Y009455*
X009948Y009465*
X010030Y009520*
X010085Y009602*
X010095Y009650*
G37*
G36*
X009800D02*
X009605D01*
X009615Y009602*
X009670Y009520*
X009752Y009465*
X009800Y009455*
Y009650*
G37*
G36*
X007660Y009905D02*
X007570Y009887D01*
X007494Y009836*
X007443Y009760*
X007425Y009670*
X007443Y009580*
X007494Y009504*
X007570Y009453*
X007660Y009435*
X007750Y009453*
X007826Y009504*
X007877Y009580*
X007895Y009670*
X007877Y009760*
X007826Y009836*
X007750Y009887*
X007660Y009905*
G37*
G36*
X015750Y009885D02*
X015660Y009867D01*
X015584Y009816*
X015533Y009740*
X015515Y009650*
X015533Y009560*
X015584Y009484*
X015660Y009433*
X015750Y009415*
X015840Y009433*
X015916Y009484*
X015967Y009560*
X015985Y009650*
X015967Y009740*
X015916Y009816*
X015840Y009867*
X015750Y009885*
G37*
G36*
X018770Y009845D02*
X018680Y009827D01*
X018604Y009776*
X018553Y009700*
X018535Y009610*
X018553Y009520*
X018604Y009444*
X018680Y009393*
X018770Y009375*
X018860Y009393*
X018936Y009444*
X018987Y009520*
X019005Y009610*
X018987Y009700*
X018936Y009776*
X018860Y009827*
X018770Y009845*
G37*
G36*
X024580Y009295D02*
Y009100D01*
X024775*
X024766Y009148*
X024710Y009230*
X024628Y009285*
X024580Y009295*
G37*
G36*
X024480D02*
X024432Y009285D01*
X024350Y009230*
X024295Y009148*
X024285Y009100*
X024480*
Y009295*
G37*
G36*
X018200Y009579D02*
X018102Y009566D01*
X018011Y009528*
X017932Y009468*
X017872Y009389*
X017834Y009298*
X017821Y009200*
X017834Y009102*
X017872Y009011*
X017932Y008932*
X018011Y008872*
X018102Y008834*
X018200Y008821*
X018298Y008834*
X018389Y008872*
X018468Y008932*
X018528Y009011*
X018566Y009102*
X018579Y009200*
X018566Y009298*
X018528Y009389*
X018468Y009468*
X018389Y009528*
X018298Y009566*
X018200Y009579*
G37*
G36*
X024775Y009000D02*
X024580D01*
Y008805*
X024628Y008815*
X024710Y008870*
X024766Y008952*
X024775Y009000*
G37*
G36*
X024480D02*
X024285D01*
X024295Y008952*
X024350Y008870*
X024432Y008815*
X024480Y008805*
Y009000*
G37*
G36*
X008170Y009539D02*
X008072Y009526D01*
X007981Y009488*
X007902Y009428*
X007842Y009349*
X007804Y009258*
X007791Y009160*
X007804Y009062*
X007842Y008971*
X007902Y008892*
X007981Y008832*
X008072Y008794*
X008170Y008781*
X008268Y008794*
X008359Y008832*
X008438Y008892*
X008498Y008971*
X008536Y009062*
X008549Y009160*
X008536Y009258*
X008498Y009349*
X008438Y009428*
X008359Y009488*
X008268Y009526*
X008170Y009539*
G37*
G36*
X015900Y008745D02*
Y008550D01*
X016095*
X016085Y008598*
X016030Y008680*
X015948Y008735*
X015900Y008745*
G37*
G36*
X015800D02*
X015752Y008735D01*
X015670Y008680*
X015615Y008598*
X015605Y008550*
X015800*
Y008745*
G37*
G36*
X016095Y008450D02*
X015900D01*
Y008255*
X015948Y008265*
X016030Y008320*
X016085Y008402*
X016095Y008450*
G37*
G36*
X015800D02*
X015605D01*
X015615Y008402*
X015670Y008320*
X015752Y008265*
X015800Y008255*
Y008450*
G37*
G36*
X004900Y008585D02*
X004810Y008567D01*
X004734Y008516*
X004683Y008440*
X004665Y008350*
X004683Y008260*
X004734Y008184*
X004810Y008133*
X004900Y008115*
X004990Y008133*
X005066Y008184*
X005117Y008260*
X005135Y008350*
X005117Y008440*
X005066Y008516*
X004990Y008567*
X004900Y008585*
G37*
G36*
X009835Y008435D02*
X009745Y008417D01*
X009669Y008366*
X009618Y008290*
X009600Y008200*
X009618Y008110*
X009669Y008034*
X009745Y007983*
X009835Y007965*
X009924Y007983*
X010000Y008034*
X010051Y008110*
X010069Y008200*
X010051Y008290*
X010000Y008366*
X009924Y008417*
X009835Y008435*
G37*
G36*
X020660Y008385D02*
X020570Y008367D01*
X020494Y008316*
X020443Y008240*
X020425Y008150*
X020443Y008060*
X020494Y007984*
X020570Y007933*
X020660Y007915*
X020750Y007933*
X020826Y007984*
X020877Y008060*
X020895Y008150*
X020877Y008240*
X020826Y008316*
X020750Y008367*
X020660Y008385*
G37*
G36*
X018200Y008579D02*
X018102Y008566D01*
X018011Y008528*
X017932Y008468*
X017872Y008389*
X017834Y008298*
X017821Y008200*
X017834Y008102*
X017872Y008011*
X017932Y007932*
X018011Y007872*
X018102Y007834*
X018200Y007821*
X018298Y007834*
X018389Y007872*
X018468Y007932*
X018528Y008011*
X018566Y008102*
X018579Y008200*
X018566Y008298*
X018528Y008389*
X018468Y008468*
X018389Y008528*
X018298Y008566*
X018200Y008579*
G37*
G36*
X010350Y007995D02*
Y007800D01*
X010545*
X010536Y007848*
X010480Y007930*
X010398Y007985*
X010350Y007995*
G37*
G36*
X010250D02*
X010202Y007985D01*
X010120Y007930*
X010065Y007848*
X010055Y007800*
X010250*
Y007995*
G37*
G36*
X022610Y008255D02*
X022520Y008237D01*
X022444Y008186*
X022393Y008110*
X022375Y008020*
X022393Y007930*
X022444Y007854*
X022520Y007803*
X022610Y007785*
X022700Y007803*
X022776Y007854*
X022827Y007930*
X022845Y008020*
X022827Y008110*
X022776Y008186*
X022700Y008237*
X022610Y008255*
G37*
G36*
X008170Y008539D02*
X008072Y008526D01*
X007981Y008488*
X007902Y008428*
X007842Y008349*
X007804Y008258*
X007791Y008160*
X007804Y008062*
X007842Y007971*
X007902Y007892*
X007981Y007832*
X008072Y007794*
X008170Y007781*
X008268Y007794*
X008359Y007832*
X008438Y007892*
X008498Y007971*
X008536Y008062*
X008549Y008160*
X008536Y008258*
X008498Y008349*
X008438Y008428*
X008359Y008488*
X008268Y008526*
X008170Y008539*
G37*
G36*
X010545Y007700D02*
X010350D01*
Y007505*
X010398Y007515*
X010480Y007570*
X010536Y007652*
X010545Y007700*
G37*
G36*
X010250D02*
X010055D01*
X010065Y007652*
X010120Y007570*
X010202Y007515*
X010250Y007505*
Y007700*
G37*
G36*
X023860Y007965D02*
X023770Y007947D01*
X023694Y007896*
X023643Y007820*
X023625Y007730*
X023643Y007640*
X023694Y007564*
X023770Y007513*
X023860Y007495*
X023950Y007513*
X024026Y007564*
X024077Y007640*
X024095Y007730*
X024077Y007820*
X024026Y007896*
X023950Y007947*
X023860Y007965*
G37*
G36*
X020870Y007655D02*
Y007460D01*
X021065*
X021056Y007508*
X021000Y007590*
X020918Y007645*
X020870Y007655*
G37*
G36*
X020770D02*
X020722Y007645D01*
X020640Y007590*
X020584Y007508*
X020575Y007460*
X020770*
Y007655*
G37*
G36*
X016150Y007855D02*
X016060Y007837D01*
X015984Y007786*
X015933Y007710*
X015915Y007620*
X015933Y007530*
X015984Y007454*
X016060Y007403*
X016150Y007385*
X016240Y007403*
X016316Y007454*
X016367Y007530*
X016385Y007620*
X016367Y007710*
X016316Y007786*
X016240Y007837*
X016150Y007855*
G37*
G36*
X014390Y008155D02*
X014300Y008137D01*
X014224Y008086*
X014173Y008010*
X014155Y007920*
X014173Y007830*
X014224Y007754*
X014283Y007715*
X014233Y007640*
X014215Y007550*
X014233Y007460*
X014284Y007384*
X014360Y007333*
X014450Y007315*
X014540Y007333*
X014616Y007384*
X014667Y007460*
X014685Y007550*
X014667Y007640*
X014616Y007716*
X014557Y007755*
X014607Y007830*
X014625Y007920*
X014607Y008010*
X014556Y008086*
X014480Y008137*
X014390Y008155*
G37*
G36*
X004950Y007445D02*
Y007250D01*
X005145*
X005135Y007298*
X005080Y007380*
X004998Y007435*
X004950Y007445*
G37*
G36*
X004850D02*
X004802Y007435D01*
X004720Y007380*
X004665Y007298*
X004655Y007250*
X004850*
Y007445*
G37*
G36*
X015919Y007413D02*
Y007218D01*
X016113*
X016104Y007266*
X016049Y007349*
X015966Y007404*
X015919Y007413*
G37*
G36*
X015819D02*
X015771Y007404D01*
X015688Y007349*
X015633Y007266*
X015624Y007218*
X015819*
Y007413*
G37*
G36*
X021065Y007360D02*
X020870D01*
Y007165*
X020918Y007175*
X021000Y007230*
X021056Y007312*
X021065Y007360*
G37*
G36*
X020770D02*
X020575D01*
X020584Y007312*
X020640Y007230*
X020722Y007175*
X020770Y007165*
Y007360*
G37*
G36*
X014460Y007215D02*
X014370Y007197D01*
X014294Y007146*
X014243Y007070*
X014237Y007035*
X014203Y007022*
X014182Y007018*
X014100Y007035*
X014010Y007017*
X013934Y006966*
X013883Y006890*
X013865Y006800*
X013883Y006710*
X013934Y006634*
X014010Y006583*
X014100Y006565*
X014190Y006583*
X014266Y006634*
X014317Y006710*
X014323Y006745*
X014357Y006758*
X014378Y006762*
X014460Y006745*
X014550Y006763*
X014626Y006814*
X014677Y006890*
X014695Y006980*
X014677Y007070*
X014626Y007146*
X014550Y007197*
X014460Y007215*
G37*
G36*
X005145Y007150D02*
X004950D01*
Y006955*
X004998Y006965*
X005080Y007020*
X005135Y007102*
X005145Y007150*
G37*
G36*
X004850D02*
X004655D01*
X004665Y007102*
X004720Y007020*
X004802Y006965*
X004850Y006955*
Y007150*
G37*
G36*
X016113Y007118D02*
X015919D01*
Y006924*
X015966Y006933*
X016049Y006988*
X016104Y007071*
X016113Y007118*
G37*
G36*
X015819D02*
X015624D01*
X015633Y007071*
X015688Y006988*
X015771Y006933*
X015819Y006924*
Y007118*
G37*
G36*
X018200Y007579D02*
X018102Y007566D01*
X018011Y007528*
X017932Y007468*
X017872Y007389*
X017834Y007298*
X017821Y007200*
X017834Y007102*
X017872Y007011*
X017932Y006932*
X018011Y006872*
X018102Y006834*
X018200Y006821*
X018298Y006834*
X018389Y006872*
X018468Y006932*
X018528Y007011*
X018566Y007102*
X018579Y007200*
X018566Y007298*
X018528Y007389*
X018468Y007468*
X018389Y007528*
X018298Y007566*
X018200Y007579*
G37*
G36*
X008170Y007539D02*
X008072Y007526D01*
X007981Y007488*
X007902Y007428*
X007842Y007349*
X007804Y007258*
X007791Y007160*
X007804Y007062*
X007842Y006971*
X007902Y006892*
X007981Y006832*
X008072Y006794*
X008170Y006781*
X008268Y006794*
X008359Y006832*
X008438Y006892*
X008498Y006971*
X008536Y007062*
X008549Y007160*
X008536Y007258*
X008498Y007349*
X008438Y007428*
X008359Y007488*
X008268Y007526*
X008170Y007539*
G37*
G36*
X009200Y006845D02*
Y006650D01*
X009395*
X009385Y006698*
X009330Y006780*
X009248Y006835*
X009200Y006845*
G37*
G36*
X009100D02*
X009052Y006835D01*
X008970Y006780*
X008915Y006698*
X008905Y006650*
X009100*
Y006845*
G37*
G36*
X010370Y006825D02*
Y006630D01*
X010565*
X010555Y006678*
X010500Y006760*
X010418Y006815*
X010370Y006825*
G37*
G36*
X009395Y006550D02*
X009200D01*
Y006355*
X009248Y006365*
X009330Y006420*
X009385Y006502*
X009395Y006550*
G37*
G36*
X009100D02*
X008905D01*
X008915Y006502*
X008970Y006420*
X009052Y006365*
X009100Y006355*
Y006550*
G37*
G36*
X004850Y006735D02*
X004760Y006717D01*
X004684Y006666*
X004633Y006590*
X004615Y006500*
X004633Y006410*
X004684Y006334*
X004760Y006283*
X004850Y006265*
X004940Y006283*
X005016Y006334*
X005067Y006410*
X005085Y006500*
X005067Y006590*
X005016Y006666*
X004940Y006717*
X004850Y006735*
G37*
G36*
X016150Y006685D02*
X016060Y006667D01*
X015984Y006616*
X015933Y006540*
X015915Y006450*
X015933Y006360*
X015984Y006284*
X016060Y006233*
X016150Y006215*
X016240Y006233*
X016316Y006284*
X016367Y006360*
X016385Y006450*
X016367Y006540*
X016316Y006616*
X016240Y006667*
X016150Y006685*
G37*
G36*
X018200Y006579D02*
X018102Y006566D01*
X018011Y006528*
X017932Y006468*
X017872Y006389*
X017834Y006298*
X017821Y006200*
X017834Y006102*
X017872Y006011*
X017899Y005976*
X017871Y005930*
X017850Y005935*
X017760Y005917*
X017684Y005866*
X017633Y005790*
X017615Y005700*
X017633Y005610*
X017684Y005534*
X017760Y005483*
X017850Y005465*
X017871Y005470*
X017899Y005424*
X017872Y005389*
X017834Y005298*
X017821Y005200*
X017834Y005102*
X017872Y005011*
X017932Y004932*
X018011Y004872*
X018102Y004834*
X018200Y004821*
X018298Y004834*
X018389Y004872*
X018468Y004932*
X018528Y005011*
X018566Y005102*
X018579Y005200*
X018566Y005298*
X018528Y005389*
X018468Y005468*
X018389Y005528*
X018298Y005566*
X018200Y005579*
X018102Y005566*
X018095Y005563*
X018062Y005603*
X018067Y005610*
X018085Y005700*
X018067Y005790*
X018062Y005797*
X018095Y005837*
X018102Y005834*
X018200Y005821*
X018298Y005834*
X018389Y005872*
X018468Y005932*
X018528Y006011*
X018566Y006102*
X018579Y006200*
X018566Y006298*
X018528Y006389*
X018468Y006468*
X018389Y006528*
X018298Y006566*
X018200Y006579*
G37*
G36*
X009835Y006985D02*
X009745Y006967D01*
X009669Y006916*
X009618Y006840*
X009600Y006750*
X009618Y006660*
X009669Y006584*
X009745Y006533*
X009835Y006515*
X009924Y006533*
X010000Y006584*
X010021Y006615*
X010068Y006596*
X010065Y006580*
X010085Y006482*
X010140Y006400*
X010162Y006385*
Y006335*
X010134Y006316*
X010083Y006240*
X010065Y006150*
X010083Y006060*
X010134Y005984*
X010210Y005933*
X010300Y005915*
X010390Y005933*
X010466Y005984*
X010517Y006060*
X010535Y006150*
X010517Y006240*
X010466Y006316*
X010458Y006321*
Y006371*
X010500Y006400*
X010555Y006482*
X010565Y006530*
X010320*
Y006580*
X010270*
Y006825*
X010222Y006815*
X010140Y006760*
X010115Y006723*
X010068Y006742*
X010069Y006750*
X010051Y006840*
X010000Y006916*
X009924Y006967*
X009835Y006985*
G37*
G36*
X014550Y006335D02*
X014460Y006317D01*
X014384Y006266*
X014333Y006190*
X014315Y006100*
X014333Y006010*
X014384Y005934*
X014460Y005883*
X014550Y005865*
X014640Y005883*
X014716Y005934*
X014767Y006010*
X014785Y006100*
X014767Y006190*
X014716Y006266*
X014640Y006317*
X014550Y006335*
G37*
G36*
X008170Y006539D02*
X008072Y006526D01*
X007981Y006488*
X007902Y006428*
X007842Y006349*
X007804Y006258*
X007791Y006160*
X007804Y006062*
X007842Y005971*
X007902Y005892*
X007981Y005832*
X008072Y005794*
X008170Y005781*
X008268Y005794*
X008359Y005832*
X008438Y005892*
X008498Y005971*
X008536Y006062*
X008549Y006160*
X008536Y006258*
X008498Y006349*
X008438Y006428*
X008359Y006488*
X008268Y006526*
X008170Y006539*
G37*
G36*
X022250Y006235D02*
X022160Y006217D01*
X022084Y006166*
X022033Y006090*
X022015Y006000*
X022033Y005910*
X022084Y005834*
X022160Y005783*
X022250Y005765*
X022340Y005783*
X022416Y005834*
X022467Y005910*
X022485Y006000*
X022467Y006090*
X022416Y006166*
X022340Y006217*
X022250Y006235*
G37*
G36*
X021640Y006215D02*
X021550Y006197D01*
X021474Y006146*
X021423Y006070*
X021405Y005980*
X021423Y005890*
X021474Y005814*
X021550Y005763*
X021640Y005745*
X021730Y005763*
X021806Y005814*
X021857Y005890*
X021875Y005980*
X021857Y006070*
X021806Y006146*
X021730Y006197*
X021640Y006215*
G37*
G36*
X014557Y005631D02*
X014467Y005613D01*
X014391Y005563*
X014340Y005487*
X014322Y005397*
X014325Y005382*
X014278Y005362*
X014276Y005366*
X014200Y005417*
X014110Y005435*
X014020Y005417*
X013944Y005366*
X013893Y005290*
X013875Y005200*
X013886Y005145*
X013839Y005126*
X013806Y005176*
X013730Y005227*
X013640Y005245*
X013550Y005227*
X013474Y005176*
X013423Y005100*
X013405Y005010*
X013423Y004920*
X013474Y004844*
X013550Y004793*
X013640Y004775*
X013730Y004793*
X013806Y004844*
X013857Y004920*
X013875Y005010*
X013864Y005065*
X013911Y005084*
X013944Y005034*
X014020Y004983*
X014110Y004965*
X014200Y004983*
X014276Y005034*
X014327Y005110*
X014345Y005200*
X014341Y005215*
X014389Y005235*
X014391Y005231*
X014467Y005180*
X014557Y005162*
X014647Y005180*
X014723Y005231*
X014773Y005307*
X014791Y005397*
X014773Y005487*
X014723Y005563*
X014647Y005613*
X014557Y005631*
G37*
G36*
X009200Y005545D02*
Y005350D01*
X009395*
X009385Y005398*
X009330Y005480*
X009248Y005535*
X009200Y005545*
G37*
G36*
X009100D02*
X009052Y005535D01*
X008970Y005480*
X008915Y005398*
X008905Y005350*
X009100*
Y005545*
G37*
G36*
X020510Y005535D02*
Y005340D01*
X020705*
X020696Y005388*
X020640Y005470*
X020558Y005525*
X020510Y005535*
G37*
G36*
X020410D02*
X020362Y005525D01*
X020280Y005470*
X020224Y005388*
X020215Y005340*
X020410*
Y005535*
G37*
G36*
X012950Y006935D02*
X012860Y006917D01*
X012784Y006866*
X012733Y006790*
X012715Y006700*
X012733Y006610*
X012784Y006534*
X012828Y006505*
Y006445*
X012784Y006416*
X012733Y006340*
X012715Y006250*
X012733Y006160*
X012784Y006084*
X012828Y006055*
Y005995*
X012784Y005966*
X012733Y005890*
X012715Y005800*
X012733Y005710*
X012784Y005634*
X012798Y005625*
Y005575*
X012784Y005566*
X012733Y005490*
X012715Y005400*
X012733Y005310*
X012784Y005234*
X012860Y005183*
X012950Y005165*
X013040Y005183*
X013116Y005234*
X013167Y005310*
X013185Y005400*
X013167Y005490*
X013116Y005566*
X013102Y005575*
Y005625*
X013116Y005634*
X013167Y005710*
X013185Y005800*
X013167Y005890*
X013116Y005966*
X013072Y005995*
Y006055*
X013116Y006084*
X013167Y006160*
X013185Y006250*
X013167Y006340*
X013116Y006416*
X013072Y006445*
Y006505*
X013116Y006534*
X013167Y006610*
X013185Y006700*
X013167Y006790*
X013116Y006866*
X013040Y006917*
X012950Y006935*
G37*
G36*
X004380Y005355D02*
Y005160D01*
X004575*
X004566Y005208*
X004510Y005290*
X004428Y005345*
X004380Y005355*
G37*
G36*
X004280D02*
X004232Y005345D01*
X004150Y005290*
X004094Y005208*
X004085Y005160*
X004280*
Y005355*
G37*
G36*
X009395Y005250D02*
X009200D01*
Y005055*
X009248Y005064*
X009330Y005120*
X009385Y005202*
X009395Y005250*
G37*
G36*
X009100D02*
X008905D01*
X008915Y005202*
X008970Y005120*
X009052Y005064*
X009100Y005055*
Y005250*
G37*
G36*
X020705Y005240D02*
X020510D01*
Y005045*
X020558Y005055*
X020640Y005110*
X020696Y005192*
X020705Y005240*
G37*
G36*
X020410D02*
X020215D01*
X020224Y005192*
X020280Y005110*
X020362Y005055*
X020410Y005045*
Y005240*
G37*
G36*
X015750Y005435D02*
X015660Y005417D01*
X015584Y005366*
X015533Y005290*
X015515Y005200*
X015533Y005110*
X015584Y005034*
X015660Y004983*
X015750Y004965*
X015840Y004983*
X015916Y005034*
X015967Y005110*
X015985Y005200*
X015967Y005290*
X015916Y005366*
X015840Y005417*
X015750Y005435*
G37*
G36*
X004575Y005060D02*
X004380D01*
Y004865*
X004428Y004875*
X004510Y004930*
X004566Y005012*
X004575Y005060*
G37*
G36*
X004280D02*
X004085D01*
X004094Y005012*
X004150Y004930*
X004232Y004875*
X004280Y004865*
Y005060*
G37*
G36*
X017200Y005685D02*
X017110Y005667D01*
X017034Y005616*
X016983Y005540*
X016965Y005450*
X016983Y005360*
X017034Y005284*
X017048Y005275*
Y005225*
X017034Y005216*
X016983Y005140*
X016965Y005050*
X016983Y004960*
X017034Y004884*
X017110Y004833*
X017200Y004815*
X017290Y004833*
X017366Y004884*
X017417Y004960*
X017435Y005050*
X017417Y005140*
X017366Y005216*
X017352Y005225*
Y005275*
X017366Y005284*
X017417Y005360*
X017435Y005450*
X017417Y005540*
X017366Y005616*
X017290Y005667*
X017200Y005685*
G37*
G36*
X012600Y005185D02*
X012510Y005167D01*
X012434Y005116*
X012383Y005040*
X012365Y004950*
X012383Y004860*
X012434Y004784*
X012510Y004733*
X012600Y004715*
X012690Y004733*
X012766Y004784*
X012817Y004860*
X012835Y004950*
X012817Y005040*
X012766Y005116*
X012690Y005167*
X012600Y005185*
G37*
G36*
X008170Y005539D02*
X008072Y005526D01*
X007981Y005488*
X007902Y005428*
X007842Y005349*
X007804Y005258*
X007791Y005160*
X007804Y005062*
X007842Y004971*
X007902Y004892*
X007981Y004832*
X008072Y004794*
X008170Y004781*
X008204Y004786*
X008233Y004740*
X008215Y004650*
X008229Y004581*
X008194Y004535*
X008170Y004539*
X008072Y004526*
X007981Y004488*
X007902Y004428*
X007842Y004349*
X007804Y004258*
X007791Y004160*
X007804Y004062*
X007842Y003971*
X007902Y003892*
X007981Y003832*
X008072Y003794*
X008170Y003781*
X008268Y003794*
X008359Y003832*
X008387Y003853*
X008430Y003824*
X008415Y003750*
X008433Y003660*
X008470Y003605*
X008444Y003555*
X008220*
Y003210*
X008565*
Y003493*
X008604Y003525*
X008650Y003515*
X008740Y003533*
X008816Y003584*
X008867Y003660*
X008885Y003750*
X008867Y003840*
X008816Y003916*
X008740Y003967*
X008650Y003985*
X008560Y003967*
X008546Y003957*
X008506Y003991*
X008536Y004062*
X008549Y004160*
X008536Y004258*
X008498Y004349*
X008481Y004371*
X008502Y004426*
X008540Y004433*
X008616Y004484*
X008667Y004560*
X008685Y004650*
X008667Y004740*
X008616Y004816*
X008540Y004867*
X008489Y004877*
X008468Y004932*
X008498Y004971*
X008536Y005062*
X008549Y005160*
X008536Y005258*
X008498Y005349*
X008438Y005428*
X008359Y005488*
X008268Y005526*
X008170Y005539*
G37*
G36*
X018800Y004955D02*
X018710Y004937D01*
X018634Y004886*
X018583Y004810*
X018565Y004720*
X018583Y004630*
X018634Y004554*
X018710Y004503*
X018800Y004485*
X018890Y004503*
X018966Y004554*
X019017Y004630*
X019035Y004720*
X019017Y004810*
X018966Y004886*
X018890Y004937*
X018800Y004955*
G37*
G36*
X005990Y004865D02*
X005900Y004847D01*
X005824Y004796*
X005773Y004720*
X005755Y004630*
X005773Y004540*
X005824Y004464*
X005900Y004413*
X005990Y004395*
X006080Y004413*
X006156Y004464*
X006207Y004540*
X006225Y004630*
X006207Y004720*
X006156Y004796*
X006080Y004847*
X005990Y004865*
G37*
G36*
X013100Y004475D02*
Y004280D01*
X013295*
X013285Y004328*
X013230Y004410*
X013148Y004466*
X013100Y004475*
G37*
G36*
X013000D02*
X012952Y004466D01*
X012870Y004410*
X012815Y004328*
X012805Y004280*
X013000*
Y004475*
G37*
G36*
X014250Y004705D02*
X014160Y004687D01*
X014084Y004636*
X014033Y004560*
X014015Y004470*
X014033Y004380*
X014084Y004304*
X014160Y004253*
X014250Y004235*
X014340Y004253*
X014416Y004304*
X014467Y004380*
X014485Y004470*
X014467Y004560*
X014416Y004636*
X014340Y004687*
X014250Y004705*
G37*
G36*
X009200Y004245D02*
Y004050D01*
X009395*
X009385Y004098*
X009330Y004180*
X009248Y004236*
X009200Y004245*
G37*
G36*
X009100D02*
X009052Y004236D01*
X008970Y004180*
X008915Y004098*
X008905Y004050*
X009100*
Y004245*
G37*
G36*
X013295Y004180D02*
X013100D01*
Y003985*
X013148Y003995*
X013230Y004050*
X013285Y004132*
X013295Y004180*
G37*
G36*
X013000D02*
X012805D01*
X012815Y004132*
X012870Y004050*
X012952Y003995*
X013000Y003985*
Y004180*
G37*
G36*
X017200Y004335D02*
X017110Y004317D01*
X017034Y004266*
X016983Y004190*
X016965Y004100*
X016983Y004010*
X017034Y003934*
X017110Y003883*
X017200Y003865*
X017290Y003883*
X017366Y003934*
X017417Y004010*
X017435Y004100*
X017417Y004190*
X017366Y004266*
X017290Y004317*
X017200Y004335*
G37*
G36*
X010370Y004055D02*
Y003860D01*
X010565*
X010555Y003908*
X010500Y003990*
X010418Y004045*
X010370Y004055*
G37*
G36*
X010270D02*
X010222Y004045D01*
X010140Y003990*
X010085Y003908*
X010075Y003860*
X010270*
Y004055*
G37*
G36*
X018200Y004579D02*
X018102Y004566D01*
X018011Y004528*
X017932Y004468*
X017872Y004389*
X017834Y004298*
X017821Y004200*
X017834Y004102*
X017872Y004011*
X017932Y003932*
X018011Y003872*
X018102Y003834*
X018200Y003821*
X018298Y003834*
X018389Y003872*
X018468Y003932*
X018528Y004011*
X018566Y004102*
X018579Y004200*
X018566Y004298*
X018528Y004389*
X018468Y004468*
X018389Y004528*
X018298Y004566*
X018200Y004579*
G37*
G36*
X009395Y003950D02*
X009200D01*
Y003755*
X009248Y003765*
X009330Y003820*
X009385Y003902*
X009395Y003950*
G37*
G36*
X009100D02*
X008905D01*
X008915Y003902*
X008970Y003820*
X009052Y003765*
X009100Y003755*
Y003950*
G37*
G36*
X016160Y004055D02*
X016070Y004037D01*
X015994Y003986*
X015943Y003910*
X015925Y003820*
X015943Y003730*
X015994Y003654*
X016070Y003603*
X016160Y003585*
X016250Y003603*
X016326Y003654*
X016377Y003730*
X016395Y003820*
X016377Y003910*
X016326Y003986*
X016250Y004037*
X016160Y004055*
G37*
G36*
X010565Y003760D02*
X010370D01*
Y003565*
X010418Y003575*
X010500Y003630*
X010555Y003712*
X010565Y003760*
G37*
G36*
X010270D02*
X010075D01*
X010085Y003712*
X010140Y003630*
X010222Y003575*
X010270Y003565*
Y003760*
G37*
G36*
X019550Y003335D02*
X019460Y003317D01*
X019384Y003266*
X019375Y003252*
X019325*
X019316Y003266*
X019240Y003317*
X019150Y003335*
X019060Y003317*
X018984Y003266*
X018933Y003190*
X018915Y003100*
X018933Y003010*
X018984Y002934*
X019060Y002883*
X019150Y002865*
X019240Y002883*
X019316Y002934*
X019325Y002948*
X019375*
X019384Y002934*
X019460Y002883*
X019550Y002865*
X019640Y002883*
X019716Y002934*
X019767Y003010*
X019785Y003100*
X019767Y003190*
X019716Y003266*
X019640Y003317*
X019550Y003335*
G37*
G36*
X018595Y003595D02*
X018250D01*
Y003250*
X018595*
Y003595*
G37*
G36*
X018150D02*
X017805D01*
Y003250*
X018150*
Y003595*
G37*
G36*
X014250Y004185D02*
X014160Y004167D01*
X014084Y004116*
X014033Y004040*
X014015Y003950*
X014033Y003860*
X014084Y003784*
X014160Y003733*
X014175Y003730*
Y003680*
X014160Y003677*
X014084Y003626*
X014033Y003550*
X014015Y003460*
X014033Y003370*
X014084Y003294*
X014160Y003243*
X014250Y003225*
X014340Y003243*
X014416Y003294*
X014467Y003370*
X014485Y003460*
X014467Y003550*
X014416Y003626*
X014340Y003677*
X014325Y003680*
Y003730*
X014340Y003733*
X014416Y003784*
X014467Y003860*
X014485Y003950*
X014467Y004040*
X014416Y004116*
X014340Y004167*
X014250Y004185*
G37*
G36*
X008120Y003555D02*
X007775D01*
Y003210*
X008120*
Y003555*
G37*
G36*
X016895Y003015D02*
Y002820D01*
X017090*
X017080Y002868*
X017025Y002950*
X016942Y003006*
X016895Y003015*
G37*
G36*
X016795D02*
X016747Y003006D01*
X016664Y002950*
X016609Y002868*
X016600Y002820*
X016795*
Y003015*
G37*
G36*
X018595Y003150D02*
X018250D01*
Y002805*
X018595*
Y003150*
G37*
G36*
X018150D02*
X017805D01*
Y002805*
X018150*
Y003150*
G37*
G36*
X008565Y003110D02*
X008220D01*
Y002765*
X008565*
Y003110*
G37*
G36*
X008120D02*
X007775D01*
Y002765*
X008120*
Y003110*
G37*
G36*
X013110Y002955D02*
Y002760D01*
X013305*
X013296Y002808*
X013240Y002890*
X013158Y002946*
X013110Y002955*
G37*
G36*
X013010D02*
X012962Y002946D01*
X012880Y002890*
X012824Y002808*
X012815Y002760*
X013010*
Y002955*
G37*
G36*
X010370Y002885D02*
Y002690D01*
X010565*
X010555Y002738*
X010500Y002820*
X010418Y002876*
X010370Y002885*
G37*
G36*
X009835Y003060D02*
X009745Y003042D01*
X009669Y002991*
X009618Y002915*
X009600Y002825*
X009618Y002735*
X009669Y002659*
X009745Y002608*
X009835Y002590*
X009924Y002608*
X010000Y002659*
X010025Y002696*
X010041Y002690*
X010270*
Y002885*
X010222Y002876*
X010140Y002820*
X010110Y002776*
X010063Y002796*
X010069Y002825*
X010051Y002915*
X010000Y002991*
X009924Y003042*
X009835Y003060*
G37*
G36*
X016160Y003025D02*
X016070Y003007D01*
X015994Y002956*
X015943Y002880*
X015925Y002790*
X015943Y002700*
X015994Y002624*
X016070Y002573*
X016160Y002555*
X016250Y002573*
X016326Y002624*
X016377Y002700*
X016395Y002790*
X016377Y002880*
X016326Y002956*
X016250Y003007*
X016160Y003025*
G37*
G36*
X017090Y002720D02*
X016895D01*
Y002525*
X016942Y002535*
X017025Y002590*
X017080Y002672*
X017090Y002720*
G37*
G36*
X016795D02*
X016600D01*
X016609Y002672*
X016664Y002590*
X016747Y002535*
X016795Y002525*
Y002720*
G37*
G36*
X013305Y002660D02*
X013110D01*
Y002465*
X013158Y002475*
X013240Y002530*
X013296Y002612*
X013305Y002660*
G37*
G36*
X013010D02*
X012815D01*
X012824Y002612*
X012880Y002530*
X012962Y002475*
X013010Y002465*
Y002660*
G37*
G36*
X010565Y002590D02*
X010370D01*
Y002395*
X010418Y002405*
X010500Y002460*
X010555Y002542*
X010565Y002590*
G37*
G36*
X010270D02*
X010075D01*
X010085Y002542*
X010140Y002460*
X010222Y002405*
X010270Y002395*
Y002590*
G37*
G36*
X010300Y001995D02*
X010252Y001985D01*
X010170Y001930*
X010115Y001848*
X010108Y001813*
X010057*
X010051Y001840*
X010000Y001916*
X009924Y001967*
X009835Y001985*
X009745Y001967*
X009669Y001916*
X009618Y001840*
X009600Y001750*
X009618Y001660*
X009669Y001584*
X009745Y001533*
X009835Y001515*
X009924Y001533*
X010000Y001584*
X010051Y001660*
X010057Y001687*
X010108*
X010115Y001652*
X010170Y001570*
X010252Y001515*
X010300Y001505*
Y001750*
Y001995*
G37*
G36*
X015750D02*
X015702Y001985D01*
X015620Y001930*
X015565Y001848*
X015555Y001800*
X015750*
Y001995*
G37*
G36*
X010400D02*
Y001800D01*
X010595*
X010586Y001848*
X010530Y001930*
X010448Y001985*
X010400Y001995*
G37*
G36*
X009200D02*
Y001800D01*
X009395*
X009385Y001848*
X009330Y001930*
X009248Y001985*
X009200Y001995*
G37*
G36*
X009100D02*
X009052Y001985D01*
X008970Y001930*
X008915Y001848*
X008905Y001800*
X009100*
Y001995*
G37*
G36*
X016890Y001885D02*
Y001690D01*
X017085*
X017076Y001738*
X017020Y001820*
X016938Y001875*
X016890Y001885*
G37*
G36*
X016790D02*
X016742Y001875D01*
X016660Y001820*
X016604Y001738*
X016595Y001690*
X016790*
Y001885*
G37*
G36*
X015750Y001700D02*
X015555D01*
X015565Y001652*
X015620Y001570*
X015702Y001515*
X015750Y001505*
Y001700*
G37*
G36*
X010595D02*
X010400D01*
Y001505*
X010448Y001515*
X010530Y001570*
X010586Y001652*
X010595Y001700*
G37*
G36*
X009395D02*
X009200D01*
Y001505*
X009248Y001515*
X009330Y001570*
X009385Y001652*
X009395Y001700*
G37*
G36*
X009100D02*
X008905D01*
X008915Y001652*
X008970Y001570*
X009052Y001515*
X009100Y001505*
Y001700*
G37*
G36*
X015850Y001995D02*
Y001750D01*
Y001505*
X015898Y001515*
X015954Y001552*
X016000Y001484*
X016076Y001433*
X016165Y001415*
X016255Y001433*
X016331Y001484*
X016382Y001560*
X016400Y001650*
X016382Y001740*
X016331Y001816*
X016255Y001867*
X016165Y001885*
X016076Y001867*
X016072Y001864*
X016028Y001862*
X016012Y001883*
X015980Y001930*
X015898Y001985*
X015850Y001995*
G37*
G36*
X017085Y001590D02*
X016890D01*
Y001395*
X016938Y001405*
X017020Y001460*
X017076Y001542*
X017085Y001590*
G37*
G36*
X016790D02*
X016595D01*
X016604Y001542*
X016660Y001460*
X016742Y001405*
X016790Y001395*
Y001590*
G37*
G36*
X013090Y001475D02*
Y001280D01*
X013285*
X013276Y001328*
X013220Y001410*
X013138Y001465*
X013090Y001475*
G37*
G36*
X012990D02*
X012942Y001465D01*
X012860Y001410*
X012804Y001328*
X012795Y001280*
X012990*
Y001475*
G37*
G36*
X011870Y004195D02*
X011780Y004177D01*
X011704Y004126*
X011653Y004050*
X011635Y003960*
X011653Y003870*
X011704Y003794*
X011780Y003743*
X011820Y003735*
Y003685*
X011780Y003677*
X011704Y003626*
X011653Y003550*
X011635Y003460*
X011653Y003370*
X011704Y003294*
X011780Y003243*
X011820Y003235*
Y003185*
X011780Y003177*
X011704Y003126*
X011653Y003050*
X011635Y002960*
X011653Y002870*
X011704Y002794*
X011780Y002743*
X011820Y002735*
Y002685*
X011780Y002677*
X011704Y002626*
X011653Y002550*
X011635Y002460*
X011653Y002370*
X011704Y002294*
X011780Y002243*
X011820Y002235*
Y002185*
X011780Y002177*
X011704Y002126*
X011653Y002050*
X011635Y001960*
X011653Y001870*
X011704Y001794*
X011780Y001743*
X011820Y001735*
Y001685*
X011780Y001677*
X011704Y001626*
X011653Y001550*
X011635Y001460*
X011653Y001370*
X011704Y001294*
X011780Y001243*
X011820Y001235*
Y001185*
X011780Y001177*
X011704Y001126*
X011682Y001092*
X011632*
X011616Y001116*
X011540Y001167*
X011450Y001185*
X011360Y001167*
X011284Y001116*
X011233Y001040*
X011215Y000950*
X011233Y000860*
X011284Y000784*
X011360Y000733*
X011450Y000715*
X011540Y000733*
X011616Y000784*
X011638Y000818*
X011688*
X011704Y000794*
X011780Y000743*
X011870Y000725*
X011960Y000743*
X012036Y000794*
X012087Y000870*
X012105Y000960*
X012087Y001050*
X012036Y001126*
X011960Y001177*
X011920Y001185*
Y001235*
X011960Y001243*
X012036Y001294*
X012087Y001370*
X012105Y001460*
X012087Y001550*
X012036Y001626*
X011960Y001677*
X011920Y001685*
Y001735*
X011960Y001743*
X012036Y001794*
X012087Y001870*
X012105Y001960*
X012087Y002050*
X012036Y002126*
X011960Y002177*
X011920Y002185*
Y002235*
X011960Y002243*
X012036Y002294*
X012087Y002370*
X012105Y002460*
X012087Y002550*
X012036Y002626*
X011960Y002677*
X011920Y002685*
Y002735*
X011960Y002743*
X012036Y002794*
X012087Y002870*
X012105Y002960*
X012087Y003050*
X012036Y003126*
X011960Y003177*
X011920Y003185*
Y003235*
X011960Y003243*
X012036Y003294*
X012087Y003370*
X012105Y003460*
X012087Y003550*
X012036Y003626*
X011960Y003677*
X011920Y003685*
Y003735*
X011960Y003743*
X012036Y003794*
X012087Y003870*
X012105Y003960*
X012087Y004050*
X012036Y004126*
X011960Y004177*
X011870Y004195*
G37*
G36*
X013285Y001180D02*
X013090D01*
Y000985*
X013138Y000995*
X013220Y001050*
X013276Y001132*
X013285Y001180*
G37*
G36*
X012990D02*
X012795D01*
X012804Y001132*
X012860Y001050*
X012942Y000995*
X012990Y000985*
Y001180*
G37*
G36*
X014250Y003175D02*
X014160Y003157D01*
X014084Y003106*
X014033Y003030*
X014015Y002940*
X014033Y002850*
X014084Y002774*
X014160Y002723*
X014175Y002720*
Y002670*
X014160Y002667*
X014084Y002616*
X014033Y002540*
X014015Y002450*
X014033Y002360*
X014084Y002284*
X014160Y002233*
X014175Y002230*
Y002180*
X014160Y002177*
X014084Y002126*
X014033Y002050*
X014015Y001960*
X014033Y001870*
X014084Y001794*
X014160Y001743*
X014225Y001730*
Y001680*
X014160Y001667*
X014084Y001616*
X014033Y001540*
X014015Y001450*
X014033Y001360*
X014084Y001284*
X014160Y001233*
X014200Y001225*
Y001175*
X014160Y001167*
X014084Y001116*
X014033Y001040*
X014015Y000950*
X014033Y000860*
X014084Y000784*
X014160Y000733*
X014250Y000715*
X014340Y000733*
X014416Y000784*
X014445Y000828*
X014505*
X014534Y000784*
X014610Y000733*
X014700Y000715*
X014790Y000733*
X014866Y000784*
X014917Y000860*
X014935Y000950*
X014917Y001040*
X014866Y001116*
X014790Y001167*
X014700Y001185*
X014610Y001167*
X014534Y001116*
X014505Y001072*
X014445*
X014416Y001116*
X014340Y001167*
X014300Y001175*
Y001225*
X014340Y001233*
X014416Y001284*
X014467Y001360*
X014485Y001450*
X014467Y001540*
X014416Y001616*
X014340Y001667*
X014275Y001680*
Y001730*
X014340Y001743*
X014416Y001794*
X014467Y001870*
X014485Y001960*
X014467Y002050*
X014416Y002126*
X014340Y002177*
X014325Y002180*
Y002230*
X014340Y002233*
X014416Y002284*
X014467Y002360*
X014485Y002450*
X014467Y002540*
X014416Y002616*
X014340Y002667*
X014325Y002670*
Y002720*
X014340Y002723*
X014416Y002774*
X014467Y002850*
X014485Y002940*
X014467Y003030*
X014416Y003106*
X014340Y003157*
X014250Y003175*
G37*
%LNde-020717_copper_signal_2-3*%
%LPD*%
G54D27*
X020040Y014680D02*
Y015290D01*
X018770Y013410D02*
X020040Y014680D01*
X017160Y013410D02*
X018770D01*
X020270Y014060D02*
X020530D01*
X019420Y013210D02*
X020270Y014060D01*
X017172Y013210D02*
X019420D01*
X020040Y015290D02*
X020290Y015540D01*
X013040Y010970D02*
X014932D01*
X012920Y011090D02*
X013040Y010970D01*
X012750Y011090D02*
X012920D01*
X014932Y010970D02*
X017172Y013210D01*
X014870Y011120D02*
X017160Y013410D01*
X013280Y011120D02*
X014870D01*
X013060Y011340D02*
X013280Y011120D01*
X012740Y011100D02*
X012750Y011090D01*
X011950Y010870D02*
Y011120D01*
X011710Y010630D02*
X011950Y010870D01*
X011710Y010390D02*
Y010630D01*
X011920Y010180D02*
X012680D01*
X011710Y010390D02*
X011920Y010180D01*
X017234Y013060D02*
X020530D01*
X014984Y010810D02*
X017234Y013060D01*
X012640Y010810D02*
X014984D01*
X012340Y011110D02*
X012640Y010810D01*
X015046Y010660D02*
X017296Y012910D01*
X019840*
X020200Y012550*
X020830*
X021050Y012770*
Y013510*
X021530Y013990D02*
Y014060D01*
X012680Y010180D02*
X012840Y010340D01*
X013030Y010660D02*
X015046D01*
X012840Y010340D02*
Y010470D01*
X013030Y010660*
X020290Y015540D02*
X021050D01*
X021530Y015060*
X021050Y013510D02*
X021530Y013990D01*
G54D35*
X006564Y021914D03*
X005857Y022621D03*
Y021207D03*
X005150Y021914D03*
Y020500D03*
X004443Y021207D03*
Y019793D03*
X003736Y020500D03*
Y019086D03*
X013350Y025250D03*
X018200Y010200D03*
Y009200D03*
Y008200D03*
Y007200D03*
Y006200D03*
Y005200D03*
Y004200D03*
X008170Y010160D03*
Y009160D03*
Y008160D03*
Y007160D03*
Y006160D03*
Y005160D03*
Y004160D03*
X020393Y022907D03*
X022707Y020593D03*
X021530Y016060D03*
X020530Y015060D03*
X021530D03*
X020530Y014060D03*
X021530D03*
X020530Y013060D03*
X021530D03*
G54D36*
X003029Y019793D03*
G54D37*
X014890Y024250D03*
X016110D03*
G54D38*
X012350Y025250D03*
G54D39*
X018200Y003200D03*
X008170Y003160D03*
X020530Y016060D03*
G54D40*
X023700Y015500D03*
G54D41*
X023700Y014500D03*
Y013500D03*
G54D42*
X021100Y022200D03*
X022000Y021300D03*
G54D43*
X003113Y009083D03*
X003546D03*
X003113Y009517D03*
X003546D03*
X021430Y017250D03*
X018650Y018400D03*
X018770Y010730D03*
Y009610D03*
X007660Y009670D03*
X017710Y024150D03*
X019860Y021870D03*
X019300Y022320D03*
X016040Y019400D03*
X016310Y019140D03*
X015250Y019530D03*
X014840Y019830D03*
X016340Y009820D03*
X014710Y017900D03*
X009100Y022050D03*
X015850Y018800D03*
X012800Y015600D03*
X016280Y021120D03*
X013900Y015600D03*
X010320Y002640D03*
Y006580D03*
X009850Y009700D03*
X010300Y007750D03*
X009835Y006750D03*
Y008200D03*
X016230Y013040D03*
X014550Y006100D03*
X017700Y014900D03*
X015750Y009650D03*
X018400Y015600D03*
X015869Y007168D03*
X004630Y017170D03*
X015490Y013020D03*
X016310Y013500D03*
X016840Y001640D03*
X016165Y001650D03*
X010870Y011183D03*
X013640Y005010D03*
X014110Y005200D03*
X014557Y005397D03*
X014460Y006980D03*
X015380Y012210D03*
X014750Y014740D03*
X015070Y014390D03*
X011870Y003960D03*
X014250Y004470D03*
Y003950D03*
Y003460D03*
Y002940D03*
Y002450D03*
Y001960D03*
Y001450D03*
Y000950D03*
X011870Y000960D03*
Y001460D03*
Y001960D03*
Y002460D03*
Y002960D03*
Y003460D03*
X012550Y010490D03*
X004430Y012760D03*
X010810Y016290D03*
X005690Y012760D03*
X004990D03*
X011700Y016670D03*
X005890Y016560D03*
X006410Y016710D03*
X003729Y015450D03*
X003335Y015090D03*
X014700Y000950D03*
X016160Y002790D03*
Y003820D03*
X016150Y006450D03*
Y007620D03*
X016845Y002770D03*
X013300Y015600D03*
X007510Y018910D03*
X017100Y018400D03*
X017750Y017050D03*
X013200Y011700D03*
X013250Y012500D03*
X011350Y013900D03*
X010750Y013000D03*
X012950Y012750D03*
X009350Y018800D03*
X010800Y020250D03*
X011300Y020700D03*
X012100Y021500D03*
X012900Y022400D03*
Y021950D03*
X010900Y022400D03*
X007400Y017700D03*
X015800Y015030D03*
X016200Y015400D03*
X014400Y020250D03*
X011150Y015450D03*
Y014750D03*
X012950Y006700D03*
Y006250D03*
X014100Y006800D03*
X014450Y007550D03*
X015850Y008500D03*
X012600Y004950D03*
X007900Y011500D03*
X008950Y012780D03*
X010800Y011550D03*
X010543Y011950D03*
X010210Y011690D03*
X009929Y012285D03*
X009950Y012950D03*
X012950Y005800D03*
X009480Y012190D03*
X009950Y013400D03*
X012950Y005400D03*
X014390Y014210D03*
X014450Y013760D03*
X017060Y020010D03*
X017160Y014340D03*
X017200Y004100D03*
Y005050D03*
Y005450D03*
X017850Y005700D03*
X016600Y020750D03*
X016700Y021150D03*
X012900Y021500D03*
X015750Y005200D03*
X010300Y006150D03*
X016200Y023000D03*
X015850Y023200D03*
X005810Y018927D03*
X005200Y018300D03*
X006850Y018250D03*
X007180Y018580D03*
X005510Y018613D03*
X006160Y019240D03*
X007840D03*
X006750Y019800D03*
X008350D03*
X002300Y013150D03*
X002000Y013450D03*
X001600Y013900D03*
X001250Y013600D03*
X008300Y017450D03*
X004850Y017900D03*
X006900Y017750D03*
X002600Y012850D03*
X003250Y016700D03*
X001250Y013150D03*
X001200Y011400D03*
X002900Y012550D03*
Y012150D03*
Y011750D03*
X009835Y002825D03*
Y001750D03*
X010320Y003810D03*
X009150Y001750D03*
Y004000D03*
Y005300D03*
Y006600D03*
X018000Y019400D03*
X018400D03*
X017300Y020600D03*
X018650Y019100D03*
X018400Y018750D03*
X017000Y020850D03*
X024400Y017600D03*
X022950Y019250D03*
X008650Y021350D03*
X015900Y017750D03*
X011250Y020200D03*
X009550Y021400D03*
X012360Y016290D03*
X018110Y015320D03*
X015810Y016280D03*
X018550Y016200D03*
X014390Y007920D03*
X010870Y009710D03*
X021540Y011710D03*
X024895Y011935D03*
X023860Y007730D03*
X022610Y008020D03*
X024530Y009050D03*
X018800Y004720D03*
X019920Y009990D03*
X011360Y017320D03*
X010740Y018200D03*
X010405Y017875D03*
X010070Y017550D03*
X002940Y015540D03*
X003780Y016700D03*
X004900Y008350D03*
Y007200D03*
X011800Y020750D03*
X010050Y019150D03*
X016400Y018600D03*
X019300Y013550D03*
X008650Y020100D03*
X008550Y022050D03*
X009280Y022790D03*
X008550Y022900D03*
X007150Y023450D03*
X008550D03*
X007850D03*
X015550Y012600D03*
X011700Y017640D03*
Y018100D03*
X011650Y019050D03*
X012200D03*
X012150Y020500D03*
X012650D03*
X011100Y023350D03*
X009900Y022050D03*
X010500Y022400D03*
X012350Y024600D03*
X011900Y023350D03*
X013300Y023400D03*
X006835Y014465D03*
X006000Y013907D03*
X006300Y013550D03*
X008650Y003750D03*
X008450Y004650D03*
X015800Y001750D03*
X010350D03*
X011450Y000950D03*
X022250Y006000D03*
X019150Y003100D03*
X019550D03*
X008000Y015450D03*
Y015060D03*
X007050Y013350D03*
X008950Y013300D03*
Y014100D03*
X008000Y013450D03*
X008450D03*
X004850Y006500D03*
X016850Y018100D03*
X016200Y018050D03*
X020220Y013520D03*
X019420Y014770D03*
X018570Y013860D03*
X018830Y014140D03*
X014230Y021310D03*
X020850Y014550D03*
X021890Y014560D03*
X013040Y001230D03*
X013060Y002710D03*
X013050Y004230D03*
X004330Y005110D03*
X005990Y004630D03*
X005980Y010140D03*
Y011610D03*
X009220Y009710D03*
X020660Y008150D03*
X021640Y005980D03*
X020820Y007410D03*
X019780Y010520D03*
X012070Y010490D03*
X011950Y011120D03*
X012340Y011110D03*
X012740Y011100D03*
X013060Y011340D03*
X013000Y014365D03*
X021570Y018274D03*
X020720Y019410D03*
X018650Y024030D03*
X020460Y005290D03*
X012220Y015110D03*
X014930Y015450D03*
X006550Y017460D03*
X021440Y018790D03*
X016260Y010400D03*
X019300Y010740D03*
X013910Y020960D03*
X020800Y010960D03*
X022930Y012250D03*
X011480Y016290D03*
X011150Y016550D03*
X013890Y018890D03*
X013480Y020440D03*
M02*