%FSDAX23Y23*%
%MOIN*%
%SFA1B1*%

%IPPOS*%
%AMD13*
4,1,4,0.006900,-0.023600,0.023600,-0.006900,-0.006900,0.023600,-0.023600,0.006900,0.006900,-0.023600,0.0*
1,1,0.023600,0.015300,-0.015300*
1,1,0.023600,-0.015300,0.015300*
%
%AMD17*
4,1,4,-0.001300,0.029200,-0.029200,0.001300,0.001300,-0.029200,0.029200,-0.001300,-0.001300,0.029200,0.0*
%
%AMD18*
4,1,4,0.029200,0.001300,0.001300,0.029200,-0.029200,-0.001300,-0.001300,-0.029200,0.029200,0.001300,0.0*
%
%AMD35*
4,1,4,-0.041700,0.000000,0.000000,-0.041700,0.041700,0.000000,0.000000,0.041700,-0.041700,0.000000,0.0*
%
%AMD40*
4,1,4,0.000000,-0.041700,0.041700,0.000000,0.000000,0.041700,-0.041700,0.000000,0.000000,-0.041700,0.0*
%
%ADD10R,0.039400X0.043300*%
%ADD11R,0.043300X0.039400*%
%ADD12R,0.031500X0.031500*%
G04~CAMADD=13~3~0.0~0.0~236.0~669.0~0.0~0.0~0~0.0~0.0~0.0~0.0~0~0.0~0.0~0.0~0.0~0~0.0~0.0~0.0~225.0~540.0~540.0*
%ADD13D13*%
%ADD14O,0.023600X0.078700*%
%ADD15O,0.086600X0.023600*%
%ADD16R,0.027600X0.015700*%
G04~CAMADD=17~9~0.0~0.0~394.0~433.0~0.0~0.0~0~0.0~0.0~0.0~0.0~0~0.0~0.0~0.0~0.0~0~0.0~0.0~0.0~45.0~584.0~583.0*
%ADD17D17*%
G04~CAMADD=18~9~0.0~0.0~394.0~433.0~0.0~0.0~0~0.0~0.0~0.0~0.0~0~0.0~0.0~0.0~0.0~0~0.0~0.0~0.0~315.0~584.0~583.0*
%ADD18D18*%
%ADD19R,0.035400X0.027600*%
%ADD20R,0.059100X0.059100*%
%ADD21C,0.059100*%
%ADD22R,0.013800X0.049200*%
%ADD23R,0.086600X0.078700*%
%ADD24R,0.051200X0.059100*%
%ADD25R,0.059100X0.051200*%
%ADD26R,0.011800X0.049200*%
%ADD27C,0.010000*%
%ADD28C,0.020000*%
%ADD29C,0.030000*%
%ADD30R,0.078700X0.118100*%
%ADD31R,0.051400X0.353600*%
%ADD32R,0.121000X0.075000*%
%ADD33R,0.121000X0.130000*%
%ADD34R,0.122000X0.038000*%
G04~CAMADD=35~10~0.0~590.4~0.0~0.0~0.0~0.0~0~0.0~0.0~0.0~0.0~0~0.0~0.0~0.0~0.0~0~0.0~0.0~0.0~135.0~590.4~0.0*
%ADD35D35*%
%ADD36C,0.051200*%
%ADD37R,0.059100X0.059100*%
%ADD38R,0.066900X0.066900*%
%ADD39C,0.066900*%
G04~CAMADD=40~10~0.0~590.4~0.0~0.0~0.0~0.0~0~0.0~0.0~0.0~0.0~0~0.0~0.0~0.0~0.0~0~0.0~0.0~0.0~225.0~590.4~0.0*
%ADD40D40*%
%ADD41C,0.030000*%
%LNde-020717-1*%
%LPD*%
G54D10*
X03885Y03148D03*
Y03081D03*
X03880Y01925D03*
Y01991D03*
X02865Y02171D03*
Y02238D03*
X03330Y02808D03*
Y02741D03*
X04105Y01998D03*
Y01931D03*
X02600Y01735D03*
Y01668D03*
X03210Y02741D03*
Y02808D03*
X03270Y02741D03*
Y02808D03*
X04420Y02715D03*
Y02648D03*
Y02801D03*
Y02868D03*
X03447Y03059D03*
Y02992D03*
X04350Y02207D03*
Y02140D03*
X04200Y02207D03*
Y02140D03*
X02509Y02319D03*
Y02252D03*
X02660Y01668D03*
Y01735D03*
X02509Y02464D03*
Y02397D03*
X03344Y02409D03*
Y02476D03*
X02925Y02238D03*
Y02171D03*
X03092Y02837D03*
Y02770D03*
X03805Y02441D03*
Y02508D03*
X04273Y02208D03*
Y02141D03*
G54D11*
X04268Y02077D03*
X04201D03*
X03943Y02510D03*
X03876D03*
X04025Y01866D03*
X04092D03*
X02637Y02321D03*
X02570D03*
Y02251D03*
X02637D03*
X02596Y01795D03*
X02663D03*
X02661Y01865D03*
X02594D03*
X02663Y01935D03*
X02596D03*
X02663Y01995D03*
X02596D03*
X02637Y02466D03*
X02570D03*
X02663Y02065D03*
X02596D03*
X02663Y02125D03*
X02596D03*
X02663Y02185D03*
X02596D03*
X02861Y03760D03*
X02928D03*
X02570Y02396D03*
X02637D03*
X03273Y03740D03*
X03206D03*
X04270Y01961D03*
X04203D03*
X04270Y02019D03*
X04203D03*
X04036Y03150D03*
X03969D03*
X04036Y03011D03*
X03969D03*
X03948Y01865D03*
X03881D03*
X04023Y02005D03*
X03956D03*
X02673Y01585D03*
X02606D03*
X02731Y02410D03*
X02798D03*
X03492Y03831D03*
X03425D03*
X02858Y01427D03*
X02925D03*
X02856Y01525D03*
X02923D03*
X02856Y01650D03*
X02923D03*
X02856Y01775D03*
X02923D03*
X02856Y01900D03*
X02923D03*
X02856Y02025D03*
X02923D03*
X03623Y02202D03*
X03556D03*
X03648Y02130D03*
X03581D03*
X03648Y02005D03*
X03581D03*
X03876Y02440D03*
X03943D03*
X03633Y01897D03*
X03566D03*
X03613Y01735D03*
X03546D03*
X03623Y01642D03*
X03556D03*
X03623Y01521D03*
X03556D03*
X03623Y01420D03*
X03556D03*
X02928Y02310D03*
X02861D03*
G54D12*
X03025Y03819D03*
Y03760D03*
G54D13*
X03649Y03229D03*
X03684Y03264D03*
X03720Y03300D03*
X03755Y03335D03*
X03450Y03428D03*
X03485Y03463D03*
X03521Y03499D03*
X03556Y03534D03*
G54D14*
X03219Y02936D03*
X03269D03*
X03319D03*
X03369D03*
X03219Y03133D03*
X03269D03*
X03319D03*
X03369D03*
G54D15*
X03886Y02235D03*
Y02185D03*
Y02135D03*
Y02085D03*
X04075Y02235D03*
Y02185D03*
Y02135D03*
Y02085D03*
X02500Y01815D03*
Y01865D03*
Y01915D03*
Y01965D03*
Y02015D03*
Y02065D03*
Y02115D03*
Y02165D03*
X02311Y01815D03*
Y01865D03*
Y01915D03*
Y01965D03*
Y02015D03*
Y02065D03*
Y02115D03*
Y02165D03*
G54D16*
X02449Y02260D03*
Y02286D03*
Y02311D03*
X02368D03*
Y02260D03*
X02449Y02401D03*
Y02427D03*
Y02452D03*
X02368D03*
Y02401D03*
G54D17*
X03752Y03504D03*
X03704Y03551D03*
X03878Y03631D03*
X03831Y03678D03*
X03942Y03313D03*
X03895Y03360D03*
X03256Y03575D03*
X03303Y03528D03*
X03453Y03311D03*
X03406Y03358D03*
X03750Y03597D03*
X03798Y03550D03*
X03941Y03406D03*
X03988Y03359D03*
X03733Y03066D03*
X03686Y03113D03*
X03466Y03208D03*
X03419Y03255D03*
G54D18*
X03984Y03267D03*
X04031Y03314D03*
X03056Y03481D03*
X03103Y03528D03*
X03714Y03674D03*
X03667Y03627D03*
X03888Y03458D03*
X03841Y03411D03*
X03683Y03748D03*
X03636Y03701D03*
X03613Y02801D03*
X03566Y02754D03*
X03306Y02601D03*
X03353Y02648D03*
X03193Y02608D03*
X03146Y02561D03*
X03151Y02650D03*
X03104Y02603D03*
X03772Y02972D03*
X03725Y02925D03*
X03156Y03581D03*
X03203Y03628D03*
X02966Y03386D03*
X03013Y03433D03*
X02826Y03241D03*
X02873Y03288D03*
X03244Y03395D03*
X03291Y03442D03*
G54D19*
X03167Y01753D03*
X03219D03*
X03324D03*
X03273D03*
X03167Y01701D03*
X03219D03*
X03167Y01651D03*
X03219D03*
X03167Y01601D03*
X03219D03*
X03167Y01551D03*
X03219D03*
X03167Y01501D03*
X03219D03*
X03167Y01451D03*
X03219D03*
X03167Y01401D03*
X03219D03*
X03045Y01430D03*
X02994D03*
X03439D03*
X03490D03*
X03324Y01401D03*
X03273D03*
X03324Y01451D03*
X03273D03*
X03324Y01501D03*
X03273D03*
X03324Y01551D03*
X03273D03*
X03324Y01601D03*
X03273D03*
X03324Y01651D03*
X03273D03*
X03324Y01701D03*
X03273D03*
G54D20*
X02925Y03115D03*
X03175Y03830D03*
G54D21*
X02825Y03115D03*
X02725D03*
X02596Y03496D03*
X02525Y03567D03*
Y03425D03*
X02455Y03496D03*
Y03355D03*
X02384Y03425D03*
Y03284D03*
X02313Y03355D03*
Y03213D03*
X03275Y03830D03*
X03760Y02325D03*
Y02225D03*
Y02125D03*
Y02025D03*
Y01925D03*
Y01825D03*
Y01725D03*
X02757Y02321D03*
Y02221D03*
Y02121D03*
Y02021D03*
Y01921D03*
Y01821D03*
Y01721D03*
X03979Y03595D03*
X04210Y03364D03*
X04093Y02911D03*
X03993Y02811D03*
X04093D03*
X03993Y02711D03*
X04093D03*
X03993Y02611D03*
X04093D03*
G54D22*
X04214Y02485D03*
X04234D03*
X04254D03*
X04273D03*
X04293D03*
X04313D03*
X04332D03*
X04352D03*
X04372D03*
X04393D03*
G54D23*
X04215Y02645D03*
Y02764D03*
X04305Y03045D03*
Y03164D03*
X04160Y03045D03*
Y03164D03*
G54D24*
X03957Y03080D03*
X04032D03*
X03952Y01935D03*
X04027D03*
G54D25*
X03735Y02427D03*
Y02502D03*
X03655Y02427D03*
Y02502D03*
G54D26*
X02116Y02905D03*
X02135D03*
X02155D03*
X02175D03*
X02194D03*
X02214D03*
X02234D03*
X02253D03*
X02273D03*
X02293D03*
X02312D03*
X02332D03*
X02352D03*
X02371D03*
X02391D03*
X02411D03*
X02431D03*
X02450D03*
X02470D03*
X02490D03*
X02509D03*
X02529D03*
X02549D03*
X02568D03*
X02588D03*
X02608D03*
X02627D03*
X02647D03*
X02667D03*
X02686D03*
X02706D03*
X02726D03*
X02745D03*
X02765D03*
X02785D03*
X02805D03*
X02824D03*
X02844D03*
X02864D03*
X02883D03*
G54D27*
X03042Y02846D02*
X03095D01*
X03041Y02736D02*
X03122D01*
X02950Y02645D02*
X03041Y02736D01*
X02935Y02645D02*
X02950D01*
X02795Y02864D02*
Y02905D01*
Y02864D02*
X02815Y02845D01*
X02860Y02652D02*
Y02780D01*
X02826Y02814D02*
X02860Y02780D01*
X02807Y02814D02*
X02826D01*
X02833Y02625D02*
X02860Y02652D01*
X02623Y02751D02*
X02667Y02795D01*
Y02905*
X02175Y02904D02*
X02175Y02905D01*
X02175Y02850D02*
Y02904D01*
X02214Y02875D02*
Y02905D01*
Y02875D02*
X02230Y02860D01*
Y02850D02*
Y02860D01*
X02362Y02762D02*
Y02905D01*
Y02762D02*
X02390Y02735D01*
X02421Y02659D02*
X02491D01*
X02332Y02747D02*
X02421Y02659D01*
X02332Y02747D02*
Y02905D01*
X02490Y02845D02*
X02495Y02840D01*
X02490Y02845D02*
Y02905D01*
X02470Y02767D02*
Y02905D01*
Y02767D02*
X02498Y02740D01*
X02265Y03090D02*
X02690Y03514D01*
X02228Y03090D02*
X02265D01*
X02100Y02961D02*
X02228Y03090D01*
X02241Y03060D02*
X02277D01*
X02230Y03049D02*
X02241Y03060D01*
X02230Y02990D02*
Y03049D01*
X02271Y03075D02*
X02705Y03508D01*
X02234Y03075D02*
X02271D01*
X02200Y03040D02*
X02234Y03075D01*
X02277Y03060D02*
X02720Y03502D01*
X02690Y03514D02*
Y03615D01*
X02705Y03508D02*
Y03625D01*
X02720Y03502D02*
Y03575D01*
X02100Y02740D02*
Y02961D01*
X02200Y02980D02*
Y03040D01*
Y02980D02*
X02221Y02959D01*
X02251*
X02529Y02860D02*
X02530Y02860D01*
X02529Y02860D02*
Y02905D01*
X02548Y02788D02*
X02598D01*
X02647Y02837*
Y02905*
X02627Y02847D02*
Y02905D01*
X02311Y03032D02*
Y03050D01*
X02268Y02976D02*
Y02989D01*
X02251Y02959D02*
X02268Y02976D01*
X02253Y02935D02*
X02384Y03066D01*
X02559Y02738D02*
X02575D01*
X02617Y02696*
X02498Y02740D02*
X02515D01*
X02493Y02707D02*
X02584D01*
X02450Y02749D02*
X02493Y02707D01*
X02450Y02749D02*
Y02905D01*
X02489Y02688D02*
X02582D01*
X02431Y02746D02*
X02489Y02688D01*
X02431Y02746D02*
Y02905D01*
X04238Y01847D02*
Y01991D01*
X04031Y01640D02*
X04238Y01847D01*
X03480Y01916D02*
X03549Y01848D01*
Y01809D02*
Y01848D01*
X03520Y01780D02*
X03549Y01809D01*
X03480Y01916D02*
Y02409D01*
X03263Y01780D02*
X03520D01*
X02626Y03710D02*
X02649D01*
X02544Y03628D02*
X02626Y03710D01*
X02506Y03628D02*
X02544D01*
X03590Y03804D02*
X03681D01*
X03530Y03864D02*
X03590Y03804D01*
X03805Y03145D02*
X03815Y03135D01*
X02915Y02430D02*
X03178Y02167D01*
X02915Y02430D02*
Y02497D01*
X03178Y01902D02*
Y02167D01*
X02932Y02433D02*
Y02533D01*
Y02433D02*
X03193Y02173D01*
X02961Y02426D02*
Y02474D01*
Y02426D02*
X03208Y02179D01*
X02994Y02414D02*
Y02500D01*
Y02414D02*
X03235Y02173D01*
Y01975D02*
Y02173D01*
X03208Y01957D02*
Y02179D01*
X03193Y01935D02*
Y02173D01*
X02649Y02504D02*
X02790D01*
X02533Y02620D02*
X02649Y02504D01*
X02661Y02519D02*
X02797D01*
X02570Y02610D02*
X02661Y02519D01*
X02570Y02610D02*
Y02660D01*
X02651Y02396D02*
X02706Y02341D01*
X02637Y02396D02*
X02651D01*
X02706Y02272D02*
Y02341D01*
X03363Y03436D02*
Y03437D01*
X03405Y03479*
X03434*
X03761Y03152*
X03525Y03185D02*
X03526Y03184D01*
X03558*
X03564Y03190*
X03620*
X03652Y03222*
X03270Y02555D02*
X03345Y02480D01*
X02850Y03510D02*
Y03525D01*
X02705Y03625D02*
X02733Y03653D01*
X03516Y03041D02*
X03544D01*
X03530Y03080D02*
Y03087D01*
X03220Y02865D02*
Y02935D01*
Y02835D02*
Y02865D01*
X03210Y02825D02*
X03220Y02835D01*
X03210Y02808D02*
Y02825D01*
X03330Y02865D02*
D01*
Y02808D02*
Y02865D01*
Y02875D01*
X03319Y02885D02*
X03330Y02875D01*
X03319Y02885D02*
Y02936D01*
X03700Y02805D02*
X03710Y02795D01*
X03652Y03222D02*
X03656D01*
X03460Y02621D02*
Y02731D01*
X03415Y02720D02*
X03440Y02695D01*
Y02636D02*
Y02695D01*
X03415Y02720D02*
Y02779D01*
X03447Y02744D02*
X03460Y02731D01*
X03363Y01601D02*
X03365Y01599D01*
X03127Y01701D02*
X03170D01*
X03321Y01401D02*
X03364D01*
X03321Y01451D02*
X03364D01*
X03321Y01501D02*
X03365D01*
X03321Y01551D02*
X03364D01*
X03321Y01601D02*
X03363D01*
X03321Y01651D02*
X03365D01*
X03321Y01701D02*
X03364D01*
Y01753D02*
X03365Y01752D01*
X03320Y01753D02*
X03364D01*
X03127Y01401D02*
X03170D01*
X03127Y01451D02*
X03170D01*
X03127Y01501D02*
X03170D01*
X03127Y01551D02*
X03170D01*
X03127Y01601D02*
X03170D01*
X03127Y01651D02*
X03170D01*
X03108Y02972D02*
X03110D01*
X03270Y02808D02*
Y02865D01*
X03269Y02865D02*
Y02936D01*
X02928Y03760D02*
X03024D01*
X03025Y03760*
X03429Y03730D02*
Y03832D01*
X02500Y02165D02*
X02540D01*
X02560Y02185*
X02596*
X02570Y02125D02*
X02596D01*
X02560Y02115D02*
X02570Y02125D01*
X02500Y02115D02*
X02560D01*
X02500Y02065D02*
X02596D01*
X02500Y02015D02*
X02540D01*
X02560Y01995*
X02596*
X02500Y01965D02*
X02540D01*
X02570Y01935*
X02596*
X02660Y01861D02*
X02663Y01865D01*
X03651Y03298D02*
X03684Y03264D01*
X03485Y03463D02*
X03532Y03417D01*
X03568*
X03681Y03113D02*
X03686D01*
X03205Y03738D02*
X03206Y03740D01*
X03265Y02555D02*
X03270D01*
X03103Y03528D02*
X03150Y03482D01*
Y03455D02*
Y03482D01*
X02449Y02286D02*
X02475D01*
X02509Y02252*
X02449Y02311D02*
X02471D01*
X02480Y02320*
X02508*
X02509Y02319*
X02449Y02427D02*
X02479D01*
X02509Y02397*
X02449Y02452D02*
X02472D01*
X02485Y02465*
X02509D02*
X02510Y02466D01*
X02485Y02465D02*
X02509D01*
X03386Y02003D02*
X03420Y02037D01*
X03395Y01915D02*
X03465Y01985D01*
X03385Y02060D02*
X03405Y02080D01*
X03167Y01753D02*
Y01767D01*
X03200Y01800*
X03235Y01885D02*
Y01893D01*
X02888Y02524D02*
X02915Y02497D01*
X03521Y03499D02*
X03564Y03456D01*
X03579*
X03651Y03298D02*
X03654Y03301D01*
X03649Y03306D02*
X03654Y03301D01*
X03646Y03306D02*
X03649D01*
X03600Y03365D02*
X03632Y03333D01*
X03601Y02681D02*
X03656Y02736D01*
Y02739*
X03571Y02655D02*
Y02696D01*
X03640Y01850D02*
X03660D01*
X03630Y01840D02*
X03640Y01850D01*
X03630Y01790D02*
Y01840D01*
Y01790D02*
X03645Y01775D01*
X03655*
X03660Y01770*
Y01715D02*
Y01770D01*
Y01810D02*
X03725Y01875D01*
X03770Y02675D02*
X03785Y02660D01*
X03600Y03365D02*
Y03380D01*
X03579Y03456D02*
X03610Y03425D01*
Y03420D02*
Y03425D01*
X03556Y03534D02*
X03575Y03515D01*
X03551Y03730D02*
X03607D01*
X03636Y03701*
X02970Y01920D02*
X03123D01*
X03133Y01910*
X03209Y01834*
X03545Y03595D02*
X03555Y03605D01*
X03560*
X02520Y03195D02*
X02521Y03196D01*
X02465Y03130D02*
X02625D01*
X02490Y03165D02*
X02492Y03163D01*
X02658*
X02555Y03230D02*
X02556Y03229D01*
X02724*
X02615Y03285D02*
X02775D01*
X02521Y03196D02*
X02691D01*
X02265Y01915D02*
X02311D01*
X02260Y01965D02*
X02311D01*
X02270Y02015D02*
X02311D01*
X02212Y01967D02*
X02265Y01915D01*
X02227Y01997D02*
X02260Y01965D01*
X02242Y02042D02*
X02270Y02015D01*
X02868Y03583D02*
Y03584D01*
X02420Y03095D02*
X02425D01*
X02311Y02065D02*
X02370D01*
X02170Y02575D02*
X02180Y02565D01*
X02170Y02575D02*
Y02620D01*
X02100Y02651D02*
Y02695D01*
X02065Y02620D02*
X02080D01*
X02065Y02665D02*
X02112Y02617D01*
X02100Y02651D02*
X02127Y02623D01*
X02140Y02650D02*
X02142Y02647D01*
Y02576D02*
X02165Y02553D01*
X02142Y02576D02*
Y02647D01*
X02127Y02569D02*
Y02623D01*
Y02569D02*
X02150Y02547D01*
X02112Y02563D02*
X02135Y02541D01*
X02112Y02563D02*
Y02617D01*
X02080Y02620D02*
X02095Y02605D01*
Y02560D02*
X02120Y02535D01*
X02095Y02560D02*
Y02605D01*
X02035Y02675D02*
X02100Y02740D01*
X02311Y01865D02*
Y01915D01*
X02060Y02445D02*
Y02565D01*
X02035Y02590D02*
Y02675D01*
Y02590D02*
X02060Y02565D01*
X02368Y02311D02*
Y02348D01*
X02400Y02380*
Y02415*
X02390Y02425D02*
X02400Y02415D01*
X02338Y02452D02*
X02368D01*
X02230Y02561D02*
Y02565D01*
Y02561D02*
X02338Y02452D01*
X02230Y02520D02*
X02325Y02425D01*
X02390*
X03304Y01806D02*
Y01851D01*
X03351Y01825D02*
Y01825D01*
X03350Y01930D02*
X03435Y02016D01*
X03365Y01924D02*
X03450Y02010D01*
X03350Y01890D02*
Y01930D01*
Y01890D02*
X03395Y01844D01*
X03365Y01896D02*
Y01924D01*
Y01896D02*
X03376Y01885D01*
X03400*
X03460Y01825*
X03525*
X03671Y03517D02*
X03704Y03551D01*
X03780Y03245D02*
X03895Y03360D01*
X03575Y03495D02*
Y03515D01*
X03642Y03398D02*
Y03428D01*
X03575Y03495D02*
X03642Y03428D01*
X03632Y03333D02*
X03687D01*
X03642Y03398D02*
X03650Y03390D01*
X03687Y03333D02*
X03720Y03300D01*
X03670Y03365D02*
X03671Y03366D01*
Y03517*
X03780Y03245D02*
X03780D01*
X03065Y03325D02*
Y03335D01*
X03751Y02837D02*
X03770Y02818D01*
Y02675D02*
Y02818D01*
X03571Y02696D02*
X03680Y02805D01*
X03700*
X03752Y02893D02*
X03794D01*
X03823Y02864*
X03280Y01896D02*
X03351Y01825D01*
X03265Y01890D02*
X03304Y01851D01*
X03420Y02468D02*
X03478Y02526D01*
X03405Y02523D02*
X03489Y02607D01*
X03390Y02551D02*
X03460Y02621D01*
X03375Y02571D02*
X03440Y02636D01*
X03465Y01985D02*
Y02415D01*
X03450Y02010D02*
Y02424D01*
X03435Y02016D02*
Y02433D01*
X03420Y02037D02*
Y02468D01*
X03405Y02080D02*
Y02523D01*
X03379Y02097D02*
Y02106D01*
X03390Y02117*
Y02551*
X04393Y02485D02*
X04406Y02498D01*
X04429*
X04372Y02429D02*
X04381Y02421D01*
X04372Y02429D02*
Y02485D01*
X04186D02*
X04214D01*
X04177Y02476D02*
X04186Y02485D01*
X04094Y02476D02*
X04177D01*
X04202Y02287D02*
X04302D01*
X04352Y02337*
Y02485*
X04195Y02302D02*
X04290D01*
X04313Y02325*
Y02485*
X02120Y02157D02*
Y02535D01*
Y02157D02*
X02212Y02064D01*
Y01967D02*
Y02064D01*
X02135Y02163D02*
Y02541D01*
Y02163D02*
X02227Y02070D01*
X02150Y02169D02*
Y02547D01*
Y02169D02*
X02242Y02076D01*
X02225Y02115D02*
X02311D01*
X02165Y02175D02*
X02225Y02115D01*
X02165Y02175D02*
Y02553D01*
X02180Y02181D02*
X02196Y02165D01*
X02311*
X02180Y02181D02*
Y02565D01*
X02227Y01997D02*
Y02070D01*
X02242Y02042D02*
Y02076D01*
X02253Y02213D02*
D01*
X02252Y02258D02*
X02253Y02256D01*
X02200Y02590D02*
X02247D01*
X02352Y02485*
X02387*
X02416Y02456*
X02370Y02065D02*
X02379Y02074D01*
Y02158*
X02895Y03445D02*
X02910Y03430D01*
X02970*
X03065Y03335*
X03112Y03380D02*
X03120D01*
X04169Y02254D02*
X04202Y02287D01*
X04154Y02260D02*
X04195Y02302D01*
X04169Y02040D02*
Y02254D01*
Y02040D02*
X04191Y02019D01*
X04203*
X03815Y03080D02*
Y03135D01*
X03580Y03165D02*
X03625D01*
X03640Y03180*
X03785Y02660D02*
X03870D01*
X03916Y02811D02*
X03993D01*
X02805Y03310D02*
X02925Y03190D01*
X02805Y03310D02*
Y03315D01*
X03275Y03741D02*
Y03830D01*
X03273Y03740D02*
X03275Y03741D01*
X03180Y03740D02*
X03206D01*
X03175Y03745D02*
X03180Y03740D01*
X02765Y03430D02*
X02790Y03405D01*
X02795Y03505D02*
Y03510D01*
Y03515*
X02835Y03540D02*
X02850Y03525D01*
X02653Y03650D02*
X02655D01*
X02690Y03615*
X02720Y03575D02*
X02795Y03650D01*
Y03656*
X02735Y03555D02*
X02775Y03595D01*
X02795*
X02765Y03430D02*
Y03525D01*
X02780Y03540*
X02835*
X02750Y03535D02*
X02775Y03560D01*
X02845*
X02868Y03583*
X03435Y02433D02*
X03515Y02513D01*
X03480Y02409D02*
X03575Y02503D01*
X03515Y02513D02*
Y02545D01*
X03495Y02565D02*
X03515Y02545D01*
X03450Y02424D02*
X03535Y02509D01*
Y02581*
X03563Y02609*
X03465Y02415D02*
X03555Y02505D01*
X03765Y03270D02*
Y03290D01*
X03740Y03245D02*
X03765Y03270D01*
X03681Y03804D02*
X03760Y03725D01*
X04050Y03535D02*
X04070Y03555D01*
X04050Y03525D02*
Y03535D01*
X03878Y03631D02*
X03902Y03655D01*
X03219Y02936D02*
Y02985D01*
X03269Y02936D02*
Y02965D01*
X02795Y03505D02*
X03010Y03290D01*
X02805Y03440D02*
X02970Y03275D01*
X03105Y03170D02*
Y03210D01*
X03160Y03161D02*
Y03210D01*
X03155Y03355D02*
Y03390D01*
X03110Y03435D02*
X03155Y03390D01*
X03110Y03435D02*
Y03477D01*
X03064Y03523D02*
X03110Y03477D01*
X03100Y03585D02*
X03190Y03495D01*
X03075Y03585D02*
X03100D01*
X02861Y03638D02*
Y03760D01*
Y03638D02*
X02895Y03605D01*
X03012Y03480D02*
X03112Y03380D01*
X02895Y03500D02*
Y03605D01*
X03050Y03610D02*
X03075Y03585D01*
X03050Y03610D02*
Y03640D01*
X02895Y03500D02*
X02915Y03480D01*
X03012*
X02930Y03510D02*
Y03620D01*
X02990Y03570D02*
X03005Y03585D01*
X02990Y03545D02*
Y03570D01*
X03005Y03585D02*
X03040D01*
X03064Y03560*
Y03523D02*
Y03560D01*
X03175Y03745D02*
Y03765D01*
X02930Y03620D02*
X02985Y03675D01*
X02790Y03405D02*
X02810D01*
X02955Y03260*
X02623Y02751D02*
X02627Y02747D01*
X02805Y01680D02*
X02820Y01695D01*
X02785Y01770D02*
X02805Y01790D01*
Y02341*
X02820Y01695D02*
Y02335D01*
X04154Y01980D02*
Y02260D01*
Y01980D02*
X04174Y01961D01*
X04203*
X03410Y01400D02*
Y01425D01*
X03415Y01430*
X03439*
X03045D02*
X03075D01*
X03085Y01420*
Y01400D02*
Y01420D01*
X02975Y01449D02*
X02994Y01430D01*
X02975Y01449D02*
Y01480D01*
X04139Y01930D02*
Y02257D01*
Y01930D02*
X04165Y01905D01*
X04203Y01833D02*
Y01961D01*
X03855Y01615D02*
Y01625D01*
X03885Y01655*
X04025*
X04203Y01833*
X03895Y01615D02*
X03920Y01640D01*
X04031*
X04211Y02019D02*
X04238Y01991D01*
X04203Y02019D02*
X04211D01*
X02820Y02335D02*
X02860Y02375D01*
X02805Y02341D02*
X02845Y02381D01*
X02828Y02590D02*
X02835Y02583D01*
X02379Y02158D02*
X02400Y02179D01*
Y02345*
X02416Y02361*
Y02456*
X02430Y02085D02*
Y02140D01*
X02390Y02045D02*
X02430Y02085D01*
X02390Y01980D02*
Y02045D01*
Y01980D02*
X02415Y01955D01*
X02425*
X03555Y02505D02*
Y02560D01*
X03601Y02606*
Y02681*
X03575Y02503D02*
Y02555D01*
X03630Y02610*
Y02665*
X03745Y02780*
Y02804*
X03521Y02933D02*
X03651D01*
X03544Y03041D02*
X03590Y03087D01*
Y03125*
X03495Y02915D02*
Y03020D01*
X03516Y03041*
X02925Y03190D02*
X02954D01*
X03009Y03245*
X03907Y02657D02*
X03962D01*
X03899Y02665D02*
X03907Y02657D01*
X04015Y02860D02*
X04043Y02832D01*
X04062Y02335D02*
X04139Y02257D01*
X04062Y02335D02*
Y02538D01*
X04043Y02557D02*
X04062Y02538D01*
X03640Y03180D02*
X03671D01*
X03887Y02782D02*
X03916Y02811D01*
X03882Y02782D02*
X03887D01*
X03780Y02865D02*
X03797Y02848D01*
Y02691D02*
Y02848D01*
X03823Y02719D02*
Y02864D01*
X03840Y02744D02*
Y03011D01*
X03904Y02860D02*
X04015D01*
X03855Y02758D02*
X03876Y02737D01*
X03898*
X03921Y02760*
X04025*
X04043Y02793D02*
Y02832D01*
Y02793D02*
X04060Y02776D01*
Y02744D02*
Y02776D01*
X04043Y02727D02*
X04060Y02744D01*
X04043Y02557D02*
Y02727D01*
X04129Y02761D02*
X04145Y02745D01*
Y02588D02*
Y02745D01*
Y02588D02*
X04163Y02570D01*
X04242*
X04273Y02538*
Y02485D02*
Y02538D01*
X03840Y02744D02*
X03899Y02685D01*
Y02665D02*
Y02685D01*
X03761Y03111D02*
Y03152D01*
X03350Y01985D02*
Y02114D01*
X03375Y02139*
Y02571*
X03027Y02407D02*
Y02423D01*
Y02407D02*
X03265Y02169D01*
Y01890D02*
Y02169D01*
X03280Y01896D02*
Y02180D01*
X03178Y01902D02*
X03235Y01845D01*
X03193Y01935D02*
X03235Y01893D01*
X03208Y01957D02*
X03235Y01930D01*
X03209Y01834D02*
X03263Y01780D01*
X02860Y02375D02*
Y02456D01*
X02845Y02381D02*
Y02449D01*
X02797Y02519D02*
X02860Y02456D01*
X02790Y02504D02*
X02845Y02449D01*
X04075Y02235D02*
Y02283D01*
X04001Y02357D02*
X04075Y02283D01*
X03918Y02357D02*
X04001D01*
X03057Y02403D02*
X03280Y02180D01*
X03020Y02460D02*
X03037D01*
X03057Y02440*
Y02403D02*
Y02440D01*
X03162Y02747D02*
Y02816D01*
X03495Y02915D02*
X03513Y02897D01*
X03652*
X03745Y02804*
X04234Y02485D02*
Y02528D01*
X04233Y02530D02*
X04234Y02528D01*
X03009Y03245D02*
X03278D01*
X03329Y03194*
X02955Y03260D02*
X03303D01*
X03480Y03083*
X02970Y03275D02*
X03309D01*
X03010Y03290D02*
X03316D01*
X03499Y03106D02*
X03553D01*
X03309Y03275D02*
X03497Y03087D01*
X03530*
X03579Y03135D02*
X03590Y03125D01*
X03494Y03135D02*
X03579D01*
X03316Y03290D02*
X03499Y03106D01*
X03466Y03208D02*
X03490Y03185D01*
X03525*
X03332Y03298D02*
X03494Y03135D01*
X03332Y03298D02*
Y03353D01*
X03230Y03455D02*
X03332Y03353D01*
X03230Y03500D02*
X03275D01*
X03303Y03528*
X02985Y03675D02*
X03318D01*
X03368Y03625*
X03525*
X03270Y03645D02*
X03320D01*
X03370Y03595*
X03545*
X03273Y03593D02*
X03313D01*
X03358Y03548*
Y03509D02*
Y03548D01*
X03291Y03442D02*
X03358Y03509D01*
X03256Y03575D02*
X03256Y03575D01*
X03273Y03593*
X03244Y03392D02*
Y03395D01*
Y03392D02*
X03288Y03349D01*
X03190Y03370D02*
X03205Y03355D01*
X03190Y03370D02*
Y03495D01*
X02170Y03292D02*
X02506Y03628D01*
X02000Y02431D02*
X02078Y02353D01*
Y02162D02*
Y02353D01*
Y02162D02*
X02190Y02050D01*
X02264Y01841D02*
X02404D01*
X02427Y01818*
Y01739D02*
Y01818D01*
Y01739D02*
X02498Y01668D01*
X02600*
X02190Y01915D02*
Y02050D01*
Y01915D02*
X02264Y01841D01*
X03902Y03655D02*
X03988D01*
X04070Y03573*
Y03555D02*
Y03573D01*
X03099Y03850D02*
X03129Y03880D01*
X03345*
X02649Y03710D02*
X02686Y03747D01*
X02718*
X02760Y03789*
X02803*
X02830Y03816*
X02958*
X02992Y03850*
X03099*
X03700Y03355D02*
X03765Y03290D01*
X03700Y03355D02*
Y03499D01*
X03797Y03596*
X03760Y03686D02*
Y03725D01*
Y03686D02*
X03797Y03649D01*
Y03596D02*
Y03649D01*
X03345Y03880D02*
X03361Y03864D01*
X03530*
X02112Y03169D02*
X02170Y03227D01*
Y03292*
X02112Y03116D02*
Y03169D01*
X02075Y03079D02*
X02112Y03116D01*
X02075Y03011D02*
Y03079D01*
X02022Y02958D02*
X02075Y03011D01*
X02000Y02431D02*
Y02884D01*
X02022Y02906*
Y02958*
X03671Y03180D02*
X03840Y03011D01*
X03855Y02758D02*
Y03017D01*
X03761Y03111D02*
X03855Y03017D01*
X03870Y02894D02*
X03904Y02860D01*
X03815Y03080D02*
X03870Y03025D01*
Y02894D02*
Y03025D01*
X02155Y02905D02*
Y02939D01*
X02160Y02944*
X02194Y02905D02*
X02214D01*
X02234*
X02160Y02944D02*
X02209D01*
X02214Y02938*
Y02905D02*
Y02938D01*
X02509Y02905D02*
X02529D01*
X02549*
X02255Y02716D02*
X02265Y02706D01*
Y02638D02*
Y02706D01*
X02255Y02628D02*
X02265Y02638D01*
X02234Y02628D02*
X02255D01*
X02231Y02631D02*
X02234Y02628D01*
X02116Y02744D02*
Y02905D01*
Y02744D02*
X02177Y02683D01*
X02233*
X02135Y02752D02*
Y02905D01*
Y02752D02*
X02172Y02716D01*
X02255*
X02533Y02620D02*
Y02660D01*
X03132Y02380D02*
X03157D01*
X03103Y02409D02*
X03132Y02380D01*
X03103Y02409D02*
Y02520D01*
X03048Y02575D02*
X03103Y02520D01*
X02871Y02575D02*
X03048D01*
X02877Y02560D02*
X03041D01*
X03088Y02513*
Y02402D02*
Y02513D01*
Y02402D02*
X03136Y02354D01*
X03195*
X02604Y02602D02*
X02671Y02535D01*
X02852*
X02877Y02560*
X02846Y02550D02*
X02871Y02575D01*
X02619Y02608D02*
X02677Y02550D01*
X02846*
X02604Y02602D02*
Y02666D01*
X02584Y02707D02*
X02619Y02672D01*
Y02608D02*
Y02672D01*
X03189Y03046D02*
X03269Y02965D01*
X03189Y03046D02*
Y03132D01*
X03160Y03161D02*
X03189Y03132D01*
X03173Y03032D02*
X03219Y02985D01*
X03173Y03032D02*
Y03102D01*
X03105Y03170D02*
X03173Y03102D01*
X03110Y02924D02*
Y02972D01*
X02674Y02583D02*
X02835D01*
X02645Y02612D02*
X02674Y02583D01*
X02411Y02861D02*
Y02905D01*
X02402Y02852D02*
X02411Y02861D01*
X02425Y03095D02*
X02615D01*
X02630Y03080*
X02809Y03062D02*
X02872D01*
X02925Y03115*
X02628Y02961D02*
X02923D01*
X02608Y02941D02*
X02628Y02961D01*
X02608Y02905D02*
Y02941D01*
X03095Y02846D02*
X03100Y02841D01*
X02582Y02688D02*
X02604Y02666D01*
X03087Y03034D02*
X03138Y02983D01*
Y02931D02*
Y02983D01*
X03126Y03058D02*
X03155Y03029D01*
Y02925D02*
Y03029D01*
X02935Y02600D02*
X03056Y02721D01*
X03136*
X03162Y02747*
X03122Y02736D02*
X03135Y02749D01*
X03006Y02984D02*
X03009Y02981D01*
X02753Y02946D02*
X02914D01*
X02746Y02939D02*
X02753Y02946D01*
X02746Y02905D02*
Y02939D01*
X02745Y02905D02*
X02746Y02905D01*
X03078Y02975D02*
Y02996D01*
X03065Y02939D02*
X03072Y02932D01*
X02991Y02939D02*
X03065D01*
X03050Y02907D02*
X03092D01*
X03110Y02924*
X03043Y02891D02*
X03098D01*
X02995Y02957D02*
X03060D01*
X03078Y02975*
X03037Y02873D02*
X03103D01*
X03155Y02925*
X02914Y02946D02*
X02973Y02887D01*
X03023*
X03037Y02873*
X02923Y02961D02*
X02979Y02905D01*
X03029*
X03043Y02891*
X02987Y02922D02*
X03035D01*
X03050Y02907*
X02765Y02855D02*
Y02905D01*
Y02855D02*
X02807Y02814D01*
X02312Y02905D02*
Y02929D01*
X02293Y02905D02*
Y02931D01*
X02273Y02905D02*
Y02932D01*
X02253Y02905D02*
Y02935D01*
X02726Y02864D02*
X02828Y02763D01*
X02726Y02864D02*
Y02905D01*
X03651Y02933D02*
X03703Y02881D01*
X03740*
X03752Y02893*
X02997Y03036D02*
X03048Y02985D01*
X02969Y03021D02*
X03006Y02984D01*
X02946Y03006D02*
X02995Y02957D01*
X02939Y02991D02*
X02991Y02939D01*
X02933Y02976D02*
X02987Y02922D01*
X02391Y02905D02*
Y02937D01*
X02685Y03075D02*
X02725Y03115D01*
X02681Y03079D02*
X02685Y03075D01*
X02671Y03079D02*
X02681D01*
X02379Y02950D02*
X02391Y02937D01*
X02379Y02950D02*
Y02974D01*
X02568Y02905D02*
Y02934D01*
X02552Y02951D02*
X02568Y02934D01*
X02448Y02951D02*
X02552D01*
X02588Y02905D02*
Y02954D01*
X02563Y02980D02*
X02588Y02954D01*
X02419Y02980D02*
X02563D01*
X02408Y02969D02*
X02419Y02980D01*
X02595Y02976D02*
X02933D01*
X02606Y02991D02*
X02939D01*
X02617Y03006D02*
X02946D01*
X02626Y03021D02*
X02969D01*
X02634Y03036D02*
X02997D01*
X02384Y03066D02*
X02604D01*
X02634Y03036*
X02273Y02932D02*
X02391Y03051D01*
X02596*
X02626Y03021*
X02293Y02931D02*
X02397Y03036D01*
X02587*
X02617Y03006*
X02312Y02929D02*
X02404Y03021D01*
X02576*
X02606Y02991*
X02379Y02974D02*
X02410Y03006D01*
X02565*
X02595Y02976*
X02265Y03026D02*
X02735Y03496D01*
Y03555*
X02311Y03050D02*
X02750Y03489D01*
Y03535*
X02662Y02696D02*
X02733Y02625D01*
X02617Y02696D02*
X02662D01*
X02733Y02625D02*
X02833D01*
X02686Y02778D02*
Y02905D01*
Y02778D02*
X02801Y02664D01*
X02830*
X02706Y02779D02*
Y02905D01*
Y02779D02*
X02760Y02726D01*
X02782*
X02645Y02660D02*
Y02662D01*
Y02612D02*
Y02660D01*
X03433Y02850D02*
Y02908D01*
X03480Y02955*
Y03083*
X03057Y03017D02*
X03078Y02996D01*
X03057Y03017D02*
Y03062D01*
X03110Y03115*
X03098Y02891D02*
X03138Y02931D01*
X03135Y02749D02*
Y02882D01*
X03182Y02929*
X02600Y02820D02*
X02627Y02847D01*
X02529Y02820D02*
X02600D01*
G54D28*
X03010Y02735D02*
X03055Y02780D01*
X02895Y02735D02*
X03010D01*
X02885Y02745D02*
X02895Y02735D01*
X02885Y02745D02*
Y02815D01*
X02815Y02845D02*
X02855D01*
X02885Y02815*
X02175Y02830D02*
Y02850D01*
Y02830D02*
X02210Y02795D01*
X02230*
X03424Y03288D02*
X03447Y03311D01*
X03453*
X03075Y02695D02*
X03077Y02697D01*
X03222Y02580D02*
X03232Y02570D01*
Y02541D02*
Y02570D01*
Y02541D02*
X03256Y02517D01*
X03270*
X03302Y02485*
Y02451D02*
Y02485D01*
Y02451D02*
X03344Y02409D01*
X02925Y02275D02*
Y02306D01*
Y02238D02*
Y02275D01*
X02677Y01998D02*
X02750Y01925D01*
X02713Y02062D02*
X02750Y02025D01*
X02749Y02126D02*
X02750Y02125D01*
X02856Y01429D02*
X02858Y01427D01*
X02510Y02466D02*
X02570D01*
X02925Y02306D02*
X02928Y02310D01*
X02509Y02252D02*
X02569D01*
X02509Y02319D02*
X02569D01*
X02509Y02397D02*
X02569D01*
X02570Y02396*
X02637D02*
Y02466D01*
X02500Y01865D02*
Y01915D01*
Y01865D02*
X02596D01*
X02600Y01735D02*
X02660D01*
X02743D02*
X02757Y01721D01*
X02660Y01735D02*
X02743D01*
X02660D02*
Y01861D01*
X02663Y01935D02*
X02690D01*
X02706Y01872D02*
X02757Y01821D01*
X02706Y01872D02*
Y01919D01*
X02690Y01935D02*
X02706Y01919D01*
X03450Y03428D02*
X03485Y03393D01*
Y03342D02*
Y03393D01*
X03453Y03311D02*
X03485Y03342D01*
X03885Y03148D02*
X03967D01*
X03969Y03150*
X03938Y02440D02*
D01*
X04200Y02140D02*
X04201Y02139D01*
X03760Y02225D02*
X03790D01*
X03830Y02185*
X03886*
X03760Y02125D02*
X03815D01*
X03825Y02135*
X03886*
X04075D02*
Y02185D01*
Y02135D02*
D01*
X02666Y02062D02*
X02713D01*
X02663Y02065D02*
X02666Y02062D01*
X02663Y02125D02*
X02748D01*
X02749Y02126*
X02663Y02185D02*
X02721D01*
X02757Y02221*
X02600Y01591D02*
X02606Y01585D01*
X02600Y01591D02*
Y01668D01*
X03667Y03588D02*
X03704Y03551D01*
X03667Y03588D02*
Y03627D01*
X03752Y03504D02*
X03798Y03550D01*
X03752Y03504D02*
D01*
X03841Y03411D02*
X03892Y03360D01*
X03942Y03313D02*
D01*
X03988Y03359*
X04031Y03316*
Y03314D02*
Y03316D01*
X04250Y03265D02*
X04285Y03230D01*
X03805Y03215D02*
X04060D01*
X04110Y03265*
X04250*
X02355Y02260D02*
X02368D01*
X02339Y02276D02*
X02355Y02260D01*
X02230Y02404D02*
Y02480D01*
Y02404D02*
X02235Y02399D01*
X02361*
X02339Y02276D02*
Y02399D01*
X03025Y03819D02*
X03114D01*
X03125Y03830*
X03175*
X03798Y03550D02*
X03800D01*
X03873Y03623*
X03755Y03335D02*
X03775Y03355D01*
X04031Y03314D02*
X04071Y03355D01*
Y03366*
X04140Y03435*
X03873Y03623D02*
Y03636D01*
X03868Y03485D02*
X03979Y03595D01*
X03862Y03485D02*
X03868D01*
X03862D02*
X03888Y03458D01*
X03775Y03355D02*
Y03415D01*
X03845Y03485*
X03862*
X03130Y03607D02*
X03156Y03581D01*
X03130Y03607D02*
Y03640D01*
X03520Y01455D02*
Y01480D01*
X03495Y01430D02*
X03520Y01455D01*
X03490Y01430D02*
X03495D01*
X03219Y01451D02*
Y01501D01*
Y01551*
Y01601D02*
Y01651D01*
Y01701*
X03270Y01399D02*
Y01751D01*
X03219Y01701D02*
Y01753D01*
X03244Y01574D02*
X03246Y01576D01*
X03219Y01574D02*
X03244D01*
X03219Y01551D02*
Y01574D01*
Y01601*
Y01401D02*
Y01451D01*
X02311Y01815D02*
X02372D01*
X02373Y01816*
X02566Y01795D02*
X02596D01*
X02539Y01768D02*
X02566Y01795D01*
X04021Y02135D02*
X04075D01*
X04006Y02120D02*
X04021Y02135D01*
X03984Y03267D02*
X03990D01*
X04012Y03246*
X03831Y03678D02*
Y03681D01*
X03805Y03708D02*
X03831Y03681D01*
X03330Y02741D02*
X03334D01*
X03210D02*
X03240D01*
X03330*
X03334D02*
X03369Y02776D01*
Y02936*
X03969Y03150D02*
Y03171D01*
X03983Y03185*
X04082*
X04084Y03184*
X03943Y02428D02*
Y02440D01*
X03908Y02393D02*
X03943Y02428D01*
X03886Y02393D02*
X03908D01*
X03938Y02440D02*
Y02510D01*
X03870Y02377D02*
Y02379D01*
Y02377D02*
X03886Y02393D01*
X03419Y03255D02*
Y03283D01*
X03424Y03288*
X04285Y03230D02*
X04350D01*
X04380Y03065D02*
Y03073D01*
X04370Y03083D02*
X04380Y03073D01*
X04370Y03083D02*
Y03210D01*
X04350Y03230D02*
X04370Y03210D01*
X03369Y02936D02*
X03421D01*
X03447Y02962*
Y02992*
G54D29*
X03056Y02781D02*
X03100D01*
X03566Y01873D02*
X03582Y01858D01*
Y01797D02*
Y01858D01*
X03550Y01765D02*
X03582Y01797D01*
X03550Y01727D02*
Y01765D01*
X03050Y02657D02*
X03146Y02561D01*
X03817Y02266D02*
Y02378D01*
X03825Y01784D02*
Y01925D01*
X03819Y01778D02*
X03825Y01784D01*
X03760Y01925D02*
X03825D01*
X03683Y03748D02*
X03714Y03717D01*
X03146Y02561D02*
D01*
X03623Y02191D02*
Y02202D01*
Y02237*
X03574Y02287D02*
X03623Y02237D01*
X03148Y02653D02*
X03222Y02580D01*
X03373Y03133D02*
X03447Y03059D01*
X03228Y03133D02*
X03373D01*
X03623Y01420D02*
Y01521D01*
X03556D02*
Y01642D01*
X02923Y02025D02*
X02926Y02021D01*
X03515Y02245D02*
Y02270D01*
Y02245D02*
X03525Y02235D01*
X03556*
X03623Y02191D02*
X03648Y02166D01*
Y02130D02*
Y02166D01*
X03580Y02006D02*
X03581Y02005D01*
X03580Y02006D02*
Y02042D01*
X03555Y02067D02*
X03580Y02042D01*
X03555Y02067D02*
X03581Y02093D01*
Y02130*
X03555Y01950D02*
X03566Y01938D01*
Y01897D02*
Y01938D01*
X03555Y01950D02*
X03581Y01976D01*
Y02005*
X03566Y01873D02*
Y01897D01*
X03556Y01687D02*
Y01721D01*
Y01687D02*
X03556Y01686D01*
Y01642D02*
Y01686D01*
Y01470D02*
Y01521D01*
Y01425D02*
Y01470D01*
X02856Y01429D02*
Y01525D01*
X02923Y01429D02*
X02925Y01427D01*
X02856Y01775D02*
Y02025D01*
X02861Y02241D02*
Y02310D01*
Y02241D02*
X02865Y02238D01*
Y02171D02*
X02925D01*
X02637Y02251D02*
Y02321D01*
X03650Y03145D02*
X03681Y03113D01*
X03222Y02580D02*
X03235D01*
X03275Y02620*
X03287*
X03306Y02601*
X02850Y03210D02*
X02875Y03185D01*
X02850Y03210D02*
Y03217D01*
X02826Y03241D02*
X02850Y03217D01*
X02966Y03386D02*
X03020Y03332D01*
X03013Y03433D02*
X03070Y03377D01*
Y03375D02*
Y03377D01*
X03030Y03507D02*
X03056Y03481D01*
X03030Y03507D02*
Y03545D01*
X03520Y02800D02*
X03566Y02754D01*
X03520Y02800D02*
Y02808D01*
X03570Y02845D02*
X03613Y02801D01*
X03560Y02845D02*
X03570D01*
X03146Y02561D02*
X03232Y02475D01*
X03260*
X03050Y02657D02*
Y02670D01*
X03075Y02695*
X03406Y03356D02*
Y03358D01*
X03380Y03330D02*
X03406Y03356D01*
X03695Y02955D02*
X03725Y02925D01*
X03695Y02955D02*
Y02990D01*
X03715Y03010*
X03772Y02972D02*
X03795Y02949D01*
X03772Y02972D02*
X03790Y02990D01*
Y03010*
X03733Y03066D02*
X03790Y03010D01*
X04160Y03045D02*
X04305D01*
X04310Y02855D02*
X04323Y02868D01*
X04420*
X04310Y02855D02*
Y03040D01*
X04305Y03045D02*
X04310Y03040D01*
X04304Y02649D02*
X04310Y02655D01*
X04355*
X04310Y02755D02*
X04420D01*
Y02801*
X04198Y02768D02*
X04211Y02755D01*
X03055Y02780D02*
X03056Y02781D01*
X03556Y02193D02*
Y02235D01*
Y02193D02*
X03581Y02168D01*
Y02130D02*
Y02168D01*
X02731Y02410D02*
Y02453D01*
X02730Y02455D02*
X02731Y02453D01*
X03969Y02988D02*
X03992Y02966D01*
X03969Y02988D02*
Y03011D01*
X03957Y03022D02*
X03969Y03011D01*
X03957Y03022D02*
Y03080D01*
X03886D02*
X03957D01*
X03885Y03081D02*
X03886Y03080D01*
X04036Y03011D02*
D01*
X03869Y02437D02*
X03871Y02440D01*
X03869Y02512D02*
X03871Y02510D01*
X03880Y01866D02*
Y01925D01*
Y01866D02*
X03881Y01865D01*
X03760Y01925D02*
Y02025D01*
X04024Y01865D02*
X04025Y01866D01*
X04023Y01938D02*
Y02046D01*
Y01938D02*
X04027Y01935D01*
X04200Y02207D02*
X04211Y02219D01*
X04274*
X04338*
X04350Y02207*
X04278Y02140D02*
X04350D01*
X04274Y02144D02*
X04278Y02140D01*
X04268Y02138D02*
X04274Y02144D01*
X04268Y02077D02*
Y02138D01*
X03880Y01991D02*
X03910D01*
X03924Y02005*
X03956*
X03952Y02001D02*
X03956Y02005D01*
X03952Y01935D02*
Y02001D01*
X03880Y01991D02*
Y02071D01*
X04080Y02068D02*
Y02072D01*
X03550Y01727D02*
X03556Y01721D01*
X02825Y03115D02*
Y03135D01*
X02875Y03185*
X02637Y02251D02*
X02639D01*
X02665Y02225*
Y02186D02*
Y02225D01*
X02663Y02185D02*
X02665Y02186D01*
X02923Y01429D02*
Y01480D01*
Y01525*
Y01587*
Y01650*
Y02170D02*
X02925Y02171D01*
X02923Y01775D02*
Y01980D01*
Y02025*
Y02125*
Y02170*
Y01650D02*
Y01775D01*
X02660Y01640D02*
Y01668D01*
Y01640D02*
X02675Y01625D01*
Y01586D02*
Y01625D01*
X02673Y01585D02*
X02675Y01586D01*
X02679Y01621D02*
X02757D01*
X02675Y01625D02*
X02679Y01621D01*
X02757D02*
X02852D01*
X02856Y01625*
Y01525D02*
Y01625D01*
Y01650*
Y01775*
X03888Y03458D02*
X03889D01*
X03941Y03406*
X03750Y03597D02*
Y03638D01*
X03714Y03674D02*
X03750Y03638D01*
X03714Y03674D02*
Y03717D01*
X03653Y03779D02*
X03683Y03748D01*
X03795Y02925D02*
Y02949D01*
X03613Y01689D02*
Y01735D01*
Y01689D02*
X03623Y01679D01*
Y01642D02*
Y01679D01*
Y01521D02*
Y01642D01*
X04350Y02140D02*
X04390D01*
X04381Y02306D02*
Y02421D01*
X04355Y02655D02*
X04368Y02641D01*
X04201Y02139D02*
X04202Y02138D01*
X04270Y01961D02*
Y02019D01*
X04312*
X04326Y02033*
Y02078*
X04200Y02078D02*
Y02140D01*
Y02078D02*
X04201Y02077D01*
X04350Y02207D02*
X04390D01*
X04393Y02210*
X04390Y02140D02*
X04432Y02182D01*
Y02255*
X04381Y02306D02*
X04432Y02255D01*
X03825Y01925D02*
X03880D01*
X03633Y01897D02*
X03650Y01913D01*
Y02135*
X03910Y02304D02*
X03932D01*
X03889Y02283D02*
X03910Y02304D01*
X03889Y02249D02*
Y02283D01*
X03760Y02325D02*
Y02436D01*
X03761Y02437*
X03650D02*
X03761D01*
X03869*
X02942Y03220D02*
X02945D01*
X02873Y03288D02*
X02942Y03220D01*
X02750Y02325D02*
Y02335D01*
X02798Y02383*
Y02410*
X04368Y02641D02*
X04420D01*
Y02708D02*
Y02715D01*
Y02755*
X04211D02*
X04310D01*
X04092Y01866D02*
X04110Y01883D01*
X03992Y02966D02*
X04069D01*
X04093Y02942*
Y02911D02*
Y02942D01*
X04110Y01883D02*
Y01931D01*
Y01998D02*
Y02038D01*
X04080Y02068D02*
X04110Y02038D01*
X04301Y03161D02*
X04305Y03164D01*
X04036Y03011D02*
Y03150D01*
X04120Y03161D02*
X04301D01*
X04036Y03150D02*
X04049Y03137D01*
X04096*
X04120Y03161*
X02925Y01413D02*
Y01427D01*
Y01413D02*
X02947Y01392D01*
X03522Y01386D02*
X03556Y01420D01*
X03551D02*
X03556Y01425D01*
X03459Y01386D02*
X03522D01*
X03986Y01834D02*
Y01864D01*
X03987Y01865*
X03948D02*
X03987D01*
X04024*
X04198Y02649D02*
X04304D01*
X03626Y02502D02*
X03655D01*
X03567Y02443D02*
X03626Y02502D01*
X03650Y02512D02*
X03869D01*
X03567Y02341D02*
Y02443D01*
X03353Y02648D02*
X03385Y02680D01*
Y02681*
X03230Y03545D02*
X03256Y03571D01*
Y03575*
X03203Y03628D02*
X03256Y03575D01*
X02947Y01392D02*
X03017D01*
X03048Y01361*
X03434*
X03459Y01386*
X03493Y03835D02*
X03499Y03829D01*
X03524*
X03574Y03779*
X03653*
G54D30*
X04153Y02393D03*
X04460D03*
X02049Y02813D03*
X02950D03*
G54D31*
X03244Y01576D03*
G54D32*
X02260Y02343D03*
G54D33*
X02260Y02252D03*
G54D34*
X02261Y02206D03*
G54D35*
X02242Y03284D03*
G54D36*
X03429Y03730D03*
X03551D03*
G54D37*
X03760Y01625D03*
X02757Y01621D03*
X03993Y02911D03*
G54D38*
X04310Y02855D03*
G54D39*
X04310Y02755D03*
Y02655D03*
G54D40*
X04050Y03525D03*
X04140Y03435D03*
G54D41*
X02230Y02795D03*
Y02850D03*
X02390Y02735D03*
X02495Y02840D03*
X02530Y02860D03*
X02548Y02788D03*
X02265Y03026D03*
X02268Y02989D03*
X02311Y03032D03*
X02515Y02740D03*
X02251Y02213D03*
X02294D03*
X02251Y02256D03*
X02294D03*
X04083Y03030D03*
X03805Y03145D03*
X03817Y02378D03*
Y02266D03*
X02706Y02272D03*
X03711Y03720D03*
X03926Y03492D03*
X03870Y03537D03*
X03544Y03245D03*
X03571Y03219D03*
X03465Y03258D03*
X03424Y03288D03*
X03574Y02287D03*
X03411Y03095D03*
X02850Y03510D03*
X03525Y03185D03*
X03220Y02865D03*
X03568Y03417D03*
X03330Y02865D03*
X02972Y01569D03*
Y01963D03*
X02925Y02275D03*
X02970Y02080D03*
X02923Y01980D03*
Y02125D03*
X03563Y02609D03*
X03395Y01915D03*
X03710Y02795D03*
X03515Y02270D03*
X03780Y02865D03*
X03526Y02021D03*
X03489Y02607D03*
X03571Y02655D03*
X03624Y01469D03*
X03556Y01470D03*
X03027Y02423D03*
X03304Y01806D03*
X03351Y01825D03*
X03395Y01844D03*
X03386Y02003D03*
X03478Y02526D03*
X03415Y02779D03*
X03447Y02744D03*
X03127Y01701D03*
X03365Y01752D03*
Y01700D03*
Y01651D03*
Y01599D03*
Y01550D03*
Y01501D03*
Y01450D03*
Y01400D03*
X03127Y01401D03*
Y01451D03*
Y01501D03*
Y01551D03*
Y01601D03*
Y01651D03*
X03195Y02354D03*
X03110Y02972D03*
X03410Y01400D03*
X03556Y01584D03*
Y01687D03*
X03555Y01950D03*
Y02067D03*
X03624Y01582D03*
X03270Y02865D03*
X02691Y03196D03*
X03650Y03145D03*
X03715Y03010D03*
X03260Y02475D03*
X03265Y02555D03*
X03075Y02695D03*
X03015Y02605D03*
X03235Y02580D03*
X02875Y03185D03*
X03020Y03330D03*
X03070Y03375D03*
X03150Y03455D03*
X03230Y03545D03*
Y03500D03*
X03030Y03545D03*
X03520Y02808D03*
X03560Y02845D03*
X03380Y03330D03*
X03055Y02780D03*
X03235Y01975D03*
Y01930D03*
X03350Y01985D03*
X03385Y02060D03*
X03525Y02155D03*
X03200Y01800D03*
X02730Y02455D03*
X02835Y02583D03*
X03020Y02460D03*
X02994Y02500D03*
X02961Y02474D03*
X02932Y02533D03*
X02935Y02600D03*
X03235Y01885D03*
X02888Y02524D03*
X02935Y02645D03*
X03235Y01845D03*
X03379Y02726D03*
X03385Y02681D03*
X03646Y03306D03*
X03656Y02739D03*
X03660Y01715D03*
Y01810D03*
Y01850D03*
X03725Y01875D03*
X03600Y03380D03*
X03610Y03420D03*
X03230Y03455D03*
X03515Y01825D03*
X02970Y01920D03*
X03560Y03605D03*
X03525Y03625D03*
X02521Y03197D03*
X02460Y03135D03*
X02625Y03130D03*
X02658Y03163D03*
X02491Y03166D03*
X02556Y03229D03*
X02724D03*
X02615Y03285D03*
X02775D03*
X02170Y02620D03*
X02140Y02650D03*
X02100Y02695D03*
X02065Y02665D03*
X02425Y03095D03*
X02630Y03080D03*
X02200Y02590D03*
X02065Y02620D03*
X02060Y02445D03*
X02230Y02560D03*
Y02520D03*
Y02480D03*
X02923Y01587D03*
Y01480D03*
X02972Y01686D03*
X02855Y01480D03*
Y01705D03*
Y01835D03*
Y01965D03*
X03740Y03245D03*
X03780D03*
X03670Y03365D03*
X03805Y03215D03*
X03780Y03180D03*
X03640Y03390D03*
X04380Y03065D03*
X04235Y03230D03*
X02805Y03440D03*
X03530Y03080D03*
X03065Y03325D03*
X02895Y03445D03*
X03751Y02837D03*
X03521Y02933D03*
X03795Y02925D03*
X03379Y02097D03*
X03027Y02276D03*
X04094Y02476D03*
X04429Y02498D03*
X04326Y02078D03*
X04201Y02107D03*
X04393Y02210D03*
X03820Y01777D03*
X03932Y02304D03*
X03126Y03058D03*
X03014Y03125D03*
X02980Y03092D03*
X02947Y03060D03*
X02430Y02140D03*
Y02025D03*
X03120Y03380D03*
X02945Y03220D03*
X03580Y03165D03*
X03870Y02660D03*
X02805Y03315D03*
X02795Y03510D03*
X02868Y03584D03*
X02795Y03595D03*
X02655Y03650D03*
X02795D03*
X02725D03*
X03495Y02565D03*
X03087Y03034D03*
X03110Y03115D03*
X03105Y03210D03*
X03160D03*
X03155Y03355D03*
X03205D03*
X03050Y03640D03*
X02930Y03510D03*
X02990Y03545D03*
X03175Y03765D03*
X03130Y03640D03*
X03270Y03645D03*
X02623Y02751D03*
X02533Y02660D03*
X02570D03*
X02805Y01680D03*
X02785Y01770D03*
X03520Y01480D03*
X02975D03*
X03085Y01400D03*
X04165Y01905D03*
X03855Y01615D03*
X03895D03*
X02740Y02811D03*
X02425Y01955D03*
X03625Y03115D03*
X03560Y03110D03*
X03962Y02657D03*
X03882Y02782D03*
X03797Y02691D03*
X03823Y02719D03*
X03363Y03436D03*
X04025Y02760D03*
X04129Y02761D03*
X03244Y01428D03*
X03246Y01576D03*
X03245Y01728D03*
X02373Y01816D03*
X02539Y01768D03*
X02538Y02319D03*
Y02466D03*
X02862Y02276D03*
X04006Y02120D03*
X04104Y01903D03*
X04022Y02046D03*
X03918Y02357D03*
X03157Y02380D03*
X03135Y02417D03*
X03174Y02416D03*
X03214Y02415D03*
X03246Y02439D03*
X03240Y02741D03*
X04097Y03132D03*
X04012Y03246D03*
X03805Y03708D03*
X03986Y01834D03*
X03162Y02816D03*
X03433Y02850D03*
X04084Y03184D03*
X03566Y02345D03*
X03870Y02379D03*
X03331Y03401D03*
X04020Y02401D03*
X04233Y02530D03*
X03329Y03194D03*
X03288Y03349D03*
X02231Y02631D03*
X02233Y02683D03*
X02491Y02659D03*
X02402Y02852D03*
X03042Y02846D03*
X02826Y02765D03*
X03182Y02929D03*
X03006Y02984D03*
X03048Y02983D03*
X03072Y02932D03*
X02559Y02738D03*
X02230Y02990D03*
X02809Y03061D03*
X02770D03*
X02671Y03080D03*
X02408Y02969D03*
X02448Y02951D03*
X02830Y02664D03*
X02782Y02726D03*
X02645Y02660D03*
X02529Y02820D03*
M02*