%FSDAX24Y24*%
%MOIN*%
%SFA1B1*%

%IPPOS*%
%AMD13*
4,1,4,0.006900,-0.023600,0.023600,-0.006900,-0.006900,0.023600,-0.023600,0.006900,0.006900,-0.023600,0.0*
1,1,0.023600,0.015300,-0.015300*
1,1,0.023600,-0.015300,0.015300*
%
%AMD17*
4,1,4,-0.001300,0.029200,-0.029200,0.001300,0.001300,-0.029200,0.029200,-0.001300,-0.001300,0.029200,0.0*
%
%AMD18*
4,1,4,0.029200,0.001300,0.001300,0.029200,-0.029200,-0.001300,-0.001300,-0.029200,0.029200,0.001300,0.0*
%
%ADD10R,0.039400X0.043300*%
%ADD11R,0.043300X0.039400*%
%ADD12R,0.031500X0.031500*%
G04~CAMADD=13~3~0.0~0.0~236.0~669.0~0.0~0.0~0~0.0~0.0~0.0~0.0~0~0.0~0.0~0.0~0.0~0~0.0~0.0~0.0~225.0~540.0~540.0*
%ADD13D13*%
%ADD14O,0.023600X0.078700*%
%ADD15O,0.086600X0.023600*%
%ADD16R,0.027600X0.015700*%
G04~CAMADD=17~9~0.0~0.0~394.0~433.0~0.0~0.0~0~0.0~0.0~0.0~0.0~0~0.0~0.0~0.0~0.0~0~0.0~0.0~0.0~45.0~584.0~583.0*
%ADD17D17*%
G04~CAMADD=18~9~0.0~0.0~394.0~433.0~0.0~0.0~0~0.0~0.0~0.0~0.0~0~0.0~0.0~0.0~0.0~0~0.0~0.0~0.0~315.0~584.0~583.0*
%ADD18D18*%
%ADD19R,0.035400X0.027600*%
%ADD20R,0.059100X0.059100*%
%ADD21C,0.059100*%
%ADD22R,0.011800X0.049200*%
%ADD23R,0.013800X0.049200*%
%ADD24R,0.086600X0.078700*%
%ADD25R,0.051200X0.059100*%
%ADD26R,0.059100X0.051200*%
%LNde-020717_paste_top-1*%
%LPD*%
G54D10*
X019450Y018435D03*
Y017765D03*
X019400Y006200D03*
Y006869D03*
X009250Y008665D03*
Y009335D03*
X013900Y015035D03*
Y014365D03*
X021650Y006935D03*
Y006265D03*
X006600Y004300D03*
Y003631D03*
X012700Y014365D03*
Y015035D03*
X013300Y014365D03*
Y015035D03*
X024800Y014105D03*
Y013435D03*
Y014965D03*
Y015635D03*
X015070Y017545D03*
Y016875D03*
X024100Y009028D03*
Y008359D03*
X022600Y009028D03*
Y008359D03*
X005690Y010145D03*
Y009475D03*
X007200Y003631D03*
Y004300D03*
X005690Y011595D03*
Y010925D03*
X014040Y011045D03*
Y011715D03*
X009850Y009335D03*
Y008665D03*
X011600Y015435D03*
Y014765D03*
X018650Y011365D03*
Y012035D03*
G54D11*
X023280Y007722D03*
X022610D03*
X020035Y012050D03*
X019365D03*
X020855Y005610D03*
X021525D03*
X006975Y010160D03*
X006305D03*
Y009460D03*
X006975D03*
X006565Y004900D03*
X007235D03*
X007215Y005600D03*
X006545D03*
X007235Y006300D03*
X006565D03*
X007235Y006900D03*
X006565D03*
X006975Y011610D03*
X006305D03*
X007235Y007600D03*
X006565D03*
X007235Y008200D03*
X006565D03*
X007235Y008800D03*
X006565D03*
X009215Y024550D03*
X009885D03*
X006305Y010910D03*
X006975D03*
X013335Y024350D03*
X012665D03*
X023305Y006560D03*
X022635D03*
X023305Y007140D03*
X022635D03*
X020963Y018454D03*
X020294D03*
X020963Y017060D03*
X020294D03*
X020085Y005600D03*
X019415D03*
X020835Y007000D03*
X020165D03*
X007335Y002800D03*
X006665D03*
X007915Y011050D03*
X008585D03*
X015525Y025260D03*
X014855D03*
X009185Y001220D03*
X009855D03*
X009165Y002200D03*
X009835D03*
X009165Y003450D03*
X009835D03*
X009165Y004700D03*
X009835D03*
X009165Y005950D03*
X009835D03*
X009165Y007200D03*
X009835D03*
X016835Y008974D03*
X016165D03*
X017085Y008250D03*
X016415D03*
X017085Y007000D03*
X016415D03*
X019365Y011350D03*
X020035D03*
X016935Y005920D03*
X016265D03*
X016735Y004300D03*
X016065D03*
X016835Y003379D03*
X016165D03*
X016835Y002164D03*
X016165D03*
X016835Y001150D03*
X016165D03*
X009885Y010050D03*
X009215D03*
G54D12*
X010850Y025145D03*
Y024555D03*
G54D13*
X017093Y019243D03*
X017446Y019596D03*
X017800Y019950D03*
X018154Y020304D03*
X015102Y021233D03*
X015456Y021587D03*
X015810Y021940D03*
X016163Y022294D03*
G54D14*
X012791Y016316D03*
X013291D03*
X013791D03*
X014291D03*
X012791Y018284D03*
X013291D03*
X013791D03*
X014291D03*
G54D15*
X019460Y009300D03*
Y008800D03*
Y008300D03*
Y007800D03*
X021350Y009300D03*
Y008800D03*
Y008300D03*
Y007800D03*
X005600Y005100D03*
Y005600D03*
Y006100D03*
Y006600D03*
Y007100D03*
Y007600D03*
Y008100D03*
Y008600D03*
X003710Y005100D03*
Y005600D03*
Y006100D03*
Y006600D03*
Y007100D03*
Y007600D03*
Y008100D03*
Y008600D03*
G54D16*
X005094Y009554D03*
Y009810D03*
Y010066D03*
X004286D03*
Y009554D03*
X005094Y010964D03*
Y011220D03*
Y011476D03*
X004286D03*
Y010964D03*
G54D17*
X018120Y021991D03*
X017647Y022464D03*
X019387Y023263D03*
X018913Y023737D03*
X020029Y020082D03*
X019556Y020555D03*
X013163Y022707D03*
X013637Y022233D03*
X015137Y020063D03*
X014663Y020537D03*
X018107Y022924D03*
X018580Y022450D03*
X020016Y021014D03*
X020489Y020541D03*
X017937Y017613D03*
X017463Y018087D03*
X015267Y019033D03*
X014793Y019507D03*
G54D18*
X020440Y019622D03*
X020913Y020095D03*
X011163Y021763D03*
X011637Y022237D03*
X017747Y023697D03*
X017273Y023223D03*
X019487Y021537D03*
X019013Y021063D03*
X017437Y024437D03*
X016963Y023963D03*
X016737Y014967D03*
X016263Y014493D03*
X013663Y012963D03*
X014137Y013437D03*
X012537Y013037D03*
X012063Y012563D03*
X012117Y013457D03*
X011643Y012983D03*
X018323Y016673D03*
X017850Y016200D03*
X012163Y022763D03*
X012637Y023237D03*
X010263Y020813D03*
X010737Y021287D03*
X008863Y019363D03*
X009337Y019837D03*
X013043Y020903D03*
X013517Y021377D03*
G54D19*
X012278Y004480D03*
X012790D03*
X013846D03*
X013334D03*
X012278Y003960D03*
X012790D03*
X012278Y003460D03*
X012790D03*
X012278Y002960D03*
X012790D03*
X012278Y002460D03*
X012790D03*
X012278Y001960D03*
X012790D03*
X012278Y001460D03*
X012790D03*
X012278Y000960D03*
X012790D03*
X011056Y001250D03*
X010544D03*
X014994D03*
X015506D03*
X013846Y000960D03*
X013334D03*
X013846Y001460D03*
X013334D03*
X013846Y001960D03*
X013334D03*
X013846Y002460D03*
X013334D03*
X013846Y002960D03*
X013334D03*
X013846Y003460D03*
X013334D03*
X013846Y003960D03*
X013334D03*
G54D20*
X009850Y018100D03*
G54D21*
X008850Y018100D03*
X007850D03*
G54D22*
X009437Y016050D03*
X009240D03*
X009043D03*
X008847D03*
X008650D03*
X008453D03*
X008256D03*
X008059D03*
X007862D03*
X007666D03*
X007469D03*
X007272D03*
X007075D03*
X006878D03*
X006681D03*
X006484D03*
X006288D03*
X006091D03*
X005894D03*
X005697D03*
X005500D03*
X005303D03*
X005106D03*
X004910D03*
X004713D03*
X004516D03*
X004319D03*
X004122D03*
X003925D03*
X003729D03*
X003532D03*
X003335D03*
X003138D03*
X002941D03*
X002744D03*
X002547D03*
X002351D03*
X002154D03*
X001957D03*
X001760D03*
G54D23*
X022748Y011800D03*
X022945D03*
X023142D03*
X023339D03*
X023536D03*
X023733D03*
X023929D03*
X024126D03*
X024323D03*
X024530D03*
G54D24*
X022750Y013409D03*
Y014591D03*
X023650Y017409D03*
Y018591D03*
X022200Y017409D03*
Y018591D03*
G54D25*
X020176Y017750D03*
X020924D03*
X020126Y006300D03*
X020874D03*
G54D26*
X023345Y008398D03*
Y009146D03*
X017950Y011226D03*
Y011974D03*
X017150Y011226D03*
Y011974D03*
M02*